<?xml version="1.0" standalone="no"?>
<!DOCTYPE svg PUBLIC "-//W3C//DTD SVG 1.1//EN" "http://www.w3.org/Graphics/SVG/1.1/DTD/svg11.dtd" >
<svg xmlns="http://www.w3.org/2000/svg" xmlns:xlink="http://www.w3.org/1999/xlink" version="1.1">
<metadata>
Created by FontForge 20161003 at Mon Mar  4 17:32:10 2019
 By www-data
Copyright (c) 2015 by Mattox Shuler. All rights reserved.
</metadata>
<defs>
<font id="TerminaMedium" horiz-adv-x="793" >
  <font-face 
    font-family="TerminaMedium"
    font-weight="500"
    font-stretch="normal"
    units-per-em="1000"
    panose-1="0 0 6 0 0 0 0 0 0 0"
    ascent="800"
    descent="-200"
    x-height="548"
    cap-height="700"
    bbox="-396 -336 1565 1089"
    underline-thickness="50"
    underline-position="-150"
    unicode-range="U+0020-FB02"
  />
<missing-glyph horiz-adv-x="505" 
d="M414 770v-1010h-320v1010h320zM336 702h-166v-33h65v-37h-66v-34h167v34h-66v37h66v33zM270 572h-101v-105h167v34h-66v71zM235 538v-37h-33v37h33zM336 440h-167v-34h66v-37h-66v-33h101v70h66v34zM336 379h-33v-67h-134v-34h167v101zM336 256h-101v-57h35v24h33v-48
h-101v81h-33v-114h167v114zM336 81h-167v-114h167v114zM303 48v-48h-101v48h101zM336 -56h-167v-34h70l-70 -47v-33h167v33h-103l71 47h32v34z" />
    <glyph glyph-name="fi" unicode="fi" horiz-adv-x="799" 
d="M345 678q-104 0 -104 -85v-45h241v-92h-239v-456h-117v456h-106v92h106v30q0 90 55.5 136t142.5 46q96 0 164 -43l-35 -73q-52 34 -108 34zM649 623q-32 0 -53.5 19t-21.5 46q0 28 21.5 46.5t53.5 18.5t53 -18.5t21 -46.5q0 -27 -21 -46t-53 -19zM592 0v548h116v-548
h-116z" />
    <glyph glyph-name="fl" unicode="fl" horiz-adv-x="801" 
d="M345 678q-104 0 -104 -85v-45h241v-92h-239v-456h-117v456h-106v92h106v30q0 90 55.5 136t142.5 46q96 0 164 -43l-35 -73q-52 34 -108 34zM592 740h116v-740h-116v740z" />
    <glyph glyph-name=".notdef" horiz-adv-x="505" 
d="M414 770v-1010h-320v1010h320zM336 702h-166v-33h65v-37h-66v-34h167v34h-66v37h66v33zM270 572h-101v-105h167v34h-66v71zM235 538v-37h-33v37h33zM336 440h-167v-34h66v-37h-66v-33h101v70h66v34zM336 379h-33v-67h-134v-34h167v101zM336 256h-101v-57h35v24h33v-48
h-101v81h-33v-114h167v114zM336 81h-167v-114h167v114zM303 48v-48h-101v48h101zM336 -56h-167v-34h70l-70 -47v-33h167v33h-103l71 47h32v34z" />
    <glyph glyph-name=".null" horiz-adv-x="0" 
 />
    <glyph glyph-name="nonmarkingreturn" horiz-adv-x="333" 
 />
    <glyph glyph-name="space" unicode=" " horiz-adv-x="300" 
 />
    <glyph glyph-name="exclam" unicode="!" horiz-adv-x="323" 
d="M86 700h143l-21 -490h-100zM158 -11q-34 0 -55.5 19.5t-21.5 48.5q0 30 22 50t55 20t54.5 -20t21.5 -50q0 -29 -21.5 -48.5t-54.5 -19.5z" />
    <glyph glyph-name="quotedbl" unicode="&#x22;" horiz-adv-x="476" 
d="M80 740h101v-293h-101v293zM294 740h101v-293h-101v293z" />
    <glyph glyph-name="numbersign" unicode="#" horiz-adv-x="950" 
d="M902 442h-170l-49 -171h184v-82h-208l-54 -189h-101l54 189h-260l-54 -189h-101l54 189h-149v82h172l49 171h-186v82h209l51 176h101l-51 -176h261l50 176h101l-50 -176h147v-82zM582 271l49 171h-261l-49 -171h261z" />
    <glyph glyph-name="dollar" unicode="$" horiz-adv-x="880" 
d="M832 217q0 -96 -88.5 -154.5t-248.5 -63.5v-103h-84v104q-220 15 -365 141l75 80q119 -103 290 -118v204q-75 7 -130 18t-106 31.5t-77.5 55.5t-26.5 83q0 95 95.5 148t244.5 58v93h84v-95q183 -15 304 -113l-74 -79q-87 75 -230 89v-185q65 -6 112.5 -14t92 -22
t72 -34.5t44 -51.5t16.5 -72zM193 505q0 -24 15 -40t47.5 -25t66.5 -14t89 -9v182q-42 -1 -78 -6t-69 -15.5t-52 -29t-19 -43.5zM495 101q216 6 216 106q0 46 -48.5 64t-167.5 29v-199z" />
    <glyph glyph-name="percent" unicode="%" horiz-adv-x="917" 
d="M220 389q-79 0 -130 46.5t-51 115.5t51 115.5t130 46.5t129.5 -46.5t50.5 -115.5t-50.5 -115.5t-129.5 -46.5zM683 700h95l-543 -700h-95zM220 461q45 0 73 23.5t28 66.5t-28 67t-73 24t-73 -24t-28 -67t28 -66.5t73 -23.5zM698 -13q-80 0 -130.5 46.5t-50.5 115.5
t50.5 115.5t130.5 46.5q79 0 129.5 -46.5t50.5 -115.5t-50.5 -115.5t-129.5 -46.5zM698 58q45 0 72.5 24t27.5 67t-27.5 66.5t-72.5 23.5t-73 -23.5t-28 -66.5t28 -67t73 -24z" />
    <glyph glyph-name="ampersand" unicode="&#x26;" horiz-adv-x="903" 
d="M902 0h-163l-63 47q-101 -67 -260 -67q-153 0 -255.5 67t-102.5 167q0 60 38.5 110.5t106.5 78.5q-61 56 -61 125q0 85 73.5 138.5t193.5 53.5q223 0 313 -184l-101 -41q-35 68 -85.5 99.5t-125.5 31.5q-70 0 -110 -25.5t-40 -69.5q0 -8 2 -16t4 -14.5t7.5 -14t9.5 -13
t13 -14t14.5 -13.5t18 -15t19 -15t22 -17t23.5 -18l274 -204q43 61 44 154h111q-5 -130 -73 -216zM423 74q101 0 168 36l-311 231l-12 9q-89 -43 -89 -126q0 -72 69.5 -111t174.5 -39z" />
    <glyph glyph-name="quotesingle" unicode="'" horiz-adv-x="262" 
d="M80 740h101v-293h-101v293z" />
    <glyph glyph-name="parenleft" unicode="(" horiz-adv-x="439" 
d="M158 290q0 -131 65 -222.5t175 -126.5l-35 -80q-138 36 -223.5 153t-85.5 276t85.5 276t223.5 153l35 -80q-110 -35 -175 -126t-65 -223z" />
    <glyph glyph-name="parenright" unicode=")" horiz-adv-x="439" 
d="M282 290q0 132 -65.5 222.5t-175.5 126.5l35 80q138 -36 224 -153t86 -276t-86 -276t-224 -153l-35 80q110 35 175.5 126.5t65.5 222.5z" />
    <glyph glyph-name="asterisk" unicode="*" horiz-adv-x="587" 
d="M367 266l-73 171l-74 -171l-84 49l110 149l-184 -22v99l184 -21l-110 148l84 48l74 -171l73 171l85 -48l-111 -148l184 21v-99l-184 22l111 -149z" />
    <glyph glyph-name="plus" unicode="+" horiz-adv-x="738" 
d="M657 346v-91h-238v-212h-98v212h-240v91h240v212h98v-212h238z" />
    <glyph glyph-name="comma" unicode="," horiz-adv-x="280" 
d="M140 127q35 0 57 -23.5t22 -59.5q0 -48 -27.5 -103.5t-76.5 -93.5l-31 33q62 63 71 114q-5 -5 -20 -5q-30 0 -50 19.5t-20 49.5q0 29 21 49t54 20z" />
    <glyph glyph-name="hyphen" unicode="-" horiz-adv-x="599" 
d="M521 251h-443v99h443v-99z" />
    <glyph glyph-name="period" unicode="." horiz-adv-x="275" 
d="M137 -11q-33 0 -54.5 19.5t-21.5 48.5q0 30 21.5 50t54.5 20t55 -20t22 -50q0 -29 -21.5 -48.5t-55.5 -19.5z" />
    <glyph glyph-name="slash" unicode="/" horiz-adv-x="711" 
d="M158 -100h-129l524 880h130z" />
    <glyph glyph-name="zero" unicode="0" horiz-adv-x="944" 
d="M472 -21q-195 0 -305 99t-110 272t110 272t305 99t305 -99t110 -272t-110 -272t-305 -99zM472 85q138 0 215.5 68t77.5 197t-77.5 197t-215.5 68t-215.5 -68t-77.5 -197t77.5 -197t215.5 -68z" />
    <glyph glyph-name="one" unicode="1" horiz-adv-x="470" 
d="M244 0v561q-83 -65 -215 -86v104q128 19 244 121h91v-700h-120z" />
    <glyph glyph-name="two" unicode="2" horiz-adv-x="818" 
d="M62 549q48 76 142.5 123.5t211.5 47.5q85 0 158.5 -23t123 -72.5t49.5 -116.5q0 -84 -70.5 -137.5t-207.5 -98.5q-245 -85 -276 -172h570v-100h-719v55q16 93 109 172t248 132q42 15 62 22t52 20t47 22.5t32.5 23t24 28t6.5 31.5q0 55 -63 85t-150 30q-166 0 -271 -134z
" />
    <glyph glyph-name="three" unicode="3" horiz-adv-x="833" 
d="M136 204q38 -59 113 -92t173 -33q97 0 162.5 31.5t65.5 93.5q0 43 -34 68.5t-87 35t-130 9.5h-97v94h97q98 0 163 26.5t65 78.5q0 35 -32.5 59.5t-78.5 35t-99 10.5q-188 0 -270 -117l-93 57q116 159 357 159q143 0 241 -51.5t98 -141.5q0 -65 -50.5 -109t-120.5 -51
q80 -11 139 -53t59 -119q0 -100 -101 -157.5t-254 -57.5q-130 0 -228.5 45t-157.5 124z" />
    <glyph glyph-name="four" unicode="4" horiz-adv-x="867" 
d="M833 257v-96h-147v-161h-119v161h-543v74l555 465h107v-443h147zM192 257h376v314z" />
    <glyph glyph-name="five" unicode="5" horiz-adv-x="834" 
d="M123 208q47 -56 128.5 -91t180.5 -35q108 0 172.5 33.5t64.5 101.5t-67.5 102.5t-185.5 34.5q-124 0 -249 -52l-93 38l60 360h585v-100h-491l-35 -212q115 61 265 61q92 0 165.5 -24.5t121 -78.5t47.5 -131q0 -102 -95.5 -169t-264.5 -67q-122 0 -222.5 43t-167.5 118z
" />
    <glyph glyph-name="six" unicode="6" horiz-adv-x="885" 
d="M515 451q82 0 152.5 -23t119 -77t48.5 -130q0 -108 -98.5 -175t-266.5 -67q-192 0 -302.5 100t-110.5 271t110.5 271t302.5 100q223 0 340 -122l-79 -70q-95 96 -252 96q-139 0 -219.5 -67t-80.5 -208q0 -17 1 -25q55 59 143.5 92.5t191.5 33.5zM470 75q112 0 178 38
t66 109q0 70 -61.5 103t-162.5 33q-83 0 -163 -30.5t-133 -86.5q52 -166 276 -166z" />
    <glyph glyph-name="seven" unicode="7" horiz-adv-x="755" 
d="M194 0l393 597h-564v103h713v-82l-403 -618h-139z" />
    <glyph glyph-name="eight" unicode="8" horiz-adv-x="886" 
d="M627 368q80 -9 141 -53.5t61 -121.5q0 -99 -106.5 -156.5t-279.5 -57.5q-174 0 -280 57.5t-106 156.5q0 77 61 121.5t141 53.5q-74 7 -124.5 49t-50.5 109q0 91 101.5 143t257.5 52q155 0 257 -52t102 -143q0 -67 -50.5 -109t-124.5 -49zM205 517q0 -56 67 -82.5
t171 -26.5t171 26.5t67 82.5t-67 83t-171 27t-171 -27t-67 -83zM442 73q121 0 191.5 30.5t70.5 93.5q0 60 -71.5 92t-190.5 32q-118 0 -189.5 -32t-71.5 -92t71.5 -92t189.5 -32z" />
    <glyph glyph-name="nine" unicode="9" horiz-adv-x="885" 
d="M415 721q192 0 302.5 -100t110.5 -271t-110.5 -271t-302.5 -100q-223 0 -340 122l79 70q95 -96 252 -96q139 0 219.5 67t80.5 208q0 17 -1 25q-55 -59 -143.5 -92.5t-191.5 -33.5q-82 0 -152.5 23t-119 77t-48.5 130q0 108 98.5 175t266.5 67zM395 342q82 0 162.5 31
t133.5 86q-52 166 -276 166q-112 0 -178 -38t-66 -109q0 -70 61.5 -103t162.5 -33z" />
    <glyph glyph-name="colon" unicode=":" horiz-adv-x="275" 
d="M137 421q-33 0 -54.5 19.5t-21.5 49.5q0 29 21.5 49t54.5 20t55 -20t22 -49q0 -30 -21.5 -49.5t-55.5 -19.5zM137 -11q-33 0 -54.5 19.5t-21.5 48.5q0 30 21.5 50t54.5 20t55 -20t22 -50q0 -29 -21.5 -48.5t-55.5 -19.5z" />
    <glyph glyph-name="semicolon" unicode=";" horiz-adv-x="277" 
d="M137 421q-33 0 -54.5 19.5t-21.5 49.5q0 29 21.5 49t54.5 20t55 -20t22 -49q0 -30 -21.5 -49.5t-55.5 -19.5zM137 127q35 0 57 -23.5t22 -59.5q0 -48 -27.5 -103.5t-76.5 -93.5l-31 33q62 63 71 114q-5 -5 -19 -5q-30 0 -50.5 19.5t-20.5 49.5q0 29 21.5 49t53.5 20z" />
    <glyph glyph-name="less" unicode="&#x3c;" horiz-adv-x="738" 
d="M621 558l-531 -211v-100l531 -211v99l-425 162l425 162v99z" />
    <glyph glyph-name="equal" unicode="=" horiz-adv-x="738" 
d="M657 378h-576v98h576v-98zM657 135h-576v98h576v-98z" />
    <glyph glyph-name="greater" unicode="&#x3e;" horiz-adv-x="738" 
d="M117 558v-99l425 -162l-425 -162v-99l531 211v100z" />
    <glyph glyph-name="question" unicode="?" horiz-adv-x="745" 
d="M317 211v184q127 9 193.5 36t66.5 84q0 55 -57 81t-140 26q-174 0 -270 -126l-77 65q58 73 147 116t203 43q81 0 151 -21.5t117.5 -69.5t47.5 -113q0 -86 -77.5 -135.5t-205.5 -58.5v-111h-99zM367 -11q-34 0 -55.5 19.5t-21.5 48.5q0 30 22 50t55 20t54.5 -20t21.5 -50
q0 -29 -21.5 -48.5t-54.5 -19.5z" />
    <glyph glyph-name="at" unicode="@" horiz-adv-x="1114" 
d="M554 688q222 0 360.5 -115.5t138.5 -299.5q0 -126 -42 -185.5t-116 -59.5q-57 0 -98 31t-54 79q-35 -55 -101 -87t-141 -32q-116 0 -193 70t-77 185t77 185t193 70q75 0 139 -32t98 -87l25 100h73v-312q0 -122 75 -122q40 0 65.5 50t25.5 147q0 117 -61.5 201.5
t-161.5 125.5t-225 41t-225 -41t-161.5 -125.5t-61.5 -201.5q0 -116 61.5 -200.5t161.5 -125t225 -40.5q181 0 289 76l26 -39q-109 -84 -315 -84q-222 0 -360.5 115t-138.5 298q0 184 138.5 299.5t360.5 115.5zM529 100q68 0 122.5 30.5t84.5 90.5v104q-30 60 -84.5 90.5
t-122.5 30.5q-89 0 -143 -45.5t-54 -127.5q0 -80 54.5 -126.5t142.5 -46.5z" />
    <glyph glyph-name="A" unicode="A" horiz-adv-x="907" 
d="M767 0l-90 169h-449l-89 -169h-130l379 700h132l378 -700h-131zM282 271h342l-171 324z" />
    <glyph glyph-name="B" unicode="B" horiz-adv-x="930" 
d="M684 363q87 -6 139.5 -48t52.5 -123q0 -93 -71 -142.5t-197 -49.5h-502v700h473q118 0 187.5 -46.5t69.5 -131.5q0 -64 -39 -109t-113 -50zM224 600v-195h336q77 0 117 22t40 76t-40 75.5t-117 21.5h-336zM585 100q83 0 125.5 23.5t42.5 80.5t-42.5 80.5t-125.5 23.5
h-361v-208h361z" />
    <glyph glyph-name="C" unicode="C" horiz-adv-x="890" 
d="M487 85q181 0 257 124l111 -55q-52 -80 -147.5 -127.5t-223.5 -47.5q-197 0 -312 99.5t-115 271.5t116 271.5t316 99.5q124 0 219 -47.5t146 -126.5l-112 -56q-75 124 -255 124q-142 0 -225 -68.5t-83 -196.5t83 -196.5t225 -68.5z" />
    <glyph glyph-name="D" unicode="D" horiz-adv-x="944" 
d="M461 700q196 0 311 -94t115 -256t-115 -256t-311 -94h-355v700h355zM452 105q142 0 227 63.5t85 181.5t-85 181.5t-227 63.5h-226v-490h226z" />
    <glyph glyph-name="E" unicode="E" horiz-adv-x="854" 
d="M225 105h578v-105h-697v700h687v-105h-568v-187h478v-105h-478v-198z" />
    <glyph glyph-name="F" unicode="F" horiz-adv-x="823" 
d="M791 594h-565v-206h478v-107h-478v-281h-120v700h685v-106z" />
    <glyph glyph-name="G" unicode="G" horiz-adv-x="949" 
d="M893 379v-222q-50 -80 -153 -129t-242 -49q-207 0 -324 99t-117 272t117 272t322 99q230 0 360 -139l-98 -70q-92 104 -261 104q-150 0 -234 -68t-84 -198t85.5 -198t238.5 -68q203 0 274 112v80h-292v103h408z" />
    <glyph glyph-name="H" unicode="H" horiz-adv-x="980" 
d="M755 700h120v-700h-120v301h-529v-301h-120v700h120v-291h529v291z" />
    <glyph glyph-name="I" unicode="I" horiz-adv-x="331" 
d="M226 0h-120v700h120v-700z" />
    <glyph glyph-name="J" unicode="J" horiz-adv-x="705" 
d="M100 170q31 -44 74.5 -64t111.5 -20q207 0 207 218v396h120v-405q0 -141 -82.5 -228.5t-244.5 -87.5q-188 0 -277 121z" />
    <glyph glyph-name="K" unicode="K" horiz-adv-x="888" 
d="M885 0h-147l-303 354l-209 -169v-185h-120v700h120v-384l476 384h162l-338 -276z" />
    <glyph glyph-name="L" unicode="L" horiz-adv-x="763" 
d="M226 106h516v-106h-636v700h120v-594z" />
    <glyph glyph-name="M" unicode="M" horiz-adv-x="1120" 
d="M886 700h129v-700h-120v537l-333 -404h-7l-333 404v-537h-116v700h130l325 -401z" />
    <glyph glyph-name="N" unicode="N" horiz-adv-x="980" 
d="M758 700h117v-700h-106l-547 552v-552h-116v700h128l524 -531v531z" />
    <glyph glyph-name="O" unicode="O" horiz-adv-x="984" 
d="M492 -21q-202 0 -318.5 99t-116.5 272t116.5 272t318.5 99t318.5 -99t116.5 -272t-116.5 -272t-318.5 -99zM492 85q144 0 228 69.5t84 195.5t-84 195.5t-228 69.5t-228.5 -69.5t-84.5 -195.5t84 -195.5t229 -69.5z" />
    <glyph glyph-name="P" unicode="P" horiz-adv-x="899" 
d="M579 700q129 0 206 -60.5t77 -168.5q0 -109 -76.5 -169t-206.5 -60h-353v-242h-120v700h473zM569 345q170 0 170 125t-170 125h-343v-250h343z" />
    <glyph glyph-name="Q" unicode="Q" horiz-adv-x="984" 
d="M927 350q0 -194 -143 -293l97 -105l-69 -62l-114 123q-87 -34 -206 -34q-202 0 -318.5 99t-116.5 272t116.5 272t318.5 99t318.5 -99t116.5 -272zM492 85q70 0 124 16l-104 112l70 62l123 -133q99 71 99 208q0 126 -84 195.5t-228 69.5t-228.5 -69.5t-84.5 -195.5
t84 -195.5t229 -69.5z" />
    <glyph glyph-name="R" unicode="R" horiz-adv-x="928" 
d="M886 0h-148l-217 254h-295v-254h-120v700h476q126 0 204.5 -58.5t78.5 -164.5q0 -88 -55.5 -144t-150.5 -73zM225 357h349q168 0 168 119t-168 119h-349v-238z" />
    <glyph glyph-name="S" unicode="S" horiz-adv-x="868" 
d="M456 414q88 -7 151 -19.5t115 -35.5t78 -61t26 -91q0 -102 -97.5 -165t-271.5 -63q-253 0 -418 142l75 85q137 -123 348 -123q117 0 179.5 29.5t62.5 84.5q0 51 -60.5 72.5t-203.5 33.5q-80 7 -141.5 19t-117.5 34t-86 60t-30 89q0 101 102.5 158.5t259.5 57.5
q112 0 206.5 -31t158.5 -85l-76 -82q-106 92 -287 94q-60 1 -112.5 -8.5t-91.5 -34t-39 -61.5q0 -50 65.5 -69t204.5 -30z" />
    <glyph glyph-name="T" unicode="T" horiz-adv-x="796" 
d="M776 700v-105h-319v-595h-120v595h-317v105h756z" />
    <glyph glyph-name="U" unicode="U" horiz-adv-x="946" 
d="M734 700h120v-370q0 -159 -99.5 -255t-281.5 -96q-181 0 -280.5 96t-99.5 255v370h120v-362q0 -119 68 -185.5t192 -66.5q125 0 193 66.5t68 185.5v362z" />
    <glyph glyph-name="V" unicode="V" horiz-adv-x="872" 
d="M9 700h133l295 -577l295 577h131l-363 -700h-128z" />
    <glyph glyph-name="W" unicode="W" horiz-adv-x="1219" 
d="M1071 700h125l-256 -700h-124l-206 565l-207 -565h-123l-257 700h128l193 -560l208 560h118l207 -560z" />
    <glyph glyph-name="X" unicode="X" horiz-adv-x="821" 
d="M807 700l-322 -346l326 -354h-151l-252 272l-253 -272h-144l325 353l-322 347h151l249 -268l248 268h145z" />
    <glyph glyph-name="Y" unicode="Y" horiz-adv-x="831" 
d="M11 700h139l267 -355l265 355h138l-344 -458v-242h-120v242z" />
    <glyph glyph-name="Z" unicode="Z" horiz-adv-x="852" 
d="M788 700v-84l-561 -513h577v-103h-757v84l561 513h-543v103h723z" />
    <glyph glyph-name="bracketleft" unicode="[" horiz-adv-x="439" 
d="M398 611h-194v-642h194v-89h-292v820h292v-89z" />
    <glyph glyph-name="backslash" unicode="\" horiz-adv-x="731" 
d="M553 -100l-525 880h130l524 -880h-129z" />
    <glyph glyph-name="bracketright" unicode="]" horiz-adv-x="439" 
d="M41 611v89h292v-820h-292v89h194v642h-194z" />
    <glyph glyph-name="asciicircum" unicode="^" horiz-adv-x="738" 
d="M96 260h106l167 338l166 -338h107l-226 440h-95z" />
    <glyph glyph-name="underscore" unicode="_" horiz-adv-x="645" 
d="M642 -146h-639v90h639v-90z" />
    <glyph glyph-name="grave" unicode="`" horiz-adv-x="584" 
d="M123 935h168l156 -155h-98z" />
    <glyph glyph-name="a" unicode="a" horiz-adv-x="753" 
d="M361 568q145 0 226.5 -68t81.5 -195v-199q0 -62 25 -106h-121q-21 36 -21 77v1q-35 -43 -97 -70.5t-142 -27.5q-48 0 -93.5 10t-87.5 31.5t-68 60.5t-26 90t26 89.5t68 60t88 31.5t93 10q80 0 142 -27.5t97 -70.5v40q0 171 -213 171q-114 0 -208 -55l-42 79
q51 31 124.5 49.5t147.5 18.5zM554 163v17q-57 99 -219 99q-43 0 -80.5 -7.5t-69.5 -33t-32 -66.5q0 -32 17.5 -54.5t46.5 -33.5t58 -15.5t60 -4.5q70 0 129 23.5t90 75.5z" />
    <glyph glyph-name="b" unicode="b" horiz-adv-x="807" 
d="M459 568q134 0 215 -81t81 -214t-81 -213t-215 -80q-85 0 -150 32t-102 85v-97h-117v740h117v-290q37 54 102 86t150 32zM429 79q102 0 157 50.5t55 143.5q0 94 -55 144.5t-157 50.5q-150 0 -222 -112v-164q73 -113 222 -113z" />
    <glyph glyph-name="c" unicode="c" horiz-adv-x="720" 
d="M688 124q-84 -145 -298 -145q-157 0 -248 79.5t-91 214.5q0 136 90.5 216t248.5 80q209 0 295 -141l-110 -47q-50 91 -184 91q-101 0 -163 -51t-62 -148q0 -95 62 -146t163 -51q137 0 187 94z" />
    <glyph glyph-name="d" unicode="d" horiz-adv-x="807" 
d="M348 568q85 0 150 -32t102 -86v290h117v-740h-117v97q-37 -53 -102 -85t-150 -32q-134 0 -215 80t-81 213t81 214t215 81zM378 79q149 0 222 113v164q-72 112 -222 112q-102 0 -157 -50.5t-55 -144.5q0 -93 55 -143.5t157 -50.5z" />
    <glyph glyph-name="e" unicode="e" horiz-adv-x="759" 
d="M166 248q8 -88 69.5 -132.5t166.5 -44.5q74 0 126 19t98 60l68 -73q-110 -98 -298 -98q-163 0 -254 79t-91 215q0 137 89.5 216.5t247.5 79.5q150 0 237.5 -76.5t87.5 -218.5q0 -17 -3 -26h-544zM389 477q-88 0 -145 -37t-73 -109l429 1q-36 145 -211 145z" />
    <glyph glyph-name="f" unicode="f" horiz-adv-x="499" 
d="M241 593v-45h241v-92h-239v-456h-117v456h-106v92h106v30q0 90 55.5 136t142.5 46q96 0 164 -43l-35 -73q-52 34 -108 34q-104 0 -104 -85z" />
    <glyph glyph-name="g" unicode="g" horiz-adv-x="807" 
d="M717 548v-477q0 -76 -27.5 -133.5t-75.5 -91t-106.5 -50t-125.5 -16.5q-74 0 -151.5 19.5t-123.5 50.5l42 87q92 -60 221 -60q230 0 230 177v51q-38 -54 -106 -85.5t-147 -31.5q-136 0 -216 78.5t-80 210.5q0 133 80 212t216 79q83 0 148.5 -31t104.5 -87v98h117zM378 83
q147 0 222 118v153q-75 118 -222 118q-102 0 -157 -51t-55 -144t55 -143.5t157 -50.5z" />
    <glyph glyph-name="h" unicode="h" 
d="M457 568q121 0 185.5 -70t64.5 -185v-313h-116v305q0 166 -164 166q-150 0 -220 -134v-337h-117v548v192h117v-196v-102q36 59 101.5 92.5t148.5 33.5z" />
    <glyph glyph-name="i" unicode="i" horiz-adv-x="300" 
d="M150 623q-32 0 -53.5 19t-21.5 46q0 28 21.5 46.5t53.5 18.5t53 -18.5t21 -46.5q0 -27 -21 -46t-53 -19zM209 548v-548h-116v548h116z" />
    <glyph glyph-name="j" unicode="j" horiz-adv-x="300" 
d="M150 623q-32 0 -53.5 18.5t-21.5 46.5t21 46t54 18q32 0 53 -18t21 -46t-21 -46.5t-53 -18.5zM91 548h117v-591q0 -82 -48 -129.5t-128 -47.5q-57 0 -108 21l27 86q24 -12 56 -12q39 0 61.5 25t22.5 67v581z" />
    <glyph glyph-name="k" unicode="k" horiz-adv-x="710" 
d="M573 0l-219 266l-147 -120v-146h-117v740h117v-481l340 289h144l-252 -217l268 -331h-134z" />
    <glyph glyph-name="l" unicode="l" horiz-adv-x="302" 
d="M209 0h-116v740h116v-740z" />
    <glyph glyph-name="m" unicode="m" horiz-adv-x="1233" 
d="M912 568q118 0 176.5 -70t58.5 -183v-315h-115v308q0 78 -38.5 120.5t-116.5 42.5q-137 0 -201 -135v-21v-233l1 -82h-116v308q0 78 -38.5 120.5t-116.5 42.5q-135 0 -199 -131v-340h-117v548h117v-106q33 58 94.5 92t139.5 34q89 0 144 -40.5t77 -111.5q30 70 97 111
t153 41z" />
    <glyph glyph-name="n" unicode="n" 
d="M207 0h-117v548h117v-106q36 59 101.5 92.5t148.5 33.5q121 0 185.5 -70t64.5 -185v-313h-116v305q0 166 -164 166q-150 0 -220 -134v-337z" />
    <glyph glyph-name="o" unicode="o" horiz-adv-x="785" 
d="M392 -21q-159 0 -250 79t-91 215q0 137 91 216.5t250 79.5t250 -79.5t91 -216.5q0 -136 -91 -215t-250 -79zM392 77q102 0 164.5 50.5t62.5 145.5q0 96 -62.5 147t-164.5 51q-101 0 -163.5 -51t-62.5 -147q0 -95 62.5 -145.5t163.5 -50.5z" />
    <glyph glyph-name="p" unicode="p" horiz-adv-x="807" 
d="M459 -20q-85 0 -150 32t-102 86v-298h-117v748h117v-98q37 54 102 86t150 32q134 0 215 -80.5t81 -213.5t-81 -213.5t-215 -80.5zM429 469q-149 0 -222 -113v-164q72 -112 222 -112q102 0 157 50t55 144t-55 144.5t-157 50.5z" />
    <glyph glyph-name="q" unicode="q" horiz-adv-x="807" 
d="M348 -20q-134 0 -215.5 80.5t-81.5 213.5t81.5 213.5t215.5 80.5q85 0 149.5 -32t102.5 -86v98h117v-748h-117v298q-38 -54 -102.5 -86t-149.5 -32zM377 469q-101 0 -156.5 -50.5t-55.5 -144.5q0 -93 55 -143.5t157 -50.5q150 0 222 112v164q-73 113 -222 113z" />
    <glyph glyph-name="r" unicode="r" horiz-adv-x="483" 
d="M207 0h-117v548h117v-125q32 65 102 100.5t157 35.5v-102q-94 0 -163 -39.5t-96 -114.5v-303z" />
    <glyph glyph-name="s" unicode="s" horiz-adv-x="700" 
d="M369 330q292 -21 292 -169q0 -80 -76.5 -131t-216.5 -51q-201 0 -330 113l63 69q106 -91 270 -91q80 0 129.5 20.5t49.5 60.5q0 39 -47.5 56.5t-152.5 25.5q-291 21 -291 163q0 80 78 126.5t216 46.5q80 0 155 -24.5t126 -62.5l-61 -76q-91 71 -226 72
q-70 0 -123.5 -17.5t-53.5 -57.5q0 -38 49 -52.5t150 -20.5z" />
    <glyph glyph-name="t" unicode="t" horiz-adv-x="505" 
d="M456 112l31 -81q-77 -51 -169 -51q-84 0 -138 44.5t-54 126.5v304h-106v93h106v127h117v-127h239v-93h-239v-285q0 -44 29.5 -67.5t74.5 -23.5q49 0 109 33z" />
    <glyph glyph-name="u" unicode="u" 
d="M586 548h117v-548h-117v106q-36 -59 -101.5 -92.5t-148.5 -33.5q-121 0 -185.5 70t-64.5 185v313h116v-305q0 -166 164 -166q150 0 220 134v337z" />
    <glyph glyph-name="v" unicode="v" horiz-adv-x="718" 
d="M702 548l-281 -548h-124l-282 548h128l217 -435l217 435h125z" />
    <glyph glyph-name="w" unicode="w" horiz-adv-x="1006" 
d="M865 548h115l-202 -548h-116l-158 429l-160 -429h-117l-202 548h118l150 -422l156 422h110l156 -422z" />
    <glyph glyph-name="x" unicode="x" horiz-adv-x="673" 
d="M653 548l-246 -270l250 -278h-139l-183 207l-184 -207h-135l251 276l-248 272h139l180 -204l181 204h134z" />
    <glyph glyph-name="y" unicode="y" horiz-adv-x="716" 
d="M577 548h123l-414 -748h-122l137 236l-286 512h126l220 -400z" />
    <glyph glyph-name="z" unicode="z" horiz-adv-x="679" 
d="M623 548v-77l-417 -378h429v-94h-593v78l416 378h-402v93h567z" />
    <glyph glyph-name="braceleft" unicode="{" horiz-adv-x="472" 
d="M287 469q0 -82 -41.5 -129t-110.5 -49q70 -4 111 -51t41 -128q0 -67 30 -105t84 -38h30v-89h-44q-93 0 -146.5 52t-53.5 153q0 99 -47 136.5t-126 37.5v63q79 0 126 37.5t47 136.5q0 101 53.5 152.5t146.5 51.5h44v-89h-30q-54 0 -84 -37.5t-30 -104.5z" />
    <glyph glyph-name="bar" unicode="|" horiz-adv-x="306" 
d="M99 -120v820h109v-820h-109z" />
    <glyph glyph-name="braceright" unicode="}" horiz-adv-x="472" 
d="M185 469q0 67 -30 104.5t-84 37.5h-30v89h44q93 0 146.5 -51.5t53.5 -152.5q0 -99 47 -136.5t126 -37.5v-63q-79 0 -126 -37.5t-47 -136.5q0 -101 -53.5 -153t-146.5 -52h-44v89h30q54 0 84 38t30 105q0 81 41 128t111 51q-69 2 -110.5 49t-41.5 129z" />
    <glyph glyph-name="asciitilde" unicode="~" horiz-adv-x="738" 
d="M601 371l61 -66q-23 -33 -65.5 -56.5t-96.5 -23.5q-47 0 -129 28t-128 28q-68 0 -104 -51l-60 66q24 33 65.5 57t95.5 24q46 0 129 -28t129 -28q69 0 103 50z" />
    <glyph glyph-name="exclamdown" unicode="&#xa1;" horiz-adv-x="323" 
d="M158 511q33 0 54.5 -19.5t21.5 -48.5q0 -30 -21.5 -50t-54.5 -20t-55 20t-22 50q0 29 21.5 48.5t55.5 19.5zM86 -200l22 490h100l21 -490h-143z" />
    <glyph glyph-name="cent" unicode="&#xa2;" horiz-adv-x="722" 
d="M674 214q-34 -59 -99 -96t-156 -43v-75h-72v75q-137 10 -214 82t-77 193q0 122 77 194t214 81v75h72v-75q90 -6 154.5 -42.5t99.5 -94.5l-89 -38q-49 78 -165 87v-374q111 9 165 89zM159 350q0 -83 49.5 -130t138.5 -56v372q-89 -9 -138.5 -56t-49.5 -130z" />
    <glyph glyph-name="sterling" unicode="&#xa3;" horiz-adv-x="748" 
d="M290 91h400v-91h-517h-121v91h121v220h-121v84h121v55q0 72 29.5 132.5t94 100t154.5 39.5q72 0 133.5 -27t98.5 -70l-56 -71q-69 71 -163 71q-87 0 -130.5 -50t-43.5 -136v-44h342v-84h-342v-220z" />
    <glyph glyph-name="currency" unicode="&#xa4;" horiz-adv-x="803" 
d="M704 356q0 -112 -68 -185l97 -97l-58 -54l-104 101q-71 -38 -169 -38q-99 0 -170 38l-104 -101l-58 54l97 97q-68 71 -68 185q0 103 57 172l-86 86l58 54l89 -86q74 47 185 47q110 0 184 -47l89 86l58 -54l-86 -86q57 -69 57 -172zM193 356q0 -91 56.5 -139t152.5 -48
t152 48t56 139t-56 139t-152 48t-152.5 -48t-56.5 -139z" />
    <glyph glyph-name="yen" unicode="&#xa5;" horiz-adv-x="855" 
d="M823 700l-281 -366h175v-59h-220l-8 -11v-63h228v-58h-228v-143h-120v143h-229v58h229v63l-9 11h-220v59h175l-281 366h138l258 -346l256 346h137z" />
    <glyph glyph-name="brokenbar" unicode="&#xa6;" horiz-adv-x="306" 
d="M99 372v328h109v-328h-109zM208 213v-333h-109v333h109z" />
    <glyph glyph-name="section" unicode="&#xa7;" horiz-adv-x="729" 
d="M577 165q92 -42 92 -123q0 -80 -77.5 -132t-218.5 -52q-189 0 -324 112l63 66q111 -91 264 -91q81 0 132 22t51 63t-47.5 59t-152.5 26q-61 5 -108 14.5t-90.5 27.5t-66.5 49t-23 73q0 97 106 147q-101 40 -101 125q0 81 81 126t210 45q80 0 154 -25t126 -64l-59 -69
q-92 70 -221 71q-48 1 -86.5 -5.5t-66.5 -25t-28 -47.5q0 -21 14 -35.5t44.5 -22.5t60 -11.5t79.5 -7.5q137 -11 213.5 -49t76.5 -116q0 -99 -97 -150zM181 292q0 -29 28 -47.5t68 -27t101 -12.5q47 -4 72 -7q52 12 83 39t31 60q0 43 -48.5 63.5t-148.5 29.5l-36 3
q-64 -6 -107 -33t-43 -68z" />
    <glyph glyph-name="dieresis" unicode="&#xa8;" horiz-adv-x="581" 
d="M158 789q-29 0 -47.5 16.5t-18.5 40.5q0 25 18.5 41.5t47.5 16.5q28 0 46 -16.5t18 -41.5q0 -24 -18.5 -40.5t-45.5 -16.5zM424 789q-28 0 -47 16.5t-19 40.5q0 25 19 41.5t47 16.5t46 -16.5t18 -41.5q0 -24 -18.5 -40.5t-45.5 -16.5z" />
    <glyph glyph-name="copyright" unicode="&#xa9;" horiz-adv-x="980" 
d="M490 -21q-200 0 -316.5 101t-116.5 270t116.5 270t316.5 101t316.5 -101t116.5 -270t-116.5 -270t-316.5 -101zM490 16q179 0 285.5 88.5t106.5 245.5t-106.5 245.5t-285.5 88.5t-286 -88.5t-107 -245.5t107 -245.5t286 -88.5zM758 224q-39 -59 -108 -94.5t-162 -35.5
q-132 0 -212 69t-80 188t80 188t212 69q93 0 160.5 -35t104.5 -93l-80 -38q-59 87 -178 87q-94 0 -149 -46t-55 -132t55 -132t149 -46q121 0 181 90z" />
    <glyph glyph-name="ordfeminine" unicode="&#xaa;" horiz-adv-x="571" 
d="M274 720q100 0 156 -46.5t56 -135.5v-139q0 -41 21 -72h-87q-17 20 -17 53v2q-40 -69 -162 -69q-74 0 -131.5 32t-57.5 98q0 46 31 77t71.5 42.5t86.5 11.5q56 0 99.5 -18.5t62.5 -51.5v35q0 117 -142 117q-80 0 -146 -39l-27 58q78 45 186 45zM403 436v15
q-33 68 -145 68q-28 0 -53 -5t-47.5 -23t-22.5 -48q0 -42 38 -58.5t85 -16.5q112 0 145 68z" />
    <glyph glyph-name="guillemotleft" unicode="&#xab;" horiz-adv-x="667" 
d="M251 517l-211 -217l211 -216h120l-212 216l212 217h-120zM493 517l-211 -217l211 -216h120l-212 216l212 217h-120z" />
    <glyph glyph-name="logicalnot" unicode="&#xac;" horiz-adv-x="738" 
d="M74 341h586v-282h-102v190h-484v92z" />
    <glyph glyph-name="registered" unicode="&#xae;" horiz-adv-x="575" 
d="M287 710q100 0 166 -57.5t66 -151.5t-66 -151t-166 -57t-165.5 57t-65.5 151t65.5 151.5t165.5 57.5zM288 318q89 0 145.5 49.5t56.5 133.5q0 85 -56.5 134t-145.5 49q-90 0 -146.5 -49t-56.5 -134q0 -84 56.5 -133.5t146.5 -49.5zM412 543q0 -56 -63 -68l68 -78h-55
l-65 75h-72v-75h-47v216h144q41 0 65.5 -18.5t24.5 -51.5zM224 506h87q52 0 52 35q0 36 -52 36h-87v-71z" />
    <glyph glyph-name="macron" unicode="&#xaf;" horiz-adv-x="577" 
d="M83 890h410v-88h-410v88z" />
    <glyph glyph-name="degree" unicode="&#xb0;" horiz-adv-x="428" 
d="M214 430q-71 0 -116 39.5t-45 102.5q0 62 45 101.5t116 39.5t116 -39.5t45 -101.5q0 -63 -45 -102.5t-116 -39.5zM214 492q43 0 67 21.5t24 58.5t-24 58.5t-67 21.5t-67 -21.5t-24 -58.5t24 -58.5t67 -21.5z" />
    <glyph glyph-name="plusminus" unicode="&#xb1;" horiz-adv-x="738" 
d="M416 440h241v-86h-241v-203h-94v203h-241v86h241v201h94v-201zM81 18v86h576v-86h-576z" />
    <glyph glyph-name="uni00B2" unicode="&#xb2;" horiz-adv-x="473" 
d="M40 793q74 96 203 96q74 0 129.5 -33t55.5 -90q0 -49 -39 -81.5t-113 -60.5q-71 -27 -107.5 -47.5t-45.5 -46.5h314v-65h-406v41q18 108 198 173q7 3 20 8t19 7.5t17 7t16 7t13.5 7t12.5 8.5t9.5 8.5t7.5 9.5t4 11t2 12q0 29 -32.5 45t-78.5 16q-90 0 -148 -72z" />
    <glyph glyph-name="uni00B3" unicode="&#xb3;" horiz-adv-x="485" 
d="M86 586q50 -70 152 -70q53 0 90 18.5t37 53.5q0 64 -132 64h-56v58h56q118 0 118 57q0 30 -34 44.5t-83 14.5q-90 0 -139 -63l-54 36q25 41 79.5 65.5t120.5 24.5q78 0 134 -29.5t56 -82.5q0 -38 -29 -64.5t-71 -29.5q48 -7 82 -32.5t34 -70.5q0 -59 -58 -93t-148 -34
q-70 0 -126.5 27.5t-86.5 73.5z" />
    <glyph glyph-name="acute" unicode="&#xb4;" horiz-adv-x="584" 
d="M461 935l-226 -155h-98l156 155h168z" />
    <glyph glyph-name="paragraph" unicode="&#xb6;" horiz-adv-x="923" 
d="M317 700h501v-700h-100v609h-138v-609h-99v248h-164q-128 0 -204 58.5t-76 167.5q0 107 76 166.5t204 59.5zM481 338v271h-165q-84 0 -131 -34.5t-47 -102.5q0 -67 46.5 -100.5t131.5 -33.5h165z" />
    <glyph glyph-name="periodcentered" unicode="&#xb7;" horiz-adv-x="275" 
d="M137 217q-33 0 -54.5 19.5t-21.5 48.5q0 30 21.5 50t54.5 20q34 0 55.5 -20t21.5 -50q0 -29 -21.5 -48.5t-55.5 -19.5z" />
    <glyph glyph-name="cedilla" unicode="&#xb8;" horiz-adv-x="583" 
d="M339 -54l-128 -160l-85 23l102 155z" />
    <glyph glyph-name="uni00B9" unicode="&#xb9;" horiz-adv-x="286" 
d="M142 464v321q-43 -35 -119 -47v66q76 11 138 71h59v-411h-78z" />
    <glyph glyph-name="ordmasculine" unicode="&#xba;" horiz-adv-x="577" 
d="M289 312q-109 0 -172.5 55t-63.5 149q0 95 63.5 149.5t172.5 54.5t172 -54.5t63 -149.5q0 -94 -63 -149t-172 -55zM289 382q72 0 112.5 34.5t40.5 99.5t-40.5 99.5t-112.5 34.5t-113 -34.5t-41 -99.5t41 -99.5t113 -34.5z" />
    <glyph glyph-name="guillemotright" unicode="&#xbb;" horiz-adv-x="667" 
d="M174 517h-120l212 -217l-212 -216h120l211 216zM416 517h-120l211 -217l-211 -216h120l211 216z" />
    <glyph glyph-name="onequarter" unicode="&#xbc;" horiz-adv-x="989" 
d="M142 289v321q-41 -34 -119 -46v66q75 10 138 70h59v-411h-78zM253 0h-86l442 700h87zM964 157v-62h-80v-95h-75v95h-303v46l309 270h69v-254h80zM608 157h200v169z" />
    <glyph glyph-name="onehalf" unicode="&#xbd;" horiz-adv-x="1012" 
d="M142 289v321q-41 -34 -119 -46v66q75 10 138 70h59v-411h-78zM246 0h-87l443 700h87zM579 328q33 44 85.5 70t117.5 26q74 0 129.5 -33t55.5 -90q0 -49 -39 -81.5t-113 -60.5q-71 -27 -107.5 -47.5t-45.5 -46.5h313v-65h-405v41q18 108 198 173q7 3 21.5 8.5t21 8.5
t18.5 8t17.5 8t14 8t12.5 9.5t8.5 10t6 12t1.5 13.5q0 29 -32.5 45t-78.5 16q-90 0 -148 -72z" />
    <glyph glyph-name="threequarters" unicode="&#xbe;" horiz-adv-x="1167" 
d="M86 410q50 -70 152 -70q53 0 90 18.5t37 53.5q0 64 -132 64h-56v58h56q118 0 118 57q0 31 -34 45t-83 14q-90 0 -139 -62l-54 35q25 41 79.5 65.5t120.5 24.5q78 0 134 -29t56 -82q0 -39 -29 -65t-71 -30q48 -7 82 -32.5t34 -70.5q0 -59 -58 -93t-148 -34
q-70 0 -126.5 27.5t-86.5 73.5zM431 0h-87l443 700h87zM1142 157v-62h-81v-95h-75v95h-302v46l308 270h69v-254h81zM785 157h201v169z" />
    <glyph glyph-name="questiondown" unicode="&#xbf;" horiz-adv-x="745" 
d="M378 559q34 0 55.5 -19.5t21.5 -48.5q0 -30 -22 -50t-55 -20t-54.5 20t-21.5 50q0 29 21.5 48.5t54.5 19.5zM428 336v-183q-128 -10 -194 -36.5t-66 -83.5q0 -55 57 -81t140 -26q175 0 270 126l77 -65q-58 -74 -147 -117t-203 -43q-128 0 -222 54t-94 151
q0 86 77.5 135.5t205.5 58.5v110h99z" />
    <glyph glyph-name="Agrave" unicode="&#xc0;" horiz-adv-x="907" 
d="M550 780h-98l-226 155h168zM767 0l-90 169h-449l-89 -169h-130l379 700h132l378 -700h-131zM282 271h342l-171 324z" />
    <glyph glyph-name="Aacute" unicode="&#xc1;" horiz-adv-x="907" 
d="M682 935l-226 -155h-98l156 155h168zM767 0l-90 169h-449l-89 -169h-130l379 700h132l378 -700h-131zM282 271h342l-171 324z" />
    <glyph glyph-name="Acircumflex" unicode="&#xc2;" horiz-adv-x="907" 
d="M452 879l-98 -99h-118l155 155h125l154 -155h-118zM767 0l-90 169h-449l-89 -169h-130l379 700h132l378 -700h-131zM282 271h342l-171 324z" />
    <glyph glyph-name="Atilde" unicode="&#xc3;" horiz-adv-x="907" 
d="M350 847q-35 0 -56.5 -12.5t-40.5 -36.5l-60 59q22 33 62 57.5t93 24.5q44 0 108 -28t103 -28q57 0 95 49l61 -60q-22 -33 -62 -57t-93 -24q-45 0 -109 28t-101 28zM767 0l-90 169h-449l-89 -169h-130l379 700h132l378 -700h-131zM282 271h342l-171 324z" />
    <glyph glyph-name="Adieresis" unicode="&#xc4;" horiz-adv-x="907" 
d="M321 789q-29 0 -47.5 16.5t-18.5 40.5q0 25 18.5 41.5t47.5 16.5q28 0 46 -16.5t18 -41.5q0 -24 -18.5 -40.5t-45.5 -16.5zM587 789q-28 0 -47 16.5t-19 40.5q0 25 19 41.5t47 16.5t46 -16.5t18 -41.5q0 -24 -18.5 -40.5t-45.5 -16.5zM767 0l-90 169h-449l-89 -169h-130
l379 700h132l378 -700h-131zM282 271h342l-171 324z" />
    <glyph glyph-name="Aring" unicode="&#xc5;" horiz-adv-x="907" 
d="M453 772q-61 0 -100 29t-39 82t39 82.5t100 29.5t100.5 -29.5t39.5 -82.5t-39.5 -82t-100.5 -29zM454 941q-30 0 -47.5 -15.5t-17.5 -42.5q0 -28 17.5 -43t47.5 -15t48 15t18 43q0 27 -18 42.5t-48 15.5zM767 0l-90 169h-449l-89 -169h-130l379 700h132l378 -700h-131z
M282 271h342l-171 324z" />
    <glyph glyph-name="AE" unicode="&#xc6;" horiz-adv-x="1403" 
d="M774 105h578v-105h-698v166h-378l-143 -166h-143l611 700h69h672v-105h-568v-187h478v-105h-478v-198zM360 263h294v341z" />
    <glyph glyph-name="Ccedilla" unicode="&#xc7;" horiz-adv-x="890" 
d="M487 85q181 0 257 124l111 -55q-52 -80 -147.5 -127.5t-223.5 -47.5q-197 0 -312 99.5t-115 271.5t116 271.5t316 99.5q124 0 219 -47.5t146 -126.5l-112 -56q-75 124 -255 124q-142 0 -225 -68.5t-83 -196.5t83 -196.5t225 -68.5zM530 -54l-128 -160l-85 23l102 155z
" />
    <glyph glyph-name="Egrave" unicode="&#xc8;" horiz-adv-x="854" 
d="M217 935h168l156 -155h-98zM225 105h578v-105h-697v700h687v-105h-568v-187h478v-105h-478v-198z" />
    <glyph glyph-name="Eacute" unicode="&#xc9;" horiz-adv-x="854" 
d="M673 935l-226 -155h-98l156 155h168zM225 105h578v-105h-697v700h687v-105h-568v-187h478v-105h-478v-198z" />
    <glyph glyph-name="Ecircumflex" unicode="&#xca;" horiz-adv-x="854" 
d="M228 780h118l98 99l100 -99h118l-154 155h-125zM225 105h578v-105h-697v700h687v-105h-568v-187h478v-105h-478v-198z" />
    <glyph glyph-name="Edieresis" unicode="&#xcb;" horiz-adv-x="854" 
d="M313 789q-29 0 -47.5 16.5t-18.5 40.5q0 25 18.5 41.5t47.5 16.5q28 0 46 -16.5t18 -41.5q0 -24 -18.5 -40.5t-45.5 -16.5zM579 789q-28 0 -47 16.5t-19 40.5q0 25 19 41.5t47 16.5t46 -16.5t18 -41.5q0 -24 -18.5 -40.5t-45.5 -16.5zM225 105h578v-105h-697v700h687
v-105h-568v-187h478v-105h-478v-198z" />
    <glyph glyph-name="Igrave" unicode="&#xcc;" horiz-adv-x="331" 
d="M-62 935h168l156 -155h-98zM226 0h-120v700h120v-700z" />
    <glyph glyph-name="Iacute" unicode="&#xcd;" horiz-adv-x="331" 
d="M394 935l-226 -155h-98l156 155h168zM226 0h-120v700h120v-700z" />
    <glyph glyph-name="Icircumflex" unicode="&#xce;" horiz-adv-x="331" 
d="M-52 780h118l98 99l100 -99h118l-154 155h-125zM226 0h-120v700h120v-700z" />
    <glyph glyph-name="Idieresis" unicode="&#xcf;" horiz-adv-x="331" 
d="M33 789q-29 0 -47.5 16.5t-18.5 40.5q0 25 18.5 41.5t47.5 16.5q28 0 46 -16.5t18 -41.5q0 -24 -18.5 -40.5t-45.5 -16.5zM299 789q-28 0 -47 16.5t-19 40.5q0 25 19 41.5t47 16.5t46 -16.5t18 -41.5q0 -24 -18.5 -40.5t-45.5 -16.5zM226 0h-120v700h120v-700z" />
    <glyph glyph-name="Eth" unicode="&#xd0;" horiz-adv-x="961" 
d="M479 700q196 0 310.5 -94t114.5 -256t-114.5 -256t-310.5 -94h-357v314h-102v86h102v300h357zM469 105q143 0 227.5 62.5t84.5 182.5t-84.5 182.5t-227.5 62.5h-227v-195h215v-86h-215v-209h227z" />
    <glyph glyph-name="Ntilde" unicode="&#xd1;" horiz-adv-x="980" 
d="M691 932l61 -60q-22 -33 -62 -57t-93 -24q-45 0 -109 28t-101 28q-35 0 -56.5 -12.5t-40.5 -36.5l-60 59q22 33 62 57.5t93 24.5q45 0 109 -28t102 -28q57 0 95 49zM758 700h117v-700h-106l-547 552v-552h-116v700h128l524 -531v531z" />
    <glyph glyph-name="Ograve" unicode="&#xd2;" horiz-adv-x="984" 
d="M265 935h168l156 -155h-98zM492 -21q-202 0 -318.5 99t-116.5 272t116.5 272t318.5 99t318.5 -99t116.5 -272t-116.5 -272t-318.5 -99zM492 85q144 0 228 69.5t84 195.5t-84 195.5t-228 69.5t-228.5 -69.5t-84.5 -195.5t84 -195.5t229 -69.5z" />
    <glyph glyph-name="Oacute" unicode="&#xd3;" horiz-adv-x="984" 
d="M721 935l-226 -155h-98l156 155h168zM492 -21q-202 0 -318.5 99t-116.5 272t116.5 272t318.5 99t318.5 -99t116.5 -272t-116.5 -272t-318.5 -99zM492 85q144 0 228 69.5t84 195.5t-84 195.5t-228 69.5t-228.5 -69.5t-84.5 -195.5t84 -195.5t229 -69.5z" />
    <glyph glyph-name="Ocircumflex" unicode="&#xd4;" horiz-adv-x="984" 
d="M275 780h118l98 99l100 -99h118l-154 155h-125zM492 -21q-202 0 -318.5 99t-116.5 272t116.5 272t318.5 99t318.5 -99t116.5 -272t-116.5 -272t-318.5 -99zM492 85q144 0 228 69.5t84 195.5t-84 195.5t-228 69.5t-228.5 -69.5t-84.5 -195.5t84 -195.5t229 -69.5z" />
    <glyph glyph-name="Otilde" unicode="&#xd5;" horiz-adv-x="984" 
d="M692 932l61 -60q-22 -33 -62 -57t-93 -24q-45 0 -109 28t-101 28q-35 0 -56.5 -12.5t-40.5 -36.5l-60 59q22 33 62 57.5t93 24.5q44 0 108 -28t103 -28q57 0 95 49zM492 -21q-202 0 -318.5 99t-116.5 272t116.5 272t318.5 99t318.5 -99t116.5 -272t-116.5 -272
t-318.5 -99zM492 85q144 0 228 69.5t84 195.5t-84 195.5t-228 69.5t-228.5 -69.5t-84.5 -195.5t84 -195.5t229 -69.5z" />
    <glyph glyph-name="Odieresis" unicode="&#xd6;" horiz-adv-x="984" 
d="M360 789q-29 0 -47.5 16.5t-18.5 40.5q0 25 18.5 41.5t47.5 16.5q28 0 46 -16.5t18 -41.5q0 -24 -18.5 -40.5t-45.5 -16.5zM626 789q-28 0 -47 16.5t-19 40.5q0 25 19 41.5t47 16.5t46 -16.5t18 -41.5q0 -24 -18.5 -40.5t-45.5 -16.5zM492 -21q-202 0 -318.5 99
t-116.5 272t116.5 272t318.5 99t318.5 -99t116.5 -272t-116.5 -272t-318.5 -99zM492 85q144 0 228 69.5t84 195.5t-84 195.5t-228 69.5t-228.5 -69.5t-84.5 -195.5t84 -195.5t229 -69.5z" />
    <glyph glyph-name="multiply" unicode="&#xd7;" horiz-adv-x="740" 
d="M621 485l-183 -183l183 -182l-68 -70l-183 184l-183 -183l-67 69l182 182l-182 183l68 67l182 -182l183 182z" />
    <glyph glyph-name="Oslash" unicode="&#xd8;" horiz-adv-x="984" 
d="M772 651q155 -100 155 -301q0 -173 -116.5 -272t-318.5 -99q-114 0 -202 32l-79 -104h-107l108 143q-155 98 -155 300q0 173 116.5 272t318.5 99q114 0 202 -32l78 104h108zM179 350q0 -138 102 -209l343 456q-58 18 -132 18q-144 0 -228.5 -69.5t-84.5 -195.5zM492 85
q144 0 228 69.5t84 195.5q0 139 -101 209l-344 -456q58 -18 133 -18z" />
    <glyph glyph-name="Ugrave" unicode="&#xd9;" horiz-adv-x="946" 
d="M246 935h168l156 -155h-98zM734 700h120v-370q0 -159 -99.5 -255t-281.5 -96q-181 0 -280.5 96t-99.5 255v370h120v-362q0 -119 68 -185.5t192 -66.5q125 0 193 66.5t68 185.5v362z" />
    <glyph glyph-name="Uacute" unicode="&#xda;" horiz-adv-x="946" 
d="M702 935l-226 -155h-98l156 155h168zM734 700h120v-370q0 -159 -99.5 -255t-281.5 -96q-181 0 -280.5 96t-99.5 255v370h120v-362q0 -119 68 -185.5t192 -66.5q125 0 193 66.5t68 185.5v362z" />
    <glyph glyph-name="Ucircumflex" unicode="&#xdb;" horiz-adv-x="946" 
d="M256 780h118l98 99l100 -99h118l-154 155h-125zM734 700h120v-370q0 -159 -99.5 -255t-281.5 -96q-181 0 -280.5 96t-99.5 255v370h120v-362q0 -119 68 -185.5t192 -66.5q125 0 193 66.5t68 185.5v362z" />
    <glyph glyph-name="Udieresis" unicode="&#xdc;" horiz-adv-x="946" 
d="M341 789q-29 0 -47.5 16.5t-18.5 40.5q0 25 18.5 41.5t47.5 16.5q28 0 46 -16.5t18 -41.5q0 -24 -18.5 -40.5t-45.5 -16.5zM607 789q-28 0 -47 16.5t-19 40.5q0 25 19 41.5t47 16.5t46 -16.5t18 -41.5q0 -24 -18.5 -40.5t-45.5 -16.5zM734 700h120v-370
q0 -159 -99.5 -255t-281.5 -96q-181 0 -280.5 96t-99.5 255v370h120v-362q0 -119 68 -185.5t192 -66.5q125 0 193 66.5t68 185.5v362z" />
    <glyph glyph-name="Yacute" unicode="&#xdd;" horiz-adv-x="831" 
d="M645 935l-226 -155h-98l156 155h168zM11 700h139l267 -355l265 355h138l-344 -458v-242h-120v242z" />
    <glyph glyph-name="Thorn" unicode="&#xde;" horiz-adv-x="899" 
d="M581 585q127 0 204 -60.5t77 -167.5q0 -109 -77 -169t-204 -60h-355v-128h-120v700h120v-115h355zM572 230q167 0 167 127q0 126 -167 126h-346v-253h346z" />
    <glyph glyph-name="germandbls" unicode="&#xdf;" horiz-adv-x="791" 
d="M325 99q54 -18 117 -18q87 0 133.5 33.5t46.5 98.5q0 133 -183 133h-70v85h39q85 0 131 30.5t46 88.5q0 61 -48 89.5t-127 28.5q-98 0 -150.5 -49.5t-52.5 -139.5v-479h-117v463q0 132 83 214.5t237 82.5q127 0 209 -55t82 -144q0 -64 -45 -110.5t-122 -56.5
q89 -7 148 -58t59 -136q0 -93 -73 -151.5t-196 -58.5q-90 0 -171 27z" />
    <glyph glyph-name="agrave" unicode="&#xe0;" horiz-adv-x="753" 
d="M147 783h168l156 -155h-98zM361 568q145 0 226.5 -68t81.5 -195v-199q0 -62 25 -106h-121q-21 36 -21 77v1q-35 -43 -97 -70.5t-142 -27.5q-48 0 -93.5 10t-87.5 31.5t-68 60.5t-26 90t26 89.5t68 60t88 31.5t93 10q80 0 142 -27.5t97 -70.5v40q0 171 -213 171
q-114 0 -208 -55l-42 79q51 31 124.5 49.5t147.5 18.5zM554 163v17q-57 99 -219 99q-43 0 -80.5 -7.5t-69.5 -33t-32 -66.5q0 -32 17.5 -54.5t46.5 -33.5t58 -15.5t60 -4.5q70 0 129 23.5t90 75.5z" />
    <glyph glyph-name="aacute" unicode="&#xe1;" horiz-adv-x="753" 
d="M604 783l-226 -155h-98l156 155h168zM361 568q145 0 226.5 -68t81.5 -195v-199q0 -62 25 -106h-121q-21 36 -21 77v1q-35 -43 -97 -70.5t-142 -27.5q-48 0 -93.5 10t-87.5 31.5t-68 60.5t-26 90t26 89.5t68 60t88 31.5t93 10q80 0 142 -27.5t97 -70.5v40q0 171 -213 171
q-114 0 -208 -55l-42 79q51 31 124.5 49.5t147.5 18.5zM554 163v17q-57 99 -219 99q-43 0 -80.5 -7.5t-69.5 -33t-32 -66.5q0 -32 17.5 -54.5t46.5 -33.5t58 -15.5t60 -4.5q70 0 129 23.5t90 75.5z" />
    <glyph glyph-name="acircumflex" unicode="&#xe2;" horiz-adv-x="753" 
d="M158 628h118l98 99l100 -99h118l-154 155h-125zM361 568q145 0 226.5 -68t81.5 -195v-199q0 -62 25 -106h-121q-21 36 -21 77v1q-35 -43 -97 -70.5t-142 -27.5q-48 0 -93.5 10t-87.5 31.5t-68 60.5t-26 90t26 89.5t68 60t88 31.5t93 10q80 0 142 -27.5t97 -70.5v40
q0 171 -213 171q-114 0 -208 -55l-42 79q51 31 124.5 49.5t147.5 18.5zM554 163v17q-57 99 -219 99q-43 0 -80.5 -7.5t-69.5 -33t-32 -66.5q0 -32 17.5 -54.5t46.5 -33.5t58 -15.5t60 -4.5q70 0 129 23.5t90 75.5z" />
    <glyph glyph-name="atilde" unicode="&#xe3;" horiz-adv-x="753" 
d="M575 780l61 -60q-22 -33 -62 -57t-93 -24q-45 0 -109 28t-101 28q-35 0 -56.5 -12.5t-40.5 -36.5l-60 59q22 33 62 57.5t93 24.5q45 0 109 -28t102 -28q57 0 95 49zM361 568q145 0 226.5 -68t81.5 -195v-199q0 -62 25 -106h-121q-21 36 -21 77v1q-35 -43 -97 -70.5
t-142 -27.5q-48 0 -93.5 10t-87.5 31.5t-68 60.5t-26 90t26 89.5t68 60t88 31.5t93 10q80 0 142 -27.5t97 -70.5v40q0 171 -213 171q-114 0 -208 -55l-42 79q51 31 124.5 49.5t147.5 18.5zM554 163v17q-57 99 -219 99q-43 0 -80.5 -7.5t-69.5 -33t-32 -66.5
q0 -32 17.5 -54.5t46.5 -33.5t58 -15.5t60 -4.5q70 0 129 23.5t90 75.5z" />
    <glyph glyph-name="adieresis" unicode="&#xe4;" horiz-adv-x="753" 
d="M243 637q-29 0 -47.5 16.5t-18.5 40.5q0 25 18.5 41.5t47.5 16.5q28 0 46 -16.5t18 -41.5q0 -24 -18.5 -40.5t-45.5 -16.5zM509 637q-28 0 -47 16.5t-19 40.5q0 25 19 41.5t47 16.5t46 -16.5t18 -41.5q0 -24 -18.5 -40.5t-45.5 -16.5zM361 568q145 0 226.5 -68t81.5 -195
v-199q0 -62 25 -106h-121q-21 36 -21 77v1q-35 -43 -97 -70.5t-142 -27.5q-48 0 -93.5 10t-87.5 31.5t-68 60.5t-26 90t26 89.5t68 60t88 31.5t93 10q80 0 142 -27.5t97 -70.5v40q0 171 -213 171q-114 0 -208 -55l-42 79q51 31 124.5 49.5t147.5 18.5zM554 163v17
q-57 99 -219 99q-43 0 -80.5 -7.5t-69.5 -33t-32 -66.5q0 -32 17.5 -54.5t46.5 -33.5t58 -15.5t60 -4.5q70 0 129 23.5t90 75.5z" />
    <glyph glyph-name="aring" unicode="&#xe5;" horiz-adv-x="753" 
d="M375 620q-61 0 -100 29t-39 82t39 82.5t100 29.5t100.5 -29.5t39.5 -82.5t-39.5 -82t-100.5 -29zM311 731q0 -28 17.5 -43t47.5 -15t48 15t18 43q0 27 -18 42.5t-48 15.5t-47.5 -15.5t-17.5 -42.5zM361 568q145 0 226.5 -68t81.5 -195v-199q0 -62 25 -106h-121
q-21 36 -21 77v1q-35 -43 -97 -70.5t-142 -27.5q-48 0 -93.5 10t-87.5 31.5t-68 60.5t-26 90t26 89.5t68 60t88 31.5t93 10q80 0 142 -27.5t97 -70.5v40q0 171 -213 171q-114 0 -208 -55l-42 79q51 31 124.5 49.5t147.5 18.5zM554 163v17q-57 99 -219 99q-43 0 -80.5 -7.5
t-69.5 -33t-32 -66.5q0 -32 17.5 -54.5t46.5 -33.5t58 -15.5t60 -4.5q70 0 129 23.5t90 75.5z" />
    <glyph glyph-name="ae" unicode="&#xe6;" horiz-adv-x="1254" 
d="M665 249v-35q31 -141 232 -141q76 0 127 17t98 58l67 -71q-111 -98 -298 -98q-208 0 -295 126q-38 -60 -117 -92.5t-165 -32.5q-48 0 -94 10t-88 31.5t-68 60.5t-26 90t26 89.5t68 60t88 31.5t93 10q81 0 143 -29t96 -76v47q0 172 -213 172q-119 0 -213 -57l-35 83
q113 65 270 65q178 0 255 -100q87 101 267 101q149 0 237 -77t88 -217q0 -14 -2 -26h-541zM884 476q-189 0 -219 -143h430q-31 143 -211 143zM554 163v17q-58 100 -219 100q-31 0 -60 -5t-58 -16t-46.5 -33.5t-17.5 -53.5q0 -32 17.5 -54.5t46.5 -33.5t58 -16t60 -5
q69 0 128.5 24t90.5 76z" />
    <glyph glyph-name="ccedilla" unicode="&#xe7;" horiz-adv-x="720" 
d="M688 124q-84 -145 -298 -145q-157 0 -248 79.5t-91 214.5q0 136 90.5 216t248.5 80q209 0 295 -141l-110 -47q-50 91 -184 91q-101 0 -163 -51t-62 -148q0 -95 62 -146t163 -51q137 0 187 94zM435 -54l-128 -160l-85 23l102 155z" />
    <glyph glyph-name="egrave" unicode="&#xe8;" horiz-adv-x="759" 
d="M484 628h-98l-226 155h168zM166 248q8 -88 69.5 -132.5t166.5 -44.5q74 0 126 19t98 60l68 -73q-110 -98 -298 -98q-163 0 -254 79t-91 215q0 137 89.5 216.5t247.5 79.5q150 0 237.5 -76.5t87.5 -218.5q0 -17 -3 -26h-544zM389 477q-88 0 -145 -37t-73 -109l429 1
q-36 145 -211 145z" />
    <glyph glyph-name="eacute" unicode="&#xe9;" horiz-adv-x="759" 
d="M616 783l-226 -155h-98l156 155h168zM166 248q8 -88 69.5 -132.5t166.5 -44.5q74 0 126 19t98 60l68 -73q-110 -98 -298 -98q-163 0 -254 79t-91 215q0 137 89.5 216.5t247.5 79.5q150 0 237.5 -76.5t87.5 -218.5q0 -17 -3 -26h-544zM389 477q-88 0 -145 -37t-73 -109
l429 1q-36 145 -211 145z" />
    <glyph glyph-name="ecircumflex" unicode="&#xea;" horiz-adv-x="759" 
d="M387 727l-98 -99h-118l155 155h125l154 -155h-118zM166 248q8 -88 69.5 -132.5t166.5 -44.5q74 0 126 19t98 60l68 -73q-110 -98 -298 -98q-163 0 -254 79t-91 215q0 137 89.5 216.5t247.5 79.5q150 0 237.5 -76.5t87.5 -218.5q0 -17 -3 -26h-544zM389 477
q-88 0 -145 -37t-73 -109l429 1q-36 145 -211 145z" />
    <glyph glyph-name="edieresis" unicode="&#xeb;" horiz-adv-x="759" 
d="M255 637q-29 0 -47.5 16.5t-18.5 40.5q0 25 18.5 41.5t47.5 16.5q28 0 46 -16.5t18 -41.5q0 -24 -18.5 -40.5t-45.5 -16.5zM521 637q-28 0 -47 16.5t-19 40.5q0 25 19 41.5t47 16.5t46 -16.5t18 -41.5q0 -24 -18.5 -40.5t-45.5 -16.5zM166 248q8 -88 69.5 -132.5
t166.5 -44.5q74 0 126 19t98 60l68 -73q-110 -98 -298 -98q-163 0 -254 79t-91 215q0 137 89.5 216.5t247.5 79.5q150 0 237.5 -76.5t87.5 -218.5q0 -17 -3 -26h-544zM389 477q-88 0 -145 -37t-73 -109l429 1q-36 145 -211 145z" />
    <glyph glyph-name="igrave" unicode="&#xec;" horiz-adv-x="302" 
d="M-77 783h168l156 -155h-98zM209 548v-548h-116v548h116z" />
    <glyph glyph-name="iacute" unicode="&#xed;" horiz-adv-x="302" 
d="M380 783l-226 -155h-98l156 155h168zM209 548v-548h-116v548h116z" />
    <glyph glyph-name="icircumflex" unicode="&#xee;" horiz-adv-x="302" 
d="M-66 628h118l98 99l100 -99h118l-154 155h-125zM209 548v-548h-116v548h116z" />
    <glyph glyph-name="idieresis" unicode="&#xef;" horiz-adv-x="302" 
d="M19 637q-29 0 -47.5 16.5t-18.5 40.5q0 25 18.5 41.5t47.5 16.5q28 0 46 -16.5t18 -41.5q0 -24 -18.5 -40.5t-45.5 -16.5zM285 637q-28 0 -47 16.5t-19 40.5q0 25 19 41.5t47 16.5t46 -16.5t18 -41.5q0 -24 -18.5 -40.5t-45.5 -16.5zM209 548v-548h-116v548h116z" />
    <glyph glyph-name="eth" unicode="&#xf0;" horiz-adv-x="786" 
d="M534 654q200 -122 200 -349q0 -327 -341 -327q-158 0 -250 75.5t-92 208.5q0 128 87 202t212 74q210 0 270 -132q-38 129 -207 199l-163 -65l-27 59l95 38q-47 12 -115 22l17 95q134 -17 237 -61l146 59l27 -59zM392 73q102 0 165.5 48t63.5 141q0 92 -63.5 140
t-165.5 48t-165 -48t-63 -140q0 -93 63 -141t165 -48z" />
    <glyph glyph-name="ntilde" unicode="&#xf1;" 
d="M598 780l61 -60q-22 -33 -62 -57t-93 -24q-45 0 -109 28t-101 28q-35 0 -56.5 -12.5t-40.5 -36.5l-60 59q22 33 62 57.5t93 24.5q44 0 108 -28t103 -28q57 0 95 49zM207 0h-117v548h117v-106q36 59 101.5 92.5t148.5 33.5q121 0 185.5 -70t64.5 -185v-313h-116v305
q0 166 -164 166q-150 0 -220 -134v-337z" />
    <glyph glyph-name="ograve" unicode="&#xf2;" horiz-adv-x="785" 
d="M164 783h168l156 -155h-98zM392 -21q-159 0 -250 79t-91 215q0 137 91 216.5t250 79.5t250 -79.5t91 -216.5q0 -136 -91 -215t-250 -79zM392 77q102 0 164.5 50.5t62.5 145.5q0 96 -62.5 147t-164.5 51q-101 0 -163.5 -51t-62.5 -147q0 -95 62.5 -145.5t163.5 -50.5z" />
    <glyph glyph-name="oacute" unicode="&#xf3;" horiz-adv-x="785" 
d="M621 783l-226 -155h-98l156 155h168zM392 -21q-159 0 -250 79t-91 215q0 137 91 216.5t250 79.5t250 -79.5t91 -216.5q0 -136 -91 -215t-250 -79zM392 77q102 0 164.5 50.5t62.5 145.5q0 96 -62.5 147t-164.5 51q-101 0 -163.5 -51t-62.5 -147q0 -95 62.5 -145.5
t163.5 -50.5z" />
    <glyph glyph-name="ocircumflex" unicode="&#xf4;" horiz-adv-x="785" 
d="M175 628h118l98 99l100 -99h118l-154 155h-125zM392 -21q-159 0 -250 79t-91 215q0 137 91 216.5t250 79.5t250 -79.5t91 -216.5q0 -136 -91 -215t-250 -79zM392 77q102 0 164.5 50.5t62.5 145.5q0 96 -62.5 147t-164.5 51q-101 0 -163.5 -51t-62.5 -147
q0 -95 62.5 -145.5t163.5 -50.5z" />
    <glyph glyph-name="otilde" unicode="&#xf5;" horiz-adv-x="785" 
d="M592 780l61 -60q-22 -33 -62 -57t-93 -24q-45 0 -109 28t-101 28q-35 0 -56.5 -12.5t-40.5 -36.5l-60 59q22 33 62 57.5t93 24.5q44 0 108 -28t103 -28q57 0 95 49zM392 -21q-159 0 -250 79t-91 215q0 137 91 216.5t250 79.5t250 -79.5t91 -216.5q0 -136 -91 -215
t-250 -79zM392 77q102 0 164.5 50.5t62.5 145.5q0 96 -62.5 147t-164.5 51q-101 0 -163.5 -51t-62.5 -147q0 -95 62.5 -145.5t163.5 -50.5z" />
    <glyph glyph-name="odieresis" unicode="&#xf6;" horiz-adv-x="785" 
d="M260 637q-29 0 -47.5 16.5t-18.5 40.5q0 25 18.5 41.5t47.5 16.5q28 0 46 -16.5t18 -41.5q0 -24 -18.5 -40.5t-45.5 -16.5zM526 637q-28 0 -47 16.5t-19 40.5q0 25 19 41.5t47 16.5t46 -16.5t18 -41.5q0 -24 -18.5 -40.5t-45.5 -16.5zM392 -21q-159 0 -250 79t-91 215
q0 137 91 216.5t250 79.5t250 -79.5t91 -216.5q0 -136 -91 -215t-250 -79zM392 77q102 0 164.5 50.5t62.5 145.5q0 96 -62.5 147t-164.5 51q-101 0 -163.5 -51t-62.5 -147q0 -95 62.5 -145.5t163.5 -50.5z" />
    <glyph glyph-name="divide" unicode="&#xf7;" horiz-adv-x="738" 
d="M369 431q-31 0 -50.5 18.5t-19.5 42.5t19.5 42.5t50.5 18.5t50 -18.5t19 -42.5q0 -25 -19 -43t-50 -18zM657 250h-576v100h576v-100zM369 47q-31 0 -50.5 19t-19.5 42q0 24 19.5 42.5t50.5 18.5t50 -18t19 -43q0 -23 -19 -42t-50 -19z" />
    <glyph glyph-name="oslash" unicode="&#xf8;" horiz-adv-x="785" 
d="M594 523q139 -77 139 -250q0 -136 -91 -215t-250 -79q-71 0 -133 17l-57 -89h-90l76 119q-137 76 -137 247q0 137 91 216.5t250 79.5q71 0 131 -17l57 89h90zM166 273q0 -106 79 -158l221 348q-37 8 -74 8q-101 0 -163.5 -51t-62.5 -147zM392 77q102 0 164.5 50.5
t62.5 145.5q0 109 -81 161l-222 -349q31 -8 76 -8z" />
    <glyph glyph-name="ugrave" unicode="&#xf9;" 
d="M159 783h168l156 -155h-98zM586 548h117v-548h-117v106q-36 -59 -101.5 -92.5t-148.5 -33.5q-121 0 -185.5 70t-64.5 185v313h116v-305q0 -166 164 -166q150 0 220 134v337z" />
    <glyph glyph-name="uacute" unicode="&#xfa;" 
d="M615 783l-226 -155h-98l156 155h168zM586 548h117v-548h-117v106q-36 -59 -101.5 -92.5t-148.5 -33.5q-121 0 -185.5 70t-64.5 185v313h116v-305q0 -166 164 -166q150 0 220 134v337z" />
    <glyph glyph-name="ucircumflex" unicode="&#xfb;" 
d="M169 628h118l98 99l100 -99h118l-154 155h-125zM586 548h117v-548h-117v106q-36 -59 -101.5 -92.5t-148.5 -33.5q-121 0 -185.5 70t-64.5 185v313h116v-305q0 -166 164 -166q150 0 220 134v337z" />
    <glyph glyph-name="udieresis" unicode="&#xfc;" 
d="M254 637q-29 0 -47.5 16.5t-18.5 40.5q0 25 18.5 41.5t47.5 16.5q28 0 46 -16.5t18 -41.5q0 -24 -18.5 -40.5t-45.5 -16.5zM520 637q-28 0 -47 16.5t-19 40.5q0 25 19 41.5t47 16.5t46 -16.5t18 -41.5q0 -24 -18.5 -40.5t-45.5 -16.5zM586 548h117v-548h-117v106
q-36 -59 -101.5 -92.5t-148.5 -33.5q-121 0 -185.5 70t-64.5 185v313h116v-305q0 -166 164 -166q150 0 220 134v337z" />
    <glyph glyph-name="yacute" unicode="&#xfd;" horiz-adv-x="716" 
d="M587 783l-226 -155h-98l156 155h168zM577 548h123l-414 -748h-122l137 236l-286 512h126l220 -400z" />
    <glyph glyph-name="thorn" unicode="&#xfe;" horiz-adv-x="807" 
d="M459 568q134 0 215 -81t81 -214t-81 -213t-215 -80q-85 0 -150 32t-102 85v-297h-117v940h117v-290q37 54 102 86t150 32zM429 79q102 0 157 50.5t55 143.5q0 94 -55 144.5t-157 50.5q-150 0 -222 -112v-164q73 -113 222 -113z" />
    <glyph glyph-name="ydieresis" unicode="&#xff;" horiz-adv-x="716" 
d="M226 637q-29 0 -47.5 16.5t-18.5 40.5q0 25 18.5 41.5t47.5 16.5q28 0 46 -16.5t18 -41.5q0 -24 -18.5 -40.5t-45.5 -16.5zM492 637q-28 0 -47 16.5t-19 40.5q0 25 19 41.5t47 16.5t46 -16.5t18 -41.5q0 -24 -18.5 -40.5t-45.5 -16.5zM577 548h123l-414 -748h-122
l137 236l-286 512h126l220 -400z" />
    <glyph glyph-name="Amacron" unicode="&#x100;" horiz-adv-x="907" 
d="M658 890v-88h-410v88h410zM767 0l-90 169h-449l-89 -169h-130l379 700h132l378 -700h-131zM282 271h342l-171 324z" />
    <glyph glyph-name="amacron" unicode="&#x101;" horiz-adv-x="753" 
d="M170 738h410v-88h-410v88zM361 568q145 0 226.5 -68t81.5 -195v-199q0 -62 25 -106h-121q-21 36 -21 77v1q-35 -43 -97 -70.5t-142 -27.5q-48 0 -93.5 10t-87.5 31.5t-68 60.5t-26 90t26 89.5t68 60t88 31.5t93 10q80 0 142 -27.5t97 -70.5v40q0 171 -213 171
q-114 0 -208 -55l-42 79q51 31 124.5 49.5t147.5 18.5zM554 163v17q-57 99 -219 99q-43 0 -80.5 -7.5t-69.5 -33t-32 -66.5q0 -32 17.5 -54.5t46.5 -33.5t58 -15.5t60 -4.5q70 0 129 23.5t90 75.5z" />
    <glyph glyph-name="Abreve" unicode="&#x102;" horiz-adv-x="907" 
d="M454 774q-49 0 -86 16.5t-56.5 42.5t-29 52t-9.5 50h84q2 -34 28 -59t69 -25t69 25.5t28 58.5h84q0 -24 -9.5 -50t-29 -52t-56.5 -42.5t-86 -16.5zM767 0l-90 169h-449l-89 -169h-130l379 700h132l378 -700h-131zM282 271h342l-171 324z" />
    <glyph glyph-name="abreve" unicode="&#x103;" horiz-adv-x="753" 
d="M557 783q0 -24 -9.5 -50t-29 -52t-56.5 -42.5t-86 -16.5t-86 16.5t-56.5 42.5t-29 52t-9.5 50h84q2 -34 28 -59t69 -25t69 25.5t28 58.5h84zM361 568q145 0 226.5 -68t81.5 -195v-199q0 -62 25 -106h-121q-21 36 -21 77v1q-35 -43 -97 -70.5t-142 -27.5q-48 0 -93.5 10
t-87.5 31.5t-68 60.5t-26 90t26 89.5t68 60t88 31.5t93 10q80 0 142 -27.5t97 -70.5v40q0 171 -213 171q-114 0 -208 -55l-42 79q51 31 124.5 49.5t147.5 18.5zM554 163v17q-57 99 -219 99q-43 0 -80.5 -7.5t-69.5 -33t-32 -66.5q0 -32 17.5 -54.5t46.5 -33.5t58 -15.5
t60 -4.5q70 0 129 23.5t90 75.5z" />
    <glyph glyph-name="Aogonek" unicode="&#x104;" horiz-adv-x="907" 
d="M927 -170l24 -32q-45 -45 -120 -45q-58 0 -99.5 27t-41.5 80q0 47 31.5 84.5t85.5 55.5h-40l-90 169h-449l-89 -169h-130l379 700h132l378 -700h-1q-50 -18 -84 -54t-34 -77q0 -31 21 -47.5t53 -16.5q41 0 74 25zM282 271h342l-171 324z" />
    <glyph glyph-name="aogonek" unicode="&#x105;" horiz-adv-x="753" 
d="M724 -170l24 -32q-45 -45 -120 -45q-58 0 -99.5 27t-41.5 80q0 47 31.5 84.5t85.5 55.5h-31q-21 36 -21 77v1q-35 -43 -97 -70.5t-142 -27.5q-48 0 -93.5 10t-87.5 31.5t-68 60.5t-26 90t26 89.5t68 60t88 31.5t93 10q80 0 142 -27.5t97 -70.5v40q0 171 -213 171
q-114 0 -208 -55l-42 79q51 31 124.5 49.5t147.5 18.5q145 0 226.5 -68t81.5 -195v-199q0 -62 25 -106q-50 -18 -84 -54t-34 -77q0 -31 21 -47.5t53 -16.5q41 0 74 25zM554 163v17q-57 99 -219 99q-43 0 -80.5 -7.5t-69.5 -33t-32 -66.5q0 -32 17.5 -54.5t46.5 -33.5
t58 -15.5t60 -4.5q70 0 129 23.5t90 75.5z" />
    <glyph glyph-name="Cacute" unicode="&#x106;" horiz-adv-x="890" 
d="M707 936l-226 -155h-98l156 155h168zM487 85q181 0 257 124l111 -55q-52 -80 -147.5 -127.5t-223.5 -47.5q-197 0 -312 99.5t-115 271.5t116 271.5t316 99.5q124 0 219 -47.5t146 -126.5l-112 -56q-75 124 -255 124q-142 0 -225 -68.5t-83 -196.5t83 -196.5t225 -68.5z
" />
    <glyph glyph-name="cacute" unicode="&#x107;" horiz-adv-x="720" 
d="M614 783l-226 -155h-98l156 155h168zM688 124q-84 -145 -298 -145q-157 0 -248 79.5t-91 214.5q0 136 90.5 216t248.5 80q209 0 295 -141l-110 -47q-50 91 -184 91q-101 0 -163 -51t-62 -148q0 -95 62 -146t163 -51q137 0 187 94z" />
    <glyph glyph-name="Ccircumflex" unicode="&#x108;" horiz-adv-x="890" 
d="M261 781h118l98 99l100 -99h118l-154 155h-125zM487 85q181 0 257 124l111 -55q-52 -80 -147.5 -127.5t-223.5 -47.5q-197 0 -312 99.5t-115 271.5t116 271.5t316 99.5q124 0 219 -47.5t146 -126.5l-112 -56q-75 124 -255 124q-142 0 -225 -68.5t-83 -196.5t83 -196.5
t225 -68.5z" />
    <glyph glyph-name="ccircumflex" unicode="&#x109;" horiz-adv-x="720" 
d="M168 628h118l98 99l100 -99h118l-154 155h-125zM688 124q-84 -145 -298 -145q-157 0 -248 79.5t-91 214.5q0 136 90.5 216t248.5 80q209 0 295 -141l-110 -47q-50 91 -184 91q-101 0 -163 -51t-62 -148q0 -95 62 -146t163 -51q137 0 187 94z" />
    <glyph glyph-name="Cdotaccent" unicode="&#x10a;" horiz-adv-x="890" 
d="M479 790q-28 0 -45 14.5t-17 37.5q0 25 17 39.5t45 14.5q27 0 43.5 -14.5t16.5 -39.5q0 -23 -16.5 -37.5t-43.5 -14.5zM487 85q181 0 257 124l111 -55q-52 -80 -147.5 -127.5t-223.5 -47.5q-197 0 -312 99.5t-115 271.5t116 271.5t316 99.5q124 0 219 -47.5t146 -126.5
l-112 -56q-75 124 -255 124q-142 0 -225 -68.5t-83 -196.5t83 -196.5t225 -68.5z" />
    <glyph glyph-name="cdotaccent" unicode="&#x10b;" horiz-adv-x="720" 
d="M386 637q-28 0 -45 14.5t-17 37.5q0 25 17 39.5t45 14.5q27 0 43.5 -14.5t16.5 -39.5q0 -23 -16.5 -37.5t-43.5 -14.5zM688 124q-84 -145 -298 -145q-157 0 -248 79.5t-91 214.5q0 136 90.5 216t248.5 80q209 0 295 -141l-110 -47q-50 91 -184 91q-101 0 -163 -51
t-62 -148q0 -95 62 -146t163 -51q137 0 187 94z" />
    <glyph glyph-name="Ccaron" unicode="&#x10c;" horiz-adv-x="890" 
d="M261 936l155 -155h125l154 155h-118l-99 -99l-99 99h-118zM487 85q181 0 257 124l111 -55q-52 -80 -147.5 -127.5t-223.5 -47.5q-197 0 -312 99.5t-115 271.5t116 271.5t316 99.5q124 0 219 -47.5t146 -126.5l-112 -56q-75 124 -255 124q-142 0 -225 -68.5t-83 -196.5
t83 -196.5t225 -68.5z" />
    <glyph glyph-name="ccaron" unicode="&#x10d;" horiz-adv-x="720" 
d="M168 783l155 -155h125l154 155h-118l-99 -99l-99 99h-118zM688 124q-84 -145 -298 -145q-157 0 -248 79.5t-91 214.5q0 136 90.5 216t248.5 80q209 0 295 -141l-110 -47q-50 91 -184 91q-101 0 -163 -51t-62 -148q0 -95 62 -146t163 -51q137 0 187 94z" />
    <glyph glyph-name="Dcaron" unicode="&#x10e;" horiz-adv-x="944" 
d="M242 935l155 -155h125l154 155h-118l-99 -99l-99 99h-118zM461 700q196 0 311 -94t115 -256t-115 -256t-311 -94h-355v700h355zM452 105q142 0 227 63.5t85 181.5t-85 181.5t-227 63.5h-226v-490h226z" />
    <glyph glyph-name="dcaron" unicode="&#x10f;" horiz-adv-x="895" 
d="M348 568q85 0 150 -32t102 -86v290h117v-740h-117v97q-37 -53 -102 -85t-150 -32q-134 0 -215 80t-81 213t81 214t215 81zM837 711q34 0 55 -23t21 -55q0 -105 -101 -184l-25 33q55 60 64 106q-4 -4 -18 -4q-28 0 -47.5 18t-19.5 45q0 28 20 46t51 18zM378 79
q149 0 222 113v164q-72 112 -222 112q-102 0 -157 -50.5t-55 -144.5q0 -93 55 -143.5t157 -50.5z" />
    <glyph glyph-name="Dcroat" unicode="&#x110;" horiz-adv-x="961" 
d="M479 700q196 0 310.5 -94t114.5 -256t-114.5 -256t-310.5 -94h-357v314h-102v86h102v300h357zM469 105q143 0 227.5 62.5t84.5 182.5t-84.5 182.5t-227.5 62.5h-227v-195h215v-86h-215v-209h227z" />
    <glyph glyph-name="dcroat" unicode="&#x111;" horiz-adv-x="801" 
d="M804 655v-62h-87v-593h-117v97q-37 -53 -102 -85t-150 -32q-134 0 -215 80t-81 213t81 214t215 81q85 0 150 -32t102 -86v143h-190v62h190v85h117v-85h87zM600 192v164q-72 112 -222 112q-102 0 -157 -50.5t-55 -144.5q0 -93 55 -143.5t157 -50.5q149 0 222 113z" />
    <glyph glyph-name="Emacron" unicode="&#x112;" horiz-adv-x="854" 
d="M240 890h410v-88h-410v88zM225 105h578v-105h-697v700h687v-105h-568v-187h478v-105h-478v-198z" />
    <glyph glyph-name="emacron" unicode="&#x113;" horiz-adv-x="759" 
d="M593 738v-88h-410v88h410zM166 248q8 -88 69.5 -132.5t166.5 -44.5q74 0 126 19t98 60l68 -73q-110 -98 -298 -98q-163 0 -254 79t-91 215q0 137 89.5 216.5t247.5 79.5q150 0 237.5 -76.5t87.5 -218.5q0 -17 -3 -26h-544zM389 477q-88 0 -145 -37t-73 -109l429 1
q-36 145 -211 145z" />
    <glyph glyph-name="Ebreve" unicode="&#x114;" horiz-adv-x="854" 
d="M627 935q0 -24 -9.5 -50t-29 -52t-56.5 -42.5t-86 -16.5t-86 16.5t-56.5 42.5t-29 52t-9.5 50h84q2 -34 28 -59t69 -25t69 25.5t28 58.5h84zM225 105h578v-105h-697v700h687v-105h-568v-187h478v-105h-478v-198z" />
    <glyph glyph-name="ebreve" unicode="&#x115;" horiz-adv-x="759" 
d="M388 622q-49 0 -86 16.5t-56.5 42.5t-29 52t-9.5 50h84q2 -34 28 -59t69 -25t69 25.5t28 58.5h84q0 -24 -9.5 -50t-29 -52t-56.5 -42.5t-86 -16.5zM166 248q8 -88 69.5 -132.5t166.5 -44.5q74 0 126 19t98 60l68 -73q-110 -98 -298 -98q-163 0 -254 79t-91 215
q0 137 89.5 216.5t247.5 79.5q150 0 237.5 -76.5t87.5 -218.5q0 -17 -3 -26h-544zM389 477q-88 0 -145 -37t-73 -109l429 1q-36 145 -211 145z" />
    <glyph glyph-name="Edotaccent" unicode="&#x116;" horiz-adv-x="854" 
d="M445 789q-28 0 -45 14.5t-17 37.5q0 25 17 39.5t45 14.5q27 0 43.5 -14.5t16.5 -39.5q0 -23 -16.5 -37.5t-43.5 -14.5zM225 105h578v-105h-697v700h687v-105h-568v-187h478v-105h-478v-198z" />
    <glyph glyph-name="edotaccent" unicode="&#x117;" horiz-adv-x="759" 
d="M388 637q-28 0 -45 14.5t-17 37.5q0 25 17 39.5t45 14.5q27 0 43.5 -14.5t16.5 -39.5q0 -23 -16.5 -37.5t-43.5 -14.5zM166 248q8 -88 69.5 -132.5t166.5 -44.5q74 0 126 19t98 60l68 -73q-110 -98 -298 -98q-163 0 -254 79t-91 215q0 137 89.5 216.5t247.5 79.5
q150 0 237.5 -76.5t87.5 -218.5q0 -17 -3 -26h-544zM389 477q-88 0 -145 -37t-73 -109l429 1q-36 145 -211 145z" />
    <glyph glyph-name="Eogonek" unicode="&#x118;" horiz-adv-x="854" 
d="M833 -170l24 -32q-45 -45 -120 -45q-58 0 -99.5 27t-41.5 80q0 47 31.5 84.5t85.5 55.5h-607v700h687v-105h-568v-187h478v-105h-478v-198h578v-105q-50 -18 -84 -54t-34 -77q0 -31 21 -47.5t53 -16.5q41 0 74 25z" />
    <glyph glyph-name="eogonek" unicode="&#x119;" horiz-adv-x="759" 
d="M166 248q8 -88 69.5 -132.5t166.5 -44.5q74 0 126 19t98 60l68 -73q-60 -53 -136 -77h2q-50 -18 -84 -54t-34 -77q0 -31 21 -47.5t53 -16.5q41 0 74 25l24 -32q-45 -45 -120 -45q-58 0 -99.5 27t-41.5 80q0 74 72 119h-29q-163 0 -254 79t-91 215q0 137 89.5 216.5
t247.5 79.5q150 0 237.5 -76.5t87.5 -218.5q0 -17 -3 -26h-544zM389 477q-88 0 -145 -37t-73 -109l429 1q-36 145 -211 145z" />
    <glyph glyph-name="Ecaron" unicode="&#x11a;" horiz-adv-x="854" 
d="M228 935l155 -155h125l154 155h-118l-99 -99l-99 99h-118zM225 105h578v-105h-697v700h687v-105h-568v-187h478v-105h-478v-198z" />
    <glyph glyph-name="ecaron" unicode="&#x11b;" horiz-adv-x="759" 
d="M451 628h-125l-155 155h118l99 -99l99 99h118zM166 248q8 -88 69.5 -132.5t166.5 -44.5q74 0 126 19t98 60l68 -73q-110 -98 -298 -98q-163 0 -254 79t-91 215q0 137 89.5 216.5t247.5 79.5q150 0 237.5 -76.5t87.5 -218.5q0 -17 -3 -26h-544zM389 477q-88 0 -145 -37
t-73 -109l429 1q-36 145 -211 145z" />
    <glyph glyph-name="Gcircumflex" unicode="&#x11c;" horiz-adv-x="949" 
d="M277 781h118l98 99l100 -99h118l-154 155h-125zM893 379v-222q-50 -80 -153 -129t-242 -49q-207 0 -324 99t-117 272t117 272t322 99q230 0 360 -139l-98 -70q-92 104 -261 104q-150 0 -234 -68t-84 -198t85.5 -198t238.5 -68q203 0 274 112v80h-292v103h408z" />
    <glyph glyph-name="gcircumflex" unicode="&#x11d;" horiz-adv-x="807" 
d="M190 629h118l98 99l100 -99h118l-154 155h-125zM717 548v-477q0 -76 -27.5 -133.5t-75.5 -91t-106.5 -50t-125.5 -16.5q-74 0 -151.5 19.5t-123.5 50.5l42 87q92 -60 221 -60q230 0 230 177v51q-38 -54 -106 -85.5t-147 -31.5q-136 0 -216 78.5t-80 210.5q0 133 80 212
t216 79q83 0 148.5 -31t104.5 -87v98h117zM378 83q147 0 222 118v153q-75 118 -222 118q-102 0 -157 -51t-55 -144t55 -143.5t157 -50.5z" />
    <glyph glyph-name="Gbreve" unicode="&#x11e;" horiz-adv-x="949" 
d="M676 936q0 -24 -9.5 -50t-29 -52t-56.5 -42.5t-86 -16.5t-86 16.5t-56.5 42.5t-29 52t-9.5 50h84q2 -34 28 -59t69 -25t69 25.5t28 58.5h84zM893 379v-222q-50 -80 -153 -129t-242 -49q-207 0 -324 99t-117 272t117 272t322 99q230 0 360 -139l-98 -70q-92 104 -261 104
q-150 0 -234 -68t-84 -198t85.5 -198t238.5 -68q203 0 274 112v80h-292v103h408z" />
    <glyph glyph-name="gbreve" unicode="&#x11f;" horiz-adv-x="807" 
d="M589 784q0 -24 -9.5 -50t-29 -52t-56.5 -42.5t-86 -16.5t-86 16.5t-56.5 42.5t-29 52t-9.5 50h84q2 -34 28 -59t69 -25t69 25.5t28 58.5h84zM717 548v-477q0 -76 -27.5 -133.5t-75.5 -91t-106.5 -50t-125.5 -16.5q-74 0 -151.5 19.5t-123.5 50.5l42 87q92 -60 221 -60
q230 0 230 177v51q-38 -54 -106 -85.5t-147 -31.5q-136 0 -216 78.5t-80 210.5q0 133 80 212t216 79q83 0 148.5 -31t104.5 -87v98h117zM378 83q147 0 222 118v153q-75 118 -222 118q-102 0 -157 -51t-55 -144t55 -143.5t157 -50.5z" />
    <glyph glyph-name="Gdotaccent" unicode="&#x120;" horiz-adv-x="949" 
d="M495 790q-28 0 -45 14.5t-17 37.5q0 25 17 39.5t45 14.5q27 0 43.5 -14.5t16.5 -39.5q0 -23 -16.5 -37.5t-43.5 -14.5zM893 379v-222q-50 -80 -153 -129t-242 -49q-207 0 -324 99t-117 272t117 272t322 99q230 0 360 -139l-98 -70q-92 104 -261 104q-150 0 -234 -68
t-84 -198t85.5 -198t238.5 -68q203 0 274 112v80h-292v103h408z" />
    <glyph glyph-name="gdotaccent" unicode="&#x121;" horiz-adv-x="807" 
d="M408 638q-28 0 -45 14.5t-17 37.5q0 25 17 39.5t45 14.5q27 0 43.5 -14.5t16.5 -39.5q0 -23 -16.5 -37.5t-43.5 -14.5zM717 548v-477q0 -76 -27.5 -133.5t-75.5 -91t-106.5 -50t-125.5 -16.5q-74 0 -151.5 19.5t-123.5 50.5l42 87q92 -60 221 -60q230 0 230 177v51
q-38 -54 -106 -85.5t-147 -31.5q-136 0 -216 78.5t-80 210.5q0 133 80 212t216 79q83 0 148.5 -31t104.5 -87v98h117zM378 83q147 0 222 118v153q-75 118 -222 118q-102 0 -157 -51t-55 -144t55 -143.5t157 -50.5z" />
    <glyph glyph-name="Gcommaaccent" unicode="&#x122;" horiz-adv-x="949" 
d="M893 379v-222q-50 -80 -153 -129t-242 -49q-207 0 -324 99t-117 272t117 272t322 99q230 0 360 -139l-98 -70q-92 104 -261 104q-150 0 -234 -68t-84 -198t85.5 -198t238.5 -68q203 0 274 112v80h-292v103h408zM495 -56q35 0 57 -23.5t22 -59.5q0 -48 -27.5 -103.5
t-76.5 -93.5l-31 33q62 63 71 114q-5 -5 -20 -5q-30 0 -50 19.5t-20 49.5q0 29 21 49t54 20z" />
    <glyph glyph-name="gcommaaccent" unicode="&#x123;" horiz-adv-x="807" 
d="M405 642q-35 0 -57 23.5t-22 59.5q0 48 27.5 103.5t76.5 93.5l31 -33q-62 -63 -71 -114q5 5 20 5q30 0 50 -19.5t20 -49.5q0 -29 -21 -49t-54 -20zM717 548v-477q0 -76 -27.5 -133.5t-75.5 -91t-106.5 -50t-125.5 -16.5q-74 0 -151.5 19.5t-123.5 50.5l42 87
q92 -60 221 -60q230 0 230 177v51q-38 -54 -106 -85.5t-147 -31.5q-136 0 -216 78.5t-80 210.5q0 133 80 212t216 79q83 0 148.5 -31t104.5 -87v98h117zM378 83q147 0 222 118v153q-75 118 -222 118q-102 0 -157 -51t-55 -144t55 -143.5t157 -50.5z" />
    <glyph glyph-name="Hcircumflex" unicode="&#x124;" horiz-adv-x="980" 
d="M273 781h118l98 99l100 -99h118l-154 155h-125zM755 700h120v-700h-120v301h-529v-301h-120v700h120v-291h529v291z" />
    <glyph glyph-name="hcircumflex" unicode="&#x125;" 
d="M247 820l-100 99l-98 -99h-118l155 155h125l154 -155h-118zM457 568q121 0 185.5 -70t64.5 -185v-313h-116v305q0 166 -164 166q-150 0 -220 -134v-337h-117v548v192h117v-196v-102q36 59 101.5 92.5t148.5 33.5z" />
    <glyph glyph-name="Hbar" unicode="&#x126;" horiz-adv-x="1021" 
d="M1002 574v-67h-106v-507h-120v301h-529v-301h-120v507h-107v67h107v126h120v-126h529v126h120v-126h106zM776 409v98h-529v-98h529z" />
    <glyph glyph-name="hbar" unicode="&#x127;" 
d="M457 568q121 0 185.5 -70t64.5 -185v-313h-116v305q0 166 -164 166q-150 0 -220 -134v-337h-117v548v45h-92v62h92v85h117v-85h186v-62h-186v-49v-102q36 59 101.5 92.5t148.5 33.5z" />
    <glyph glyph-name="Itilde" unicode="&#x128;" horiz-adv-x="331" 
d="M366 932l61 -60q-22 -33 -62 -57t-93 -24q-45 0 -109 28t-101 28q-35 0 -56.5 -12.5t-40.5 -36.5l-60 59q22 33 62 57.5t93 24.5q44 0 108 -28t103 -28q57 0 95 49zM226 0h-120v700h120v-700z" />
    <glyph glyph-name="itilde" unicode="&#x129;" horiz-adv-x="302" 
d="M351 780l61 -60q-22 -33 -62 -57t-93 -24q-45 0 -109 28t-101 28q-35 0 -56.5 -12.5t-40.5 -36.5l-60 59q22 33 62 57.5t93 24.5q45 0 109 -28t102 -28q57 0 95 49zM209 548v-548h-116v548h116z" />
    <glyph glyph-name="Imacron" unicode="&#x12a;" horiz-adv-x="331" 
d="M-40 890h410v-88h-410v88zM226 0h-120v700h120v-700z" />
    <glyph glyph-name="imacron" unicode="&#x12b;" horiz-adv-x="302" 
d="M-54 738h410v-88h-410v88zM209 548v-548h-116v548h116z" />
    <glyph glyph-name="Ibreve" unicode="&#x12c;" horiz-adv-x="331" 
d="M347 935q0 -24 -9.5 -50t-29 -52t-56.5 -42.5t-86 -16.5t-86 16.5t-56.5 42.5t-29 52t-9.5 50h84q2 -34 28 -59t69 -25t69 25.5t28 58.5h84zM226 0h-120v700h120v-700z" />
    <glyph glyph-name="ibreve" unicode="&#x12d;" horiz-adv-x="302" 
d="M333 783q0 -24 -9.5 -50t-29 -52t-56.5 -42.5t-86 -16.5t-86 16.5t-56.5 42.5t-29 52t-9.5 50h84q2 -34 28 -59t69 -25t69 25.5t28 58.5h84zM209 548v-548h-116v548h116z" />
    <glyph glyph-name="Iogonek" unicode="&#x12e;" horiz-adv-x="331" 
d="M255 -170l24 -32q-45 -45 -120 -45q-58 0 -99.5 27t-41.5 80q0 47 31.5 84.5t85.5 55.5h-29v700h120v-700h-1q-50 -18 -84 -54t-34 -77q0 -31 21 -47.5t53 -16.5q41 0 74 25z" />
    <glyph glyph-name="iogonek" unicode="&#x12f;" horiz-adv-x="300" 
d="M150 623q-32 0 -53.5 19t-21.5 46q0 28 21.5 46.5t53.5 18.5t53 -18.5t21 -46.5q0 -27 -21 -46t-53 -19zM239 -170l24 -32q-45 -45 -120 -45q-58 0 -99.5 27t-41.5 80q0 47 31.5 84.5t85.5 55.5h-26v548h116v-548q-50 -18 -84 -54t-34 -77q0 -31 21 -47.5t53 -16.5
q41 0 74 25z" />
    <glyph glyph-name="Idotaccent" unicode="&#x130;" horiz-adv-x="331" 
d="M166 789q-28 0 -45 14.5t-17 37.5q0 25 17 39.5t45 14.5q27 0 43.5 -14.5t16.5 -39.5q0 -23 -16.5 -37.5t-43.5 -14.5zM226 0h-120v700h120v-700z" />
    <glyph glyph-name="dotlessi" unicode="&#x131;" horiz-adv-x="302" 
d="M209 548v-548h-116v548h116z" />
    <glyph glyph-name="IJ" unicode="&#x132;" horiz-adv-x="1036" 
d="M226 0h-120v700h120v-700zM431 170q31 -44 74.5 -64t111.5 -20q207 0 207 218v396h120v-405q0 -141 -82.5 -228.5t-244.5 -87.5q-188 0 -277 121z" />
    <glyph glyph-name="ij" unicode="&#x133;" horiz-adv-x="599" 
d="M150 623q-32 0 -53.5 19t-21.5 46q0 28 21.5 46.5t53.5 18.5t53 -18.5t21 -46.5q0 -27 -21 -46t-53 -19zM450 623q-32 0 -53.5 18.5t-21.5 46.5t21 46t54 18q32 0 53 -18t21 -46t-21 -46.5t-53 -18.5zM391 548h117v-591q0 -82 -48 -129.5t-128 -47.5q-57 0 -108 21l27 86
q24 -12 56 -12q39 0 61.5 25t22.5 67v581zM209 548v-548h-116v548h116z" />
    <glyph glyph-name="Jcircumflex" unicode="&#x134;" horiz-adv-x="705" 
d="M335 780h118l98 99l100 -99h118l-154 155h-125zM100 170q31 -44 74.5 -64t111.5 -20q207 0 207 218v396h120v-405q0 -141 -82.5 -228.5t-244.5 -87.5q-188 0 -277 121z" />
    <glyph glyph-name="jcircumflex" unicode="&#x135;" horiz-adv-x="433" 
d="M-77 628h118l98 99l100 -99h118l-154 155h-125zM91 548h116v-591q0 -82 -47 -129.5t-125 -47.5q-61 0 -112 21l19 70q32 -14 68 -14q37 0 59 25t22 67v599z" />
    <glyph glyph-name="Kcommaaccent" unicode="&#x136;" horiz-adv-x="888" 
d="M526 424l359 -424h-147l-303 354l-209 -169v-185h-120v700h120v-384l476 384h162zM469 -56q35 0 57 -23.5t22 -59.5q0 -48 -27.5 -103.5t-76.5 -93.5l-31 33q62 63 71 114q-5 -5 -20 -5q-30 0 -50 19.5t-20 49.5q0 29 21 49t54 20z" />
    <glyph glyph-name="kcommaaccent" unicode="&#x137;" horiz-adv-x="710" 
d="M439 331l268 -331h-134l-219 266l-147 -120v-146h-117v740h117v-481l340 289h144zM376 -56q35 0 57 -23.5t22 -59.5q0 -48 -27.5 -103.5t-76.5 -93.5l-31 33q62 63 71 114q-5 -5 -20 -5q-30 0 -50 19.5t-20 49.5q0 29 21 49t54 20z" />
    <glyph glyph-name="kgreenlandic" unicode="&#x138;" horiz-adv-x="710" 
d="M574 0l-220 266l-147 -120v-146h-117v548h117v-289l342 289h142l-252 -217l268 -331h-133z" />
    <glyph glyph-name="Lacute" unicode="&#x139;" horiz-adv-x="763" 
d="M394 935l-226 -155h-98l156 155h168zM226 106h516v-106h-636v700h120v-594z" />
    <glyph glyph-name="lacute" unicode="&#x13a;" horiz-adv-x="302" 
d="M380 975l-226 -155h-98l156 155h168zM209 0h-116v740h116v-740z" />
    <glyph glyph-name="Lcommaaccent" unicode="&#x13b;" horiz-adv-x="763" 
d="M226 106h516v-106h-636v700h120v-594zM425 -56q35 0 57 -23.5t22 -59.5q0 -48 -27.5 -103.5t-76.5 -93.5l-31 33q62 63 71 114q-5 -5 -20 -5q-30 0 -50 19.5t-20 49.5q0 29 21 49t54 20z" />
    <glyph glyph-name="lcommaaccent" unicode="&#x13c;" horiz-adv-x="302" 
d="M209 0h-116v740h116v-740zM152 -56q35 0 57 -23.5t22 -59.5q0 -48 -27.5 -103.5t-76.5 -93.5l-31 33q62 63 71 114q-5 -5 -20 -5q-30 0 -50 19.5t-20 49.5q0 29 21 49t54 20z" />
    <glyph glyph-name="Lcaron" unicode="&#x13d;" horiz-adv-x="763" 
d="M475 719q35 0 57 -23.5t22 -59.5q0 -48 -27.5 -103.5t-76.5 -93.5l-31 33q62 63 71 114q-5 -5 -20 -5q-30 0 -50 19.5t-20 49.5q0 29 21 49t54 20zM226 106h516v-106h-636v700h120v-594z" />
    <glyph glyph-name="lcaron" unicode="&#x13e;" horiz-adv-x="392" 
d="M209 0h-116v740h116v-740zM334 711q34 0 54.5 -23t20.5 -55q0 -106 -100 -184l-25 33q55 60 64 106q-4 -4 -18 -4q-29 0 -48 18t-19 45q0 28 20 46t51 18z" />
    <glyph glyph-name="Ldot" unicode="&#x13f;" horiz-adv-x="763" 
d="M226 101h516v-101h-636v700h120v-599zM457 326q-33 0 -55 20t-22 49q0 30 22 50t55 20t54.5 -20t21.5 -50q0 -29 -21.5 -49t-54.5 -20z" />
    <glyph glyph-name="ldot" unicode="&#x140;" horiz-adv-x="414" 
d="M209 0h-116v740h116v-740zM352 348q-33 0 -55 20t-22 49q0 30 21.5 49.5t55.5 19.5q33 0 54.5 -19.5t21.5 -49.5q0 -29 -21.5 -49t-54.5 -20z" />
    <glyph glyph-name="Lslash" unicode="&#x141;" horiz-adv-x="790" 
d="M253 106h516v-106h-636v296l-104 -48v90l104 49v313h120v-257l201 94v-91l-201 -94v-246z" />
    <glyph glyph-name="lslash" unicode="&#x142;" horiz-adv-x="364" 
d="M348 506v-89l-109 -50v-367h-116v314l-107 -49v91l107 48v336h116v-283z" />
    <glyph glyph-name="Nacute" unicode="&#x143;" horiz-adv-x="980" 
d="M719 935l-226 -155h-98l156 155h168zM758 700h117v-700h-106l-547 552v-552h-116v700h128l524 -531v531z" />
    <glyph glyph-name="nacute" unicode="&#x144;" 
d="M626 783l-226 -155h-98l156 155h168zM207 0h-117v548h117v-106q36 59 101.5 92.5t148.5 33.5q121 0 185.5 -70t64.5 -185v-313h-116v305q0 166 -164 166q-150 0 -220 -134v-337z" />
    <glyph glyph-name="Ncommaaccent" unicode="&#x145;" horiz-adv-x="980" 
d="M758 700h117v-700h-106l-547 552v-552h-116v700h128l524 -531v531zM492 -56q35 0 57 -23.5t22 -59.5q0 -48 -27.5 -103.5t-76.5 -93.5l-31 33q62 63 71 114q-5 -5 -20 -5q-30 0 -50 19.5t-20 49.5q0 29 21 49t54 20z" />
    <glyph glyph-name="ncommaaccent" unicode="&#x146;" 
d="M207 0h-117v548h117v-106q36 59 101.5 92.5t148.5 33.5q121 0 185.5 -70t64.5 -185v-313h-116v305q0 166 -164 166q-150 0 -220 -134v-337zM397 -56q35 0 57 -23.5t22 -59.5q0 -48 -27.5 -103.5t-76.5 -93.5l-31 33q62 63 71 114q-5 -5 -20 -5q-30 0 -50 19.5t-20 49.5
q0 29 21 49t54 20z" />
    <glyph glyph-name="Ncaron" unicode="&#x147;" horiz-adv-x="980" 
d="M274 935l155 -155h125l154 155h-118l-99 -99l-99 99h-118zM758 700h117v-700h-106l-547 552v-552h-116v700h128l524 -531v531z" />
    <glyph glyph-name="ncaron" unicode="&#x148;" 
d="M181 783l155 -155h125l154 155h-118l-99 -99l-99 99h-118zM207 0h-117v548h117v-106q36 59 101.5 92.5t148.5 33.5q121 0 185.5 -70t64.5 -185v-313h-116v305q0 166 -164 166q-150 0 -220 -134v-337z" />
    <glyph glyph-name="napostrophe" unicode="&#x149;" horiz-adv-x="914" 
d="M109 716q34 0 55.5 -23.5t21.5 -57.5q0 -49 -27 -103t-75 -92l-29 33q59 62 68 115q-3 -6 -19 -6q-29 0 -49 19.5t-20 47.5q0 29 21 48t53 19zM328 0h-116v548h116v-112q82 132 251 132q121 0 185.5 -70t64.5 -185v-313h-117v307q0 82 -41.5 125t-122.5 43
q-148 0 -220 -136v-339z" />
    <glyph glyph-name="Eng" unicode="&#x14a;" horiz-adv-x="980" 
d="M875 700v-674h-1v-49q0 -93 -52 -145t-139 -52q-66 0 -112 19l23 86q25 -11 64 -11q50 0 75.5 24t25.5 77v36l-537 541v-552h-116v700h128l523 -531v531h118z" />
    <glyph glyph-name="eng" unicode="&#x14b;" 
d="M457 568q121 0 185.5 -70t64.5 -185v-313v-43q0 -83 -48 -130t-129 -47q-54 0 -108 21l26 82q30 -10 58 -10q40 0 62.5 21t22.5 58v146v208q0 166 -164 166q-150 0 -220 -135v-337h-117v548h117v-110q36 62 101 96t149 34z" />
    <glyph glyph-name="Omacron" unicode="&#x14c;" horiz-adv-x="984" 
d="M287 890h410v-88h-410v88zM492 -21q-202 0 -318.5 99t-116.5 272t116.5 272t318.5 99t318.5 -99t116.5 -272t-116.5 -272t-318.5 -99zM492 85q144 0 228 69.5t84 195.5t-84 195.5t-228 69.5t-228.5 -69.5t-84.5 -195.5t84 -195.5t229 -69.5z" />
    <glyph glyph-name="omacron" unicode="&#x14d;" horiz-adv-x="785" 
d="M187 738h410v-88h-410v88zM392 -21q-159 0 -250 79t-91 215q0 137 91 216.5t250 79.5t250 -79.5t91 -216.5q0 -136 -91 -215t-250 -79zM392 77q102 0 164.5 50.5t62.5 145.5q0 96 -62.5 147t-164.5 51q-101 0 -163.5 -51t-62.5 -147q0 -95 62.5 -145.5t163.5 -50.5z" />
    <glyph glyph-name="Obreve" unicode="&#x14e;" horiz-adv-x="984" 
d="M674 935q0 -24 -9.5 -50t-29 -52t-56.5 -42.5t-86 -16.5t-86 16.5t-56.5 42.5t-29 52t-9.5 50h84q2 -34 28 -59t69 -25t69 25.5t28 58.5h84zM492 -21q-202 0 -318.5 99t-116.5 272t116.5 272t318.5 99t318.5 -99t116.5 -272t-116.5 -272t-318.5 -99zM492 85
q144 0 228 69.5t84 195.5t-84 195.5t-228 69.5t-228.5 -69.5t-84.5 -195.5t84 -195.5t229 -69.5z" />
    <glyph glyph-name="obreve" unicode="&#x14f;" horiz-adv-x="785" 
d="M574 783q0 -24 -9.5 -50t-29 -52t-56.5 -42.5t-86 -16.5t-86 16.5t-56.5 42.5t-29 52t-9.5 50h84q2 -34 28 -59t69 -25t69 25.5t28 58.5h84zM392 -21q-159 0 -250 79t-91 215q0 137 91 216.5t250 79.5t250 -79.5t91 -216.5q0 -136 -91 -215t-250 -79zM392 77
q102 0 164.5 50.5t62.5 145.5q0 96 -62.5 147t-164.5 51q-101 0 -163.5 -51t-62.5 -147q0 -95 62.5 -145.5t163.5 -50.5z" />
    <glyph glyph-name="Ohungarumlaut" unicode="&#x150;" horiz-adv-x="984" 
d="M568 935l-165 -155h-112l164 155h113zM778 935l-164 -155h-113l164 155h113zM492 -21q-202 0 -318.5 99t-116.5 272t116.5 272t318.5 99t318.5 -99t116.5 -272t-116.5 -272t-318.5 -99zM492 85q144 0 228 69.5t84 195.5t-84 195.5t-228 69.5t-228.5 -69.5t-84.5 -195.5
t84 -195.5t229 -69.5z" />
    <glyph glyph-name="ohungarumlaut" unicode="&#x151;" horiz-adv-x="785" 
d="M468 783l-165 -155h-112l164 155h113zM678 783l-164 -155h-113l164 155h113zM392 -21q-159 0 -250 79t-91 215q0 137 91 216.5t250 79.5t250 -79.5t91 -216.5q0 -136 -91 -215t-250 -79zM392 77q102 0 164.5 50.5t62.5 145.5q0 96 -62.5 147t-164.5 51q-101 0 -163.5 -51
t-62.5 -147q0 -95 62.5 -145.5t163.5 -50.5z" />
    <glyph glyph-name="OE" unicode="&#x152;" horiz-adv-x="1467" 
d="M838 105h579v-105h-698h-236q-196 0 -311 94t-115 256t115 256t311 94h354h570v-105h-569v-187h479v-105h-479v-198zM719 104v492h-227q-143 0 -228 -63t-85 -183t85 -183t228 -63h227z" />
    <glyph glyph-name="oe" unicode="&#x153;" horiz-adv-x="1326" 
d="M733 248q8 -88 69.5 -132.5t166.5 -44.5q74 0 126 18t99 58l67 -70q-110 -98 -298 -98q-200 0 -289 116q-89 -116 -282 -116q-159 0 -250 79t-91 215q0 137 91 216.5t250 79.5q191 0 282 -116q88 116 281 116q151 0 238.5 -76.5t87.5 -218.5q0 -17 -3 -26h-545zM956 477
q-87 0 -144.5 -37.5t-73.5 -108.5l429 1q-35 145 -211 145zM392 77q101 0 164 51t63 145q0 96 -62.5 147t-164.5 51q-101 0 -163.5 -51t-62.5 -147q0 -94 62.5 -145t163.5 -51z" />
    <glyph glyph-name="Racute" unicode="&#x154;" horiz-adv-x="928" 
d="M674 935l-226 -155h-98l156 155h168zM886 0h-148l-217 254h-295v-254h-120v700h476q126 0 204.5 -58.5t78.5 -164.5q0 -88 -55.5 -144t-150.5 -73zM225 357h349q168 0 168 119t-168 119h-349v-238z" />
    <glyph glyph-name="racute" unicode="&#x155;" horiz-adv-x="483" 
d="M506 783l-226 -155h-98l156 155h168zM207 0h-117v548h117v-125q32 65 102 100.5t157 35.5v-102q-94 0 -163 -39.5t-96 -114.5v-303z" />
    <glyph glyph-name="Rcommaaccent" unicode="&#x156;" horiz-adv-x="928" 
d="M659 260l227 -260h-148l-217 254h-295v-254h-120v700h476q126 0 204.5 -58.5t78.5 -164.5q0 -88 -55.5 -144t-150.5 -73zM225 357h349q168 0 168 119t-168 119h-349v-238zM467 -56q35 0 57 -23.5t22 -59.5q0 -48 -27.5 -103.5t-76.5 -93.5l-31 33q62 63 71 114
q-5 -5 -20 -5q-30 0 -50 19.5t-20 49.5q0 29 21 49t54 20z" />
    <glyph glyph-name="rcommaaccent" unicode="&#x157;" horiz-adv-x="483" 
d="M207 0h-117v548h117v-125q32 65 102 100.5t157 35.5v-102q-94 0 -163 -39.5t-96 -114.5v-303zM149 -56q35 0 57 -23.5t22 -59.5q0 -48 -27.5 -103.5t-76.5 -93.5l-31 33q62 63 71 114q-5 -5 -20 -5q-30 0 -50 19.5t-20 49.5q0 29 21 49t54 20z" />
    <glyph glyph-name="Rcaron" unicode="&#x158;" horiz-adv-x="928" 
d="M508 780h-125l-155 155h118l99 -99l99 99h118zM886 0h-148l-217 254h-295v-254h-120v700h476q126 0 204.5 -58.5t78.5 -164.5q0 -88 -55.5 -144t-150.5 -73zM225 357h349q168 0 168 119t-168 119h-349v-238z" />
    <glyph glyph-name="rcaron" unicode="&#x159;" horiz-adv-x="483" 
d="M60 783l155 -155h125l154 155h-118l-99 -99l-99 99h-118zM207 0h-117v548h117v-125q32 65 102 100.5t157 35.5v-102q-94 0 -163 -39.5t-96 -114.5v-303z" />
    <glyph glyph-name="Sacute" unicode="&#x15a;" horiz-adv-x="868" 
d="M665 935l-226 -155h-98l156 155h168zM456 414q88 -7 151 -19.5t115 -35.5t78 -61t26 -91q0 -102 -97.5 -165t-271.5 -63q-253 0 -418 142l75 85q137 -123 348 -123q117 0 179.5 29.5t62.5 84.5q0 51 -60.5 72.5t-203.5 33.5q-80 7 -141.5 19t-117.5 34t-86 60t-30 89
q0 101 102.5 158.5t259.5 57.5q112 0 206.5 -31t158.5 -85l-76 -82q-106 92 -287 94q-60 1 -112.5 -8.5t-91.5 -34t-39 -61.5q0 -50 65.5 -69t204.5 -30z" />
    <glyph glyph-name="sacute" unicode="&#x15b;" horiz-adv-x="700" 
d="M580 783l-226 -155h-98l156 155h168zM369 330q292 -21 292 -169q0 -80 -76.5 -131t-216.5 -51q-201 0 -330 113l63 69q106 -91 270 -91q80 0 129.5 20.5t49.5 60.5q0 39 -47.5 56.5t-152.5 25.5q-291 21 -291 163q0 80 78 126.5t216 46.5q80 0 155 -24.5t126 -62.5
l-61 -76q-91 71 -226 72q-70 0 -123.5 -17.5t-53.5 -57.5q0 -38 49 -52.5t150 -20.5z" />
    <glyph glyph-name="Scircumflex" unicode="&#x15c;" horiz-adv-x="868" 
d="M220 780h118l98 99l100 -99h118l-154 155h-125zM456 414q88 -7 151 -19.5t115 -35.5t78 -61t26 -91q0 -102 -97.5 -165t-271.5 -63q-253 0 -418 142l75 85q137 -123 348 -123q117 0 179.5 29.5t62.5 84.5q0 51 -60.5 72.5t-203.5 33.5q-80 7 -141.5 19t-117.5 34t-86 60
t-30 89q0 101 102.5 158.5t259.5 57.5q112 0 206.5 -31t158.5 -85l-76 -82q-106 92 -287 94q-60 1 -112.5 -8.5t-91.5 -34t-39 -61.5q0 -50 65.5 -69t204.5 -30z" />
    <glyph glyph-name="scircumflex" unicode="&#x15d;" horiz-adv-x="700" 
d="M134 628h118l98 99l100 -99h118l-154 155h-125zM369 330q292 -21 292 -169q0 -80 -76.5 -131t-216.5 -51q-201 0 -330 113l63 69q106 -91 270 -91q80 0 129.5 20.5t49.5 60.5q0 39 -47.5 56.5t-152.5 25.5q-291 21 -291 163q0 80 78 126.5t216 46.5q80 0 155 -24.5
t126 -62.5l-61 -76q-91 71 -226 72q-70 0 -123.5 -17.5t-53.5 -57.5q0 -38 49 -52.5t150 -20.5z" />
    <glyph glyph-name="Scedilla" unicode="&#x15e;" horiz-adv-x="868" 
d="M456 414q88 -7 151 -19.5t115 -35.5t78 -61t26 -91q0 -102 -97.5 -165t-271.5 -63q-253 0 -418 142l75 85q137 -123 348 -123q117 0 179.5 29.5t62.5 84.5q0 51 -60.5 72.5t-203.5 33.5q-80 7 -141.5 19t-117.5 34t-86 60t-30 89q0 101 102.5 158.5t259.5 57.5
q112 0 206.5 -31t158.5 -85l-76 -82q-106 92 -287 94q-60 1 -112.5 -8.5t-91.5 -34t-39 -61.5q0 -50 65.5 -69t204.5 -30zM495 -54l-128 -160l-85 23l102 155z" />
    <glyph glyph-name="scedilla" unicode="&#x15f;" horiz-adv-x="700" 
d="M369 330q292 -21 292 -169q0 -80 -76.5 -131t-216.5 -51q-201 0 -330 113l63 69q106 -91 270 -91q80 0 129.5 20.5t49.5 60.5q0 39 -47.5 56.5t-152.5 25.5q-291 21 -291 163q0 80 78 126.5t216 46.5q80 0 155 -24.5t126 -62.5l-61 -76q-91 71 -226 72
q-70 0 -123.5 -17.5t-53.5 -57.5q0 -38 49 -52.5t150 -20.5zM404 -54l-128 -160l-85 23l102 155z" />
    <glyph glyph-name="Scaron" unicode="&#x160;" horiz-adv-x="868" 
d="M220 935l155 -155h125l154 155h-118l-99 -99l-99 99h-118zM456 414q88 -7 151 -19.5t115 -35.5t78 -61t26 -91q0 -102 -97.5 -165t-271.5 -63q-253 0 -418 142l75 85q137 -123 348 -123q117 0 179.5 29.5t62.5 84.5q0 51 -60.5 72.5t-203.5 33.5q-80 7 -141.5 19
t-117.5 34t-86 60t-30 89q0 101 102.5 158.5t259.5 57.5q112 0 206.5 -31t158.5 -85l-76 -82q-106 92 -287 94q-60 1 -112.5 -8.5t-91.5 -34t-39 -61.5q0 -50 65.5 -69t204.5 -30z" />
    <glyph glyph-name="scaron" unicode="&#x161;" horiz-adv-x="700" 
d="M134 783l155 -155h125l154 155h-118l-99 -99l-99 99h-118zM369 330q292 -21 292 -169q0 -80 -76.5 -131t-216.5 -51q-201 0 -330 113l63 69q106 -91 270 -91q80 0 129.5 20.5t49.5 60.5q0 39 -47.5 56.5t-152.5 25.5q-291 21 -291 163q0 80 78 126.5t216 46.5
q80 0 155 -24.5t126 -62.5l-61 -76q-91 71 -226 72q-70 0 -123.5 -17.5t-53.5 -57.5q0 -38 49 -52.5t150 -20.5z" />
    <glyph glyph-name="uni0162" unicode="&#x162;" horiz-adv-x="796" 
d="M776 700v-105h-319v-595h-120v595h-317v105h756zM446 -45l-128 -160l-85 23l102 155z" />
    <glyph glyph-name="uni0163" unicode="&#x163;" horiz-adv-x="505" 
d="M126 151v304h-106v93h106v127h117v-127h239v-93h-239v-285q0 -44 29.5 -67.5t74.5 -23.5q49 0 109 33l31 -81q-77 -51 -169 -51q-84 0 -138 44.5t-54 126.5zM121 -191l102 155l111 -18l-128 -160z" />
    <glyph glyph-name="Tcaron" unicode="&#x164;" horiz-adv-x="796" 
d="M180 935l155 -155h125l154 155h-118l-99 -99l-99 99h-118zM776 700v-105h-319v-595h-120v595h-317v105h756z" />
    <glyph glyph-name="tcaron" unicode="&#x165;" horiz-adv-x="516" 
d="M372 726q-28 0 -48 19t-20 46t20 45.5t51 18.5q35 0 55.5 -23t20.5 -55q0 -108 -100 -184l-25 32q54 61 64 107q-6 -6 -18 -6zM456 112l31 -81q-77 -51 -169 -51q-84 0 -138 44.5t-54 126.5v304h-106v93h106v127h117v-127h239v-93h-239v-285q0 -44 29.5 -67.5t74.5 -23.5
q49 0 109 33z" />
    <glyph glyph-name="Tbar" unicode="&#x166;" horiz-adv-x="796" 
d="M776 595h-319v-205h146v-92h-146v-298h-120v298h-144v92h144v205h-317v105h756v-105z" />
    <glyph glyph-name="tbar" unicode="&#x167;" horiz-adv-x="505" 
d="M456 112l31 -81q-77 -51 -169 -51q-84 0 -138 44.5t-54 126.5v154h-75v63h75v87h-106v93h106v127h117v-127h239v-93h-239v-87h202v-63h-202v-135q0 -44 29.5 -67.5t74.5 -23.5q49 0 109 33z" />
    <glyph glyph-name="Utilde" unicode="&#x168;" horiz-adv-x="946" 
d="M673 932l61 -60q-22 -33 -62 -57t-93 -24q-45 0 -109 28t-101 28q-35 0 -56.5 -12.5t-40.5 -36.5l-60 59q22 33 62 57.5t93 24.5q45 0 109 -28t102 -28q57 0 95 49zM734 700h120v-370q0 -159 -99.5 -255t-281.5 -96q-181 0 -280.5 96t-99.5 255v370h120v-362
q0 -119 68 -185.5t192 -66.5q125 0 193 66.5t68 185.5v362z" />
    <glyph glyph-name="utilde" unicode="&#x169;" 
d="M586 780l61 -60q-22 -33 -62 -57t-93 -24q-45 0 -109 28t-101 28q-35 0 -56.5 -12.5t-40.5 -36.5l-60 59q22 33 62 57.5t93 24.5q44 0 108 -28t103 -28q57 0 95 49zM586 548h117v-548h-117v106q-36 -59 -101.5 -92.5t-148.5 -33.5q-121 0 -185.5 70t-64.5 185v313h116
v-305q0 -166 164 -166q150 0 220 134v337z" />
    <glyph glyph-name="Umacron" unicode="&#x16a;" horiz-adv-x="946" 
d="M268 890h410v-88h-410v88zM734 700h120v-370q0 -159 -99.5 -255t-281.5 -96q-181 0 -280.5 96t-99.5 255v370h120v-362q0 -119 68 -185.5t192 -66.5q125 0 193 66.5t68 185.5v362z" />
    <glyph glyph-name="umacron" unicode="&#x16b;" 
d="M181 738h410v-88h-410v88zM586 548h117v-548h-117v106q-36 -59 -101.5 -92.5t-148.5 -33.5q-121 0 -185.5 70t-64.5 185v313h116v-305q0 -166 164 -166q150 0 220 134v337z" />
    <glyph glyph-name="Ubreve" unicode="&#x16c;" horiz-adv-x="946" 
d="M655 935q0 -24 -9.5 -50t-29 -52t-56.5 -42.5t-86 -16.5t-86 16.5t-56.5 42.5t-29 52t-9.5 50h84q2 -34 28 -59t69 -25t69 25.5t28 58.5h84zM734 700h120v-370q0 -159 -99.5 -255t-281.5 -96q-181 0 -280.5 96t-99.5 255v370h120v-362q0 -119 68 -185.5t192 -66.5
q125 0 193 66.5t68 185.5v362z" />
    <glyph glyph-name="ubreve" unicode="&#x16d;" 
d="M568 783q0 -24 -9.5 -50t-29 -52t-56.5 -42.5t-86 -16.5t-86 16.5t-56.5 42.5t-29 52t-9.5 50h84q2 -34 28 -59t69 -25t69 25.5t28 58.5h84zM586 548h117v-548h-117v106q-36 -59 -101.5 -92.5t-148.5 -33.5q-121 0 -185.5 70t-64.5 185v313h116v-305q0 -166 164 -166
q150 0 220 134v337z" />
    <glyph glyph-name="Uring" unicode="&#x16e;" horiz-adv-x="946" 
d="M473 772q-61 0 -100 29t-39 82t39 82.5t100 29.5t100.5 -29.5t39.5 -82.5t-39.5 -82t-100.5 -29zM409 883q0 -28 17.5 -43t47.5 -15t48 15t18 43q0 27 -18 42.5t-48 15.5t-47.5 -15.5t-17.5 -42.5zM734 700h120v-370q0 -159 -99.5 -255t-281.5 -96q-181 0 -280.5 96
t-99.5 255v370h120v-362q0 -119 68 -185.5t192 -66.5q125 0 193 66.5t68 185.5v362z" />
    <glyph glyph-name="uring" unicode="&#x16f;" 
d="M386 620q-61 0 -100 29t-39 82t39 82.5t100 29.5t100.5 -29.5t39.5 -82.5t-39.5 -82t-100.5 -29zM322 731q0 -28 17.5 -43t47.5 -15t48 15t18 43q0 27 -18 42.5t-48 15.5t-47.5 -15.5t-17.5 -42.5zM586 548h117v-548h-117v106q-36 -59 -101.5 -92.5t-148.5 -33.5
q-121 0 -185.5 70t-64.5 185v313h116v-305q0 -166 164 -166q150 0 220 134v337z" />
    <glyph glyph-name="Uhungarumlaut" unicode="&#x170;" horiz-adv-x="946" 
d="M549 935l-165 -155h-112l164 155h113zM759 935l-164 -155h-113l164 155h113zM734 700h120v-370q0 -159 -99.5 -255t-281.5 -96q-181 0 -280.5 96t-99.5 255v370h120v-362q0 -119 68 -185.5t192 -66.5q125 0 193 66.5t68 185.5v362z" />
    <glyph glyph-name="uhungarumlaut" unicode="&#x171;" 
d="M462 783l-165 -155h-112l164 155h113zM672 783l-164 -155h-113l164 155h113zM586 548h117v-548h-117v106q-36 -59 -101.5 -92.5t-148.5 -33.5q-121 0 -185.5 70t-64.5 185v313h116v-305q0 -166 164 -166q150 0 220 134v337z" />
    <glyph glyph-name="Uogonek" unicode="&#x172;" horiz-adv-x="946" 
d="M734 700h120v-370q0 -121 -59.5 -207.5t-170.5 -122.5h1q-50 -18 -84 -54t-34 -77q0 -31 21 -47.5t53 -16.5q41 0 74 25l24 -32q-45 -45 -120 -45q-58 0 -99.5 27t-41.5 80q0 73 72 119h-17q-181 0 -280.5 96t-99.5 255v370h120v-362q0 -119 68 -185.5t192 -66.5
q125 0 193 66.5t68 185.5v362z" />
    <glyph glyph-name="uogonek" unicode="&#x173;" 
d="M722 -170l24 -32q-45 -45 -120 -45q-58 0 -99.5 27t-41.5 80q0 47 31.5 84.5t85.5 55.5h-16v106q-36 -59 -101.5 -92.5t-148.5 -33.5q-121 0 -185.5 70t-64.5 185v313h116v-305q0 -166 164 -166q150 0 220 134v337h117v-548h-11q-50 -18 -84 -54t-34 -77q0 -31 21 -47.5
t53 -16.5q41 0 74 25z" />
    <glyph glyph-name="Wcircumflex" unicode="&#x174;" horiz-adv-x="1219" 
d="M393 780h118l98 99l100 -99h118l-154 155h-125zM1071 700h125l-256 -700h-124l-206 565l-207 -565h-123l-257 700h128l193 -560l208 560h118l207 -560z" />
    <glyph glyph-name="wcircumflex" unicode="&#x175;" horiz-adv-x="1006" 
d="M287 628h118l98 99l100 -99h118l-154 155h-125zM865 548h115l-202 -548h-116l-158 429l-160 -429h-117l-202 548h118l150 -422l156 422h110l156 -422z" />
    <glyph glyph-name="Ycircumflex" unicode="&#x176;" horiz-adv-x="831" 
d="M199 780h118l98 99l100 -99h118l-154 155h-125zM11 700h139l267 -355l265 355h138l-344 -458v-242h-120v242z" />
    <glyph glyph-name="ycircumflex" unicode="&#x177;" horiz-adv-x="716" 
d="M141 628h118l98 99l100 -99h118l-154 155h-125zM577 548h123l-414 -748h-122l137 236l-286 512h126l220 -400z" />
    <glyph glyph-name="Ydieresis" unicode="&#x178;" horiz-adv-x="831" 
d="M284 789q-29 0 -47.5 16.5t-18.5 40.5q0 25 18.5 41.5t47.5 16.5q28 0 46 -16.5t18 -41.5q0 -24 -18.5 -40.5t-45.5 -16.5zM550 789q-28 0 -47 16.5t-19 40.5q0 25 19 41.5t47 16.5t46 -16.5t18 -41.5q0 -24 -18.5 -40.5t-45.5 -16.5zM11 700h139l267 -355l265 355h138
l-344 -458v-242h-120v242z" />
    <glyph glyph-name="Zacute" unicode="&#x179;" horiz-adv-x="852" 
d="M672 935l-226 -155h-98l156 155h168zM788 700v-84l-561 -513h577v-103h-757v84l561 513h-543v103h723z" />
    <glyph glyph-name="zacute" unicode="&#x17a;" horiz-adv-x="679" 
d="M575 783l-226 -155h-98l156 155h168zM623 548v-77l-417 -378h429v-94h-593v78l416 378h-402v93h567z" />
    <glyph glyph-name="Zdotaccent" unicode="&#x17b;" horiz-adv-x="852" 
d="M443 789q-28 0 -45 14.5t-17 37.5q0 25 17 39.5t45 14.5q27 0 43.5 -14.5t16.5 -39.5q0 -23 -16.5 -37.5t-43.5 -14.5zM788 700v-84l-561 -513h577v-103h-757v84l561 513h-543v103h723z" />
    <glyph glyph-name="zdotaccent" unicode="&#x17c;" horiz-adv-x="679" 
d="M346 637q-28 0 -45 14.5t-17 37.5q0 25 17 39.5t45 14.5q27 0 43.5 -14.5t16.5 -39.5q0 -23 -16.5 -37.5t-43.5 -14.5zM623 548v-77l-417 -378h429v-94h-593v78l416 378h-402v93h567z" />
    <glyph glyph-name="Zcaron" unicode="&#x17d;" horiz-adv-x="852" 
d="M226 935l155 -155h125l154 155h-118l-99 -99l-99 99h-118zM788 700v-84l-561 -513h577v-103h-757v84l561 513h-543v103h723z" />
    <glyph glyph-name="zcaron" unicode="&#x17e;" horiz-adv-x="679" 
d="M129 783l155 -155h125l154 155h-118l-99 -99l-99 99h-118zM623 548v-77l-417 -378h429v-94h-593v78l416 378h-402v93h567z" />
    <glyph glyph-name="florin" unicode="&#x192;" horiz-adv-x="677" 
d="M540 631q-43 0 -72.5 -22.5t-33.5 -66.5l-15 -147h181l-7 -73h-182l-18 -179q-9 -77 -64 -121t-130 -44q-82 0 -144 35l33 78q38 -22 85 -22q44 0 73 22.5t33 66.5l18 164h-183l7 73h183l18 162q7 76 62 120.5t129 44.5q85 0 145 -35l-34 -78q-42 22 -84 22z" />
    <glyph glyph-name="Aringacute" unicode="&#x1fa;" horiz-adv-x="907" 
d="M453 772q-61 0 -100 29t-39 82q0 55 42 84l112 122h123l-120 -95q54 -4 88 -33t34 -78q0 -53 -39.5 -82t-100.5 -29zM520 883q0 27 -18 42.5t-48 15.5t-47.5 -15.5t-17.5 -42.5q0 -28 17.5 -43t47.5 -15t48 15t18 43zM767 0l-90 169h-449l-89 -169h-130l379 700h132
l378 -700h-131zM282 271h342l-171 324z" />
    <glyph glyph-name="aringacute" unicode="&#x1fb;" horiz-adv-x="753" 
d="M236 731q0 46 30 74h-1l122 131h123l-120 -94q55 -3 90 -32.5t35 -78.5q0 -53 -39.5 -82t-100.5 -29t-100 29t-39 82zM442 731q0 27 -18 42.5t-48 15.5t-47.5 -15.5t-17.5 -42.5q0 -28 17.5 -43t47.5 -15t48 15t18 43zM669 106q0 -62 25 -106h-121q-21 36 -21 77v1
q-35 -43 -97 -70.5t-142 -27.5q-48 0 -93.5 10t-87.5 31.5t-68 60.5t-26 90t26 89.5t68 60t88 31.5t93 10q80 0 142 -27.5t97 -70.5v40q0 171 -213 171q-114 0 -208 -55l-42 79q51 31 124.5 49.5t147.5 18.5q145 0 226.5 -68t81.5 -195v-199zM554 163v17q-57 99 -219 99
q-43 0 -80.5 -7.5t-69.5 -33t-32 -66.5q0 -32 17.5 -54.5t46.5 -33.5t58 -15.5t60 -4.5q70 0 129 23.5t90 75.5z" />
    <glyph glyph-name="AEacute" unicode="&#x1fc;" horiz-adv-x="1403" 
d="M1168 935l-226 -155h-98l156 155h168zM774 105h578v-105h-698v166h-378l-143 -166h-143l611 700h69h672v-105h-568v-187h478v-105h-478v-198zM360 263h294v341z" />
    <glyph glyph-name="aeacute" unicode="&#x1fd;" horiz-adv-x="1254" 
d="M841 783l-226 -155h-98l156 155h168zM665 249v-35q31 -141 232 -141q76 0 127 17t98 58l67 -71q-111 -98 -298 -98q-208 0 -295 126q-38 -60 -117 -92.5t-165 -32.5q-48 0 -94 10t-88 31.5t-68 60.5t-26 90t26 89.5t68 60t88 31.5t93 10q81 0 143 -29t96 -76v47
q0 172 -213 172q-119 0 -213 -57l-35 83q113 65 270 65q178 0 255 -100q87 101 267 101q149 0 237 -77t88 -217q0 -14 -2 -26h-541zM884 476q-189 0 -219 -143h430q-31 143 -211 143zM554 163v17q-58 100 -219 100q-31 0 -60 -5t-58 -16t-46.5 -33.5t-17.5 -53.5
q0 -32 17.5 -54.5t46.5 -33.5t58 -16t60 -5q69 0 128.5 24t90.5 76z" />
    <glyph glyph-name="Oslashacute" unicode="&#x1fe;" horiz-adv-x="984" 
d="M720 935l-226 -155h-98l156 155h168zM772 651q155 -100 155 -301q0 -173 -116.5 -272t-318.5 -99q-114 0 -202 32l-79 -104h-107l108 143q-155 98 -155 300q0 173 116.5 272t318.5 99q114 0 202 -32l78 104h108zM179 350q0 -138 102 -209l343 456q-58 18 -132 18
q-144 0 -228.5 -69.5t-84.5 -195.5zM492 85q144 0 228 69.5t84 195.5q0 139 -101 209l-344 -456q58 -18 133 -18z" />
    <glyph glyph-name="oslashacute" unicode="&#x1ff;" horiz-adv-x="785" 
d="M618 783l-226 -155h-98l156 155h168zM594 523q139 -77 139 -250q0 -136 -91 -215t-250 -79q-71 0 -133 17l-57 -89h-90l76 119q-137 76 -137 247q0 137 91 216.5t250 79.5q71 0 131 -17l57 89h90zM166 273q0 -106 79 -158l221 348q-37 8 -74 8q-101 0 -163.5 -51
t-62.5 -147zM392 77q102 0 164.5 50.5t62.5 145.5q0 109 -81 161l-222 -349q31 -8 76 -8z" />
    <glyph glyph-name="Scommaaccent" unicode="&#x218;" horiz-adv-x="868" 
d="M456 414q88 -7 151 -19.5t115 -35.5t78 -61t26 -91q0 -102 -97.5 -165t-271.5 -63q-253 0 -418 142l75 85q137 -123 348 -123q117 0 179.5 29.5t62.5 84.5q0 51 -60.5 72.5t-203.5 33.5q-80 7 -141.5 19t-117.5 34t-86 60t-30 89q0 101 102.5 158.5t259.5 57.5
q112 0 206.5 -31t158.5 -85l-76 -82q-106 92 -287 94q-60 1 -112.5 -8.5t-91.5 -34t-39 -61.5q0 -50 65.5 -69t204.5 -30zM450 -56q35 0 57 -23.5t22 -59.5q0 -48 -27.5 -103.5t-76.5 -93.5l-31 33q62 63 71 114q-5 -5 -20 -5q-30 0 -50 19.5t-20 49.5q0 29 21 49t54 20z
" />
    <glyph glyph-name="scommaaccent" unicode="&#x219;" horiz-adv-x="700" 
d="M369 330q292 -21 292 -169q0 -80 -76.5 -131t-216.5 -51q-201 0 -330 113l63 69q106 -91 270 -91q80 0 129.5 20.5t49.5 60.5q0 39 -47.5 56.5t-152.5 25.5q-291 21 -291 163q0 80 78 126.5t216 46.5q80 0 155 -24.5t126 -62.5l-61 -76q-91 71 -226 72
q-70 0 -123.5 -17.5t-53.5 -57.5q0 -38 49 -52.5t150 -20.5zM359 -56q35 0 57 -23.5t22 -59.5q0 -48 -27.5 -103.5t-76.5 -93.5l-31 33q62 63 71 114q-5 -5 -20 -5q-30 0 -50 19.5t-20 49.5q0 29 21 49t54 20z" />
    <glyph glyph-name="uni021B" unicode="&#x21b;" horiz-adv-x="505" 
d="M487 31q-77 -51 -169 -51q-84 0 -138 44.5t-54 126.5v304h-106v93h106v127h117v-127h239v-93h-239v-285q0 -44 29.5 -67.5t74.5 -23.5q49 0 109 33zM290 -56q35 0 57 -23.5t22 -59.5q0 -48 -27.5 -103.5t-76.5 -93.5l-31 33q62 63 71 114q-5 -5 -20 -5q-30 0 -50 19.5
t-20 49.5q0 29 21 49t54 20z" />
    <glyph glyph-name="uni0237" unicode="&#x237;" horiz-adv-x="300" 
d="M91 548h117v-591q0 -82 -48 -129.5t-128 -47.5q-57 0 -108 21l27 86q24 -12 56 -12q39 0 61.5 25t22.5 67v581z" />
    <glyph glyph-name="circumflex" unicode="&#x2c6;" horiz-adv-x="577" 
d="M71 780h118l98 99l100 -99h118l-154 155h-125z" />
    <glyph glyph-name="caron" unicode="&#x2c7;" horiz-adv-x="577" 
d="M71 935l155 -155h125l154 155h-118l-99 -99l-99 99h-118z" />
    <glyph glyph-name="breve" unicode="&#x2d8;" horiz-adv-x="577" 
d="M481 935q0 -24 -9.5 -50t-29 -52t-56.5 -42.5t-86 -16.5t-86 16.5t-56.5 42.5t-29 52t-9.5 50h84q2 -34 28 -59t69 -25t69 25.5t28 58.5h84z" />
    <glyph glyph-name="dotaccent" unicode="&#x2d9;" horiz-adv-x="577" 
d="M289 789q-28 0 -45 14.5t-17 37.5q0 25 17 39.5t45 14.5q27 0 43.5 -14.5t16.5 -39.5q0 -23 -16.5 -37.5t-43.5 -14.5z" />
    <glyph glyph-name="ring" unicode="&#x2da;" horiz-adv-x="577" 
d="M301 772q-61 0 -100 29t-39 82t39 82.5t100 29.5t100.5 -29.5t39.5 -82.5t-39.5 -82t-100.5 -29zM237 883q0 -28 17.5 -43t47.5 -15t48 15t18 43q0 27 -18 42.5t-48 15.5t-47.5 -15.5t-17.5 -42.5z" />
    <glyph glyph-name="ogonek" unicode="&#x2db;" horiz-adv-x="581" 
d="M377 -202q-45 -45 -120 -45q-58 0 -99.5 27t-41.5 80t40.5 94t106.5 54l60 -8q-50 -18 -84 -54t-34 -77q0 -31 21 -47.5t53 -16.5q41 0 74 25z" />
    <glyph glyph-name="tilde" unicode="&#x2dc;" horiz-adv-x="586" 
d="M493 932l61 -60q-22 -33 -62 -57t-93 -24q-45 0 -109 28t-101 28q-35 0 -56.5 -12.5t-40.5 -36.5l-60 59q22 33 62 57.5t93 24.5q45 0 109 -28t102 -28q57 0 95 49z" />
    <glyph glyph-name="hungarumlaut" unicode="&#x2dd;" horiz-adv-x="580" 
d="M324 935l-165 -155h-112l164 155h113zM534 935l-164 -155h-113l164 155h113z" />
    <glyph glyph-name="uni0326" unicode="&#x326;" horiz-adv-x="0" 
d="M-321 -56q35 0 57 -23.5t22 -59.5q0 -47 -27.5 -102.5t-76.5 -93.5l-30 32q61 64 70 114q-5 -5 -19 -5q-30 0 -50.5 20t-20.5 50q0 29 21.5 48.5t53.5 19.5z" />
    <glyph glyph-name="uni0394" unicode="&#x394;" horiz-adv-x="880" 
d="M440 719l431 -719h-116h-647h-99zM176 89h527l-263 453z" />
    <glyph glyph-name="uni03A9" unicode="&#x3a9;" horiz-adv-x="999" 
d="M935 371q0 -88 -41 -158t-115 -114h132v-99h-312v99q213 57 213 252q0 127 -83.5 196t-229.5 69q-144 0 -228 -69.5t-84 -195.5q0 -193 213 -252v-99h-312v99h132q-74 44 -115 114t-41 158q0 159 117.5 254.5t317.5 95.5q201 0 318.5 -95.5t117.5 -254.5z" />
    <glyph glyph-name="uni03BC" unicode="&#x3bc;" horiz-adv-x="792" 
d="M586 548h116v-548h-116v108q-37 -58 -101 -90.5t-143 -32.5t-135 34v-219h-117v748h117v-305q0 -81 41 -123.5t121 -42.5q146 0 217 135v336z" />
    <glyph glyph-name="pi" unicode="&#x3c0;" horiz-adv-x="943" 
d="M907 451h-189v-284q0 -43 22.5 -67.5t66.5 -24.5q27 0 51 10l23 -83q-44 -22 -102 -22q-73 0 -123 44t-50 122v305h-288v-451h-112v451h-188v97h300h400h189v-97z" />
    <glyph glyph-name="Wgrave" unicode="&#x1e80;" horiz-adv-x="1219" 
d="M382 935h168l156 -155h-98zM1071 700h125l-256 -700h-124l-206 565l-207 -565h-123l-257 700h128l193 -560l208 560h118l207 -560z" />
    <glyph glyph-name="wgrave" unicode="&#x1e81;" horiz-adv-x="1006" 
d="M276 783h168l156 -155h-98zM865 548h115l-202 -548h-116l-158 429l-160 -429h-117l-202 548h118l150 -422l156 422h110l156 -422z" />
    <glyph glyph-name="Wacute" unicode="&#x1e82;" horiz-adv-x="1219" 
d="M839 935l-226 -155h-98l156 155h168zM1071 700h125l-256 -700h-124l-206 565l-207 -565h-123l-257 700h128l193 -560l208 560h118l207 -560z" />
    <glyph glyph-name="wacute" unicode="&#x1e83;" horiz-adv-x="1006" 
d="M732 783l-226 -155h-98l156 155h168zM865 548h115l-202 -548h-116l-158 429l-160 -429h-117l-202 548h118l150 -422l156 422h110l156 -422z" />
    <glyph glyph-name="Wdieresis" unicode="&#x1e84;" horiz-adv-x="1219" 
d="M478 789q-29 0 -47.5 16.5t-18.5 40.5q0 25 18.5 41.5t47.5 16.5q28 0 46 -16.5t18 -41.5q0 -24 -18.5 -40.5t-45.5 -16.5zM744 789q-28 0 -47 16.5t-19 40.5q0 25 19 41.5t47 16.5t46 -16.5t18 -41.5q0 -24 -18.5 -40.5t-45.5 -16.5zM1071 700h125l-256 -700h-124
l-206 565l-207 -565h-123l-257 700h128l193 -560l208 560h118l207 -560z" />
    <glyph glyph-name="wdieresis" unicode="&#x1e85;" horiz-adv-x="1006" 
d="M372 637q-29 0 -47.5 16.5t-18.5 40.5q0 25 18.5 41.5t47.5 16.5q28 0 46 -16.5t18 -41.5q0 -24 -18.5 -40.5t-45.5 -16.5zM638 637q-28 0 -47 16.5t-19 40.5q0 25 19 41.5t47 16.5t46 -16.5t18 -41.5q0 -24 -18.5 -40.5t-45.5 -16.5zM865 548h115l-202 -548h-116
l-158 429l-160 -429h-117l-202 548h118l150 -422l156 422h110l156 -422z" />
    <glyph glyph-name="Ygrave" unicode="&#x1ef2;" horiz-adv-x="831" 
d="M188 935h168l156 -155h-98zM11 700h139l267 -355l265 355h138l-344 -458v-242h-120v242z" />
    <glyph glyph-name="ygrave" unicode="&#x1ef3;" horiz-adv-x="716" 
d="M131 783h168l156 -155h-98zM577 548h123l-414 -748h-122l137 236l-286 512h126l220 -400z" />
    <glyph glyph-name="endash" unicode="&#x2013;" horiz-adv-x="794" 
d="M715 251h-637v99h637v-99z" />
    <glyph glyph-name="emdash" unicode="&#x2014;" horiz-adv-x="1008" 
d="M929 251h-851v99h851v-99z" />
    <glyph glyph-name="quoteleft" unicode="&#x2018;" horiz-adv-x="280" 
d="M143 462q-35 0 -57 23.5t-22 59.5q0 48 27.5 103.5t76.5 93.5l31 -33q-62 -63 -71 -114q5 5 20 5q30 0 50 -19.5t20 -49.5q0 -29 -21 -49t-54 -20z" />
    <glyph glyph-name="quoteright" unicode="&#x2019;" horiz-adv-x="280" 
d="M140 719q35 0 57 -23.5t22 -59.5q0 -48 -27.5 -103.5t-76.5 -93.5l-31 33q62 63 71 114q-5 -5 -20 -5q-30 0 -50 19.5t-20 49.5q0 29 21 49t54 20z" />
    <glyph glyph-name="quotesinglbase" unicode="&#x201a;" horiz-adv-x="280" 
d="M140 127q35 0 57 -23.5t22 -59.5q0 -48 -27.5 -103.5t-76.5 -93.5l-31 33q62 63 71 114q-5 -5 -20 -5q-30 0 -50 19.5t-20 49.5q0 29 21 49t54 20z" />
    <glyph glyph-name="quotedblleft" unicode="&#x201c;" horiz-adv-x="463" 
d="M143 459q-35 0 -57 23.5t-22 59.5q0 48 27.5 103.5t76.5 93.5l31 -33q-62 -63 -71 -114q5 5 20 5q30 0 50 -19.5t20 -49.5q0 -29 -21 -49t-54 -20zM327 460q-36 0 -57.5 23t-21.5 59q0 48 27.5 103.5t75.5 93.5l31 -33q-60 -60 -71 -114q5 5 20 5q30 0 50.5 -19.5
t20.5 -49.5q0 -29 -21.5 -48.5t-53.5 -19.5z" />
    <glyph glyph-name="quotedblright" unicode="&#x201d;" horiz-adv-x="463" 
d="M140 719q35 0 57 -23t22 -59q0 -48 -27.5 -103.5t-76.5 -93.5l-31 33q62 62 71 113q-4 -4 -20 -4q-30 0 -50 19.5t-20 49.5q0 29 21 48.5t54 19.5zM323 719q35 0 57 -23.5t22 -59.5q0 -48 -27.5 -103.5t-76.5 -93.5l-31 33q62 63 71 114q-5 -5 -20 -5q-30 0 -50 19.5
t-20 49.5q0 29 21 49t54 20z" />
    <glyph glyph-name="quotedblbase" unicode="&#x201e;" horiz-adv-x="463" 
d="M323 127q35 0 57 -23.5t22 -59.5q0 -48 -27.5 -103.5t-76.5 -93.5l-31 33q62 63 71 114q-5 -5 -20 -5q-30 0 -50 19.5t-20 49.5q0 29 21 49t54 20zM140 127q35 0 57 -23.5t22 -59.5q0 -48 -27.5 -103.5t-76.5 -93.5l-31 33q62 63 71 114q-5 -5 -20 -5q-30 0 -50 19.5
t-20 49.5q0 29 21 49t54 20z" />
    <glyph glyph-name="dagger" unicode="&#x2020;" horiz-adv-x="436" 
d="M369 620v-72h-113v-208h-79v208h-111v72h111v120h79v-120h113z" />
    <glyph glyph-name="daggerdbl" unicode="&#x2021;" horiz-adv-x="436" 
d="M369 581h-114v-82h114v-64h-114v-95h-77v95h-112v64h112v82h-112v64h112v95h77v-95h114v-64z" />
    <glyph glyph-name="bullet" unicode="&#x2022;" horiz-adv-x="389" 
d="M195 172q-50 0 -83.5 31t-33.5 77q0 48 33.5 79t83.5 31t82.5 -31t32.5 -79q0 -46 -32.5 -77t-82.5 -31z" />
    <glyph glyph-name="ellipsis" unicode="&#x2026;" horiz-adv-x="806" 
d="M403 -11q-34 0 -55 19.5t-21 48.5q0 30 21.5 50t54.5 20t54.5 -20t21.5 -50q0 -29 -21 -48.5t-55 -19.5zM669 -11q-34 0 -55.5 19.5t-21.5 48.5q0 30 22 50t55 20t54.5 -20t21.5 -50q0 -29 -21.5 -48.5t-54.5 -19.5zM137 -11q-33 0 -54.5 19.5t-21.5 48.5q0 30 21.5 50
t54.5 20t55 -20t22 -50q0 -29 -21.5 -48.5t-55.5 -19.5z" />
    <glyph glyph-name="perthousand" unicode="&#x2030;" horiz-adv-x="1322" 
d="M220 389q-79 0 -130 46.5t-51 115.5t51 115.5t130 46.5t129.5 -46.5t50.5 -115.5t-50.5 -115.5t-129.5 -46.5zM683 700h95l-543 -700h-95zM220 461q45 0 73 23.5t28 66.5t-28 67t-73 24t-73 -24t-28 -67t28 -66.5t73 -23.5zM698 -13q-80 0 -130.5 46.5t-50.5 115.5
t50.5 115.5t130.5 46.5q79 0 129.5 -46.5t50.5 -115.5t-50.5 -115.5t-129.5 -46.5zM1102 -13q-79 0 -130 46.5t-51 115.5t51 115.5t130 46.5t129.5 -46.5t50.5 -115.5t-50.5 -115.5t-129.5 -46.5zM698 58q45 0 72.5 24t27.5 67t-27.5 66.5t-72.5 23.5t-73 -23.5t-28 -66.5
t28 -67t73 -24zM1102 58q45 0 73 24t28 67t-28 66.5t-73 23.5t-73 -23.5t-28 -66.5t28 -67t73 -24z" />
    <glyph glyph-name="minute" unicode="&#x2032;" horiz-adv-x="295" 
d="M151 700h106l-97 -272h-105z" />
    <glyph glyph-name="second" unicode="&#x2033;" horiz-adv-x="492" 
d="M151 700h106l-97 -272h-105zM349 700h106l-97 -272h-106z" />
    <glyph glyph-name="guilsinglleft" unicode="&#x2039;" horiz-adv-x="425" 
d="M251 517l-211 -217l211 -216h120l-212 216l212 217h-120z" />
    <glyph glyph-name="guilsinglright" unicode="&#x203a;" horiz-adv-x="425" 
d="M174 517h-120l211 -217l-211 -216h120l211 216z" />
    <glyph glyph-name="uni203D" unicode="&#x203d;" horiz-adv-x="745" 
d="M383 720q81 0 151 -21.5t117.5 -69.5t47.5 -113q0 -86 -77.5 -135.5t-205.5 -58.5v-111h-99v184v187h99v-176q161 26 161 109q0 55 -57 81t-140 26q-174 0 -270 -126l-77 65q58 73 147 116t203 43zM366 127q33 0 55 -20t22 -50q0 -29 -21.5 -48.5t-55.5 -19.5
q-33 0 -54.5 19.5t-21.5 48.5q0 30 21.5 50t54.5 20z" />
    <glyph glyph-name="fraction" unicode="&#x2044;" horiz-adv-x="226" 
d="M-67 0h-87l444 700h87z" />
    <glyph glyph-name="uni2070" unicode="&#x2070;" horiz-adv-x="547" 
d="M274 453q-110 0 -172.5 58t-62.5 160q0 101 63 159.5t172 58.5q110 0 172.5 -58.5t62.5 -159.5q0 -102 -62.5 -160t-172.5 -58zM274 521q73 0 114.5 39t41.5 111t-42 111t-114 39q-73 0 -114.5 -39t-41.5 -111t41.5 -111t114.5 -39z" />
    <glyph glyph-name="uni2074" unicode="&#x2074;" horiz-adv-x="503" 
d="M477 622v-62h-80v-95h-75v95h-302v46l308 270h69v-254h80zM121 622h200v169z" />
    <glyph glyph-name="uni2075" unicode="&#x2075;" horiz-adv-x="481" 
d="M74 584q69 -66 168 -66q59 0 94.5 20.5t35.5 57.5t-34.5 55.5t-93.5 18.5q-76 0 -143 -33l-56 23l38 216h328v-63h-270l-21 -121q63 38 148 38q79 0 131 -34.5t52 -99.5q0 -63 -52.5 -103t-149.5 -40q-129 0 -220 83z" />
    <glyph glyph-name="uni2076" unicode="&#x2076;" horiz-adv-x="512" 
d="M285 732q83 0 138.5 -34t55.5 -103q0 -63 -55.5 -102.5t-151.5 -39.5q-109 0 -171.5 58.5t-62.5 159.5t62.5 159.5t171.5 58.5q128 0 193 -71l-47 -44q-53 54 -139 54q-74 0 -118 -38.5t-44 -118.5v-11q27 35 73 53.5t95 18.5zM272 515q58 0 93 20.5t35 57.5
q0 80 -128 80q-94 0 -148 -62q28 -96 148 -96z" />
    <glyph glyph-name="uni2077" unicode="&#x2077;" horiz-adv-x="438" 
d="M112 465l215 345h-308v66h402v-52l-221 -359h-88z" />
    <glyph glyph-name="uni2078" unicode="&#x2078;" horiz-adv-x="512" 
d="M354 684q121 -18 121 -108q0 -55 -61 -89t-158 -34t-157.5 34t-60.5 89q0 90 119 108q-46 3 -75 29t-29 67q0 52 58.5 80.5t144.5 28.5t145 -28.5t59 -80.5q0 -41 -29.5 -67t-76.5 -29zM131 770q0 -61 126 -61q124 0 124 61q0 30 -35.5 45.5t-88.5 15.5q-54 0 -90 -15.5
t-36 -45.5zM255 511q61 0 100 19.5t39 53.5q0 72 -139 72q-137 0 -137 -72q0 -34 38.5 -53.5t98.5 -19.5z" />
    <glyph glyph-name="uni2079" unicode="&#x2079;" horiz-adv-x="512" 
d="M235 888q109 0 171.5 -58.5t62.5 -159.5t-62.5 -159.5t-171.5 -58.5q-128 0 -193 71l47 44q53 -54 139 -54q74 0 118 38.5t44 118.5v11q-27 -35 -73 -53.5t-95 -18.5q-83 0 -138.5 34t-55.5 103q0 63 55.5 102.5t151.5 39.5zM235 668q94 0 148 62q-28 96 -148 96
q-58 0 -93 -20.5t-35 -57.5q0 -80 128 -80z" />
    <glyph glyph-name="uni20A8" unicode="&#x20a8;" horiz-adv-x="893" 
d="M846 700v-79h-176q45 -45 55 -107h121v-80h-122q-13 -70 -64.5 -116t-132.5 -63l223 -255h-128l-211 246h-338v80h356q167 0 192 108h-548v80h548q-26 107 -192 107h-356v79h773z" />
    <glyph glyph-name="Euro" unicode="&#x20ac;" horiz-adv-x="905" 
d="M525 77q159 0 236 125l95 -52q-46 -76 -130 -124t-199 -48q-153 0 -252 72.5t-126 202.5h-106v59h98q-2 24 -2 38t2 38h-98v59h106q27 130 126 202.5t252 72.5q115 0 199 -48t130 -124l-95 -52q-77 125 -236 125q-102 0 -168.5 -45t-90.5 -131h385v-59h-395
q-2 -24 -2 -38t2 -38h395v-59h-385q24 -86 90.5 -131t168.5 -45z" />
    <glyph glyph-name="uni2113" unicode="&#x2113;" horiz-adv-x="581" 
d="M354 65q70 0 108 66l65 -49q-25 -50 -73.5 -76t-106.5 -26q-78 0 -134 47t-56 144v9q-51 -22 -102 -41l-24 68q108 45 126 53v309q0 96 56.5 143.5t133.5 47.5q76 0 132.5 -47.5t56.5 -145.5q0 -196 -214 -311q-24 -13 -69 -34v-45q0 -60 28.5 -86t72.5 -26zM253 563
v-259q25 12 57 29q129 79 129 230q0 112 -92 112q-94 0 -94 -112z" />
    <glyph glyph-name="uni2117" unicode="&#x2117;" horiz-adv-x="980" 
d="M490 -21q-200 0 -316.5 101t-116.5 270t116.5 270t316.5 101t316.5 -101t116.5 -270t-116.5 -270t-316.5 -101zM490 16q179 0 285.5 88.5t106.5 245.5t-106.5 245.5t-285.5 88.5t-286 -88.5t-107 -245.5t107 -245.5t286 -88.5zM576 589q94 0 152 -41t58 -118t-58 -118
t-152 -41h-224v-158h-95v476h319zM567 342q124 0 124 87t-124 87h-215v-174h215z" />
    <glyph glyph-name="trademark" unicode="&#x2122;" horiz-adv-x="972" 
d="M400 700v-61h-144v-281h-71v281h-145v61h360zM813 700h70v-342h-68v247l-148 -189h-3l-147 189v-247h-67v342h72l144 -191z" />
    <glyph glyph-name="estimated" unicode="&#x212e;" horiz-adv-x="932" 
d="M261 324v-231q85 -50 211 -50q211 0 324 137l49 -48q-134 -154 -373 -154q-190 0 -302.5 100t-112.5 272t112.5 272t302.5 100q189 0 300 -105.5t115 -292.5h-626zM681 603q-86 55 -209 55q-127 0 -211 -51v-222h420v218z" />
    <glyph glyph-name="oneeighth" unicode="&#x215b;" horiz-adv-x="1063" 
d="M142 289v321q-41 -34 -119 -46v66q75 10 138 70h59v-411h-78zM253 0h-86l442 700h87zM906 219q52 -8 86 -34t34 -74q0 -55 -60.5 -89t-157.5 -34t-158 34t-61 89q0 48 34 74t85 34q-45 3 -74.5 29.5t-29.5 66.5q0 52 58.5 80.5t145.5 28.5q85 0 144 -28.5t59 -80.5
q0 -41 -29.5 -67t-75.5 -29zM682 305q0 -61 126 -61q124 0 124 61q0 30 -35.5 45.5t-88.5 15.5t-89.5 -15.5t-36.5 -45.5zM807 46q60 0 99 19.5t39 53.5q0 72 -138 72t-138 -72q0 -34 38.5 -53.5t99.5 -19.5z" />
    <glyph glyph-name="threeeighths" unicode="&#x215c;" horiz-adv-x="1234" 
d="M86 410q50 -70 152 -70q53 0 90 18.5t37 53.5q0 64 -132 64h-56v58h56q118 0 118 57q0 31 -34 45t-83 14q-90 0 -139 -62l-54 35q25 41 79.5 65.5t120.5 24.5q78 0 134 -29t56 -82q0 -39 -29 -65t-71 -30q48 -7 82 -32.5t34 -70.5q0 -59 -58 -93t-148 -34
q-70 0 -126.5 27.5t-86.5 73.5zM430 0h-87l443 700h87zM1076 219q121 -18 121 -108q0 -55 -61 -89t-158 -34t-157.5 34t-60.5 89q0 90 119 108q-46 3 -75 29t-29 67q0 52 58.5 80.5t144.5 28.5t145 -28.5t59 -80.5q0 -41 -29.5 -67t-76.5 -29zM853 305q0 -61 126 -61
q124 0 124 61q0 30 -35.5 45.5t-88.5 15.5q-54 0 -90 -15.5t-36 -45.5zM977 46q61 0 100 19.5t39 53.5q0 72 -139 72q-137 0 -137 -72q0 -34 38.5 -53.5t98.5 -19.5z" />
    <glyph glyph-name="fiveeighths" unicode="&#x215d;" horiz-adv-x="1225" 
d="M74 408q69 -66 168 -66q59 0 94.5 20.5t35.5 57.5t-35 56t-93 19q-74 0 -143 -34l-56 23l38 216h328v-63h-270l-21 -121q63 38 148 38q79 0 131 -34.5t52 -99.5q0 -63 -52.5 -103t-149.5 -40q-129 0 -220 83zM421 0h-87l442 700h88zM1067 219q120 -18 120 -108
q0 -55 -60.5 -89t-157.5 -34t-157.5 34t-60.5 89q0 90 119 108q-46 3 -75 29t-29 67q0 52 58.5 80.5t144.5 28.5t144.5 -28.5t58.5 -80.5q0 -41 -29.5 -67t-75.5 -29zM844 305q0 -61 126 -61q124 0 124 61q0 30 -35.5 45.5t-88.5 15.5q-54 0 -90 -15.5t-36 -45.5zM968 46
q61 0 100 19.5t39 53.5q0 72 -139 72q-138 0 -138 -72q0 -34 39 -53.5t99 -19.5z" />
    <glyph glyph-name="seveneighths" unicode="&#x215e;" horiz-adv-x="1093" 
d="M112 289l215 345h-308v66h402v-52l-221 -359h-88zM289 0h-87l442 700h88zM935 219q120 -18 120 -108q0 -55 -60.5 -89t-157.5 -34t-157.5 34t-60.5 89q0 90 119 108q-46 3 -75 29t-29 67q0 52 58.5 80.5t144.5 28.5t144.5 -28.5t58.5 -80.5q0 -41 -29.5 -67t-75.5 -29z
M712 305q0 -61 126 -61q124 0 124 61q0 30 -35.5 45.5t-88.5 15.5q-54 0 -90 -15.5t-36 -45.5zM836 46q61 0 100 19.5t39 53.5q0 72 -139 72q-138 0 -138 -72q0 -34 39 -53.5t99 -19.5z" />
    <glyph glyph-name="arrowleft" unicode="&#x2190;" horiz-adv-x="966" 
d="M861 406v-105h-603l238 -232l-66 -65l-349 350l349 349l66 -66l-238 -231h603z" />
    <glyph glyph-name="arrowup" unicode="&#x2191;" horiz-adv-x="966" 
d="M833 391l-66 -65l-232 238v-604h-105v603l-231 -237l-65 65l349 349z" />
    <glyph glyph-name="arrowright" unicode="&#x2192;" horiz-adv-x="966" 
d="M536 703l349 -349l-349 -350l-66 65l238 232h-603v105h603l-238 231z" />
    <glyph glyph-name="arrowdown" unicode="&#x2193;" horiz-adv-x="966" 
d="M767 374l66 -65l-350 -349l-349 349l65 65l231 -238v604h105v-605z" />
    <glyph glyph-name="uni2196" unicode="&#x2196;" horiz-adv-x="967" 
d="M803 121l-71 -70l-426 426v-333h-91v494h494v-90h-333z" />
    <glyph glyph-name="uni2197" unicode="&#x2197;" horiz-adv-x="967" 
d="M257 638h494v-494h-90v333l-427 -426l-71 70l428 427h-334v90z" />
    <glyph glyph-name="uni2198" unicode="&#x2198;" horiz-adv-x="967" 
d="M661 559h90v-494h-494v90h334l-428 427l71 70l427 -426v333z" />
    <glyph glyph-name="uni2199" unicode="&#x2199;" horiz-adv-x="967" 
d="M803 582l-427 -427h333v-90h-494v494h91v-333l426 426z" />
    <glyph glyph-name="partialdiff" unicode="&#x2202;" horiz-adv-x="786" 
d="M734 305q0 -327 -341 -327q-158 0 -250 75.5t-92 208.5q0 128 87 202t212 74q210 0 270 -132q-29 96 -136 163.5t-281 89.5l17 95q137 -19 238.5 -62t160.5 -104t87 -131.5t28 -151.5zM392 73q102 0 165.5 48t63.5 141q0 92 -63.5 140t-165.5 48t-165 -48t-63 -140
q0 -93 63 -141t165 -48z" />
    <glyph glyph-name="emptyset" unicode="&#x2205;" horiz-adv-x="788" 
d="M724 626l-77 -77q71 -74 71 -193q0 -132 -86 -208t-238 -76q-106 0 -182 39l-92 -93l-57 54l85 84q-78 75 -78 200q0 132 86 208t238 76q115 0 191 -44l82 83zM182 356q0 -79 40 -125l162 160l128 131q-46 23 -118 23q-101 0 -156.5 -48.5t-55.5 -140.5zM606 356
q0 72 -35 118l-136 -135l-149 -153q45 -18 108 -18q101 0 156.5 48t55.5 140z" />
    <glyph glyph-name="product" unicode="&#x220f;" horiz-adv-x="852" 
d="M746 700v-820h-110v721h-421v-721h-109v820h640z" />
    <glyph glyph-name="summation" unicode="&#x2211;" horiz-adv-x="710" 
d="M657 606h-447l332 -282v-57l-335 -293h453v-94h-618v80l383 335l-380 325v80h612v-94z" />
    <glyph glyph-name="minus" unicode="&#x2212;" horiz-adv-x="738" 
d="M657 252h-576v97h576v-97z" />
    <glyph glyph-name="radical" unicode="&#x221a;" horiz-adv-x="745" 
d="M630 700h111l-331 -820h-95l-184 410h-109v92h136h44l157 -359z" />
    <glyph glyph-name="infinity" unicode="&#x221e;" horiz-adv-x="1033" 
d="M749 498q97 0 160 -56.5t63 -148.5t-63 -148.5t-160 -56.5q-74 0 -128 35t-104 98q-51 -63 -105 -98t-129 -35q-97 0 -160 56.5t-63 148.5t63 148.5t160 56.5q75 0 129 -35t105 -98q50 63 104 98t128 35zM285 173q52 0 91.5 30.5t84.5 89.5q-45 59 -84.5 89.5t-91.5 30.5
q-56 0 -93.5 -32.5t-37.5 -87.5t37.5 -87.5t93.5 -32.5zM747 173q56 0 93.5 32.5t37.5 87.5t-37.5 87.5t-93.5 32.5q-52 0 -90.5 -30.5t-84.5 -89.5q46 -59 84.5 -89.5t90.5 -30.5z" />
    <glyph glyph-name="integral" unicode="&#x222b;" horiz-adv-x="422" 
d="M328 760q50 0 88 -15l-17 -79q-20 5 -35 5q-44 0 -70.5 -23.5t-26.5 -67.5v-485v-89q0 -77 -50 -121.5t-124 -44.5q-50 0 -88 15l17 79q22 -5 36 -5q43 0 69.5 23.5t26.5 68.5v484v89q0 77 50 121.5t124 44.5z" />
    <glyph glyph-name="approxequal" unicode="&#x2248;" horiz-adv-x="738" 
d="M601 491l61 -67q-23 -33 -65.5 -56.5t-97.5 -23.5q-47 0 -129 28t-127 28q-67 0 -105 -50l-60 66q24 33 66 57t96 24q47 0 129 -28t128 -28q68 0 104 50zM601 251l61 -66q-23 -33 -65.5 -56.5t-97.5 -23.5q-47 0 -129 28t-127 28q-67 0 -105 -50l-60 65q24 33 66 57
t96 24q47 0 129 -28t128 -28q67 0 104 50z" />
    <glyph glyph-name="notequal" unicode="&#x2260;" horiz-adv-x="738" 
d="M657 378h-206l-74 -145h280v-98h-330l-59 -114h-92l58 114h-153v98h204l74 145h-278v98h329l58 114h92l-58 -114h155v-98z" />
    <glyph glyph-name="lessequal" unicode="&#x2264;" horiz-adv-x="738" 
d="M628 632l-531 -192v-91l531 -193v92l-418 147l418 145v92zM97 18v84h531v-84h-531z" />
    <glyph glyph-name="greaterequal" unicode="&#x2265;" horiz-adv-x="738" 
d="M110 632v-92l418 -145l-418 -147v-92l531 193v91zM641 18h-531v84h531v-84z" />
    <glyph glyph-name="lozenge" unicode="&#x25ca;" horiz-adv-x="747" 
d="M436 700l277 -344l-277 -356h-125l-276 356l276 344h125zM374 80l215 276l-215 266l-216 -266z" />
    <glyph glyph-name="germandbls.case" horiz-adv-x="866" 
d="M345 104q76 -26 163 -26q185 0 185 124q0 125 -183 125h-117v85h85q177 0 177 110q0 109 -193 109q-119 0 -184 -57.5t-65 -156.5v-417h-120v406q0 140 97.5 227.5t270.5 87.5q133 0 224 -49t91 -139q0 -62 -43 -104t-120 -52q90 -7 146.5 -53t56.5 -131
q0 -94 -76.5 -150.5t-202.5 -56.5q-110 0 -212 32z" />
    <glyph glyph-name="a.ss01" horiz-adv-x="807" 
d="M348 568q85 0 149.5 -32t102.5 -86v98h117v-548h-117v97q-38 -53 -103 -85t-149 -32q-134 0 -215.5 80t-81.5 213t81.5 214t215.5 81zM377 79q149 0 222 113v164q-72 112 -222 112q-102 0 -157 -50.5t-55 -144.5q0 -93 55.5 -143.5t156.5 -50.5z" />
    <glyph glyph-name="aacute.ss01" horiz-adv-x="807" 
d="M637 783l-226 -155h-98l156 155h168zM348 568q85 0 149.5 -32t102.5 -86v98h117v-548h-117v97q-38 -53 -103 -85t-149 -32q-134 0 -215.5 80t-81.5 213t81.5 214t215.5 81zM377 79q149 0 222 113v164q-72 112 -222 112q-102 0 -157 -50.5t-55 -144.5q0 -93 55.5 -143.5
t156.5 -50.5z" />
    <glyph glyph-name="abreve.ss01" horiz-adv-x="807" 
d="M590 783q0 -24 -9.5 -50t-29 -52t-56.5 -42.5t-86 -16.5t-86 16.5t-56.5 42.5t-29 52t-9.5 50h84q2 -34 28 -59t69 -25t69 25.5t28 58.5h84zM348 568q85 0 149.5 -32t102.5 -86v98h117v-548h-117v97q-38 -53 -103 -85t-149 -32q-134 0 -215.5 80t-81.5 213t81.5 214
t215.5 81zM377 79q149 0 222 113v164q-72 112 -222 112q-102 0 -157 -50.5t-55 -144.5q0 -93 55.5 -143.5t156.5 -50.5z" />
    <glyph glyph-name="acircumflex.ss01" horiz-adv-x="807" 
d="M191 628h118l98 99l100 -99h118l-154 155h-125zM348 568q85 0 149.5 -32t102.5 -86v98h117v-548h-117v97q-38 -53 -103 -85t-149 -32q-134 0 -215.5 80t-81.5 213t81.5 214t215.5 81zM377 79q149 0 222 113v164q-72 112 -222 112q-102 0 -157 -50.5t-55 -144.5
q0 -93 55.5 -143.5t156.5 -50.5z" />
    <glyph glyph-name="adieresis.ss01" horiz-adv-x="807" 
d="M276 637q-29 0 -47.5 16.5t-18.5 40.5q0 25 18.5 41.5t47.5 16.5q28 0 46 -16.5t18 -41.5q0 -24 -18.5 -40.5t-45.5 -16.5zM542 637q-28 0 -47 16.5t-19 40.5q0 25 19 41.5t47 16.5t46 -16.5t18 -41.5q0 -24 -18.5 -40.5t-45.5 -16.5zM348 568q85 0 149.5 -32t102.5 -86
v98h117v-548h-117v97q-38 -53 -103 -85t-149 -32q-134 0 -215.5 80t-81.5 213t81.5 214t215.5 81zM377 79q149 0 222 113v164q-72 112 -222 112q-102 0 -157 -50.5t-55 -144.5q0 -93 55.5 -143.5t156.5 -50.5z" />
    <glyph glyph-name="agrave.ss01" horiz-adv-x="807" 
d="M180 783h168l156 -155h-98zM348 568q85 0 149.5 -32t102.5 -86v98h117v-548h-117v97q-38 -53 -103 -85t-149 -32q-134 0 -215.5 80t-81.5 213t81.5 214t215.5 81zM377 79q149 0 222 113v164q-72 112 -222 112q-102 0 -157 -50.5t-55 -144.5q0 -93 55.5 -143.5
t156.5 -50.5z" />
    <glyph glyph-name="amacron.ss01" horiz-adv-x="807" 
d="M203 738h410v-88h-410v88zM348 568q85 0 149.5 -32t102.5 -86v98h117v-548h-117v97q-38 -53 -103 -85t-149 -32q-134 0 -215.5 80t-81.5 213t81.5 214t215.5 81zM377 79q149 0 222 113v164q-72 112 -222 112q-102 0 -157 -50.5t-55 -144.5q0 -93 55.5 -143.5t156.5 -50.5
z" />
    <glyph glyph-name="aogonek.ss01" horiz-adv-x="807" 
d="M746 -170l24 -32q-45 -45 -120 -45q-58 0 -99.5 27t-41.5 80q0 47 31.5 84.5t85.5 55.5h-26v97q-38 -53 -103 -85t-149 -32q-134 0 -215.5 80t-81.5 213t81.5 214t215.5 81q85 0 149.5 -32t102.5 -86v98h117v-548h-1q-50 -18 -84 -54t-34 -77q0 -31 21 -47.5t53 -16.5
q41 0 74 25zM599 192v164q-72 112 -222 112q-102 0 -157 -50.5t-55 -144.5q0 -93 55.5 -143.5t156.5 -50.5q149 0 222 113z" />
    <glyph glyph-name="aring.ss01" horiz-adv-x="807" 
d="M408 620q-61 0 -100 29t-39 82t39 82.5t100 29.5t100.5 -29.5t39.5 -82.5t-39.5 -82t-100.5 -29zM344 731q0 -28 17.5 -43t47.5 -15t48 15t18 43q0 27 -18 42.5t-48 15.5t-47.5 -15.5t-17.5 -42.5zM348 568q85 0 149.5 -32t102.5 -86v98h117v-548h-117v97
q-38 -53 -103 -85t-149 -32q-134 0 -215.5 80t-81.5 213t81.5 214t215.5 81zM377 79q149 0 222 113v164q-72 112 -222 112q-102 0 -157 -50.5t-55 -144.5q0 -93 55.5 -143.5t156.5 -50.5z" />
    <glyph glyph-name="aringacute.ss01" horiz-adv-x="807" 
d="M408 620q-61 0 -100 29t-39 82q0 46 30 74l122 131h122l-119 -94q55 -4 89.5 -33t34.5 -78q0 -53 -39.5 -82t-100.5 -29zM475 731q0 27 -18 42.5t-48 15.5t-47.5 -15.5t-17.5 -42.5q0 -28 17.5 -43t47.5 -15t48 15t18 43zM600 548h117v-548h-117v97q-38 -53 -103 -85
t-149 -32q-134 0 -215.5 80t-81.5 213t81.5 214t215.5 81q85 0 149.5 -32t102.5 -86v98zM599 192v164q-72 112 -222 112q-102 0 -157 -50.5t-55 -144.5q0 -93 55.5 -143.5t156.5 -50.5q149 0 222 113z" />
    <glyph glyph-name="atilde.ss01" horiz-adv-x="807" 
d="M608 780l61 -60q-22 -33 -62 -57t-93 -24q-45 0 -109 28t-101 28q-35 0 -56.5 -12.5t-40.5 -36.5l-60 59q22 33 62 57.5t93 24.5q44 0 108 -28t103 -28q57 0 95 49zM348 568q85 0 149.5 -32t102.5 -86v98h117v-548h-117v97q-38 -53 -103 -85t-149 -32q-134 0 -215.5 80
t-81.5 213t81.5 214t215.5 81zM377 79q149 0 222 113v164q-72 112 -222 112q-102 0 -157 -50.5t-55 -144.5q0 -93 55.5 -143.5t156.5 -50.5z" />
    <glyph glyph-name="a.sc" horiz-adv-x="839" 
d="M696 0l-78 142h-398l-78 -142h-129l343 608h129l341 -608h-130zM272 236h294l-147 267z" />
    <glyph glyph-name="aacute.sc" horiz-adv-x="839" 
d="M649 843l-226 -155h-98l156 155h168zM696 0l-78 142h-398l-78 -142h-129l343 608h129l341 -608h-130zM272 236h294l-147 267z" />
    <glyph glyph-name="abreve.sc" horiz-adv-x="839" 
d="M421 682q-49 0 -86 16.5t-56.5 42.5t-29 52t-9.5 50h84q2 -34 28 -59t69 -25t69 25.5t28 58.5h84q0 -24 -9.5 -50t-29 -52t-56.5 -42.5t-86 -16.5zM696 0l-78 142h-398l-78 -142h-129l343 608h129l341 -608h-130zM272 236h294l-147 267z" />
    <glyph glyph-name="acircumflex.sc" horiz-adv-x="839" 
d="M419 787l-98 -99h-118l155 155h125l154 -155h-118zM696 0l-78 142h-398l-78 -142h-129l343 608h129l341 -608h-130zM272 236h294l-147 267z" />
    <glyph glyph-name="adieresis.sc" horiz-adv-x="839" 
d="M288 697q-29 0 -47.5 16.5t-18.5 40.5q0 25 18.5 41.5t47.5 16.5q28 0 46 -16.5t18 -41.5q0 -24 -18.5 -40.5t-45.5 -16.5zM554 697q-28 0 -47 16.5t-19 40.5q0 25 19 41.5t47 16.5t46 -16.5t18 -41.5q0 -24 -18.5 -40.5t-45.5 -16.5zM696 0l-78 142h-398l-78 -142h-129
l343 608h129l341 -608h-130zM272 236h294l-147 267z" />
    <glyph glyph-name="agrave.sc" horiz-adv-x="839" 
d="M516 688h-98l-226 155h168zM696 0l-78 142h-398l-78 -142h-129l343 608h129l341 -608h-130zM272 236h294l-147 267z" />
    <glyph glyph-name="amacron.sc" horiz-adv-x="839" 
d="M625 798v-88h-410v88h410zM696 0l-78 142h-398l-78 -142h-129l343 608h129l341 -608h-130zM272 236h294l-147 267z" />
    <glyph glyph-name="aogonek.sc" horiz-adv-x="839" 
d="M856 -170l24 -32q-45 -45 -120 -45q-58 0 -99.5 27t-41.5 80q0 47 31.5 84.5t85.5 55.5h-40l-78 142h-398l-78 -142h-129l343 608h129l341 -608q-50 -18 -84 -54t-34 -77q0 -31 21 -47.5t53 -16.5q41 0 74 25zM272 236h294l-147 267z" />
    <glyph glyph-name="aring.sc" horiz-adv-x="839" 
d="M420 680q-61 0 -100 29t-39 82t39 82.5t100 29.5t100.5 -29.5t39.5 -82.5t-39.5 -82t-100.5 -29zM421 849q-30 0 -47.5 -15.5t-17.5 -42.5q0 -28 17.5 -43t47.5 -15t48 15t18 43q0 27 -18 42.5t-48 15.5zM696 0l-78 142h-398l-78 -142h-129l343 608h129l341 -608h-130z
M272 236h294l-147 267z" />
    <glyph glyph-name="aringacute.sc" horiz-adv-x="839" 
d="M420 680q-61 0 -100 29t-39 82q0 54 41 84l113 121h122l-119 -94q54 -4 88 -33t34 -78q0 -53 -39.5 -82t-100.5 -29zM487 791q0 27 -18 42.5t-48 15.5t-47.5 -15.5t-17.5 -42.5q0 -28 17.5 -43t47.5 -15t48 15t18 43zM696 0l-78 142h-398l-78 -142h-129l343 608h129
l341 -608h-130zM272 236h294l-147 267z" />
    <glyph glyph-name="atilde.sc" horiz-adv-x="839" 
d="M316 755q-35 0 -56.5 -12.5t-40.5 -36.5l-60 59q22 33 62 57.5t93 24.5q44 0 108 -28t103 -28q57 0 95 49l61 -60q-22 -33 -62 -57t-93 -24q-45 0 -109 28t-101 28zM696 0l-78 142h-398l-78 -142h-129l343 608h129l341 -608h-130zM272 236h294l-147 267z" />
    <glyph glyph-name="ae.sc" horiz-adv-x="1290" 
d="M716 101h521v-101h-639v137h-342l-124 -137h-138l550 608h69h614v-100h-511v-150h423v-99h-423v-158zM342 233h256v284z" />
    <glyph glyph-name="aeacute.sc" horiz-adv-x="1290" 
d="M1084 843l-226 -155h-98l156 155h168zM716 101h521v-101h-639v137h-342l-124 -137h-138l550 608h69h614v-100h-511v-150h423v-99h-423v-158zM342 233h256v284z" />
    <glyph glyph-name="b.sc" horiz-adv-x="861" 
d="M632 317q75 -5 124.5 -42t49.5 -107q0 -80 -65.5 -124t-179.5 -44h-460v608h424q114 0 179.5 -40t65.5 -113q0 -55 -37.5 -94.5t-100.5 -43.5zM217 515v-155h289q74 0 110 16.5t36 60.5t-36.5 61t-109.5 17h-289zM538 93q73 0 109.5 19t36.5 67q0 49 -36.5 69t-109.5 20
h-321v-175h321z" />
    <glyph glyph-name="c.sc" horiz-adv-x="819" 
d="M447 84q153 0 226 103l109 -52q-45 -72 -132 -113.5t-205 -41.5q-179 0 -284.5 87t-105.5 236q0 151 106 238t288 87q114 0 200.5 -42t130.5 -113l-108 -52q-75 103 -225 103q-125 0 -198 -57t-73 -164q0 -106 73 -162.5t198 -56.5z" />
    <glyph glyph-name="cacute.sc" horiz-adv-x="819" 
d="M669 844l-226 -155h-98l156 155h168zM447 84q153 0 226 103l109 -52q-45 -72 -132 -113.5t-205 -41.5q-179 0 -284.5 87t-105.5 236q0 151 106 238t288 87q114 0 200.5 -42t130.5 -113l-108 -52q-75 103 -225 103q-125 0 -198 -57t-73 -164q0 -106 73 -162.5t198 -56.5z
" />
    <glyph glyph-name="ccaron.sc" horiz-adv-x="819" 
d="M223 844l155 -155h125l154 155h-118l-99 -99l-99 99h-118zM447 84q153 0 226 103l109 -52q-45 -72 -132 -113.5t-205 -41.5q-179 0 -284.5 87t-105.5 236q0 151 106 238t288 87q114 0 200.5 -42t130.5 -113l-108 -52q-75 103 -225 103q-125 0 -198 -57t-73 -164
q0 -106 73 -162.5t198 -56.5z" />
    <glyph glyph-name="ccedilla.sc" horiz-adv-x="819" 
d="M447 84q153 0 226 103l109 -52q-45 -72 -132 -113.5t-205 -41.5q-179 0 -284.5 87t-105.5 236q0 151 106 238t288 87q114 0 200.5 -42t130.5 -113l-108 -52q-75 103 -225 103q-125 0 -198 -57t-73 -164q0 -106 73 -162.5t198 -56.5zM491 -54l-128 -160l-85 23l102 155z
" />
    <glyph glyph-name="ccircumflex.sc" horiz-adv-x="819" 
d="M223 689h118l98 99l100 -99h118l-154 155h-125zM447 84q153 0 226 103l109 -52q-45 -72 -132 -113.5t-205 -41.5q-179 0 -284.5 87t-105.5 236q0 151 106 238t288 87q114 0 200.5 -42t130.5 -113l-108 -52q-75 103 -225 103q-125 0 -198 -57t-73 -164q0 -106 73 -162.5
t198 -56.5z" />
    <glyph glyph-name="cdotaccent.sc" horiz-adv-x="819" 
d="M440 698q-28 0 -45 14.5t-17 37.5q0 25 17 39.5t45 14.5q27 0 43.5 -14.5t16.5 -39.5q0 -23 -16.5 -37.5t-43.5 -14.5zM447 84q153 0 226 103l109 -52q-45 -72 -132 -113.5t-205 -41.5q-179 0 -284.5 87t-105.5 236q0 151 106 238t288 87q114 0 200.5 -42t130.5 -113
l-108 -52q-75 103 -225 103q-125 0 -198 -57t-73 -164q0 -106 73 -162.5t198 -56.5z" />
    <glyph glyph-name="d.sc" horiz-adv-x="871" 
d="M427 608q179 0 284 -81.5t105 -223.5q0 -140 -105.5 -221.5t-283.5 -81.5h-326v608h326zM418 104q128 0 202.5 50.5t74.5 148.5q0 100 -74.5 150.5t-202.5 50.5h-199v-400h199z" />
    <glyph glyph-name="eth.sc" horiz-adv-x="887" 
d="M444 608q179 0 283.5 -81.5t104.5 -223.5q0 -140 -104.5 -221.5t-283.5 -81.5h-328v269h-91v82h91v257h328zM434 103q127 0 202 51t75 149q0 100 -75 151t-202 51h-200v-154h193v-82h-193v-166h200z" />
    <glyph glyph-name="dcaron.sc" horiz-adv-x="871" 
d="M208 843l155 -155h125l154 155h-118l-99 -99l-99 99h-118zM427 608q179 0 284 -81.5t105 -223.5q0 -140 -105.5 -221.5t-283.5 -81.5h-326v608h326zM418 104q128 0 202.5 50.5t74.5 148.5q0 100 -74.5 150.5t-202.5 50.5h-199v-400h199z" />
    <glyph glyph-name="dcroat.sc" horiz-adv-x="887" 
d="M444 608q179 0 283.5 -81.5t104.5 -223.5q0 -140 -104.5 -221.5t-283.5 -81.5h-328v269h-91v82h91v257h328zM434 103q127 0 202 51t75 149q0 100 -75 151t-202 51h-200v-154h193v-82h-193v-166h200z" />
    <glyph glyph-name="e.sc" 
d="M219 101h520v-101h-638v608h629v-101h-511v-149h427v-99h-427v-158z" />
    <glyph glyph-name="eacute.sc" 
d="M640 843l-226 -155h-98l156 155h168zM219 101h520v-101h-638v608h629v-101h-511v-149h427v-99h-427v-158z" />
    <glyph glyph-name="ebreve.sc" 
d="M593 843q0 -24 -9.5 -50t-29 -52t-56.5 -42.5t-86 -16.5t-86 16.5t-56.5 42.5t-29 52t-9.5 50h84q2 -34 28 -59t69 -25t69 25.5t28 58.5h84zM219 101h520v-101h-638v608h629v-101h-511v-149h427v-99h-427v-158z" />
    <glyph glyph-name="ecaron.sc" 
d="M194 843l155 -155h125l154 155h-118l-99 -99l-99 99h-118zM219 101h520v-101h-638v608h629v-101h-511v-149h427v-99h-427v-158z" />
    <glyph glyph-name="ecircumflex.sc" 
d="M194 688h118l98 99l100 -99h118l-154 155h-125zM219 101h520v-101h-638v608h629v-101h-511v-149h427v-99h-427v-158z" />
    <glyph glyph-name="edieresis.sc" 
d="M279 697q-29 0 -47.5 16.5t-18.5 40.5q0 25 18.5 41.5t47.5 16.5q28 0 46 -16.5t18 -41.5q0 -24 -18.5 -40.5t-45.5 -16.5zM545 697q-28 0 -47 16.5t-19 40.5q0 25 19 41.5t47 16.5t46 -16.5t18 -41.5q0 -24 -18.5 -40.5t-45.5 -16.5zM219 101h520v-101h-638v608h629
v-101h-511v-149h427v-99h-427v-158z" />
    <glyph glyph-name="edotaccent.sc" 
d="M412 697q-28 0 -45 14.5t-17 37.5q0 25 17 39.5t45 14.5q27 0 43.5 -14.5t16.5 -39.5q0 -23 -16.5 -37.5t-43.5 -14.5zM219 101h520v-101h-638v608h629v-101h-511v-149h427v-99h-427v-158z" />
    <glyph glyph-name="egrave.sc" 
d="M184 843h168l156 -155h-98zM219 101h520v-101h-638v608h629v-101h-511v-149h427v-99h-427v-158z" />
    <glyph glyph-name="emacron.sc" 
d="M206 798h410v-88h-410v88zM219 101h520v-101h-638v608h629v-101h-511v-149h427v-99h-427v-158z" />
    <glyph glyph-name="eogonek.sc" 
d="M768 -170l24 -32q-45 -45 -120 -45q-58 0 -99.5 27t-41.5 80q0 47 31.5 84.5t85.5 55.5h-547v608h629v-101h-511v-149h427v-99h-427v-158h520v-101h-1q-50 -18 -84 -54t-34 -77q0 -31 21 -47.5t53 -16.5q41 0 74 25z" />
    <glyph glyph-name="f.sc" horiz-adv-x="761" 
d="M728 506h-509v-165h428v-102h-428v-239h-118v608h627v-102z" />
    <glyph glyph-name="fi.sc" horiz-adv-x="1081" 
d="M980 0h-118v608h118v-608zM728 506h-509v-165h428v-102h-428v-239h-118v608h627v-102z" />
    <glyph glyph-name="fl.sc" horiz-adv-x="1470" 
d="M980 104h464v-104h-582v608h118v-504zM728 506h-509v-165h428v-102h-428v-239h-118v608h627v-102z" />
    <glyph glyph-name="g.sc" horiz-adv-x="875" 
d="M818 328v-191q-45 -71 -139.5 -114t-220.5 -43q-188 0 -295.5 86.5t-107.5 236.5q0 152 107.5 238.5t295.5 86.5q212 0 330 -118l-98 -70q-82 86 -227 86q-137 0 -212 -57t-75 -166q0 -108 75.5 -165t211.5 -57q179 0 241 93v62h-258v92h372z" />
    <glyph glyph-name="gbreve.sc" horiz-adv-x="875" 
d="M637 844q0 -24 -9.5 -50t-29 -52t-56.5 -42.5t-86 -16.5t-86 16.5t-56.5 42.5t-29 52t-9.5 50h84q2 -34 28 -59t69 -25t69 25.5t28 58.5h84zM818 328v-191q-45 -71 -139.5 -114t-220.5 -43q-188 0 -295.5 86.5t-107.5 236.5q0 152 107.5 238.5t295.5 86.5q212 0 330 -118
l-98 -70q-82 86 -227 86q-137 0 -212 -57t-75 -166q0 -108 75.5 -165t211.5 -57q179 0 241 93v62h-258v92h372z" />
    <glyph glyph-name="gcircumflex.sc" horiz-adv-x="875" 
d="M238 689h118l98 99l100 -99h118l-154 155h-125zM818 328v-191q-45 -71 -139.5 -114t-220.5 -43q-188 0 -295.5 86.5t-107.5 236.5q0 152 107.5 238.5t295.5 86.5q212 0 330 -118l-98 -70q-82 86 -227 86q-137 0 -212 -57t-75 -166q0 -108 75.5 -165t211.5 -57
q179 0 241 93v62h-258v92h372z" />
    <glyph glyph-name="gcommaaccent.sc" horiz-adv-x="875" 
d="M818 328v-191q-45 -71 -139.5 -114t-220.5 -43q-188 0 -295.5 86.5t-107.5 236.5q0 152 107.5 238.5t295.5 86.5q212 0 330 -118l-98 -70q-82 86 -227 86q-137 0 -212 -57t-75 -166q0 -108 75.5 -165t211.5 -57q179 0 241 93v62h-258v92h372zM456 -56q35 0 57 -23.5
t22 -59.5q0 -48 -27.5 -103.5t-76.5 -93.5l-31 33q62 63 71 114q-5 -5 -20 -5q-30 0 -50 19.5t-20 49.5q0 29 21 49t54 20z" />
    <glyph glyph-name="gdotaccent.sc" horiz-adv-x="875" 
d="M456 698q-28 0 -45 14.5t-17 37.5q0 25 17 39.5t45 14.5q27 0 43.5 -14.5t16.5 -39.5q0 -23 -16.5 -37.5t-43.5 -14.5zM818 328v-191q-45 -71 -139.5 -114t-220.5 -43q-188 0 -295.5 86.5t-107.5 236.5q0 152 107.5 238.5t295.5 86.5q212 0 330 -118l-98 -70
q-82 86 -227 86q-137 0 -212 -57t-75 -166q0 -108 75.5 -165t211.5 -57q179 0 241 93v62h-258v92h372z" />
    <glyph glyph-name="h.sc" horiz-adv-x="906" 
d="M687 608h118v-608h-118v255h-468v-255h-118v608h118v-246h468v246z" />
    <glyph glyph-name="hbar.sc" horiz-adv-x="950" 
d="M923 504v-65h-96v-439h-119v255h-467v-255h-119v439h-96v65h96v104h119v-104h467v104h119v-104h96zM708 362v77h-467v-77h467z" />
    <glyph glyph-name="hcircumflex.sc" horiz-adv-x="906" 
d="M236 689h118l98 99l100 -99h118l-154 155h-125zM687 608h118v-608h-118v255h-468v-255h-118v608h118v-246h468v246z" />
    <glyph glyph-name="i.sc" horiz-adv-x="320" 
d="M219 0h-118v608h118v-608z" />
    <glyph glyph-name="iacute.sc" horiz-adv-x="320" 
d="M388 843l-226 -155h-98l156 155h168zM219 0h-118v608h118v-608z" />
    <glyph glyph-name="ibreve.sc" horiz-adv-x="320" 
d="M341 843q0 -24 -9.5 -50t-29 -52t-56.5 -42.5t-86 -16.5t-86 16.5t-56.5 42.5t-29 52t-9.5 50h84q2 -34 28 -59t69 -25t69 25.5t28 58.5h84zM219 0h-118v608h118v-608z" />
    <glyph glyph-name="icircumflex.sc" horiz-adv-x="320" 
d="M-58 688h118l98 99l100 -99h118l-154 155h-125zM219 0h-118v608h118v-608z" />
    <glyph glyph-name="idieresis.sc" horiz-adv-x="320" 
d="M27 697q-29 0 -47.5 16.5t-18.5 40.5q0 25 18.5 41.5t47.5 16.5q28 0 46 -16.5t18 -41.5q0 -24 -18.5 -40.5t-45.5 -16.5zM293 697q-28 0 -47 16.5t-19 40.5q0 25 19 41.5t47 16.5t46 -16.5t18 -41.5q0 -24 -18.5 -40.5t-45.5 -16.5zM219 0h-118v608h118v-608z" />
    <glyph glyph-name="i.sc.loclTRK" horiz-adv-x="320" 
d="M159 697q-28 0 -45 14.5t-17 37.5q0 25 17 39.5t45 14.5q27 0 43.5 -14.5t16.5 -39.5q0 -23 -16.5 -37.5t-43.5 -14.5zM219 0h-118v608h118v-608z" />
    <glyph glyph-name="igrave.sc" horiz-adv-x="320" 
d="M-69 843h168l156 -155h-98zM219 0h-118v608h118v-608z" />
    <glyph glyph-name="ij.sc" horiz-adv-x="978" 
d="M424 153q51 -69 164 -69q183 0 183 183v341h119v-350q0 -124 -76.5 -201t-225.5 -77q-172 0 -255 108zM219 0h-118v608h118v-608z" />
    <glyph glyph-name="imacron.sc" horiz-adv-x="331" 
d="M-40 890h410v-88h-410v88zM226 0h-120v700h120v-700z" />
    <glyph glyph-name="iogonek.sc" horiz-adv-x="331" 
d="M255 -170l24 -32q-45 -45 -120 -45q-58 0 -99.5 27t-41.5 80q0 47 31.5 84.5t85.5 55.5h-29v700h120v-700h-1q-50 -18 -84 -54t-34 -77q0 -31 21 -47.5t53 -16.5q41 0 74 25z" />
    <glyph glyph-name="itilde.sc" horiz-adv-x="331" 
d="M366 932l61 -60q-22 -33 -62 -57t-93 -24q-45 0 -109 28t-101 28q-35 0 -56.5 -12.5t-40.5 -36.5l-60 59q22 33 62 57.5t93 24.5q44 0 108 -28t103 -28q57 0 95 49zM226 0h-120v700h120v-700z" />
    <glyph glyph-name="j.sc" horiz-adv-x="658" 
d="M104 153q51 -69 164 -69q183 0 183 183v341h119v-350q0 -124 -76.5 -201t-225.5 -77q-172 0 -255 108z" />
    <glyph glyph-name="jcircumflex.sc" horiz-adv-x="658" 
d="M293 688h118l98 99l100 -99h118l-154 155h-125zM104 153q51 -69 164 -69q183 0 183 183v341h119v-350q0 -124 -76.5 -201t-225.5 -77q-172 0 -255 108z" />
    <glyph glyph-name="k.sc" horiz-adv-x="822" 
d="M670 0l-269 302l-182 -143v-159h-118v608h118v-323l417 323h160l-303 -240l321 -368h-144z" />
    <glyph glyph-name="kcommaaccent.sc" horiz-adv-x="822" 
d="M493 368l321 -368h-144l-269 302l-182 -143v-159h-118v608h118v-323l417 323h160zM433 -56q35 0 57 -23.5t22 -59.5q0 -48 -27.5 -103.5t-76.5 -93.5l-31 33q62 63 71 114q-5 -5 -20 -5q-30 0 -50 19.5t-20 49.5q0 29 21 49t54 20z" />
    <glyph glyph-name="l.sc" horiz-adv-x="709" 
d="M219 104h464v-104h-582v608h118v-504z" />
    <glyph glyph-name="lacute.sc" horiz-adv-x="709" 
d="M388 843l-226 -155h-98l156 155h168zM219 104h464v-104h-582v608h118v-504z" />
    <glyph glyph-name="lcaron.sc" horiz-adv-x="709" 
d="M454 643q35 0 57 -23.5t22 -59.5q0 -48 -27.5 -103.5t-76.5 -93.5l-31 33q62 63 71 114q-5 -5 -20 -5q-30 0 -50 19.5t-20 49.5q0 29 21 49t54 20zM219 104h464v-104h-582v608h118v-504z" />
    <glyph glyph-name="lcommaaccent.sc" horiz-adv-x="709" 
d="M219 104h464v-104h-582v608h118v-504zM393 -56q35 0 57 -23.5t22 -59.5q0 -48 -27.5 -103.5t-76.5 -93.5l-31 33q62 63 71 114q-5 -5 -20 -5q-30 0 -50 19.5t-20 49.5q0 29 21 49t54 20z" />
    <glyph glyph-name="ldot.sc" horiz-adv-x="709" 
d="M219 100h464v-100h-582v608h118v-508zM424 288q-34 0 -55.5 19.5t-21.5 49.5q0 29 22 49t55 20t54.5 -20t21.5 -49q0 -30 -21.5 -49.5t-54.5 -19.5z" />
    <glyph glyph-name="lslash.sc" horiz-adv-x="751" 
d="M261 104h464v-104h-582v222l-104 -51v82l104 51v304h118v-246l186 90v-83l-186 -90v-175z" />
    <glyph glyph-name="m.sc" horiz-adv-x="1033" 
d="M806 608h127v-608h-118v454l-296 -341h-7l-297 341v-454h-114v608h128l289 -337z" />
    <glyph glyph-name="n.sc" horiz-adv-x="906" 
d="M690 608h115v-608h-104l-486 463v-463h-114v608h126l463 -443v443z" />
    <glyph glyph-name="nacute.sc" horiz-adv-x="906" 
d="M682 843l-226 -155h-98l156 155h168zM690 608h115v-608h-104l-486 463v-463h-114v608h126l463 -443v443z" />
    <glyph glyph-name="ncaron.sc" horiz-adv-x="906" 
d="M236 843l155 -155h125l154 155h-118l-99 -99l-99 99h-118zM690 608h115v-608h-104l-486 463v-463h-114v608h126l463 -443v443z" />
    <glyph glyph-name="ncommaaccent.sc" horiz-adv-x="906" 
d="M690 608h115v-608h-104l-486 463v-463h-114v608h126l463 -443v443zM454 -56q35 0 57 -23.5t22 -59.5q0 -48 -27.5 -103.5t-76.5 -93.5l-31 33q62 63 71 114q-5 -5 -20 -5q-30 0 -50 19.5t-20 49.5q0 29 21 49t54 20z" />
    <glyph glyph-name="eng.sc" horiz-adv-x="906" 
d="M805 477h1v-490q0 -83 -49.5 -130.5t-131.5 -47.5q-58 0 -104 16l23 83q22 -9 57 -9q45 0 67.5 19t22.5 64v28l-476 453v-463h-114v608h126l462 -443v312v131h116v-131z" />
    <glyph glyph-name="ntilde.sc" horiz-adv-x="906" 
d="M653 840l61 -60q-22 -33 -62 -57t-93 -24q-45 0 -109 28t-101 28q-35 0 -56.5 -12.5t-40.5 -36.5l-60 59q22 33 62 57.5t93 24.5q45 0 109 -28t102 -28q57 0 95 49zM690 608h115v-608h-104l-486 463v-463h-114v608h126l463 -443v443z" />
    <glyph glyph-name="o.sc" horiz-adv-x="905" 
d="M453 -20q-184 0 -291 87t-107 236q0 151 106.5 238t291.5 87q184 0 290 -87t106 -238q0 -149 -106 -236t-290 -87zM452 81q127 0 202 58.5t75 163.5q0 106 -74.5 165t-202.5 59t-202.5 -59t-74.5 -165q0 -105 75 -163.5t202 -58.5z" />
    <glyph glyph-name="oacute.sc" horiz-adv-x="905" 
d="M681 843l-226 -155h-98l156 155h168zM453 -20q-184 0 -291 87t-107 236q0 151 106.5 238t291.5 87q184 0 290 -87t106 -238q0 -149 -106 -236t-290 -87zM452 81q127 0 202 58.5t75 163.5q0 106 -74.5 165t-202.5 59t-202.5 -59t-74.5 -165q0 -105 75 -163.5t202 -58.5z
" />
    <glyph glyph-name="obreve.sc" horiz-adv-x="905" 
d="M634 843q0 -24 -9.5 -50t-29 -52t-56.5 -42.5t-86 -16.5t-86 16.5t-56.5 42.5t-29 52t-9.5 50h84q2 -34 28 -59t69 -25t69 25.5t28 58.5h84zM453 -20q-184 0 -291 87t-107 236q0 151 106.5 238t291.5 87q184 0 290 -87t106 -238q0 -149 -106 -236t-290 -87zM452 81
q127 0 202 58.5t75 163.5q0 106 -74.5 165t-202.5 59t-202.5 -59t-74.5 -165q0 -105 75 -163.5t202 -58.5z" />
    <glyph glyph-name="ocircumflex.sc" horiz-adv-x="905" 
d="M236 688h118l98 99l100 -99h118l-154 155h-125zM453 -20q-184 0 -291 87t-107 236q0 151 106.5 238t291.5 87q184 0 290 -87t106 -238q0 -149 -106 -236t-290 -87zM452 81q127 0 202 58.5t75 163.5q0 106 -74.5 165t-202.5 59t-202.5 -59t-74.5 -165q0 -105 75 -163.5
t202 -58.5z" />
    <glyph glyph-name="odieresis.sc" horiz-adv-x="905" 
d="M320 697q-29 0 -47.5 16.5t-18.5 40.5q0 25 18.5 41.5t47.5 16.5q28 0 46 -16.5t18 -41.5q0 -24 -18.5 -40.5t-45.5 -16.5zM586 697q-28 0 -47 16.5t-19 40.5q0 25 19 41.5t47 16.5t46 -16.5t18 -41.5q0 -24 -18.5 -40.5t-45.5 -16.5zM453 -20q-184 0 -291 87t-107 236
q0 151 106.5 238t291.5 87q184 0 290 -87t106 -238q0 -149 -106 -236t-290 -87zM452 81q127 0 202 58.5t75 163.5q0 106 -74.5 165t-202.5 59t-202.5 -59t-74.5 -165q0 -105 75 -163.5t202 -58.5z" />
    <glyph glyph-name="ograve.sc" horiz-adv-x="905" 
d="M225 843h168l156 -155h-98zM453 -20q-184 0 -291 87t-107 236q0 151 106.5 238t291.5 87q184 0 290 -87t106 -238q0 -149 -106 -236t-290 -87zM452 81q127 0 202 58.5t75 163.5q0 106 -74.5 165t-202.5 59t-202.5 -59t-74.5 -165q0 -105 75 -163.5t202 -58.5z" />
    <glyph glyph-name="ohungarumlaut.sc" horiz-adv-x="905" 
d="M528 843l-165 -155h-112l164 155h113zM738 843l-164 -155h-113l164 155h113zM453 -20q-184 0 -291 87t-107 236q0 151 106.5 238t291.5 87q184 0 290 -87t106 -238q0 -149 -106 -236t-290 -87zM452 81q127 0 202 58.5t75 163.5q0 106 -74.5 165t-202.5 59t-202.5 -59
t-74.5 -165q0 -105 75 -163.5t202 -58.5z" />
    <glyph glyph-name="omacron.sc" horiz-adv-x="905" 
d="M248 798h410v-88h-410v88zM453 -20q-184 0 -291 87t-107 236q0 151 106.5 238t291.5 87q184 0 290 -87t106 -238q0 -149 -106 -236t-290 -87zM452 81q127 0 202 58.5t75 163.5q0 106 -74.5 165t-202.5 59t-202.5 -59t-74.5 -165q0 -105 75 -163.5t202 -58.5z" />
    <glyph glyph-name="oslash.sc" horiz-adv-x="905" 
d="M703 569q146 -85 146 -266q0 -149 -106 -236t-290 -87q-93 0 -168 23l-71 -96h-102l96 129q-74 41 -113.5 109.5t-39.5 157.5q0 151 106.5 238t291.5 87q99 0 173 -25l73 98h102zM175 303q0 -121 98 -179l287 390q-52 13 -108 13q-128 0 -202.5 -59t-74.5 -165zM452 81
q127 0 202 58.5t75 163.5q0 117 -92 177l-286 -387q46 -12 101 -12z" />
    <glyph glyph-name="oslashacute.sc" horiz-adv-x="905" 
d="M681 843l-226 -155h-98l156 155h168zM703 569q146 -85 146 -266q0 -149 -106 -236t-290 -87q-93 0 -168 23l-71 -96h-102l96 129q-74 41 -113.5 109.5t-39.5 157.5q0 151 106.5 238t291.5 87q99 0 173 -25l73 98h102zM175 303q0 -121 98 -179l287 390q-52 13 -108 13
q-128 0 -202.5 -59t-74.5 -165zM452 81q127 0 202 58.5t75 163.5q0 117 -92 177l-286 -387q46 -12 101 -12z" />
    <glyph glyph-name="otilde.sc" horiz-adv-x="905" 
d="M653 840l61 -60q-22 -33 -62 -57t-93 -24q-45 0 -109 28t-101 28q-35 0 -56.5 -12.5t-40.5 -36.5l-60 59q22 33 62 57.5t93 24.5q45 0 109 -28t102 -28q57 0 95 49zM453 -20q-184 0 -291 87t-107 236q0 151 106.5 238t291.5 87q184 0 290 -87t106 -238q0 -149 -106 -236
t-290 -87zM452 81q127 0 202 58.5t75 163.5q0 106 -74.5 165t-202.5 59t-202.5 -59t-74.5 -165q0 -105 75 -163.5t202 -58.5z" />
    <glyph glyph-name="oe.sc" horiz-adv-x="1345" 
d="M771 101h521v-101h-639h-209q-179 0 -284 81.5t-105 221.5q0 142 105 223.5t284 81.5h209h629v-101h-511v-149h428v-99h-428v-158zM653 102v404h-200q-127 0 -202 -51.5t-75 -151.5q0 -98 75 -149.5t202 -51.5h200z" />
    <glyph glyph-name="p.sc" horiz-adv-x="831" 
d="M532 608q119 0 190 -53.5t71 -148.5q0 -96 -71 -149t-190 -53h-313v-204h-118v608h431zM522 303q150 0 150 102q0 103 -150 103h-303v-205h303z" />
    <glyph glyph-name="thorn.sc" horiz-adv-x="831" 
d="M526 511q122 0 194.5 -53t72.5 -149t-72.5 -148.5t-194.5 -52.5h-307v-108h-118v608h118v-97h307zM516 207q156 0 156 102q0 55 -39.5 78.5t-116.5 23.5h-297v-204h297z" />
    <glyph glyph-name="q.sc" horiz-adv-x="905" 
d="M849 303q0 -163 -124 -250l90 -93l-66 -59l-107 109q-81 -30 -189 -30q-184 0 -291 87t-107 236q0 151 106.5 238t291.5 87q184 0 290 -87t106 -238zM452 81q56 0 108 13l-94 96l66 60l114 -117q83 60 83 170q0 106 -74.5 165t-202.5 59t-202.5 -59t-74.5 -165
q0 -105 75 -163.5t202 -58.5z" />
    <glyph glyph-name="r.sc" horiz-adv-x="861" 
d="M816 0h-148l-191 216h-258v-216h-118v608h435q115 0 187.5 -51.5t72.5 -144.5q0 -77 -49.5 -125.5t-132.5 -64.5zM217 314h309q149 0 149 97t-149 97h-309v-194z" />
    <glyph glyph-name="racute.sc" horiz-adv-x="861" 
d="M640 843l-226 -155h-98l156 155h168zM816 0h-148l-191 216h-258v-216h-118v608h435q115 0 187.5 -51.5t72.5 -144.5q0 -77 -49.5 -125.5t-132.5 -64.5zM217 314h309q149 0 149 97t-149 97h-309v-194z" />
    <glyph glyph-name="rcaron.sc" horiz-adv-x="861" 
d="M475 688h-125l-155 155h118l99 -99l99 99h118zM816 0h-148l-191 216h-258v-216h-118v608h435q115 0 187.5 -51.5t72.5 -144.5q0 -77 -49.5 -125.5t-132.5 -64.5zM217 314h309q149 0 149 97t-149 97h-309v-194z" />
    <glyph glyph-name="rcommaaccent.sc" horiz-adv-x="861" 
d="M614 222l202 -222h-148l-191 216h-258v-216h-118v608h435q115 0 187.5 -51.5t72.5 -144.5q0 -77 -49.5 -125.5t-132.5 -64.5zM217 314h309q149 0 149 97t-149 97h-309v-194zM431 -56q35 0 57 -23.5t22 -59.5q0 -48 -27.5 -103.5t-76.5 -93.5l-31 33q62 63 71 114
q-5 -5 -20 -5q-30 0 -50 19.5t-20 49.5q0 29 21 49t54 20z" />
    <glyph glyph-name="s.sc" horiz-adv-x="805" 
d="M422 364q65 -6 112.5 -13t92 -20.5t72.5 -32.5t44.5 -48t16.5 -67q0 -91 -88.5 -146.5t-247.5 -55.5q-236 0 -383 123l73 75q123 -102 313 -102q103 0 158.5 25t55.5 70q0 41 -52 58.5t-182 29.5q-73 7 -128.5 18t-107 30.5t-79 53t-27.5 78.5q0 87 96 137.5t239 50.5
q201 0 329 -100l-71 -73q-95 76 -258 78q-87 0 -151 -21t-64 -64q0 -41 58 -57.5t179 -26.5z" />
    <glyph glyph-name="sacute.sc" horiz-adv-x="805" 
d="M634 843l-226 -155h-98l156 155h168zM422 364q65 -6 112.5 -13t92 -20.5t72.5 -32.5t44.5 -48t16.5 -67q0 -91 -88.5 -146.5t-247.5 -55.5q-236 0 -383 123l73 75q123 -102 313 -102q103 0 158.5 25t55.5 70q0 41 -52 58.5t-182 29.5q-73 7 -128.5 18t-107 30.5t-79 53
t-27.5 78.5q0 87 96 137.5t239 50.5q201 0 329 -100l-71 -73q-95 76 -258 78q-87 0 -151 -21t-64 -64q0 -41 58 -57.5t179 -26.5z" />
    <glyph glyph-name="scaron.sc" horiz-adv-x="805" 
d="M188 843l155 -155h125l154 155h-118l-99 -99l-99 99h-118zM422 364q65 -6 112.5 -13t92 -20.5t72.5 -32.5t44.5 -48t16.5 -67q0 -91 -88.5 -146.5t-247.5 -55.5q-236 0 -383 123l73 75q123 -102 313 -102q103 0 158.5 25t55.5 70q0 41 -52 58.5t-182 29.5
q-73 7 -128.5 18t-107 30.5t-79 53t-27.5 78.5q0 87 96 137.5t239 50.5q201 0 329 -100l-71 -73q-95 76 -258 78q-87 0 -151 -21t-64 -64q0 -41 58 -57.5t179 -26.5z" />
    <glyph glyph-name="scedilla.sc" horiz-adv-x="805" 
d="M422 364q65 -6 112.5 -13t92 -20.5t72.5 -32.5t44.5 -48t16.5 -67q0 -91 -88.5 -146.5t-247.5 -55.5q-236 0 -383 123l73 75q123 -102 313 -102q103 0 158.5 25t55.5 70q0 41 -52 58.5t-182 29.5q-73 7 -128.5 18t-107 30.5t-79 53t-27.5 78.5q0 87 96 137.5t239 50.5
q201 0 329 -100l-71 -73q-95 76 -258 78q-87 0 -151 -21t-64 -64q0 -41 58 -57.5t179 -26.5zM463 -54l-128 -160l-85 23l102 155z" />
    <glyph glyph-name="scircumflex.sc" horiz-adv-x="805" 
d="M188 688h118l98 99l100 -99h118l-154 155h-125zM422 364q65 -6 112.5 -13t92 -20.5t72.5 -32.5t44.5 -48t16.5 -67q0 -91 -88.5 -146.5t-247.5 -55.5q-236 0 -383 123l73 75q123 -102 313 -102q103 0 158.5 25t55.5 70q0 41 -52 58.5t-182 29.5q-73 7 -128.5 18
t-107 30.5t-79 53t-27.5 78.5q0 87 96 137.5t239 50.5q201 0 329 -100l-71 -73q-95 76 -258 78q-87 0 -151 -21t-64 -64q0 -41 58 -57.5t179 -26.5z" />
    <glyph glyph-name="scommaaccent.sc" horiz-adv-x="805" 
d="M422 364q65 -6 112.5 -13t92 -20.5t72.5 -32.5t44.5 -48t16.5 -67q0 -91 -88.5 -146.5t-247.5 -55.5q-236 0 -383 123l73 75q123 -102 313 -102q103 0 158.5 25t55.5 70q0 41 -52 58.5t-182 29.5q-73 7 -128.5 18t-107 30.5t-79 53t-27.5 78.5q0 87 96 137.5t239 50.5
q201 0 329 -100l-71 -73q-95 76 -258 78q-87 0 -151 -21t-64 -64q0 -41 58 -57.5t179 -26.5zM418 -56q35 0 57 -23.5t22 -59.5q0 -48 -27.5 -103.5t-76.5 -93.5l-31 33q62 63 71 114q-5 -5 -20 -5q-30 0 -50 19.5t-20 49.5q0 29 21 49t54 20z" />
    <glyph glyph-name="germandbls.sc" horiz-adv-x="1609" 
d="M422 364q65 -6 112.5 -13t92 -20.5t72.5 -32.5t44.5 -48t16.5 -67q0 -91 -88.5 -146.5t-247.5 -55.5q-236 0 -383 123l73 75q123 -102 313 -102q103 0 158.5 25t55.5 70q0 41 -52 58.5t-182 29.5q-73 7 -128.5 18t-107 30.5t-79 53t-27.5 78.5q0 87 96 137.5t239 50.5
q201 0 329 -100l-71 -73q-95 76 -258 78q-87 0 -151 -21t-64 -64q0 -41 58 -57.5t179 -26.5zM1227 364q65 -6 112.5 -13t92 -20.5t72.5 -32.5t44.5 -48t16.5 -67q0 -91 -88.5 -146.5t-247.5 -55.5q-236 0 -383 123l73 75q123 -102 313 -102q103 0 158.5 25t55.5 70
q0 41 -52 58.5t-182 29.5q-73 7 -128.5 18t-107 30.5t-79 53t-27.5 78.5q0 87 96 137.5t239 50.5q201 0 329 -100l-71 -73q-95 76 -258 78q-87 0 -151 -21t-64 -64q0 -41 58 -57.5t179 -26.5z" />
    <glyph glyph-name="t.sc" horiz-adv-x="739" 
d="M714 608v-103h-286v-505h-118v505h-285v103h689z" />
    <glyph glyph-name="tbar.sc" horiz-adv-x="729" 
d="M709 505h-286v-146h149v-88h-149v-271h-118v271h-142v88h142v146h-285v103h689v-103z" />
    <glyph glyph-name="tcaron.sc" horiz-adv-x="739" 
d="M153 843l155 -155h125l154 155h-118l-99 -99l-99 99h-118zM714 608v-103h-286v-505h-118v505h-285v103h689z" />
    <glyph glyph-name="uni0163.sc" horiz-adv-x="739" 
d="M714 608v-103h-286v-505h-118v505h-285v103h689zM418 -46l-128 -160l-85 23l102 155z" />
    <glyph glyph-name="u.sc" horiz-adv-x="874" 
d="M668 608h117v-322q0 -139 -91 -222.5t-257 -83.5t-257 84t-91 222v322h118v-314q0 -98 59.5 -153.5t170.5 -55.5t171 55.5t60 153.5v314z" />
    <glyph glyph-name="uacute.sc" horiz-adv-x="874" 
d="M666 843l-226 -155h-98l156 155h168zM668 608h117v-322q0 -139 -91 -222.5t-257 -83.5t-257 84t-91 222v322h118v-314q0 -98 59.5 -153.5t170.5 -55.5t171 55.5t60 153.5v314z" />
    <glyph glyph-name="ubreve.sc" horiz-adv-x="874" 
d="M619 843q0 -24 -9.5 -50t-29 -52t-56.5 -42.5t-86 -16.5t-86 16.5t-56.5 42.5t-29 52t-9.5 50h84q2 -34 28 -59t69 -25t69 25.5t28 58.5h84zM668 608h117v-322q0 -139 -91 -222.5t-257 -83.5t-257 84t-91 222v322h118v-314q0 -98 59.5 -153.5t170.5 -55.5t171 55.5
t60 153.5v314z" />
    <glyph glyph-name="ucircumflex.sc" horiz-adv-x="874" 
d="M220 688h118l98 99l100 -99h118l-154 155h-125zM668 608h117v-322q0 -139 -91 -222.5t-257 -83.5t-257 84t-91 222v322h118v-314q0 -98 59.5 -153.5t170.5 -55.5t171 55.5t60 153.5v314z" />
    <glyph glyph-name="udieresis.sc" horiz-adv-x="874" 
d="M305 697q-29 0 -47.5 16.5t-18.5 40.5q0 25 18.5 41.5t47.5 16.5q28 0 46 -16.5t18 -41.5q0 -24 -18.5 -40.5t-45.5 -16.5zM571 697q-28 0 -47 16.5t-19 40.5q0 25 19 41.5t47 16.5t46 -16.5t18 -41.5q0 -24 -18.5 -40.5t-45.5 -16.5zM668 608h117v-322
q0 -139 -91 -222.5t-257 -83.5t-257 84t-91 222v322h118v-314q0 -98 59.5 -153.5t170.5 -55.5t171 55.5t60 153.5v314z" />
    <glyph glyph-name="ugrave.sc" horiz-adv-x="874" 
d="M210 843h168l156 -155h-98zM668 608h117v-322q0 -139 -91 -222.5t-257 -83.5t-257 84t-91 222v322h118v-314q0 -98 59.5 -153.5t170.5 -55.5t171 55.5t60 153.5v314z" />
    <glyph glyph-name="uhungarumlaut.sc" horiz-adv-x="874" 
d="M513 843l-165 -155h-112l164 155h113zM723 843l-164 -155h-113l164 155h113zM668 608h117v-322q0 -139 -91 -222.5t-257 -83.5t-257 84t-91 222v322h118v-314q0 -98 59.5 -153.5t170.5 -55.5t171 55.5t60 153.5v314z" />
    <glyph glyph-name="umacron.sc" horiz-adv-x="874" 
d="M232 798h410v-88h-410v88zM668 608h117v-322q0 -139 -91 -222.5t-257 -83.5t-257 84t-91 222v322h118v-314q0 -98 59.5 -153.5t170.5 -55.5t171 55.5t60 153.5v314z" />
    <glyph glyph-name="uogonek.sc" horiz-adv-x="874" 
d="M668 608h117v-322q0 -104 -52.5 -179t-151.5 -107q-50 -18 -84 -54t-34 -77q0 -31 21 -47.5t53 -16.5q41 0 74 25l24 -32q-45 -45 -120 -45q-58 0 -99.5 27t-41.5 80q0 74 73 120h-10q-166 0 -257 84t-91 222v322h118v-314q0 -98 59.5 -153.5t170.5 -55.5t171 55.5
t60 153.5v314z" />
    <glyph glyph-name="uring.sc" horiz-adv-x="874" 
d="M437 680q-61 0 -100 29t-39 82t39 82.5t100 29.5t100.5 -29.5t39.5 -82.5t-39.5 -82t-100.5 -29zM373 791q0 -28 17.5 -43t47.5 -15t48 15t18 43q0 27 -18 42.5t-48 15.5t-47.5 -15.5t-17.5 -42.5zM668 608h117v-322q0 -139 -91 -222.5t-257 -83.5t-257 84t-91 222v322
h118v-314q0 -98 59.5 -153.5t170.5 -55.5t171 55.5t60 153.5v314z" />
    <glyph glyph-name="utilde.sc" horiz-adv-x="874" 
d="M637 840l61 -60q-22 -33 -62 -57t-93 -24q-45 0 -109 28t-101 28q-35 0 -56.5 -12.5t-40.5 -36.5l-60 59q22 33 62 57.5t93 24.5q45 0 109 -28t102 -28q57 0 95 49zM668 608h117v-322q0 -139 -91 -222.5t-257 -83.5t-257 84t-91 222v322h118v-314q0 -98 59.5 -153.5
t170.5 -55.5t171 55.5t60 153.5v314z" />
    <glyph glyph-name="v.sc" horiz-adv-x="806" 
d="M13 608h132l259 -487l260 487h129l-326 -608h-128z" />
    <glyph glyph-name="w.sc" horiz-adv-x="1123" 
d="M975 608h123l-232 -608h-122l-182 477l-182 -477h-122l-232 608h125l170 -475l184 475h116l183 -475z" />
    <glyph glyph-name="wacute.sc" horiz-adv-x="1123" 
d="M791 843l-226 -155h-98l156 155h168zM975 608h123l-232 -608h-122l-182 477l-182 -477h-122l-232 608h125l170 -475l184 475h116l183 -475z" />
    <glyph glyph-name="wcircumflex.sc" horiz-adv-x="1123" 
d="M345 688h118l98 99l100 -99h118l-154 155h-125zM975 608h123l-232 -608h-122l-182 477l-182 -477h-122l-232 608h125l170 -475l184 475h116l183 -475z" />
    <glyph glyph-name="wdieresis.sc" horiz-adv-x="1123" 
d="M430 697q-29 0 -47.5 16.5t-18.5 40.5q0 25 18.5 41.5t47.5 16.5q28 0 46 -16.5t18 -41.5q0 -24 -18.5 -40.5t-45.5 -16.5zM696 697q-28 0 -47 16.5t-19 40.5q0 25 19 41.5t47 16.5t46 -16.5t18 -41.5q0 -24 -18.5 -40.5t-45.5 -16.5zM975 608h123l-232 -608h-122
l-182 477l-182 -477h-122l-232 608h125l170 -475l184 475h116l183 -475z" />
    <glyph glyph-name="wgrave.sc" horiz-adv-x="1123" 
d="M335 843h168l156 -155h-98zM975 608h123l-232 -608h-122l-182 477l-182 -477h-122l-232 608h125l170 -475l184 475h116l183 -475z" />
    <glyph glyph-name="x.sc" horiz-adv-x="766" 
d="M747 608l-292 -299l295 -309h-147l-223 230l-223 -230h-141l296 307l-292 301h147l219 -225l220 225h141z" />
    <glyph glyph-name="y.sc" horiz-adv-x="769" 
d="M14 608h137l235 -301l232 301h137l-311 -398v-210h-118v210z" />
    <glyph glyph-name="yacute.sc" horiz-adv-x="769" 
d="M613 843l-226 -155h-98l156 155h168zM14 608h137l235 -301l232 301h137l-311 -398v-210h-118v210z" />
    <glyph glyph-name="ycircumflex.sc" horiz-adv-x="769" 
d="M168 688h118l98 99l100 -99h118l-154 155h-125zM14 608h137l235 -301l232 301h137l-311 -398v-210h-118v210z" />
    <glyph glyph-name="ydieresis.sc" horiz-adv-x="769" 
d="M252 697q-29 0 -47.5 16.5t-18.5 40.5q0 25 18.5 41.5t47.5 16.5q28 0 46 -16.5t18 -41.5q0 -24 -18.5 -40.5t-45.5 -16.5zM518 697q-28 0 -47 16.5t-19 40.5q0 25 19 41.5t47 16.5t46 -16.5t18 -41.5q0 -24 -18.5 -40.5t-45.5 -16.5zM14 608h137l235 -301l232 301h137
l-311 -398v-210h-118v210z" />
    <glyph glyph-name="ygrave.sc" horiz-adv-x="769" 
d="M157 843h168l156 -155h-98zM14 608h137l235 -301l232 301h137l-311 -398v-210h-118v210z" />
    <glyph glyph-name="z.sc" horiz-adv-x="782" 
d="M722 608v-81l-499 -427h513v-100h-691v81l498 427h-482v100h661z" />
    <glyph glyph-name="zacute.sc" horiz-adv-x="782" 
d="M635 843l-226 -155h-98l156 155h168zM722 608v-81l-499 -427h513v-100h-691v81l498 427h-482v100h661z" />
    <glyph glyph-name="zcaron.sc" horiz-adv-x="782" 
d="M189 843l155 -155h125l154 155h-118l-99 -99l-99 99h-118zM722 608v-81l-499 -427h513v-100h-691v81l498 427h-482v100h661z" />
    <glyph glyph-name="zdotaccent.sc" horiz-adv-x="782" 
d="M406 697q-28 0 -45 14.5t-17 37.5q0 25 17 39.5t45 14.5q27 0 43.5 -14.5t16.5 -39.5q0 -23 -16.5 -37.5t-43.5 -14.5zM722 608v-81l-499 -427h513v-100h-691v81l498 427h-482v100h661z" />
    <glyph glyph-name="zero.osf" horiz-adv-x="892" 
d="M446 -21q-178 0 -283.5 88t-105.5 244t105 241t284 85t284 -85t105 -241t-105.5 -244t-283.5 -88zM446 85q124 0 196 56.5t72 166.5t-72 166t-196 56q-123 0 -195 -56t-72 -166t72 -166.5t195 -56.5z" />
    <glyph glyph-name="one.osf" horiz-adv-x="475" 
d="M250 0v476q-84 -65 -215 -86v104q128 19 244 121h91v-615h-120z" />
    <glyph glyph-name="two.osf" horiz-adv-x="805" 
d="M60 480q46 67 142 111.5t212 44.5q79 0 150.5 -20.5t121.5 -65.5t50 -107q0 -40 -20 -72t-61 -57t-83 -42.5t-105 -37.5q-127 -41 -192.5 -71t-79.5 -67h555v-96h-706v54q14 82 107 150t241 113q15 4 48 14t47.5 14.5t39.5 13t37 16t25.5 18t19 22.5t5.5 27
q0 49 -61.5 72.5t-143.5 23.5q-84 0 -154.5 -30.5t-115.5 -86.5z" />
    <glyph glyph-name="three.osf" horiz-adv-x="833" 
d="M136 119q38 -59 113 -92t173 -33q97 0 162.5 31.5t65.5 93.5q0 43 -34 68.5t-87 35t-130 9.5h-97v94h97q98 0 163 26.5t65 78.5q0 35 -32.5 59.5t-78.5 35t-99 10.5q-188 0 -270 -117l-93 57q116 159 357 159q143 0 241 -51.5t98 -141.5q0 -65 -50.5 -109t-120.5 -51
q80 -11 139 -53t59 -119q0 -100 -101 -157.5t-254 -57.5q-130 0 -228.5 45t-157.5 124z" />
    <glyph glyph-name="four.osf" horiz-adv-x="867" 
d="M833 172v-96h-147v-161h-119v161h-543v74l555 465h107v-443h147zM192 172h376v314z" />
    <glyph glyph-name="five.osf" horiz-adv-x="834" 
d="M121 123q47 -56 128.5 -91t180.5 -35q108 0 172.5 33.5t64.5 101.5t-67.5 102.5t-185.5 34.5q-124 0 -249 -52l-93 38l60 360h585v-100h-491l-35 -212q115 61 265 61q92 0 165.5 -24.5t121 -78.5t47.5 -131q0 -102 -95.5 -169t-264.5 -67q-122 0 -222.5 43t-167.5 118z
" />
    <glyph glyph-name="six.osf" horiz-adv-x="885" 
d="M515 451q82 0 152.5 -23t119 -77t48.5 -130q0 -108 -98.5 -175t-266.5 -67q-192 0 -302.5 100t-110.5 271t110.5 271t302.5 100q223 0 340 -122l-79 -70q-95 96 -252 96q-139 0 -219.5 -67t-80.5 -208q0 -17 1 -25q55 59 143.5 92.5t191.5 33.5zM470 75q112 0 178 38
t66 109q0 70 -61.5 103t-162.5 33q-83 0 -163 -30.5t-133 -86.5q52 -166 276 -166z" />
    <glyph glyph-name="seven.osf" horiz-adv-x="755" 
d="M198 -85l393 597h-564v103h713v-82l-403 -618h-139z" />
    <glyph glyph-name="eight.osf" horiz-adv-x="886" 
d="M627 368q80 -9 141 -53.5t61 -121.5q0 -99 -106.5 -156.5t-279.5 -57.5q-174 0 -280 57.5t-106 156.5q0 77 61 121.5t141 53.5q-74 7 -124.5 49t-50.5 109q0 91 101.5 143t257.5 52q155 0 257 -52t102 -143q0 -67 -50.5 -109t-124.5 -49zM205 517q0 -56 67 -82.5
t171 -26.5t171 26.5t67 82.5t-67 83t-171 27t-171 -27t-67 -83zM442 73q121 0 191.5 30.5t70.5 93.5q0 60 -71.5 92t-190.5 32q-118 0 -189.5 -32t-71.5 -92t71.5 -92t189.5 -32z" />
    <glyph glyph-name="nine.osf" horiz-adv-x="885" 
d="M415 636q192 0 302.5 -100t110.5 -271t-110.5 -271t-302.5 -100q-223 0 -340 122l79 70q95 -96 252 -96q139 0 219.5 67t80.5 208q0 17 -1 25q-55 -59 -143.5 -92.5t-191.5 -33.5q-82 0 -152.5 23t-119 77t-48.5 130q0 108 98.5 175t266.5 67zM395 257q82 0 162.5 31
t133.5 86q-52 166 -276 166q-112 0 -178 -38t-66 -109q0 -70 61.5 -103t162.5 -33z" />
    <glyph glyph-name="zero.subs" horiz-adv-x="547" 
d="M274 -125q-110 0 -172.5 58t-62.5 160q0 101 63 159.5t172 58.5q110 0 172.5 -58.5t62.5 -159.5q0 -102 -62.5 -160t-172.5 -58zM274 -57q73 0 114.5 39t41.5 111t-42 111t-114 39q-73 0 -114.5 -39t-41.5 -111t41.5 -111t114.5 -39z" />
    <glyph glyph-name="one.subs" horiz-adv-x="286" 
d="M142 -113v321q-43 -35 -119 -47v66q76 11 138 71h59v-411h-78z" />
    <glyph glyph-name="two.subs" horiz-adv-x="473" 
d="M40 215q74 96 203 96q74 0 129.5 -33t55.5 -90q0 -49 -39 -81.5t-113 -60.5q-71 -27 -107.5 -47.5t-45.5 -46.5h314v-65h-406v41q18 108 198 173q7 3 20 8t19 7.5t17 7t16 7t13.5 7t12.5 8.5t9.5 8.5t7.5 9.5t4 11t2 12q0 29 -32.5 45t-78.5 16q-90 0 -148 -72z" />
    <glyph glyph-name="three.subs" horiz-adv-x="485" 
d="M86 8q50 -70 152 -70q53 0 90 18.5t37 53.5q0 64 -132 64h-56v58h56q118 0 118 57q0 30 -34 44.5t-83 14.5q-90 0 -139 -63l-54 36q25 41 79.5 65.5t120.5 24.5q78 0 134 -29.5t56 -82.5q0 -38 -29 -64.5t-71 -29.5q48 -7 82 -32.5t34 -70.5q0 -59 -58 -93t-148 -34
q-70 0 -126.5 27.5t-86.5 73.5z" />
    <glyph glyph-name="four.subs" horiz-adv-x="503" 
d="M477 44v-62h-80v-95h-75v95h-302v46l308 270h69v-254h80zM121 44h200v169z" />
    <glyph glyph-name="five.subs" horiz-adv-x="481" 
d="M74 6q69 -66 168 -66q59 0 94.5 20.5t35.5 57.5t-34.5 55.5t-93.5 18.5q-76 0 -143 -33l-56 23l38 216h328v-63h-270l-21 -121q63 38 148 38q79 0 131 -34.5t52 -99.5q0 -63 -52.5 -103t-149.5 -40q-129 0 -220 83z" />
    <glyph glyph-name="six.subs" horiz-adv-x="512" 
d="M285 154q83 0 138.5 -34t55.5 -103q0 -63 -55.5 -102.5t-151.5 -39.5q-109 0 -171.5 58.5t-62.5 159.5t62.5 159.5t171.5 58.5q128 0 193 -71l-47 -44q-53 54 -139 54q-74 0 -118 -38.5t-44 -118.5v-11q27 35 73 53.5t95 18.5zM272 -63q58 0 93 20.5t35 57.5
q0 80 -128 80q-94 0 -148 -62q28 -96 148 -96z" />
    <glyph glyph-name="seven.subs" horiz-adv-x="438" 
d="M112 -113l215 345h-308v66h402v-52l-221 -359h-88z" />
    <glyph glyph-name="eight.subs" horiz-adv-x="512" 
d="M354 106q121 -18 121 -108q0 -55 -61 -89t-158 -34t-157.5 34t-60.5 89q0 90 119 108q-46 3 -75 29t-29 67q0 52 58.5 80.5t144.5 28.5t145 -28.5t59 -80.5q0 -41 -29.5 -67t-76.5 -29zM131 192q0 -61 126 -61q124 0 124 61q0 30 -35.5 45.5t-88.5 15.5q-54 0 -90 -15.5
t-36 -45.5zM255 -67q61 0 100 19.5t39 53.5q0 72 -139 72q-137 0 -137 -72q0 -34 38.5 -53.5t98.5 -19.5z" />
    <glyph glyph-name="nine.subs" horiz-adv-x="512" 
d="M235 310q109 0 171.5 -58.5t62.5 -159.5t-62.5 -159.5t-171.5 -58.5q-128 0 -193 71l47 44q53 -54 139 -54q74 0 118 38.5t44 118.5v11q-27 -35 -73 -53.5t-95 -18.5q-83 0 -138.5 34t-55.5 103q0 63 55.5 102.5t151.5 39.5zM235 90q94 0 148 62q-28 96 -148 96
q-58 0 -93 -20.5t-35 -57.5q0 -80 128 -80z" />
    <glyph glyph-name="zero.dnom" horiz-adv-x="547" 
d="M274 -12q-110 0 -172.5 58t-62.5 160q0 101 63 159.5t172 58.5q110 0 172.5 -58.5t62.5 -159.5q0 -102 -62.5 -160t-172.5 -58zM274 56q73 0 114.5 39t41.5 111t-42 111t-114 39q-73 0 -114.5 -39t-41.5 -111t41.5 -111t114.5 -39z" />
    <glyph glyph-name="one.dnom" horiz-adv-x="286" 
d="M142 0v321q-43 -35 -119 -47v66q76 11 138 71h59v-411h-78z" />
    <glyph glyph-name="two.dnom" horiz-adv-x="473" 
d="M40 328q74 96 203 96q74 0 129.5 -33t55.5 -90q0 -49 -39 -81.5t-113 -60.5q-71 -27 -107.5 -47.5t-45.5 -46.5h314v-65h-406v41q18 108 198 173q7 3 20 8t19 7.5t17 7t16 7t13.5 7t12.5 8.5t9.5 8.5t7.5 9.5t4 11t2 12q0 29 -32.5 45t-78.5 16q-90 0 -148 -72z" />
    <glyph glyph-name="three.dnom" horiz-adv-x="485" 
d="M86 121q50 -70 152 -70q53 0 90 18.5t37 53.5q0 64 -132 64h-56v58h56q118 0 118 57q0 30 -34 44.5t-83 14.5q-90 0 -139 -63l-54 36q25 41 79.5 65.5t120.5 24.5q78 0 134 -29.5t56 -82.5q0 -38 -29 -64.5t-71 -29.5q48 -7 82 -32.5t34 -70.5q0 -59 -58 -93t-148 -34
q-70 0 -126.5 27.5t-86.5 73.5z" />
    <glyph glyph-name="four.dnom" horiz-adv-x="503" 
d="M477 157v-62h-80v-95h-75v95h-302v46l308 270h69v-254h80zM121 157h200v169z" />
    <glyph glyph-name="five.dnom" horiz-adv-x="481" 
d="M74 119q69 -66 168 -66q59 0 94.5 20.5t35.5 57.5t-34.5 55.5t-93.5 18.5q-76 0 -143 -33l-56 23l38 216h328v-63h-270l-21 -121q63 38 148 38q79 0 131 -34.5t52 -99.5q0 -63 -52.5 -103t-149.5 -40q-129 0 -220 83z" />
    <glyph glyph-name="six.dnom" horiz-adv-x="512" 
d="M285 267q83 0 138.5 -34t55.5 -103q0 -63 -55.5 -102.5t-151.5 -39.5q-109 0 -171.5 58.5t-62.5 159.5t62.5 159.5t171.5 58.5q128 0 193 -71l-47 -44q-53 54 -139 54q-74 0 -118 -38.5t-44 -118.5v-12q27 35 73.5 54t94.5 19zM272 50q58 0 93 20.5t35 57.5q0 80 -128 80
q-94 0 -148 -62q28 -96 148 -96z" />
    <glyph glyph-name="seven.dnom" horiz-adv-x="438" 
d="M112 0l215 345h-308v66h402v-52l-221 -359h-88z" />
    <glyph glyph-name="eight.dnom" horiz-adv-x="512" 
d="M354 219q121 -18 121 -108q0 -55 -61 -89t-158 -34t-157.5 34t-60.5 89q0 90 119 108q-46 3 -75 29t-29 67q0 52 58.5 80.5t144.5 28.5t145 -28.5t59 -80.5q0 -41 -29.5 -67t-76.5 -29zM131 305q0 -61 126 -61q124 0 124 61q0 30 -35.5 45.5t-88.5 15.5q-54 0 -90 -15.5
t-36 -45.5zM255 46q61 0 100 19.5t39 53.5q0 72 -139 72q-137 0 -137 -72q0 -34 38.5 -53.5t98.5 -19.5z" />
    <glyph glyph-name="nine.dnom" horiz-adv-x="512" 
d="M235 423q109 0 171.5 -58.5t62.5 -159.5t-62.5 -159.5t-171.5 -58.5q-128 0 -193 71l47 44q53 -54 139 -54q74 0 118 38.5t44 118.5v11q-27 -35 -73 -53.5t-95 -18.5q-83 0 -138.5 34t-55.5 103q0 63 55.5 102.5t151.5 39.5zM235 203q94 0 148 62q-28 96 -148 96
q-58 0 -93 -20.5t-35 -57.5q0 -80 128 -80z" />
    <glyph glyph-name="zero.numr" horiz-adv-x="547" 
d="M274 277q-110 0 -172.5 58t-62.5 160q0 101 63 159.5t172 58.5q110 0 172.5 -58.5t62.5 -159.5q0 -102 -62.5 -160t-172.5 -58zM274 345q73 0 114.5 39t41.5 111t-42 111t-114 39q-73 0 -114.5 -39t-41.5 -111t41.5 -111t114.5 -39z" />
    <glyph glyph-name="one.numr" horiz-adv-x="286" 
d="M142 289v321q-43 -35 -119 -47v66q76 11 138 71h59v-411h-78z" />
    <glyph glyph-name="two.numr" horiz-adv-x="473" 
d="M40 617q74 96 203 96q74 0 129.5 -33t55.5 -90q0 -49 -39 -81.5t-113 -60.5q-71 -27 -107.5 -47.5t-45.5 -46.5h314v-65h-406v41q18 108 198 173q7 3 20 8t19 7.5t17 7t16 7t13.5 7t12.5 8.5t9.5 8.5t7.5 9.5t4 11t2 12q0 29 -32.5 45t-78.5 16q-90 0 -148 -72z" />
    <glyph glyph-name="three.numr" horiz-adv-x="485" 
d="M86 410q50 -70 152 -70q53 0 90 18.5t37 53.5q0 64 -132 64h-56v58h56q118 0 118 57q0 30 -34 44.5t-83 14.5q-90 0 -139 -63l-54 36q25 41 79.5 65.5t120.5 24.5q78 0 134 -29.5t56 -82.5q0 -38 -29 -64.5t-71 -29.5q48 -7 82 -32.5t34 -70.5q0 -59 -58 -93t-148 -34
q-70 0 -126.5 27.5t-86.5 73.5z" />
    <glyph glyph-name="four.numr" horiz-adv-x="503" 
d="M477 446v-62h-80v-95h-75v95h-302v46l308 270h69v-254h80zM121 446h200v169z" />
    <glyph glyph-name="five.numr" horiz-adv-x="481" 
d="M74 408q69 -66 168 -66q59 0 94.5 20.5t35.5 57.5t-34.5 55.5t-93.5 18.5q-76 0 -143 -33l-56 23l38 216h328v-63h-270l-21 -121q63 38 148 38q79 0 131 -34.5t52 -99.5q0 -63 -52.5 -103t-149.5 -40q-129 0 -220 83z" />
    <glyph glyph-name="six.numr" horiz-adv-x="512" 
d="M285 556q83 0 138.5 -34t55.5 -103q0 -63 -55.5 -102.5t-151.5 -39.5q-109 0 -171.5 58.5t-62.5 159.5t62.5 159.5t171.5 58.5q128 0 193 -71l-47 -44q-53 54 -139 54q-74 0 -118 -38.5t-44 -118.5v-11q27 35 73 53.5t95 18.5zM272 339q58 0 93 20.5t35 57.5
q0 80 -128 80q-94 0 -148 -62q28 -96 148 -96z" />
    <glyph glyph-name="seven.numr" horiz-adv-x="438" 
d="M112 289l215 345h-308v66h402v-52l-221 -359h-88z" />
    <glyph glyph-name="eight.numr" horiz-adv-x="512" 
d="M354 508q121 -18 121 -108q0 -55 -61 -89t-158 -34t-157.5 34t-60.5 89q0 90 119 108q-46 3 -75 29t-29 67q0 52 58.5 80.5t144.5 28.5t145 -28.5t59 -80.5q0 -41 -29.5 -67t-76.5 -29zM131 594q0 -61 126 -61q124 0 124 61q0 30 -35.5 45.5t-88.5 15.5q-54 0 -90 -15.5
t-36 -45.5zM255 335q61 0 100 19.5t39 53.5q0 72 -139 72q-137 0 -137 -72q0 -34 38.5 -53.5t98.5 -19.5z" />
    <glyph glyph-name="nine.numr" horiz-adv-x="512" 
d="M235 712q109 0 171.5 -58.5t62.5 -159.5t-62.5 -159.5t-171.5 -58.5q-128 0 -193 71l47 44q53 -54 139 -54q74 0 118 38.5t44 118.5v11q-27 -35 -73 -53.5t-95 -18.5q-83 0 -138.5 34t-55.5 103q0 63 55.5 102.5t151.5 39.5zM235 492q94 0 148 62q-28 96 -148 96
q-58 0 -93 -20.5t-35 -57.5q0 -80 128 -80z" />
    <glyph glyph-name="zero.sc" horiz-adv-x="874" 
d="M437 -20q-177 0 -278 86.5t-101 236.5q0 151 101 238t278 87q178 0 278.5 -87t100.5 -238q0 -150 -100.5 -236.5t-278.5 -86.5zM437 82q121 0 190 57.5t69 163.5q0 108 -69 165.5t-190 57.5q-122 0 -190.5 -57.5t-68.5 -165.5q0 -107 68.5 -164t190.5 -57z" />
    <glyph glyph-name="one.sc" horiz-adv-x="450" 
d="M230 0v476q-76 -55 -195 -73v100q116 16 223 105h90v-608h-118z" />
    <glyph glyph-name="two.sc" horiz-adv-x="759" 
d="M63 480q40 65 124 106t197 41q125 0 215.5 -48t90.5 -134q0 -72 -65 -121.5t-186 -89.5q-116 -39 -175.5 -69t-73.5 -69h513v-96h-656v53q14 83 98.5 151t225.5 113q122 42 153 61q44 29 45 66q0 43 -54.5 66t-135.5 23q-152 0 -238 -111z" />
    <glyph glyph-name="three.sc" horiz-adv-x="777" 
d="M128 182q51 -54 110 -80.5t145 -26.5q93 0 153 27t60 79q0 95 -221 95h-89v89h89q86 0 143 21t57 64q0 29 -29.5 48t-72 26.5t-96.5 7.5q-148 0 -233 -97l-83 55q103 137 324 137q127 0 219 -43t92 -119q0 -59 -47.5 -97.5t-118.5 -44.5q79 -9 135 -48t56 -107
q0 -89 -93 -138t-239 -49q-114 0 -203.5 40t-141.5 109z" />
    <glyph glyph-name="four.sc" horiz-adv-x="806" 
d="M768 227v-91h-133v-136h-115v136h-491v73l501 399h105v-381h133zM185 227h334v258z" />
    <glyph glyph-name="five.sc" horiz-adv-x="773" 
d="M113 184q111 -105 281 -105q100 0 157.5 27t57.5 83t-59 84t-164 28q-116 0 -223 -43l-90 36l55 314h535v-95h-443l-31 -174q106 53 239 53q128 0 214.5 -52.5t86.5 -152.5q0 -89 -87.5 -148t-247.5 -59q-213 0 -351 138z" />
    <glyph glyph-name="six.sc" horiz-adv-x="820" 
d="M459 393q130 0 220 -50t90 -149q0 -95 -90 -154.5t-244 -59.5q-175 0 -276 87.5t-101 235.5q0 149 101 237t276 88q199 0 312 -105l-75 -69q-85 82 -227 82q-124 0 -195.5 -57t-71.5 -176q0 -14 1 -21q44 52 120 81.5t160 29.5zM435 70q100 0 157.5 31.5t57.5 90.5
q0 114 -211 114q-71 0 -138 -24t-110 -67q46 -145 244 -145z" />
    <glyph glyph-name="seven.sc" horiz-adv-x="703" 
d="M178 0l354 509h-505v99h650v-79l-362 -529h-137z" />
    <glyph glyph-name="eight.sc" horiz-adv-x="819" 
d="M579 323q73 -9 128 -49t55 -110q0 -82 -98 -133t-254 -51q-158 0 -255.5 51t-97.5 133q0 70 55 110t128 49q-66 6 -112.5 45t-46.5 98q0 75 95.5 118.5t233.5 43.5q137 0 232 -43.5t95 -118.5q0 -59 -45.5 -98t-112.5 -45zM200 451q0 -89 209 -89q210 0 210 89
q0 43 -60 65.5t-150 22.5q-89 0 -149 -22.5t-60 -65.5zM409 69q102 0 166 28.5t64 77.5q0 54 -62 80t-168 26q-105 0 -167 -26t-62 -80q0 -49 64 -77.5t165 -28.5z" />
    <glyph glyph-name="nine.sc" horiz-adv-x="820" 
d="M379 628q175 0 276 -87.5t101 -235.5q0 -149 -101 -237t-276 -88q-199 0 -312 105l75 69q85 -82 227 -82q124 0 195.5 57t71.5 176q0 14 -1 21q-44 -52 -120 -81.5t-160 -29.5q-130 0 -220 50t-90 149q0 95 90 154.5t244 59.5zM375 302q71 0 138 24t110 68
q-46 144 -244 144q-100 0 -157.5 -31.5t-57.5 -90.5q0 -114 211 -114z" />
    <glyph glyph-name="periodcentered.case" horiz-adv-x="275" 
d="M137 288q-33 0 -54.5 19.5t-21.5 49.5q0 29 21.5 49t54.5 20t55 -20t22 -49q0 -30 -21.5 -49.5t-55.5 -19.5z" />
    <glyph glyph-name="bullet.case" horiz-adv-x="385" 
d="M193 246q-50 0 -83.5 31t-33.5 78q0 48 33.5 79t83.5 31t82.5 -31t32.5 -79q0 -47 -33 -78t-82 -31z" />
    <glyph glyph-name="exclamdown.case" horiz-adv-x="323" 
d="M158 711q33 0 54.5 -19.5t21.5 -48.5q0 -30 -21.5 -50t-54.5 -20t-55 20t-22 50q0 29 21.5 48.5t55.5 19.5zM86 0l22 490h100l21 -490h-143z" />
    <glyph glyph-name="questiondown.case" horiz-adv-x="745" 
d="M378 714q34 0 55.5 -19.5t21.5 -48.5q0 -30 -22 -50t-55 -20t-54.5 20t-21.5 50q0 29 21.5 48.5t54.5 19.5zM428 492v-183q-127 -10 -193.5 -37t-66.5 -84q0 -54 57 -80t140 -26q175 0 270 125l77 -64q-57 -74 -146.5 -117t-203.5 -43q-82 0 -152 21.5t-117 69.5t-47 113
q0 86 78 135.5t205 58.5v111h99z" />
    <glyph glyph-name="braceleft.case" horiz-adv-x="472" 
d="M287 529q0 -82 -41.5 -129t-110.5 -49q70 -4 111 -51t41 -128q0 -67 30 -105t84 -38h30v-89h-44q-93 0 -146.5 52t-53.5 153q0 99 -47 136.5t-126 37.5v63q79 0 126 37.5t47 136.5q0 101 53.5 152.5t146.5 51.5h44v-89h-30q-54 0 -84 -37.5t-30 -104.5z" />
    <glyph glyph-name="braceright.case" horiz-adv-x="472" 
d="M185 529q0 67 -30 104.5t-84 37.5h-30v89h44q93 0 146.5 -51.5t53.5 -152.5q0 -99 47 -136.5t126 -37.5v-63q-79 0 -126 -37.5t-47 -136.5q0 -101 -53.5 -153t-146.5 -52h-44v89h30q54 0 84 38t30 105q0 81 41 128t111 51q-69 2 -110.5 49t-41.5 129z" />
    <glyph glyph-name="bracketleft.case" horiz-adv-x="439" 
d="M398 671h-194v-642h194v-89h-292v820h292v-89z" />
    <glyph glyph-name="bracketright.case" horiz-adv-x="439" 
d="M41 671v89h292v-820h-292v89h194v642h-194z" />
    <glyph glyph-name="parenleft.case" horiz-adv-x="439" 
d="M158 350q0 -131 65 -222.5t175 -126.5l-35 -80q-138 36 -223.5 153t-85.5 276t85.5 276t223.5 153l35 -80q-110 -35 -175 -126t-65 -223z" />
    <glyph glyph-name="parenright.case" horiz-adv-x="439" 
d="M281 350q0 132 -65 223t-175 126l35 80q138 -36 223.5 -153t85.5 -276t-85.5 -276t-223.5 -153l-35 80q110 35 175 126.5t65 222.5z" />
    <glyph glyph-name="emdash.case" horiz-adv-x="1008" 
d="M929 306h-851v99h851v-99z" />
    <glyph glyph-name="endash.case" horiz-adv-x="794" 
d="M715 306h-637v99h637v-99z" />
    <glyph glyph-name="hyphen.case" horiz-adv-x="599" 
d="M521 306h-443v99h443v-99z" />
    <glyph glyph-name="guillemotleft.case" horiz-adv-x="667" 
d="M251 572l-211 -217l211 -216h120l-212 216l212 217h-120zM493 572l-211 -217l211 -216h120l-212 216l212 217h-120z" />
    <glyph glyph-name="guillemotright.case" horiz-adv-x="667" 
d="M174 572h-120l212 -217l-212 -216h120l211 216zM416 572h-120l212 -217l-212 -216h120l211 216z" />
    <glyph glyph-name="guilsinglleft.case" horiz-adv-x="425" 
d="M251 572l-211 -217l211 -216h120l-212 216l212 217h-120z" />
    <glyph glyph-name="guilsinglright.case" horiz-adv-x="425" 
d="M174 572h-120l212 -217l-212 -216h120l211 216z" />
    <glyph glyph-name="backslash.sc" horiz-adv-x="649" 
d="M159 708l480 -808h-128l-481 808h129z" />
    <glyph glyph-name="exclam.sc" horiz-adv-x="332" 
d="M95 608h143l-21 -398h-100zM167 -11q-34 0 -55.5 19.5t-21.5 48.5q0 30 22 50t55 20t54.5 -20t21.5 -50q0 -29 -21.5 -48.5t-54.5 -19.5z" />
    <glyph glyph-name="exclamdown.sc" horiz-adv-x="323" 
d="M158 619q33 0 54.5 -19.5t21.5 -48.5q0 -30 -21.5 -50t-54.5 -20t-55 20t-22 50q0 29 21.5 48.5t55.5 19.5zM86 0l22 398h100l21 -398h-143z" />
    <glyph glyph-name="numbersign.sc" horiz-adv-x="877" 
d="M826 380h-153l-42 -141h165v-77h-188l-49 -162h-98l49 162h-230l-48 -162h-98l48 162h-132v77h155l42 141h-166v76h189l45 152h99l-46 -152h229l46 152h98l-45 -152h130v-76zM533 239l42 141h-230l-42 -141h230z" />
    <glyph glyph-name="question.sc" horiz-adv-x="684" 
d="M288 191v153q230 15 230 101q0 45 -50 67t-124 22q-152 0 -237 -105l-74 60q111 139 316 139q118 0 205 -47.5t87 -132.5q0 -75 -70 -118t-185 -50v-89h-98zM338 -11q-34 0 -55.5 19.5t-21.5 48.5q0 30 22 50t55 20t54.5 -20t21.5 -50q0 -29 -21.5 -48.5t-54.5 -19.5z
" />
    <glyph glyph-name="questiondown.sc" horiz-adv-x="683" 
d="M346 619q34 0 55.5 -19.5t21.5 -48.5q0 -30 -22 -50t-55 -20t-54.5 20t-21.5 50q0 29 21.5 48.5t54.5 19.5zM395 417v-153q-230 -15 -230 -101q0 -45 50 -67t124 -22q152 0 238 105l73 -60q-111 -139 -315 -139q-118 0 -205 47.5t-87 132.5q0 75 69.5 118t184.5 50v89h98
z" />
    <glyph glyph-name="slash.sc" horiz-adv-x="669" 
d="M160 -100h-129l480 808h129z" />
    <glyph glyph-name="percent.osf" horiz-adv-x="920" 
d="M220 304q-79 0 -130 47t-51 115q0 69 51 116t130 47t129.5 -47t50.5 -116q0 -68 -50.5 -115t-129.5 -47zM681 615h97l-539 -615h-97zM220 376q45 0 73 24t28 66q0 43 -28 67t-73 24t-73 -24t-28 -67q0 -42 28 -66t73 -24zM700 -13q-79 0 -129.5 46.5t-50.5 115.5
t50.5 115.5t129.5 46.5q80 0 130.5 -46.5t50.5 -115.5t-50.5 -115.5t-130.5 -46.5zM700 58q45 0 73 24t28 67t-28 66.5t-73 23.5t-72.5 -24t-27.5 -66q0 -43 27.5 -67t72.5 -24z" />
    <glyph glyph-name="perthousand.osf" horiz-adv-x="1322" 
d="M220 304q-79 0 -130 47t-51 115q0 69 51 116t130 47t129.5 -47t50.5 -116q0 -68 -50.5 -115t-129.5 -47zM681 615h97l-539 -615h-97zM220 376q45 0 73 24t28 66q0 43 -28 67t-73 24t-73 -24t-28 -67q0 -42 28 -66t73 -24zM700 -13q-79 0 -129.5 46.5t-50.5 115.5
t50.5 115.5t129.5 46.5q80 0 130.5 -46.5t50.5 -115.5t-50.5 -115.5t-130.5 -46.5zM1102 -13q-79 0 -130 46.5t-51 115.5t51 115.5t130 46.5t129.5 -46.5t50.5 -115.5t-50.5 -115.5t-129.5 -46.5zM700 58q45 0 73 24t28 67t-28 66.5t-73 23.5t-72.5 -24t-27.5 -66
q0 -43 27.5 -67t72.5 -24zM1102 58q45 0 73 24t28 67t-28 66.5t-73 23.5t-73 -23.5t-28 -66.5t28 -67t73 -24z" />
    <glyph glyph-name="bar.case" horiz-adv-x="306" 
d="M99 -60v820h109v-820h-109z" />
    <glyph glyph-name="brokenbar.case" horiz-adv-x="306" 
d="M99 432v328h109v-328h-109zM208 273v-333h-109v333h109z" />
    <glyph glyph-name="at.case" horiz-adv-x="1037" 
d="M779 30q-94 -51 -263 -51q-210 0 -335.5 103.5t-125.5 267.5t125.5 267.5t335.5 103.5q209 0 334.5 -104.5t125.5 -271.5q0 -102 -38.5 -163t-108.5 -61q-53 0 -92 32t-51 80q-32 -54 -89.5 -84.5t-128.5 -30.5q-105 0 -177 63t-72 171t72 170.5t177 62.5q71 0 126.5 -31
t88.5 -85l19 97h71v-278q0 -63 22.5 -91.5t51.5 -28.5q37 0 58.5 50.5t21.5 126.5q0 158 -114 244t-297 86t-297 -85t-114 -240t114 -240t297 -85q138 0 241 46zM492 190q129 0 189 122v78q-60 121 -189 121q-80 0 -129.5 -40.5t-49.5 -119.5q0 -80 49.5 -120.5t129.5 -40.5
z" />
    <glyph glyph-name="registered.case" horiz-adv-x="980" 
d="M490 721q200 0 316.5 -101t116.5 -270t-116.5 -270t-316.5 -101t-316.5 101t-116.5 270t116.5 270t316.5 101zM490 16q179 0 285.5 88.5t106.5 245.5t-106.5 245.5t-285.5 88.5t-286 -88.5t-107 -245.5t107 -245.5t286 -88.5zM769 432q0 -60 -35 -97.5t-97 -51.5
l141 -170h-109l-126 161h-208v-161h-95v476h319q94 0 152 -40t58 -117zM335 515v-168h217q60 0 90.5 19t30.5 64q0 85 -121 85h-217z" />
    <glyph glyph-name="dagger.case" horiz-adv-x="556" 
d="M489 488v-87h-164v-401h-97v401h-162v87h162v212h97v-212h164z" />
    <glyph glyph-name="daggerdbl.case" horiz-adv-x="556" 
d="M489 454h-164v-208h164v-86h-164v-160h-97v160h-162v86h162v208h-162v86h162v160h97v-160h164v-86z" />
    <glyph glyph-name="bar.sc" horiz-adv-x="306" 
d="M99 -100v820h109v-820h-109z" />
    <glyph glyph-name="brokenbar.sc" horiz-adv-x="306" 
d="M99 392v328h109v-328h-109zM208 233v-333h-109v333h109z" />
    <glyph glyph-name="at.sc" horiz-adv-x="941" 
d="M716 27q-88 -47 -241 -47q-191 0 -305 90.5t-114 232.5q0 143 114 234t305 91t305.5 -91t114.5 -234q0 -92 -35 -144.5t-99 -52.5q-48 0 -85 28t-49 72q-28 -49 -80 -75.5t-117 -26.5q-95 0 -160.5 54t-65.5 147t65.5 147.5t160.5 54.5q65 0 115.5 -27t78.5 -76l20 88h67
v-241q0 -55 19 -81.5t46 -26.5q35 0 54.5 45.5t19.5 114.5q0 136 -104.5 210t-270.5 74q-165 0 -269.5 -74t-104.5 -210q0 -134 104.5 -208t269.5 -74q127 0 220 44zM454 169q116 0 168 102v67q-53 102 -168 102q-72 0 -116 -35t-44 -101t44 -100.5t116 -34.5z" />
    <glyph glyph-name="ampersand.sc" horiz-adv-x="834" 
d="M823 0h-151l-55 39q-92 -56 -233 -56t-234 58t-93 145q0 53 35 96t98 67q-57 52 -57 110q0 74 67 121t177 47q203 0 288 -159l-98 -41q-30 57 -75.5 82.5t-112.5 25.5q-61 0 -95 -20.5t-34 -56.5q0 -28 20 -49t74 -60q4 -3 6.5 -5t6 -4.5t6.5 -4.5l245 -178q39 52 42 131
h106q-5 -113 -69 -189zM395 74q82 0 138 26l-276 198q-3 1 -7 5q-74 -40 -74 -104q0 -58 62.5 -91.5t156.5 -33.5z" />
    <glyph glyph-name="paragraph.sc" horiz-adv-x="888" 
d="M301 608h487v-608h-102v517h-130v-517h-102v198h-153q-122 0 -192.5 52t-70.5 153q0 100 70.5 152.5t192.5 52.5zM454 289v228h-149q-76 0 -119.5 -28t-43.5 -86t43.5 -86t119.5 -28h149z" />
    <glyph glyph-name="copyright.sc" horiz-adv-x="901" 
d="M450 -19q-181 0 -288 88.5t-107 234.5q0 147 107 235.5t288 88.5q183 0 289.5 -88.5t106.5 -235.5t-107 -235t-289 -88zM450 15q162 0 260 76.5t98 212.5t-98 213t-260 77t-259.5 -77t-97.5 -213t97.5 -212.5t259.5 -76.5zM695 194q-35 -51 -98 -81.5t-149 -30.5
q-120 0 -193 59.5t-73 163.5t73 164.5t193 60.5q85 0 147 -31.5t95 -81.5l-77 -36q-53 74 -157 74q-83 0 -132 -39t-49 -111q0 -71 49 -110t132 -39q105 0 159 75z" />
    <glyph glyph-name="registered.sc" horiz-adv-x="900" 
d="M449 628q183 0 289.5 -88.5t106.5 -236.5q0 -147 -107 -235t-289 -88q-181 0 -287.5 88.5t-106.5 234.5q0 148 106.5 236.5t287.5 88.5zM449 13q163 0 261.5 77t98.5 213q0 137 -98.5 215t-261.5 78q-162 0 -260 -78t-98 -215q0 -136 98 -213t260 -77zM706 374
q0 -52 -32 -85.5t-88 -46.5l127 -145h-107l-112 137h-180v-137h-92v415h290q87 0 140.5 -35.5t53.5 -102.5zM314 439v-132h194q104 0 104 66t-104 66h-194z" />
    <glyph glyph-name="uni2117.sc" horiz-adv-x="900" 
d="M449 -18q-181 0 -287.5 87.5t-106.5 233.5q0 148 106.5 236t287.5 88q183 0 289.5 -88t106.5 -236q0 -146 -106.5 -233.5t-289.5 -87.5zM449 14q163 0 261.5 76.5t98.5 212.5q0 137 -98.5 214t-261.5 77t-260.5 -77t-97.5 -214q0 -136 98 -212.5t260 -76.5zM526 512
q87 0 140.5 -36.5t53.5 -103.5q0 -69 -53.5 -104.5t-140.5 -35.5h-197v-135h-92v415h289zM519 306q55 0 81.5 14t26.5 52t-27 52.5t-81 14.5h-190v-133h190z" />
    <glyph glyph-name="section.sc" horiz-adv-x="678" 
d="M540 144q78 -35 78 -105q0 -71 -70.5 -116.5t-200.5 -45.5q-172 0 -295 95l60 63q101 -77 238 -77q71 0 116.5 18t45.5 51q0 34 -41.5 48t-135.5 21q-263 19 -263 145q0 81 91 127q-86 35 -86 108q0 71 74 111t193 40q73 0 141 -21.5t115 -54.5l-57 -67q-85 60 -200 61
q-159 2 -159 -62q0 -32 43.5 -45t131.5 -19q264 -19 264 -144q0 -85 -83 -131zM180 253q0 -34 44.5 -49.5t128.5 -22.5q25 -1 61 -5q46 10 74 32t28 49q0 35 -43 53t-130 24q-4 0 -13 0.5t-13 1.5q-59 -5 -98 -26.5t-39 -56.5z" />
    <glyph glyph-name="degree.sc" horiz-adv-x="428" 
d="M214 338q-71 0 -116 39.5t-45 102.5q0 62 45 101.5t116 39.5t116 -39.5t45 -101.5q0 -63 -45 -102.5t-116 -39.5zM214 400q43 0 67 21.5t24 58.5t-24 58.5t-67 21.5t-67 -21.5t-24 -58.5t24 -58.5t67 -21.5z" />
    <glyph glyph-name="cent.sc" horiz-adv-x="669" 
d="M620 188q-31 -52 -89.5 -85t-141.5 -39v-64h-70v64q-124 9 -193.5 71.5t-69.5 167.5q0 106 69.5 169t193.5 71v65h70v-64q163 -13 230 -123l-86 -38q-44 67 -144 75v-308q94 7 144 76zM157 303q0 -67 43 -105.5t119 -46.5v306q-76 -8 -119 -47t-43 -107z" />
    <glyph glyph-name="currency.sc" horiz-adv-x="746" 
d="M649 309q0 -96 -60 -159l87 -83l-55 -51l-96 87q-64 -32 -151 -32q-89 0 -152 33l-95 -88l-56 51l87 83q-60 63 -60 159q0 86 50 147l-77 74l56 51l81 -74q68 40 166 40q95 0 166 -41l81 75l55 -51l-77 -73q50 -61 50 -148zM190 309q0 -75 49.5 -115t134.5 -40
q84 0 133.5 40t49.5 115t-49.5 115t-133.5 40q-85 0 -134.5 -40t-49.5 -115z" />
    <glyph glyph-name="dagger.sc" horiz-adv-x="556" 
d="M489 405v-79h-166v-326h-92v326h-165v79h165v203h92v-203h166z" />
    <glyph glyph-name="daggerdbl.sc" horiz-adv-x="556" 
d="M489 393h-166v-166h166v-75h-166v-152h-92v152h-165v75h165v166h-165v75h165v152h92v-152h166v-75z" />
    <glyph glyph-name="dollar.sc" horiz-adv-x="811" 
d="M764 191q0 -86 -83 -137t-230 -55v-89h-70v90q-199 12 -336 121l70 72q115 -89 266 -101v173q-69 7 -119.5 17.5t-97 29t-71 49.5t-24.5 73q0 82 89 127t223 48v80h70v-81q171 -12 283 -98l-69 -69q-83 66 -214 75v-158q61 -5 104.5 -11.5t85.5 -19t67 -29.5t40.5 -44
t15.5 -63zM187 439q0 -36 47 -51t147 -24v154q-82 -2 -138 -20.5t-56 -58.5zM451 91q196 3 196 88q0 38 -44 53.5t-152 25.5v-167z" />
    <glyph glyph-name="Euro.sc" horiz-adv-x="835" 
d="M482 76q142 0 210 106l92 -49q-40 -67 -117 -109.5t-182 -42.5q-140 0 -230 63t-115 175h-96v53h88q-1 10 -1 32t1 32h-88v53h96q25 113 115 176t230 63q105 0 182 -42.5t117 -109.5l-92 -49q-68 106 -210 106q-88 0 -146.5 -37t-79.5 -107h337v-53h-348q-1 -10 -1 -32
t1 -32h348v-53h-337q22 -69 80 -106t146 -37z" />
    <glyph glyph-name="minute.sc" horiz-adv-x="295" 
d="M151 608h106l-97 -273h-105z" />
    <glyph glyph-name="percent.sc" horiz-adv-x="920" 
d="M220 297q-79 0 -130 46.5t-51 115.5t51 115.5t130 46.5t129.5 -46.5t50.5 -115.5t-50.5 -115.5t-129.5 -46.5zM681 608h97l-539 -608h-97zM220 368q45 0 73 24t28 67t-28 67t-73 24t-73 -24t-28 -67t28 -67t73 -24zM700 -13q-79 0 -129.5 46.5t-50.5 115.5t50.5 115.5
t129.5 46.5q80 0 130.5 -46.5t50.5 -115.5t-50.5 -115.5t-130.5 -46.5zM700 58q45 0 73 24t28 67t-28 66.5t-73 23.5t-72.5 -24t-27.5 -66q0 -43 27.5 -67t72.5 -24z" />
    <glyph glyph-name="perthousand.sc" horiz-adv-x="1322" 
d="M220 297q-79 0 -130 46.5t-51 115.5t51 115.5t130 46.5t129.5 -46.5t50.5 -115.5t-50.5 -115.5t-129.5 -46.5zM681 608h97l-539 -608h-97zM220 368q45 0 73 24t28 67t-28 67t-73 24t-73 -24t-28 -67t28 -67t73 -24zM700 -13q-79 0 -129.5 46.5t-50.5 115.5t50.5 115.5
t129.5 46.5q80 0 130.5 -46.5t50.5 -115.5t-50.5 -115.5t-130.5 -46.5zM1102 -13q-79 0 -130 46.5t-51 115.5t51 115.5t130 46.5t129.5 -46.5t50.5 -115.5t-50.5 -115.5t-129.5 -46.5zM700 58q45 0 73 24t28 67t-28 66.5t-73 23.5t-72.5 -24t-27.5 -66q0 -43 27.5 -67
t72.5 -24zM1102 58q45 0 73 24t28 67t-28 66.5t-73 23.5t-73 -23.5t-28 -66.5t28 -67t73 -24z" />
    <glyph glyph-name="uni20A8.sc" horiz-adv-x="826" 
d="M776 526h-146q29 -36 36 -77h110v-82h-112q-13 -57 -58.5 -96t-114.5 -54l198 -217h-128l-186 207h-302v83h322q141 0 167 77h-489v82h489q-27 77 -167 77h-322v82h703v-82z" />
    <glyph glyph-name="second.sc" horiz-adv-x="492" 
d="M151 608h106l-97 -273h-105zM349 608h106l-97 -272h-106z" />
    <glyph glyph-name="sterling.sc" horiz-adv-x="697" 
d="M279 88h359v-88h-474h-110v88h110v178h-110v79h110v45q0 99 67 168t189 69q66 0 122.5 -23t88.5 -59l-53 -71q-61 59 -144 59q-77 0 -116 -41t-39 -113v-34h306v-79h-306v-178z" />
    <glyph glyph-name="yen.sc" horiz-adv-x="784" 
d="M752 608l-251 -316h156v-55h-199l-7 -9v-49h206v-54h-206v-125h-118v125h-205v54h205v49l-7 9h-198v55h154l-251 316h136l226 -293l225 293h134z" />
    <glyph glyph-name="florin.sc" horiz-adv-x="626" 
d="M483 539q-39 0 -65.5 -18.5t-30.5 -55.5l-13 -119h164l-7 -69h-164l-16 -149q-8 -68 -59 -107.5t-120 -39.5q-79 0 -134 31l31 75q36 -18 77 -18q85 0 94 74l15 134h-163l7 69h163l15 133q8 70 58 109t120 39q81 0 135 -32l-32 -74q-38 18 -75 18z" />
    <glyph glyph-name="A.ss01" horiz-adv-x="907" 
d="M767 0l-76 144h-476l-76 -144h-130l379 700h132l378 -700h-131zM269 245h368l-184 350z" />
    <glyph glyph-name="Aacute.ss01" horiz-adv-x="907" 
d="M682 935l-226 -155h-98l157 155h167zM767 0l-76 144h-476l-76 -144h-130l379 700h132l378 -700h-131zM269 245h368l-184 350z" />
    <glyph glyph-name="Abreve.ss01" horiz-adv-x="907" 
d="M455 774q-49 0 -86 16.5t-56.5 42.5t-29 52t-9.5 50h83q2 -34 28 -59t70 -25q42 0 68 25.5t28 58.5h84q0 -24 -9.5 -50t-29 -52t-56.5 -42.5t-85 -16.5zM767 0l-76 144h-476l-76 -144h-130l379 700h132l378 -700h-131zM269 245h368l-184 350z" />
    <glyph glyph-name="Acircumflex.ss01" horiz-adv-x="907" 
d="M453 879l-98 -99h-118l154 155h125l155 -155h-119zM767 0l-76 144h-476l-76 -144h-130l379 700h132l378 -700h-131zM269 245h368l-184 350z" />
    <glyph glyph-name="Adieresis.ss01" horiz-adv-x="907" 
d="M321 789q-28 0 -46.5 16.5t-18.5 40.5q0 25 18.5 41.5t46.5 16.5t46.5 -16.5t18.5 -41.5q0 -24 -19 -40.5t-46 -16.5zM587 789q-28 0 -46.5 16.5t-18.5 40.5q0 25 18.5 41.5t46.5 16.5t46.5 -16.5t18.5 -41.5q0 -24 -19 -40.5t-46 -16.5zM767 0l-76 144h-476l-76 -144
h-130l379 700h132l378 -700h-131zM269 245h368l-184 350z" />
    <glyph glyph-name="Agrave.ss01" horiz-adv-x="907" 
d="M550 780h-98l-226 155h168zM767 0l-76 144h-476l-76 -144h-130l379 700h132l378 -700h-131zM269 245h368l-184 350z" />
    <glyph glyph-name="Amacron.ss01" horiz-adv-x="907" 
d="M659 890v-88h-410v88h410zM767 0l-76 144h-476l-76 -144h-130l379 700h132l378 -700h-131zM269 245h368l-184 350z" />
    <glyph glyph-name="Aogonek.ss01" horiz-adv-x="907" 
d="M928 -170l23 -32q-45 -45 -120 -45q-57 0 -98.5 27t-41.5 80q0 47 31 84.5t85 55.5h-40l-76 144h-476l-76 -144h-130l379 700h132l378 -700h-1q-49 -19 -83.5 -54.5t-34.5 -76.5q0 -31 21 -47.5t54 -16.5q41 0 74 25zM269 245h368l-184 350z" />
    <glyph glyph-name="Aring.ss01" horiz-adv-x="907" 
d="M454 772q-61 0 -100 29t-39 82t39 82.5t100 29.5t100 -29.5t39 -82.5t-39 -82t-100 -29zM454 941q-30 0 -47.5 -15.5t-17.5 -42.5q0 -28 17.5 -43t47.5 -15t48 15t18 43q0 27 -18 42.5t-48 15.5zM767 0l-76 144h-476l-76 -144h-130l379 700h132l378 -700h-131zM269 245
h368l-184 350z" />
    <glyph glyph-name="Aringacute.ss01" horiz-adv-x="907" 
d="M454 772q-61 0 -100 29t-39 82q0 52 38 82l115 124h123l-120 -95q55 -4 88.5 -33t33.5 -78q0 -53 -39 -82t-100 -29zM520 883q0 27 -18 42.5t-48 15.5t-47.5 -15.5t-17.5 -42.5q0 -28 17.5 -43t47.5 -15t48 15t18 43zM767 0l-76 144h-476l-76 -144h-130l379 700h132
l378 -700h-131zM269 245h368l-184 350z" />
    <glyph glyph-name="Atilde.ss01" horiz-adv-x="907" 
d="M349 847q-35 0 -56 -12.5t-40 -36.5l-60 59q22 34 62 58t93 24q44 0 108 -28t103 -28q34 0 55 12.5t40 36.5l61 -60q-22 -33 -62 -57t-93 -24q-45 0 -109 28t-102 28zM767 0l-76 144h-476l-76 -144h-130l379 700h132l378 -700h-131zM269 245h368l-184 350z" />
    <glyph glyph-name="AE.ss01" horiz-adv-x="1403" 
d="M774 105h578v-105h-698v141h-400l-121 -141h-143l611 700h69h672v-105h-568v-217h478v-104h-478v-169zM338 238h316v366z" />
    <glyph glyph-name="AEacute.ss01" horiz-adv-x="1403" 
d="M1168 935l-226 -155h-98l157 155h167zM774 105h578v-105h-698v141h-400l-121 -141h-143l611 700h69h672v-105h-568v-217h478v-104h-478v-169zM338 238h316v366z" />
    <glyph glyph-name="E.ss01" horiz-adv-x="854" 
d="M225 105h578v-105h-697v700h687v-105h-568v-217h478v-104h-478v-169z" />
    <glyph glyph-name="Eacute.ss01" horiz-adv-x="854" 
d="M674 935l-227 -155h-98l157 155h168zM225 105h578v-105h-697v700h687v-105h-568v-217h478v-104h-478v-169z" />
    <glyph glyph-name="Ebreve.ss01" horiz-adv-x="854" 
d="M627 935q0 -24 -9.5 -50t-29 -52t-57 -42.5t-85.5 -16.5q-49 0 -86 16.5t-56.5 42.5t-29 52t-9.5 50h84q2 -34 27.5 -59t69.5 -25q43 0 68.5 25t27.5 59h85zM225 105h578v-105h-697v700h687v-105h-568v-217h478v-104h-478v-169z" />
    <glyph glyph-name="Ecaron.ss01" horiz-adv-x="854" 
d="M228 935l154 -155h126l154 155h-118l-99 -99l-99 99h-118zM225 105h578v-105h-697v700h687v-105h-568v-217h478v-104h-478v-169z" />
    <glyph glyph-name="Ecircumflex.ss01" horiz-adv-x="854" 
d="M228 780h118l98 99l99 -99h119l-154 155h-126zM225 105h578v-105h-697v700h687v-105h-568v-217h478v-104h-478v-169z" />
    <glyph glyph-name="Edieresis.ss01" horiz-adv-x="854" 
d="M312 789q-28 0 -46.5 16.5t-18.5 40.5q0 25 18.5 41.5t46.5 16.5t46.5 -16.5t18.5 -41.5q0 -24 -19 -40.5t-46 -16.5zM578 789q-28 0 -46.5 16.5t-18.5 40.5q0 25 18.5 41.5t46.5 16.5t46.5 -16.5t18.5 -41.5q0 -24 -19 -40.5t-46 -16.5zM225 105h578v-105h-697v700h687
v-105h-568v-217h478v-104h-478v-169z" />
    <glyph glyph-name="Edotaccent.ss01" horiz-adv-x="854" 
d="M445 789q-28 0 -44.5 14.5t-16.5 37.5q0 25 16.5 39.5t44.5 14.5q27 0 43.5 -14.5t16.5 -39.5q0 -23 -16.5 -37.5t-43.5 -14.5zM225 105h578v-105h-697v700h687v-105h-568v-217h478v-104h-478v-169z" />
    <glyph glyph-name="Egrave.ss01" horiz-adv-x="854" 
d="M217 935h168l156 -155h-98zM225 105h578v-105h-697v700h687v-105h-568v-217h478v-104h-478v-169z" />
    <glyph glyph-name="Emacron.ss01" horiz-adv-x="854" 
d="M240 890h410v-88h-410v88zM225 105h578v-105h-697v700h687v-105h-568v-217h478v-104h-478v-169z" />
    <glyph glyph-name="Eogonek.ss01" horiz-adv-x="854" 
d="M833 -170l24 -32q-45 -45 -120 -45q-58 0 -99.5 27t-41.5 80q0 47 31.5 84.5t85.5 55.5h-607v700h687v-105h-568v-217h478v-104h-478v-169h578v-105h-1q-49 -18 -83 -54t-34 -77q0 -31 21 -47.5t53 -16.5q41 0 74 25z" />
    <glyph glyph-name="F.ss01" horiz-adv-x="823" 
d="M791 594h-565v-236h478v-107h-478v-251h-120v700h685v-106z" />
    <glyph glyph-name="G.ss01" horiz-adv-x="949" 
d="M893 351v-194q-50 -80 -153 -129t-242 -49q-207 0 -324 99t-117 272t117 272t322 99q230 0 360 -139l-98 -70q-92 104 -261 104q-150 0 -234 -68t-84 -198t85.5 -198t238.5 -68q203 0 274 112v52h-292v103h408z" />
    <glyph glyph-name="Gbreve.ss01" horiz-adv-x="949" 
d="M676 936q0 -24 -9.5 -50t-29 -52t-56.5 -42.5t-86 -16.5t-86 16.5t-56.5 42.5t-29 52t-9.5 50h84q2 -34 28 -59t69 -25t69 25.5t28 58.5h84zM893 351v-194q-50 -80 -153 -129t-242 -49q-207 0 -324 99t-117 272t117 272t322 99q230 0 360 -139l-98 -70q-92 104 -261 104
q-150 0 -234 -68t-84 -198t85.5 -198t238.5 -68q203 0 274 112v52h-292v103h408z" />
    <glyph glyph-name="Gcircumflex.ss01" horiz-adv-x="949" 
d="M277 781h118l98 99l100 -99h118l-154 155h-125zM893 351v-194q-50 -80 -153 -129t-242 -49q-207 0 -324 99t-117 272t117 272t322 99q230 0 360 -139l-98 -70q-92 104 -261 104q-150 0 -234 -68t-84 -198t85.5 -198t238.5 -68q203 0 274 112v52h-292v103h408z" />
    <glyph glyph-name="Gcommaaccent.ss01" horiz-adv-x="949" 
d="M893 351v-194q-50 -80 -153 -129t-242 -49q-207 0 -324 99t-117 272t117 272t322 99q230 0 360 -139l-98 -70q-92 104 -261 104q-150 0 -234 -68t-84 -198t85.5 -198t238.5 -68q203 0 274 112v52h-292v103h408zM495 -56q35 0 57 -23.5t22 -59.5q0 -47 -27.5 -102.5
t-76.5 -93.5l-30 32q61 64 70 114q-5 -5 -19 -5q-30 0 -50.5 20t-20.5 50q0 29 21.5 48.5t53.5 19.5z" />
    <glyph glyph-name="Gdotaccent.ss01" horiz-adv-x="949" 
d="M494 790q-27 0 -44 14.5t-17 37.5q0 25 17 39.5t44 14.5t44 -14.5t17 -39.5q0 -23 -17 -37.5t-44 -14.5zM893 351v-194q-50 -80 -153 -129t-242 -49q-207 0 -324 99t-117 272t117 272t322 99q230 0 360 -139l-98 -70q-92 104 -261 104q-150 0 -234 -68t-84 -198
t85.5 -198t238.5 -68q203 0 274 112v52h-292v103h408z" />
    <glyph glyph-name="H.ss01" horiz-adv-x="980" 
d="M755 700h120v-700h-120v266h-529v-266h-120v700h120v-326h529v326z" />
    <glyph glyph-name="Hbar.ss01" horiz-adv-x="1021" 
d="M1002 564v-67h-106v-497h-120v266h-529v-266h-120v497h-107v67h107v136h120v-136h529v136h120v-136h106zM776 374v123h-529v-123h529z" />
    <glyph glyph-name="Hcircumflex.ss01" horiz-adv-x="980" 
d="M273 781h118l98 99l99 -99h119l-155 155h-125zM755 700h120v-700h-120v266h-529v-266h-120v700h120v-326h529v326z" />
    <glyph glyph-name="OE.ss01" horiz-adv-x="1467" 
d="M838 105h579v-105h-698h-236q-196 0 -311 94t-115 256t115 256t311 94h354h570v-105h-569v-217h479v-104h-479v-169zM719 104v492h-227q-143 0 -228 -63t-85 -183t85 -183t228 -63h227z" />
    <glyph glyph-name="P.ss01" horiz-adv-x="899" 
d="M579 700q127 0 205 -69.5t78 -179.5q0 -111 -78 -180t-205 -69h-353v-202h-120v700h473zM569 305q77 0 123.5 39t46.5 106t-46 106t-124 39h-343v-290h343z" />
    <glyph glyph-name="Thorn.ss01" horiz-adv-x="899" 
d="M581 605q124 0 202.5 -69t78.5 -179q0 -111 -78 -180t-203 -69h-355v-108h-120v700h120v-95h355zM572 210q76 0 121.5 39.5t45.5 107.5q0 67 -45.5 106.5t-121.5 39.5h-346v-293h346z" />
    <glyph glyph-name="Q.ss01" horiz-adv-x="984" 
d="M927 350q0 -161 -101.5 -258.5t-281.5 -111.5v-125h-104v125q-180 13 -281.5 110.5t-101.5 259.5q0 173 116.5 272t318.5 99t318.5 -99t116.5 -272zM544 88q122 12 191 80t69 182q0 126 -84 195.5t-228 69.5t-228.5 -69.5t-84.5 -195.5q0 -114 69.5 -182.5t191.5 -80.5
v149h104v-148z" />
    <glyph glyph-name="R.ss01" horiz-adv-x="928" 
d="M884 0h-149l-183 214h-326v-214h-120v700h476q123 0 203 -67.5t80 -175.5q0 -83 -49 -144t-132 -85zM225 317h349q76 0 122 37.5t46 101.5t-46 101.5t-122 37.5h-349v-278z" />
    <glyph glyph-name="Racute.ss01" horiz-adv-x="928" 
d="M674 935l-226 -155h-98l157 155h167zM884 0h-149l-183 214h-326v-214h-120v700h476q123 0 203 -67.5t80 -175.5q0 -83 -49 -144t-132 -85zM225 317h349q76 0 122 37.5t46 101.5t-46 101.5t-122 37.5h-349v-278z" />
    <glyph glyph-name="Rcaron.ss01" horiz-adv-x="928" 
d="M508 780h-125l-155 155h119l99 -99l98 99h119zM884 0h-149l-183 214h-326v-214h-120v700h476q123 0 203 -67.5t80 -175.5q0 -83 -49 -144t-132 -85zM225 317h349q76 0 122 37.5t46 101.5t-46 101.5t-122 37.5h-349v-278z" />
    <glyph glyph-name="Rcommaaccent.ss01" horiz-adv-x="928" 
d="M884 0h-149l-183 214h-326v-214h-120v700h476q123 0 203 -67.5t80 -175.5q0 -83 -49 -144t-132 -85zM225 317h349q76 0 122 37.5t46 101.5t-46 101.5t-122 37.5h-349v-278zM467 -56q35 0 57 -23.5t22 -59.5q0 -47 -27.5 -102.5t-76.5 -93.5l-30 32q61 64 70 114
q-5 -5 -19 -5q-30 0 -50.5 20t-20.5 50q0 29 21.5 48.5t53.5 19.5z" />
    <glyph glyph-name="a.sc.ss01" horiz-adv-x="839" 
d="M696 0l-67 122h-420l-67 -122h-129l343 608h129l341 -608h-130zM261 217h316l-158 286z" />
    <glyph glyph-name="aacute.sc.ss01" horiz-adv-x="839" 
d="M649 843l-226 -155h-98l156 155h168zM696 0l-67 122h-420l-67 -122h-129l343 608h129l341 -608h-130zM261 217h316l-158 286z" />
    <glyph glyph-name="abreve.sc.ss01" horiz-adv-x="839" 
d="M421 682q-49 0 -86 16.5t-56.5 42.5t-29 52t-9.5 50h84q2 -34 27.5 -59t69.5 -25q43 0 69 25t27 59h85q0 -24 -9.5 -50t-29 -52t-57 -42.5t-85.5 -16.5zM696 0l-67 122h-420l-67 -122h-129l343 608h129l341 -608h-130zM261 217h316l-158 286z" />
    <glyph glyph-name="acircumflex.sc.ss01" horiz-adv-x="839" 
d="M419 787l-98 -99h-118l155 155h125l154 -155h-118zM696 0l-67 122h-420l-67 -122h-129l343 608h129l341 -608h-130zM261 217h316l-158 286z" />
    <glyph glyph-name="adieresis.sc.ss01" horiz-adv-x="839" 
d="M287 697q-28 0 -46.5 16.5t-18.5 40.5q0 25 18.5 41.5t46.5 16.5t46.5 -16.5t18.5 -41.5q0 -24 -18.5 -40.5t-46.5 -16.5zM553 697q-28 0 -46.5 16.5t-18.5 40.5q0 25 18.5 41.5t46.5 16.5t46.5 -16.5t18.5 -41.5q0 -24 -18.5 -40.5t-46.5 -16.5zM696 0l-67 122h-420
l-67 -122h-129l343 608h129l341 -608h-130zM261 217h316l-158 286z" />
    <glyph glyph-name="agrave.sc.ss01" horiz-adv-x="839" 
d="M516 688h-98l-226 155h168zM696 0l-67 122h-420l-67 -122h-129l343 608h129l341 -608h-130zM261 217h316l-158 286z" />
    <glyph glyph-name="amacron.sc.ss01" horiz-adv-x="839" 
d="M625 798v-88h-410v88h410zM696 0l-67 122h-420l-67 -122h-129l343 608h129l341 -608h-130zM261 217h316l-158 286z" />
    <glyph glyph-name="aogonek.sc.ss01" horiz-adv-x="839" 
d="M856 -170l24 -32q-45 -45 -120 -45q-58 0 -99.5 27t-41.5 80q0 47 31.5 84.5t85.5 55.5h-40l-67 122h-420l-67 -122h-129l343 608h129l341 -608h-1q-49 -18 -83 -54t-34 -77q0 -31 21 -47.5t53 -16.5q41 0 74 25zM261 217h316l-158 286z" />
    <glyph glyph-name="aring.sc.ss01" horiz-adv-x="839" 
d="M420 680q-61 0 -100 29t-39 82t39 82t100 29t100.5 -29t39.5 -82t-39.5 -82t-100.5 -29zM421 848q-30 0 -48 -15t-18 -42q0 -28 18 -43t48 -15q29 0 47 15t18 43q0 27 -18 42t-47 15zM696 0l-67 122h-420l-67 -122h-129l343 608h129l341 -608h-130zM261 217h316l-158 286
z" />
    <glyph glyph-name="aringacute.sc.ss01" horiz-adv-x="839" 
d="M420 680q-61 0 -100 29t-39 82q0 51 39 82l115 123h122l-120 -95q55 -4 89 -32.5t34 -77.5q0 -53 -39.5 -82t-100.5 -29zM486 791q0 27 -18 42t-47 15q-30 0 -48 -15t-18 -42q0 -28 18 -43t48 -15q29 0 47 15t18 43zM696 0l-67 122h-420l-67 -122h-129l343 608h129
l341 -608h-130zM261 217h316l-158 286z" />
    <glyph glyph-name="atilde.sc.ss01" horiz-adv-x="839" 
d="M316 755q-57 0 -97 -49l-60 59q22 33 62 57.5t93 24.5q45 0 109 -28t102 -28q35 0 56 12.5t40 36.5l60 -60q-22 -33 -62 -57t-93 -24q-45 0 -109 28t-101 28zM696 0l-67 122h-420l-67 -122h-129l343 608h129l341 -608h-130zM261 217h316l-158 286z" />
    <glyph glyph-name="ae.sc.ss01" horiz-adv-x="1290" 
d="M716 101h521v-101h-639v137h-342l-124 -137h-138l550 608h69h614v-100h-511v-169h423v-98h-423v-140zM342 233h256v284z" />
    <glyph glyph-name="aeacute.sc.ss01" horiz-adv-x="1290" 
d="M1084 843l-226 -155h-98l156 155h168zM716 101h521v-101h-639v137h-342l-124 -137h-138l550 608h69h614v-100h-511v-150h423v-99h-423v-158zM342 233h256v284z" />
    <glyph glyph-name="e.sc.ss01" 
d="M219 101h520v-101h-638v608h629v-101h-511v-168h427v-99h-427v-139z" />
    <glyph glyph-name="eacute.sc.ss01" 
d="M640 843l-226 -155h-98l156 155h168zM219 101h520v-101h-638v608h629v-101h-511v-168h427v-99h-427v-139z" />
    <glyph glyph-name="ebreve.sc.ss01" 
d="M593 843q0 -24 -9.5 -50t-29 -52t-56.5 -42.5t-86 -16.5t-86 16.5t-56.5 42.5t-29 52t-9.5 50h84q2 -34 28 -59t69 -25t69 25t28 59h84zM219 101h520v-101h-638v608h629v-101h-511v-168h427v-99h-427v-139z" />
    <glyph glyph-name="ecaron.sc.ss01" 
d="M194 843l155 -155h125l155 155h-119l-99 -99l-99 99h-118zM219 101h520v-101h-638v608h629v-101h-511v-168h427v-99h-427v-139z" />
    <glyph glyph-name="ecircumflex.sc.ss01" 
d="M194 688h118l98 99l100 -99h119l-155 155h-125zM219 101h520v-101h-638v608h629v-101h-511v-168h427v-99h-427v-139z" />
    <glyph glyph-name="edieresis.sc.ss01" 
d="M279 697q-29 0 -47.5 16.5t-18.5 40.5q0 25 18.5 41.5t47.5 16.5q28 0 46 -16.5t18 -41.5q0 -24 -18 -40.5t-46 -16.5zM545 697q-28 0 -47 16.5t-19 40.5q0 25 19 41.5t47 16.5t46.5 -16.5t18.5 -41.5q0 -24 -18.5 -40.5t-46.5 -16.5zM219 101h520v-101h-638v608h629
v-101h-511v-168h427v-99h-427v-139z" />
    <glyph glyph-name="edotaccent.sc.ss01" 
d="M411 697q-27 0 -44 14t-17 38q0 25 17 39.5t44 14.5t44 -14.5t17 -39.5q0 -24 -17 -38t-44 -14zM219 101h520v-101h-638v608h629v-101h-511v-168h427v-99h-427v-139z" />
    <glyph glyph-name="egrave.sc.ss01" 
d="M184 843h168l156 -155h-98zM219 101h520v-101h-638v608h629v-101h-511v-168h427v-99h-427v-139z" />
    <glyph glyph-name="emacron.sc.ss01" 
d="M207 798h409v-88h-409v88zM219 101h520v-101h-638v608h629v-101h-511v-168h427v-99h-427v-139z" />
    <glyph glyph-name="eogonek.sc.ss01" 
d="M768 -170l24 -32q-45 -45 -120 -45q-58 0 -99.5 27t-41.5 80q0 47 31.5 84.5t85.5 55.5h-547v608h629v-101h-511v-168h427v-99h-427v-139h520v-101h-2q-49 -18 -83 -54t-34 -77q0 -31 21 -47.5t53 -16.5q41 0 74 25z" />
    <glyph glyph-name="f.sc.ss01" horiz-adv-x="761" 
d="M728 506h-509v-193h428v-102h-428v-211h-118v608h627v-102z" />
    <glyph glyph-name="fi.sc.ss01" horiz-adv-x="1081" 
d="M980 0h-118v608h118v-608zM728 506h-509v-193h428v-102h-428v-211h-118v608h627v-102z" />
    <glyph glyph-name="fl.sc.ss01" horiz-adv-x="1470" 
d="M980 104h464v-104h-582v608h118v-504zM728 506h-509v-193h428v-102h-428v-211h-118v608h627v-102z" />
    <glyph glyph-name="g.sc.ss01" horiz-adv-x="875" 
d="M818 308v-171q-45 -71 -139.5 -114t-220.5 -43q-188 0 -295.5 86.5t-107.5 236.5q0 152 107.5 238.5t295.5 86.5q212 0 330 -118l-98 -70q-82 86 -227 86q-137 0 -212 -57t-75 -166q0 -108 75.5 -165t211.5 -57q179 0 241 93v42h-258v92h372z" />
    <glyph glyph-name="gbreve.sc.ss01" horiz-adv-x="875" 
d="M637 844q0 -24 -9.5 -50t-29 -52t-57 -42.5t-85.5 -16.5q-49 0 -86 16.5t-56.5 42.5t-29 52t-9.5 50h84q2 -34 28 -59t69 -25t69 25t28 59h84zM818 308v-171q-45 -71 -139.5 -114t-220.5 -43q-188 0 -295.5 86.5t-107.5 236.5q0 152 107.5 238.5t295.5 86.5
q212 0 330 -118l-98 -70q-82 86 -227 86q-137 0 -212 -57t-75 -166q0 -108 75.5 -165t211.5 -57q179 0 241 93v42h-258v92h372z" />
    <glyph glyph-name="gcircumflex.sc.ss01" horiz-adv-x="875" 
d="M238 689h118l98 99l100 -99h118l-154 155h-125zM818 308v-171q-45 -71 -139.5 -114t-220.5 -43q-188 0 -295.5 86.5t-107.5 236.5q0 152 107.5 238.5t295.5 86.5q212 0 330 -118l-98 -70q-82 86 -227 86q-137 0 -212 -57t-75 -166q0 -108 75.5 -165t211.5 -57
q179 0 241 93v42h-258v92h372z" />
    <glyph glyph-name="gcommaaccent.sc.ss01" horiz-adv-x="875" 
d="M818 308v-171q-45 -71 -139.5 -114t-220.5 -43q-188 0 -295.5 86.5t-107.5 236.5q0 152 107.5 238.5t295.5 86.5q212 0 330 -118l-98 -70q-82 86 -227 86q-137 0 -212 -57t-75 -166q0 -108 75.5 -165t211.5 -57q179 0 241 93v42h-258v92h372zM456 -56q35 0 57 -23.5
t22 -59.5q0 -47 -27.5 -102.5t-76.5 -93.5l-30 32q61 64 70 114q-5 -5 -19 -5q-30 0 -50.5 20t-20.5 50q0 29 21.5 48.5t53.5 19.5z" />
    <glyph glyph-name="gdotaccent.sc.ss01" horiz-adv-x="875" 
d="M455 698q-27 0 -44 14t-17 38q0 25 17 39.5t44 14.5t44 -14.5t17 -39.5q0 -24 -17 -38t-44 -14zM818 308v-171q-45 -71 -139.5 -114t-220.5 -43q-188 0 -295.5 86.5t-107.5 236.5q0 152 107.5 238.5t295.5 86.5q212 0 330 -118l-98 -70q-82 86 -227 86q-137 0 -212 -57
t-75 -166q0 -108 75.5 -165t211.5 -57q179 0 241 93v42h-258v92h372z" />
    <glyph glyph-name="h.sc.ss01" horiz-adv-x="906" 
d="M687 608h118v-608h-118v231h-468v-231h-118v608h118v-270h468v270z" />
    <glyph glyph-name="hbar.sc.ss01" horiz-adv-x="950" 
d="M923 504v-65h-96v-439h-119v231h-467v-231h-119v439h-96v65h96v104h119v-104h467v104h119v-104h96zM708 338v101h-467v-101h467z" />
    <glyph glyph-name="hcircumflex.sc.ss01" horiz-adv-x="906" 
d="M236 689h118l98 99l100 -99h118l-154 155h-125zM687 608h118v-608h-118v231h-468v-231h-118v608h118v-270h468v270z" />
    <glyph glyph-name="oe.sc.ss01" horiz-adv-x="1345" 
d="M771 101h521v-101h-639h-209q-179 0 -284 81.5t-105 221.5q0 142 105 223.5t284 81.5h209h629v-101h-511v-168h428v-99h-428v-139zM653 102v404h-200q-127 0 -202 -51.5t-75 -151.5q0 -98 75 -149.5t202 -51.5h200z" />
    <glyph glyph-name="p.sc.ss01" horiz-adv-x="831" 
d="M532 608q117 0 189 -60t72 -157t-72 -157t-189 -60h-313v-174h-118v608h431zM522 273q69 0 109.5 30t40.5 87t-40.5 87.5t-109.5 30.5h-303v-235h303z" />
    <glyph glyph-name="thorn.sc.ss01" horiz-adv-x="831" 
d="M526 523q121 0 194 -58t73 -156q0 -97 -73 -155t-194 -58h-307v-96h-118v608h118v-85h307zM516 195q74 0 115 29.5t41 84.5q0 57 -41 85.5t-115 28.5h-297v-228h297z" />
    <glyph glyph-name="q.sc.ss01" horiz-adv-x="905" 
d="M849 303q0 -139 -92.5 -224.5t-254.5 -97.5v-106h-101v106q-162 13 -254 98.5t-92 223.5q0 151 106.5 238t291.5 87q184 0 290 -87t106 -238zM502 84q106 11 166.5 68.5t60.5 150.5q0 106 -74.5 165t-202.5 59t-202.5 -59t-74.5 -165q0 -93 60 -150.5t166 -68.5v132h101
v-132z" />
    <glyph glyph-name="r.sc.ss01" horiz-adv-x="861" 
d="M816 0h-148l-164 186h-285v-186h-118v608h435q113 0 186.5 -58.5t73.5 -152.5q0 -72 -43.5 -124t-117.5 -74zM217 284h309q68 0 108.5 29t40.5 83t-40.5 83t-108.5 29h-309v-224z" />
    <glyph glyph-name="racute.sc.ss01" horiz-adv-x="861" 
d="M641 843l-227 -155h-98l157 155h168zM816 0h-148l-164 186h-285v-186h-118v608h435q113 0 186.5 -58.5t73.5 -152.5q0 -72 -43.5 -124t-117.5 -74zM217 284h309q68 0 108.5 29t40.5 83t-40.5 83t-108.5 29h-309v-224z" />
    <glyph glyph-name="rcaron.sc.ss01" horiz-adv-x="861" 
d="M475 688h-126l-154 155h118l99 -99l99 99h118zM816 0h-148l-164 186h-285v-186h-118v608h435q113 0 186.5 -58.5t73.5 -152.5q0 -72 -43.5 -124t-117.5 -74zM217 284h309q68 0 108.5 29t40.5 83t-40.5 83t-108.5 29h-309v-224z" />
    <glyph glyph-name="rcommaaccent.sc.ss01" horiz-adv-x="861" 
d="M635 199l181 -199h-148l-164 186h-285v-186h-118v608h435q113 0 186.5 -58.5t73.5 -152.5q0 -72 -43.5 -124t-117.5 -74zM217 284h309q68 0 108.5 29t40.5 83t-40.5 83t-108.5 29h-309v-224zM431 -56q35 0 57 -23.5t22 -59.5q0 -47 -27.5 -102.5t-76.5 -93.5l-30 32
q61 64 70 114q-5 -5 -19 -5q-30 0 -50.5 20t-20.5 50q0 29 21.5 48.5t53.5 19.5z" />
    <glyph glyph-name="uni20A8.ss01" horiz-adv-x="893" 
d="M846 700v-79h-184q52 -50 62 -117h122v-80h-122q-11 -68 -59.5 -116.5t-124.5 -68.5l210 -239h-128l-194 226h-355v80h356q81 0 130.5 31t61.5 87h-548v80h548q-13 56 -62 86.5t-130 30.5h-356v79h773z" />
    <glyph glyph-name="registered.ss01" horiz-adv-x="575" 
d="M287 710q100 0 166 -57.5t66 -151.5t-66 -151t-166 -57t-165.5 57t-65.5 151t65.5 151.5t165.5 57.5zM288 318q89 0 145.5 49.5t56.5 133.5q0 85 -56.5 134t-145.5 49q-90 0 -146.5 -49t-56.5 -134q0 -84 56.5 -133.5t146.5 -49.5zM412 536q0 -54 -54 -72l59 -67h-55
l-53 61h-84v-61h-47v216h144q40 0 65 -21t25 -56zM224 493h87q52 0 52 42q0 41 -52 41h-87v-83z" />
    <glyph glyph-name="uni2117.ss01" horiz-adv-x="980" 
d="M490 -21q-200 0 -316.5 101t-116.5 270t116.5 270t316.5 101t316.5 -101t116.5 -270t-116.5 -270t-316.5 -101zM490 16q179 0 285.5 88.5t106.5 245.5t-106.5 245.5t-285.5 88.5t-286 -88.5t-107 -245.5t107 -245.5t286 -88.5zM576 589q92 0 151 -45.5t59 -123.5
t-59 -123.5t-151 -45.5h-224v-138h-95v476h319zM567 324q58 0 91 24t33 72q0 47 -33 71.5t-91 24.5h-215v-192h215z" />
    </font>
</defs>
</svg>
