<?xml version="1.0" standalone="no"?>
<!DOCTYPE svg PUBLIC "-//W3C//DTD SVG 1.1//EN" "http://www.w3.org/Graphics/SVG/1.1/DTD/svg11.dtd" >
<svg xmlns="http://www.w3.org/2000/svg" xmlns:xlink="http://www.w3.org/1999/xlink" version="1.1">
<metadata>
Created by FontForge 20161003 at Mon Mar  4 17:33:06 2019
 By www-data
Copyright (c) 2015 by Mattox Shuler. All rights reserved.
</metadata>
<defs>
<font id="TerminaBold" horiz-adv-x="938" >
  <font-face 
    font-family="TerminaBold"
    font-weight="700"
    font-stretch="normal"
    units-per-em="1000"
    panose-1="0 0 8 0 0 0 0 0 0 0"
    ascent="800"
    descent="-200"
    x-height="554"
    cap-height="700"
    bbox="-430 -420 1612 1095"
    underline-thickness="50"
    underline-position="-150"
    unicode-range="U+0020-FB02"
  />
<missing-glyph horiz-adv-x="505" 
d="M414 770v-1010h-320v1010h320zM336 702h-166v-33h65v-37h-66v-34h167v34h-66v37h66v33zM270 572h-101v-105h167v34h-66v71zM235 538v-37h-33v37h33zM336 440h-167v-34h66v-37h-66v-33h101v70h66v34zM336 379h-33v-67h-134v-34h167v101zM336 256h-101v-57h35v24h33v-48
h-101v81h-33v-114h167v114zM336 81h-167v-114h167v114zM303 48v-48h-101v48h101zM336 -56h-167v-34h70l-70 -47v-33h167v33h-103l71 47h32v34z" />
    <glyph glyph-name="fi" unicode="fi" horiz-adv-x="878" 
d="M709 610q-51 0 -82.5 25.5t-31.5 67.5t31.5 67.5t82.5 25.5q50 0 81.5 -25.5t31.5 -67.5t-31.5 -67.5t-81.5 -25.5zM405 640q-97 0 -97 -70v-16h217v-139h-211v-415h-197v415h-98v139h98q1 102 66.5 154.5t170.5 52.5q106 0 177 -33l-28 -111q-50 23 -98 23zM611 0v554
h198v-554h-198z" />
    <glyph glyph-name="fl" unicode="fl" horiz-adv-x="880" 
d="M405 640q-97 0 -97 -70v-16h217v-139h-211v-415h-197v415h-98v139h98q1 102 66.5 154.5t170.5 52.5q106 0 177 -33l-28 -111q-50 23 -98 23zM611 740h198v-740h-198v740z" />
    <glyph glyph-name=".notdef" horiz-adv-x="505" 
d="M414 770v-1010h-320v1010h320zM336 702h-166v-33h65v-37h-66v-34h167v34h-66v37h66v33zM270 572h-101v-105h167v34h-66v71zM235 538v-37h-33v37h33zM336 440h-167v-34h66v-37h-66v-33h101v70h66v34zM336 379h-33v-67h-134v-34h167v101zM336 256h-101v-57h35v24h33v-48
h-101v81h-33v-114h167v114zM336 81h-167v-114h167v114zM303 48v-48h-101v48h101zM336 -56h-167v-34h70l-70 -47v-33h167v33h-103l71 47h32v34z" />
    <glyph glyph-name=".null" horiz-adv-x="0" 
 />
    <glyph glyph-name="nonmarkingreturn" horiz-adv-x="333" 
 />
    <glyph glyph-name="space" unicode=" " horiz-adv-x="261" 
 />
    <glyph glyph-name="exclam" unicode="!" horiz-adv-x="359" 
d="M62 700h235l-32 -450h-171zM179 -13q-51 0 -83 28t-32 71t32.5 71.5t82.5 28.5t82 -29t32 -71q0 -43 -32 -71t-82 -28z" />
    <glyph glyph-name="quotedbl" unicode="&#x22;" horiz-adv-x="563" 
d="M67 740h167v-318h-167v318zM329 740h167v-318h-167v318z" />
    <glyph glyph-name="numbersign" unicode="#" horiz-adv-x="964" 
d="M925 424h-167l-38 -135h169v-120h-204l-48 -169h-161l48 169h-190l-49 -169h-161l48 169h-133v120h168l38 135h-171v120h205l45 156h161l-44 -156h190l45 156h161l-45 -156h133v-120zM558 289l39 135h-191l-38 -135h190z" />
    <glyph glyph-name="dollar" unicode="$" horiz-adv-x="902" 
d="M861 232q0 -105 -91.5 -166.5t-260.5 -67.5v-102h-96v103q-230 15 -381 135l106 120q112 -88 275 -103v127q-78 8 -136 20.5t-110 35.5t-79 61t-27 90q0 68 47.5 116.5t125 72.5t179.5 28v92h96v-93q193 -12 319 -102l-100 -121q-89 61 -219 72v-112q68 -6 117 -14
t96 -23t75.5 -36.5t46 -55t17.5 -77.5zM263 499q0 -26 36 -36.5t114 -16.5v107q-150 -4 -150 -54zM509 148q77 2 113.5 16t36.5 44q0 29 -32.5 41.5t-117.5 20.5v-122z" />
    <glyph glyph-name="percent" unicode="%" horiz-adv-x="918" 
d="M218 373q-84 0 -139 49.5t-55 122.5t55 122.5t139 49.5t138.5 -49.5t54.5 -122.5t-54.5 -122.5t-138.5 -49.5zM665 700h134l-545 -700h-135zM218 472q36 0 58 19t22 54q0 34 -22 53t-58 19t-58 -19t-22 -53q0 -35 22 -54t58 -19zM700 -17q-84 0 -138.5 49.5t-54.5 122.5
q0 74 54.5 123t138.5 49t138.5 -49t54.5 -123q0 -73 -54.5 -122.5t-138.5 -49.5zM700 83q36 0 58 19t22 53q0 35 -22 54t-58 19t-58 -19t-22 -54q0 -34 22 -53t58 -19z" />
    <glyph glyph-name="ampersand" unicode="&#x26;" horiz-adv-x="926" 
d="M932 0h-233l-41 31q-99 -51 -237 -51q-162 0 -269 68t-107 170q0 58 37.5 104t106.5 73q-62 60 -62 127q0 86 77.5 142t211.5 56q239 0 353 -185l-164 -63q-72 113 -183 113q-47 0 -76 -17t-29 -47q0 -25 20.5 -47t79.5 -68l234 -184q28 47 34 115h172q-8 -125 -82 -213z
M431 116q51 0 99 14l-248 191q-38 -37 -38 -84q0 -56 52 -88.5t135 -32.5z" />
    <glyph glyph-name="quotesingle" unicode="'" horiz-adv-x="301" 
d="M67 740h167v-318h-167v318z" />
    <glyph glyph-name="parenleft" unicode="(" horiz-adv-x="468" 
d="M213 290q0 -118 59.5 -197.5t157.5 -109.5l-56 -126q-142 30 -238 149.5t-96 283.5t96 283.5t238 149.5l56 -126q-98 -30 -157.5 -109t-59.5 -198z" />
    <glyph glyph-name="parenright" unicode=")" horiz-adv-x="468" 
d="M255 290q0 119 -59.5 198t-157.5 109l56 126q142 -30 237.5 -149.5t95.5 -283.5t-95.5 -283.5t-237.5 -149.5l-56 126q98 30 157.5 109.5t59.5 197.5z" />
    <glyph glyph-name="asterisk" unicode="*" horiz-adv-x="629" 
d="M374 192l-60 187l-59 -187l-141 81l129 142l-188 -38v162l188 -37l-129 141l141 81l59 -187l60 187l140 -81l-128 -141l188 37v-162l-188 38l128 -142z" />
    <glyph glyph-name="plus" unicode="+" horiz-adv-x="735" 
d="M670 378v-149h-224v-192h-156v192h-225v149h225v191h156v-191h224z" />
    <glyph glyph-name="comma" unicode="," horiz-adv-x="323" 
d="M158 186q54 0 87 -36.5t33 -89.5q0 -61 -40.5 -129.5t-115.5 -112.5l-40 56q80 59 97 120q-6 -7 -28 -7q-44 0 -74.5 28.5t-30.5 71.5q0 42 32 70.5t80 28.5z" />
    <glyph glyph-name="hyphen" unicode="-" horiz-adv-x="608" 
d="M543 226h-478v155h478v-155z" />
    <glyph glyph-name="period" unicode="." horiz-adv-x="319" 
d="M160 -13q-51 0 -83 28t-32 71t32.5 71.5t82.5 28.5t82 -29t32 -71q0 -43 -32 -71t-82 -28z" />
    <glyph glyph-name="slash" unicode="/" horiz-adv-x="770" 
d="M235 -100h-212l512 880h212z" />
    <glyph glyph-name="zero" unicode="0" horiz-adv-x="957" 
d="M478 -23q-202 0 -319 98.5t-117 274.5t117 274.5t319 98.5q203 0 320 -98.5t117 -274.5t-117 -274.5t-320 -98.5zM479 143q108 0 168.5 53.5t60.5 153.5t-60.5 153.5t-168.5 53.5q-109 0 -169.5 -53.5t-60.5 -153.5t60.5 -153.5t169.5 -53.5z" />
    <glyph glyph-name="one" unicode="1" horiz-adv-x="519" 
d="M233 0v489q-75 -49 -209 -72v162q67 10 137.5 43t121.5 78h154v-700h-204z" />
    <glyph glyph-name="two" unicode="2" horiz-adv-x="833" 
d="M46 565q56 69 156.5 112.5t221.5 43.5q89 0 166 -22t130 -72.5t53 -122.5q0 -85 -69.5 -141.5t-195.5 -94.5q-199 -62 -232 -114h511v-154h-751v88q14 102 104.5 183.5t245.5 127.5q6 2 19 6q30 9 44.5 14t37.5 13.5t34 14.5t23.5 15t17.5 18t5 20q0 33 -45 52t-107 19
q-143 0 -258 -113z" />
    <glyph glyph-name="three" unicode="3" horiz-adv-x="838" 
d="M162 231q87 -101 242 -101q74 0 125 20.5t51 65.5t-48.5 61t-134.5 16h-111v136h111q70 0 116.5 16.5t46.5 53.5q0 26 -25 42.5t-59 22.5t-76 6q-149 0 -233 -99l-132 94q57 73 154 114.5t218 41.5q97 0 176.5 -20t132 -65.5t52.5 -110.5q0 -62 -45.5 -107.5
t-119.5 -54.5q83 -13 137.5 -54.5t54.5 -113.5q0 -102 -108 -159t-275 -57q-125 0 -226.5 43t-162.5 118z" />
    <glyph glyph-name="four" unicode="4" horiz-adv-x="892" 
d="M865 282v-146h-135v-136h-198v136h-516v114l532 450h182v-418h135zM266 282h267v227z" />
    <glyph glyph-name="five" unicode="5" horiz-adv-x="848" 
d="M137 232q46 -38 123.5 -66.5t168.5 -28.5q179 0 179 88q0 93 -186 93q-115 0 -215 -43l-146 55l60 370h622v-151h-469l-24 -151q107 65 248 65q83 0 153 -24.5t117.5 -80.5t47.5 -135q0 -107 -96.5 -176.5t-290.5 -69.5q-242 0 -400 135z" />
    <glyph glyph-name="six" unicode="6" horiz-adv-x="900" 
d="M527 463q59 0 115 -12.5t107 -38.5t82 -73t31 -108q0 -113 -102.5 -183.5t-283.5 -70.5q-201 0 -317.5 100t-116.5 273t116.5 273t317.5 100q236 0 367 -118l-110 -111q-94 82 -235 82q-235 0 -249 -197q52 41 126 62.5t152 21.5zM476 124q84 0 132.5 26.5t48.5 78.5
q0 99 -173 99q-130 0 -225 -69q39 -135 217 -135z" />
    <glyph glyph-name="seven" unicode="7" horiz-adv-x="775" 
d="M149 0l365 540h-494v160h739v-124l-380 -576h-230z" />
    <glyph glyph-name="eight" unicode="8" horiz-adv-x="897" 
d="M661 366q82 -13 137.5 -56.5t55.5 -114.5q0 -102 -111.5 -160t-294.5 -58q-182 0 -293.5 58t-111.5 160q0 71 55.5 114.5t138.5 56.5q-75 8 -121 51.5t-46 106.5q0 96 107.5 147.5t270.5 51.5t271 -51.5t108 -147.5q0 -62 -46 -106t-120 -52zM275 504q0 -40 49.5 -60
t123.5 -20q75 0 124.5 20t49.5 60t-49.5 60t-124.5 20q-74 0 -123.5 -20t-49.5 -60zM448 116q87 0 140.5 23t53.5 70q0 46 -53.5 69t-140.5 23q-86 0 -139.5 -23t-53.5 -69t54 -69.5t139 -23.5z" />
    <glyph glyph-name="nine" unicode="9" horiz-adv-x="900" 
d="M424 723q201 0 317.5 -100t116.5 -273t-116.5 -273t-317.5 -100q-236 0 -367 118l110 111q94 -82 235 -82q233 0 249 197q-52 -41 -126.5 -62.5t-151.5 -21.5q-59 0 -115 12.5t-107 38.5t-82 73t-31 108q0 113 102.5 183.5t283.5 70.5zM243 471q0 -99 173 -99
q131 0 225 68q-39 136 -217 136q-84 0 -132.5 -26.5t-48.5 -78.5z" />
    <glyph glyph-name="colon" unicode=":" horiz-adv-x="319" 
d="M160 368q-51 0 -83 28.5t-32 71.5t32.5 71.5t82.5 28.5t82 -29t32 -71q0 -43 -32 -71.5t-82 -28.5zM160 -13q-51 0 -83 28t-32 71t32.5 71.5t82.5 28.5t82 -29t32 -71q0 -43 -32 -71t-82 -28z" />
    <glyph glyph-name="semicolon" unicode=";" horiz-adv-x="323" 
d="M160 368q-51 0 -83 28.5t-32 71.5t32.5 71.5t82.5 28.5t82 -29t32 -71q0 -43 -32 -71.5t-82 -28.5zM158 186q54 0 87 -36.5t33 -89.5q0 -61 -40.5 -129.5t-115.5 -112.5l-40 56q80 59 97 120q-6 -7 -28 -7q-44 0 -74.5 28.5t-30.5 71.5q0 42 32 70.5t80 28.5z" />
    <glyph glyph-name="less" unicode="&#x3c;" horiz-adv-x="735" 
d="M634 571l-557 -192v-163l557 -193v158l-394 116l394 116v158z" />
    <glyph glyph-name="equal" unicode="=" horiz-adv-x="735" 
d="M670 369h-605v150h605v-150zM670 107h-605v150h605v-150z" />
    <glyph glyph-name="greater" unicode="&#x3e;" horiz-adv-x="735" 
d="M101 571v-158l394 -116l-394 -116v-158l557 193v163z" />
    <glyph glyph-name="question" unicode="?" horiz-adv-x="764" 
d="M300 236v171q112 13 164 34t52 62q0 70 -141 70q-146 0 -245 -105l-105 109q144 144 356 144q88 0 163 -21.5t127.5 -71t52.5 -120.5q0 -87 -73.5 -135.5t-194.5 -56.5v-80h-156zM377 -13q-51 0 -83 28t-32 71t32.5 71.5t82.5 28.5t82 -29t32 -71q0 -43 -32 -71t-82 -28z
" />
    <glyph glyph-name="at" unicode="@" horiz-adv-x="1127" 
d="M561 694q236 0 377 -116t141 -301q0 -245 -186 -245q-65 0 -115.5 27t-74.5 73q-36 -50 -96 -77.5t-127 -27.5q-114 0 -190 69.5t-76 181.5t76 181t190 69q142 0 216 -105l33 87h129v-297q0 -114 66 -114q39 0 62.5 48t23.5 130q0 88 -35.5 156.5t-97.5 111t-142 64.5
t-174 22t-174 -22t-142 -64.5t-97.5 -111t-35.5 -156.5q0 -117 62 -198.5t161.5 -118.5t225.5 -37q191 0 294 70l33 -52q-102 -81 -327 -81q-237 0 -378 116t-141 301t141 301t378 116zM531 146q108 0 160 90v81q-52 89 -160 89q-69 0 -109.5 -35.5t-40.5 -94.5t40.5 -94.5
t109.5 -35.5z" />
    <glyph glyph-name="A" unicode="A" 
d="M726 0l-66 134h-384l-66 -134h-214l362 700h223l362 -700h-217zM346 279h243l-121 248z" />
    <glyph glyph-name="B" unicode="B" horiz-adv-x="942" 
d="M704 365q87 -6 143.5 -50.5t56.5 -122.5q0 -90 -75.5 -141t-205.5 -51h-541v700h501q129 0 205 -48.5t76 -132.5q0 -62 -42 -106t-118 -48zM284 558v-137h265q55 0 84 15.5t29 53.5t-29 53t-84 15h-265zM580 142q57 0 86 16.5t29 57.5t-28.5 57t-86.5 16h-296v-147h296z
" />
    <glyph glyph-name="C" unicode="C" horiz-adv-x="898" 
d="M489 143q145 0 215 107l175 -90q-51 -81 -155 -132t-240 -51q-201 0 -321.5 99t-120.5 274t122 274t328 99q130 0 232 -51.5t152 -130.5l-176 -90q-68 106 -211 106q-110 0 -175 -54t-65 -153t65 -153t175 -54z" />
    <glyph glyph-name="D" unicode="D" horiz-adv-x="955" 
d="M473 700q203 0 321.5 -93t118.5 -257t-118.5 -257t-321.5 -93h-391v700h391zM457 162q115 0 181.5 48.5t66.5 139.5t-66.5 139.5t-181.5 48.5h-171v-376h171z" />
    <glyph glyph-name="E" unicode="E" horiz-adv-x="870" 
d="M283 156h546v-156h-747v700h736v-156h-535v-115h441v-149h-441v-124z" />
    <glyph glyph-name="F" unicode="F" horiz-adv-x="839" 
d="M815 539h-529v-133h442v-159h-442v-247h-204v700h733v-161z" />
    <glyph glyph-name="G" unicode="G" horiz-adv-x="955" 
d="M907 405v-273q-58 -72 -161 -113.5t-239 -41.5q-217 0 -341 98t-124 275t124 275t341 98q121 0 215.5 -36t155.5 -93l-149 -110q-87 78 -217 78q-127 0 -195 -54.5t-68 -157.5t69 -158t197 -55q135 0 203 62v63h-232v143h421z" />
    <glyph glyph-name="H" unicode="H" horiz-adv-x="992" 
d="M706 700h204v-700h-204v271h-420v-271h-204v700h204v-261h420v261z" />
    <glyph glyph-name="I" unicode="I" horiz-adv-x="369" 
d="M286 0h-204v700h204v-700z" />
    <glyph glyph-name="J" unicode="J" horiz-adv-x="741" 
d="M131 225q33 -41 73 -60.5t97 -19.5q167 0 167 179v376h204v-392q0 -150 -95.5 -240.5t-273.5 -90.5q-202 0 -309 129z" />
    <glyph glyph-name="K" unicode="K" horiz-adv-x="907" 
d="M916 0h-240l-235 301l-155 -138v-163h-204v700h204v-324l358 324h254l-311 -279z" />
    <glyph glyph-name="L" unicode="L" horiz-adv-x="774" 
d="M286 164h471v-164h-675v700h204v-536z" />
    <glyph glyph-name="M" unicode="M" horiz-adv-x="1132" 
d="M833 700h217v-700h-203v447l-279 -342h-10l-279 342v-447h-197v700h223l263 -336z" />
    <glyph glyph-name="N" unicode="N" horiz-adv-x="992" 
d="M713 700h197v-700h-179l-452 460v-460h-197v700h216l415 -428v428z" />
    <glyph glyph-name="O" unicode="O" horiz-adv-x="997" 
d="M498 -23q-210 0 -333 98.5t-123 274.5t123 274.5t333 98.5t333.5 -98.5t123.5 -274.5t-123.5 -274.5t-333.5 -98.5zM498 143q116 0 182.5 54.5t66.5 152.5t-66.5 152.5t-182.5 54.5t-182.5 -54.5t-66.5 -152.5t66.5 -152.5t182.5 -54.5z" />
    <glyph glyph-name="P" unicode="P" horiz-adv-x="911" 
d="M568 700q147 0 232.5 -63.5t85.5 -181.5q0 -119 -85.5 -182t-232.5 -63h-282v-210h-204v700h486zM551 358q128 0 128 93q0 94 -128 94h-265v-187h265z" />
    <glyph glyph-name="Q" unicode="Q" horiz-adv-x="997" 
d="M955 350q0 -180 -132 -281l87 -93l-97 -82l-107 114q-95 -31 -208 -31q-210 0 -333 98.5t-123 274.5t123 274.5t333 98.5t333.5 -98.5t123.5 -274.5zM498 143q43 0 75 7l-85 91l98 83l107 -115q54 52 54 141q0 98 -66.5 152.5t-182.5 54.5t-182.5 -54.5t-66.5 -152.5
t66.5 -152.5t182.5 -54.5z" />
    <glyph glyph-name="R" unicode="R" horiz-adv-x="940" 
d="M913 0h-237l-185 221h-206v-221h-203v700h491q141 0 229.5 -61.5t88.5 -177.5q0 -85 -49 -141.5t-135 -81.5zM284 369h274q126 0 126 88t-126 88h-274v-176z" />
    <glyph glyph-name="S" unicode="S" horiz-adv-x="886" 
d="M462 444q74 -6 129.5 -15t106.5 -26t83.5 -40.5t52 -60t19.5 -83.5q0 -111 -100.5 -176.5t-286.5 -65.5q-270 0 -441 137l107 126q129 -109 338 -109q180 0 180 68q0 33 -44 48t-156 24q-86 7 -151 20.5t-124 37.5t-90.5 65t-31.5 97q0 110 106.5 171t277.5 61
q237 0 384 -104l-103 -127q-108 76 -281 78q-74 0 -127.5 -14.5t-53.5 -48.5q0 -32 46 -43t156 -20h4z" />
    <glyph glyph-name="T" unicode="T" horiz-adv-x="815" 
d="M800 700v-163h-291v-537h-204v537h-289v163h784z" />
    <glyph glyph-name="U" unicode="U" horiz-adv-x="953" 
d="M679 700h204v-370q0 -162 -106.5 -257.5t-299.5 -95.5t-300 95.5t-107 257.5v370h204v-354q0 -94 52 -147.5t151 -53.5t150.5 53.5t51.5 147.5v354z" />
    <glyph glyph-name="V" unicode="V" horiz-adv-x="890" 
d="M-4 700h220l231 -504l230 504h218l-343 -700h-214z" />
    <glyph glyph-name="W" unicode="W" horiz-adv-x="1260" 
d="M1046 700h205l-255 -700h-203l-163 487l-164 -487h-201l-256 700h209l153 -481l167 481h188l167 -481z" />
    <glyph glyph-name="X" unicode="X" horiz-adv-x="862" 
d="M860 700l-311 -342l318 -358h-245l-197 223l-197 -223h-232l317 355l-310 345h245l190 -214l189 214h233z" />
    <glyph glyph-name="Y" unicode="Y" horiz-adv-x="854" 
d="M-4 700h228l204 -302l203 302h227l-329 -464v-236h-204v236z" />
    <glyph glyph-name="Z" unicode="Z" horiz-adv-x="873" 
d="M817 700v-128l-481 -415h497v-157h-795v128l482 415h-464v157h761z" />
    <glyph glyph-name="bracketleft" unicode="[" horiz-adv-x="464" 
d="M426 565h-180v-550h180v-135h-344v820h344v-135z" />
    <glyph glyph-name="backslash" unicode="\" horiz-adv-x="770" 
d="M535 -100l-512 880h212l511 -880h-211z" />
    <glyph glyph-name="bracketright" unicode="]" horiz-adv-x="464" 
d="M38 565v135h344v-820h-344v135h180v550h-180z" />
    <glyph glyph-name="asciicircum" unicode="^" horiz-adv-x="735" 
d="M74 260h162l131 291l130 -291h163l-218 440h-151z" />
    <glyph glyph-name="underscore" unicode="_" horiz-adv-x="671" 
d="M669 -181h-668v138h668v-138z" />
    <glyph glyph-name="grave" unicode="`" horiz-adv-x="599" 
d="M100 948h245l137 -168h-145z" />
    <glyph glyph-name="a" unicode="a" horiz-adv-x="772" 
d="M369 576q159 0 248 -69t89 -196v-206q0 -60 24 -105h-200q-19 29 -19 57v1q-33 -35 -90 -56.5t-127 -21.5q-47 0 -91.5 10t-85 30.5t-65 58.5t-24.5 89t24.5 89t65 58.5t85 30.5t91.5 10q143 0 217 -79v36q0 124 -183 124q-113 0 -199 -43l-45 125q55 26 133 41.5
t152 15.5zM515 163v11q-48 67 -165 67q-52 0 -91.5 -16.5t-39.5 -56.5t39.5 -56.5t91.5 -16.5q117 0 165 68z" />
    <glyph glyph-name="b" unicode="b" horiz-adv-x="827" 
d="M495 574q132 0 213 -80.5t81 -216.5t-81 -217t-213 -81q-147 0 -228 102v-81h-197v740h197v-267q80 101 228 101zM440 131q78 0 120 38t42 108q0 69 -42 107.5t-120 38.5q-111 0 -172 -79v-134q61 -79 172 -79z" />
    <glyph glyph-name="c" unicode="c" horiz-adv-x="732" 
d="M715 138q-37 -71 -118.5 -116t-200.5 -45q-166 0 -262.5 81t-96.5 219q0 139 96.5 219.5t262.5 80.5q118 0 198 -44.5t117 -114.5l-169 -68q-39 76 -144 76q-78 0 -125 -38.5t-47 -110.5q0 -71 47 -110t125 -39q106 0 148 79z" />
    <glyph glyph-name="d" unicode="d" horiz-adv-x="827" 
d="M332 574q148 0 228 -101v267h197v-740h-197v81q-81 -102 -228 -102q-132 0 -213 81t-81 217t81 216.5t213 80.5zM387 131q112 0 172 79v134q-60 79 -172 79q-78 0 -120 -38.5t-42 -107.5q0 -70 42 -108t120 -38z" />
    <glyph glyph-name="e" unicode="e" horiz-adv-x="769" 
d="M225 235q22 -118 195 -118q114 0 196 63l100 -105q-111 -98 -307 -98q-175 0 -273.5 80t-98.5 220t95.5 220t261.5 80q155 0 248.5 -76.5t93.5 -219.5q0 -32 -5 -46h-506zM396 439q-134 0 -166 -98l324 2q-31 96 -158 96z" />
    <glyph glyph-name="f" unicode="f" horiz-adv-x="540" 
d="M308 570v-16h217v-139h-211v-415h-197v415h-98v139h98q1 102 66.5 154.5t170.5 52.5q106 0 177 -33l-28 -111q-50 23 -98 23q-97 0 -97 -70z" />
    <glyph glyph-name="g" unicode="g" horiz-adv-x="827" 
d="M757 554v-456q0 -70 -22 -126t-57.5 -91t-84.5 -58.5t-99.5 -33t-105.5 -9.5q-78 0 -162 17.5t-135 46.5l52 131q86 -53 222 -53q194 0 194 140v44q-38 -50 -98.5 -75.5t-130.5 -25.5q-134 0 -213.5 76t-79.5 208t79.5 208.5t213.5 76.5q152 0 229 -101v81h198zM386 148
q107 0 174 89v104q-65 89 -174 89q-77 0 -118.5 -37.5t-41.5 -103.5t41.5 -103.5t118.5 -37.5z" />
    <glyph glyph-name="h" unicode="h" horiz-adv-x="806" 
d="M495 574q118 0 183 -68t65 -180v-326h-197v313q0 54 -30 84t-86 30q-102 0 -163 -99v-328h-197v554v186h197v-198v-76q74 108 228 108z" />
    <glyph glyph-name="i" unicode="i" horiz-adv-x="337" 
d="M169 610q-51 0 -82.5 25.5t-31.5 67.5t31.5 67.5t82.5 25.5q50 0 81.5 -25.5t31.5 -67.5t-31.5 -67.5t-81.5 -25.5zM269 554v-554h-198v554h198z" />
    <glyph glyph-name="j" unicode="j" horiz-adv-x="337" 
d="M169 610q-51 0 -82.5 25.5t-31.5 67.5t31.5 67.5t82.5 25.5q50 0 81.5 -25.5t31.5 -67.5t-31.5 -67.5t-81.5 -25.5zM69 554h198v-555q0 -102 -60.5 -161t-162.5 -59q-68 0 -137 24l31 126q31 -11 59 -11q32 0 52 19.5t20 55.5v561z" />
    <glyph glyph-name="k" unicode="k" horiz-adv-x="749" 
d="M544 0l-167 224l-110 -98v-126h-197v740h197v-429l254 243h221l-231 -224l245 -330h-212z" />
    <glyph glyph-name="l" unicode="l" horiz-adv-x="340" 
d="M269 0h-198v740h198v-740z" />
    <glyph glyph-name="m" unicode="m" horiz-adv-x="1235" 
d="M936 574q116 0 176 -68.5t60 -179.5v-326h-196v315q0 53 -27.5 82.5t-81.5 29.5q-93 0 -148 -99v-2v-223l1 -103h-197v315q0 53 -27.5 82.5t-81.5 29.5q-92 0 -147 -97v-330h-197v554h197v-90q70 110 216 110q84 0 139.5 -37.5t79.5 -103.5q29 64 90 102.5t144 38.5z" />
    <glyph glyph-name="n" unicode="n" horiz-adv-x="806" 
d="M267 0h-197v554h197v-88q74 108 228 108q118 0 183 -68t65 -180v-326h-197v313q0 54 -30 84t-86 30q-102 0 -163 -99v-328z" />
    <glyph glyph-name="o" unicode="o" horiz-adv-x="799" 
d="M400 -23q-167 0 -265 80.5t-98 219.5t97.5 219t265.5 80q167 0 264.5 -80t97.5 -219t-97.5 -219.5t-264.5 -80.5zM400 129q78 0 126 38.5t48 109.5t-48 109.5t-126 38.5t-126 -38.5t-48 -109.5t48 -109.5t126 -38.5z" />
    <glyph glyph-name="p" unicode="p" horiz-adv-x="827" 
d="M495 -20q-149 0 -228 102v-282h-197v754h197v-81q81 102 228 102q132 0 213 -80.5t81 -217.5q0 -136 -81 -216.5t-213 -80.5zM440 424q-110 0 -172 -79v-135q62 -79 172 -79q78 0 120 38.5t42 107.5q0 70 -42 108.5t-120 38.5z" />
    <glyph glyph-name="q" unicode="q" horiz-adv-x="827" 
d="M331 -20q-132 0 -213 80.5t-81 216.5q0 137 81 217.5t213 80.5q149 0 228 -102v81h198v-754h-198v282q-78 -102 -228 -102zM386 424q-78 0 -120 -38.5t-42 -108.5q0 -69 42 -107.5t120 -38.5q111 0 173 79v135q-62 79 -173 79z" />
    <glyph glyph-name="r" unicode="r" horiz-adv-x="516" 
d="M267 0h-197v554h197v-103q34 57 95 86.5t137 29.5v-164q-90 0 -150.5 -34.5t-81.5 -101.5v-267z" />
    <glyph glyph-name="s" unicode="s" horiz-adv-x="722" 
d="M383 357q92 -5 159.5 -24.5t109.5 -59.5t42 -99q0 -86 -82.5 -141.5t-237.5 -55.5q-106 0 -197 28.5t-153 74.5l86 107q104 -76 270 -76q130 0 130 45q0 23 -35 34t-115 16q-314 22 -314 181q0 86 84.5 138t236.5 52q177 0 303 -76l-84 -112q-91 55 -224 55
q-132 0 -132 -43q0 -23 36 -31.5t117 -12.5z" />
    <glyph glyph-name="t" unicode="t" horiz-adv-x="552" 
d="M500 162l33 -129q-37 -25 -90.5 -39.5t-104.5 -14.5q-98 0 -159.5 53t-61.5 150v233h-98v139h98v129h197v-129h213v-139h-213v-200q0 -37 25 -58t65 -21q41 0 96 26z" />
    <glyph glyph-name="u" unicode="u" horiz-adv-x="806" 
d="M539 554h197v-554h-197v88q-74 -108 -228 -108q-118 0 -183 68t-65 180v326h197v-313q0 -54 30 -84t86 -30q102 0 163 99v328z" />
    <glyph glyph-name="v" unicode="v" horiz-adv-x="750" 
d="M748 554l-271 -554h-203l-271 554h207l167 -372l167 372h204z" />
    <glyph glyph-name="w" unicode="w" horiz-adv-x="1047" 
d="M848 554h187l-197 -554h-188l-126 368l-127 -368h-189l-196 554h190l115 -354l121 354h174l121 -354z" />
    <glyph glyph-name="x" unicode="x" horiz-adv-x="722" 
d="M713 554l-240 -270l247 -284h-223l-140 169l-143 -169h-211l246 281l-241 273h222l136 -162l136 162h211z" />
    <glyph glyph-name="y" unicode="y" horiz-adv-x="741" 
d="M538 554h200l-388 -754h-199l126 231l-274 523h203l169 -344z" />
    <glyph glyph-name="z" unicode="z" horiz-adv-x="709" 
d="M658 554v-117l-351 -294h363v-144h-634v118l351 294h-337v143h608z" />
    <glyph glyph-name="braceleft" unicode="{" horiz-adv-x="517" 
d="M348 449q0 -69 -39 -112.5t-107 -45.5q68 -4 107 -48t39 -112q0 -58 28.5 -87t72.5 -29h30v-135h-55q-242 0 -242 201q0 92 -46 129.5t-131 37.5v85q85 0 131 37.5t46 129.5q0 200 242 200h55v-135h-30q-44 0 -72.5 -28.5t-28.5 -87.5z" />
    <glyph glyph-name="bar" unicode="|" horiz-adv-x="343" 
d="M80 -120v820h184v-820h-184z" />
    <glyph glyph-name="braceright" unicode="}" horiz-adv-x="517" 
d="M169 449q0 59 -28.5 87.5t-72.5 28.5h-30v135h55q242 0 242 -200q0 -92 46 -129.5t131 -37.5v-85q-85 0 -131 -37.5t-46 -129.5q0 -201 -242 -201h-55v135h30q44 0 72.5 29t28.5 87q0 68 39 112t107 48q-68 2 -107 45.5t-39 112.5z" />
    <glyph glyph-name="asciitilde" unicode="~" horiz-adv-x="735" 
d="M590 401l80 -129q-27 -30 -71 -50t-94 -20q-47 0 -129 25t-125 25q-58 0 -106 -45l-78 128q27 31 70.5 51t94.5 20q46 0 128 -25t126 -25q64 0 104 45z" />
    <glyph glyph-name="exclamdown" unicode="&#xa1;" horiz-adv-x="359" 
d="M179 513q50 0 82 -28t32 -71q0 -42 -32 -71t-82 -29t-82.5 28.5t-32.5 71.5t32 71t83 28zM62 -200l32 450h171l32 -450h-235z" />
    <glyph glyph-name="cent" unicode="&#xa2;" horiz-adv-x="725" 
d="M690 221q-31 -62 -98.5 -102.5t-164.5 -47.5v-71h-84v71q-140 10 -219.5 82t-79.5 197t79.5 197.5t219.5 82.5v70h84v-70q97 -7 164 -47t99 -102l-142 -59q-37 62 -121 74v-292q81 13 121 75zM216 350q0 -59 34 -96t93 -48v288q-59 -11 -93 -48t-34 -96z" />
    <glyph glyph-name="sterling" unicode="&#xa3;" horiz-adv-x="772" 
d="M369 138h358v-138h-555h-128v138h128v153h-128v119h128v40q0 112 82 193t225 81q76 0 140 -24.5t101 -61.5l-73 -121q-59 51 -134 51q-70 0 -107 -36t-37 -103v-19h300v-119h-300v-153z" />
    <glyph glyph-name="currency" unicode="&#xa4;" horiz-adv-x="797" 
d="M708 356q0 -100 -57 -171l94 -93l-87 -80l-105 98q-68 -31 -154 -31q-87 0 -155 31l-104 -98l-88 80l94 93q-56 72 -56 171q0 91 46 157l-84 83l88 80l88 -82q73 39 171 39q97 0 170 -39l89 82l87 -80l-83 -83q46 -68 46 -157zM399 210q71 0 115.5 39t44.5 107t-44.5 107
t-115.5 39t-115.5 -39t-44.5 -107t44.5 -107t115.5 -39z" />
    <glyph glyph-name="yen" unicode="&#xa5;" horiz-adv-x="885" 
d="M858 700l-245 -347h141v-80h-197l-12 -17v-47h209v-79h-209v-130h-204v130h-210v79h210v47l-12 17h-198v80h142l-246 347h225l192 -298l191 298h223z" />
    <glyph glyph-name="brokenbar" unicode="&#xa6;" horiz-adv-x="343" 
d="M80 370v330h184v-330h-184zM264 215v-335h-184v335h184z" />
    <glyph glyph-name="section" unicode="&#xa7;" horiz-adv-x="744" 
d="M623 174q72 -40 72 -119q0 -86 -82.5 -142.5t-236.5 -56.5q-194 0 -339 101l84 103q113 -78 260 -78q61 0 98.5 13.5t37.5 40.5t-35 38t-117 18q-304 21 -304 181q0 86 81 142q-79 43 -79 123q0 89 86.5 137.5t227.5 48.5q177 0 299 -80l-84 -101q-86 55 -215 55
q-138 2 -138 -50q0 -25 37.5 -35.5t116.5 -15.5q143 -9 223.5 -49t80.5 -125q0 -92 -74 -149zM238 292q0 -58 152 -68l45 -3q39 9 61 29t22 45q0 59 -142 70q-4 0 -14 0.5t-14 0.5q-48 -5 -79 -24.5t-31 -49.5z" />
    <glyph glyph-name="dieresis" unicode="&#xa8;" horiz-adv-x="599" 
d="M159 779q-41 0 -67.5 22t-26.5 58t26 57.5t68 21.5q41 0 67.5 -21.5t26.5 -57.5t-26.5 -58t-67.5 -22zM440 779q-42 0 -68 22t-26 58t26 57.5t68 21.5q41 0 67.5 -21.5t26.5 -57.5t-26.5 -58t-67.5 -22z" />
    <glyph glyph-name="copyright" unicode="&#xa9;" horiz-adv-x="989" 
d="M495 -23q-206 0 -329.5 102.5t-123.5 270.5t123.5 270.5t329.5 102.5q205 0 328.5 -102.5t123.5 -270.5t-123.5 -270.5t-328.5 -102.5zM495 25q180 0 290 86t110 239t-110 239.5t-290 86.5t-291 -86.5t-111 -239.5t111 -239t291 -86zM775 223q-39 -58 -111 -94.5
t-172 -36.5q-137 0 -220.5 69t-83.5 190t83.5 190t220.5 69q100 0 171 -36.5t105 -93.5l-123 -58q-52 70 -141 70q-74 0 -116.5 -37.5t-42.5 -103.5t42.5 -103.5t116.5 -37.5q89 0 142 72z" />
    <glyph glyph-name="ordfeminine" unicode="&#xaa;" horiz-adv-x="581" 
d="M276 720q111 0 173 -48.5t62 -138.5v-145q0 -42 21 -74h-144q-16 17 -16 42v2q-42 -58 -150 -58q-45 0 -84.5 11.5t-69.5 43t-30 77.5t30 77.5t69.5 43t84.5 11.5q107 0 150 -59v30q0 89 -122 89q-73 0 -143 -35l-30 92q83 39 199 39zM374 427v9q-30 48 -110 48
q-89 0 -89 -52t89 -52q80 0 110 47z" />
    <glyph glyph-name="guillemotleft" unicode="&#xab;" horiz-adv-x="752" 
d="M527 528l-211 -224l211 -224h184l-211 224l211 224h-184zM240 528l-211 -224l211 -224h184l-211 224l211 224h-184z" />
    <glyph glyph-name="logicalnot" unicode="&#xac;" horiz-adv-x="735" 
d="M49 364h625v-311h-163v168h-462v143z" />
    <glyph glyph-name="registered" unicode="&#xae;" horiz-adv-x="577" 
d="M288 710q102 0 174 -58.5t72 -156.5t-72 -156.5t-174 -58.5t-173 58.5t-71 156.5t71 156.5t173 58.5zM289 312q89 0 149 49t60 134q0 86 -60 134.5t-149 48.5q-90 0 -149.5 -48.5t-59.5 -134.5q0 -85 60 -134t149 -49zM422 535q0 -53 -58 -70l64 -74h-80l-58 68h-51v-68
h-71v220h152q45 0 73.5 -19.5t28.5 -56.5zM239 561v-55h70q40 0 40 27q0 28 -40 28h-70z" />
    <glyph glyph-name="macron" unicode="&#xaf;" horiz-adv-x="599" 
d="M67 927h465v-133h-465v133z" />
    <glyph glyph-name="degree" unicode="&#xb0;" horiz-adv-x="425" 
d="M212 423q-76 0 -125 40t-49 107t49 107t125 40q78 0 127 -40t49 -107t-49 -107t-127 -40zM212 503q36 0 57 18t21 49t-21 49t-57 18q-35 0 -56 -18t-21 -49t21 -49t56 -18z" />
    <glyph glyph-name="plusminus" unicode="&#xb1;" horiz-adv-x="735" 
d="M441 497h229v-134h-229v-176h-148v176h-228v134h228v175h148v-175zM65 9v134h605v-134h-605z" />
    <glyph glyph-name="uni00B2" unicode="&#xb2;" horiz-adv-x="484" 
d="M32 796q36 40 92.5 65t123.5 25q79 0 138.5 -33t59.5 -95q0 -91 -147 -142q-115 -39 -128 -64h282v-95h-428v57q7 61 58 107.5t139 74.5q6 2 17 6l16.5 6t15 5.5t14 6t11.5 6t10 6.5l6.5 6.5t5 7.5t1.5 9q0 19 -22.5 29t-55.5 10q-76 0 -140 -65z" />
    <glyph glyph-name="uni00B3" unicode="&#xb3;" horiz-adv-x="489" 
d="M97 595q56 -58 134 -58q39 0 67 12.5t28 38.5q0 43 -95 43h-64v82h64q83 0 83 40t-86 40q-72 0 -126 -55l-76 53q31 45 87.5 70t124.5 25q85 0 145 -29.5t60 -86.5q0 -37 -25.5 -64.5t-68.5 -32.5q48 -8 79 -32.5t31 -66.5q0 -61 -62 -95t-159 -34q-70 0 -128 26t-91 73z
" />
    <glyph glyph-name="acute" unicode="&#xb4;" horiz-adv-x="599" 
d="M499 948l-237 -168h-145l137 168h245z" />
    <glyph glyph-name="paragraph" unicode="&#xb6;" horiz-adv-x="956" 
d="M328 700h546v-700h-162v560h-106v-560h-161v217h-117q-138 0 -220.5 61.5t-82.5 180.5q0 116 83 178.5t220 62.5zM445 353v207h-120q-130 0 -130 -104q0 -103 130 -103h120z" />
    <glyph glyph-name="periodcentered" unicode="&#xb7;" horiz-adv-x="319" 
d="M160 188q-51 0 -83 28t-32 71t32.5 71.5t82.5 28.5t82 -29t32 -71q0 -43 -32 -71t-82 -28z" />
    <glyph glyph-name="cedilla" unicode="&#xb8;" horiz-adv-x="599" 
d="M376 -60l-147 -162l-124 33l101 154z" />
    <glyph glyph-name="uni00B9" unicode="&#xb9;" horiz-adv-x="318" 
d="M136 456v286q-46 -30 -117 -42v100q39 5 79.5 25t68.5 47h95v-416h-126z" />
    <glyph glyph-name="ordmasculine" unicode="&#xba;" horiz-adv-x="582" 
d="M292 299q-117 0 -185.5 56.5t-68.5 154.5q0 97 68.5 154t185.5 57q116 0 184.5 -57t68.5 -154q0 -98 -68 -154.5t-185 -56.5zM292 406q55 0 87 27t32 77q0 49 -32 76t-87 27q-54 0 -86.5 -27t-32.5 -76q0 -50 32 -77t87 -27z" />
    <glyph glyph-name="guillemotright" unicode="&#xbb;" horiz-adv-x="752" 
d="M225 528h-184l211 -224l-211 -224h184l211 224zM512 528h-184l210 -224l-210 -224h184l210 224z" />
    <glyph glyph-name="onequarter" unicode="&#xbc;" horiz-adv-x="1042" 
d="M136 284v286q-42 -28 -117 -40v98q83 13 148 72h95v-416h-126zM304 0h-138l457 700h138zM1021 171v-89h-75v-82h-122v82h-288v69l297 265h113v-245h75zM685 171h139v124z" />
    <glyph glyph-name="onehalf" unicode="&#xbd;" horiz-adv-x="1071" 
d="M136 284v286q-42 -28 -117 -40v98q83 13 148 72h95v-416h-126zM300 0h-138l457 700h138zM619 339q36 40 92.5 65t123.5 25q79 0 138.5 -33t59.5 -95q0 -92 -147 -142q-113 -39 -128 -64h282v-95h-427v57q7 61 58 107.5t138 74.5q6 2 17 6l16.5 6t15 5.5t14 6t11.5 6
t10 6.5l6.5 6.5t5 7.5t1.5 9q0 19 -22.5 29t-55.5 10q-75 0 -140 -65z" />
    <glyph glyph-name="threequarters" unicode="&#xbe;" horiz-adv-x="1198" 
d="M97 423q55 -58 134 -58q39 0 67 12t28 38q0 44 -95 44h-64v81h64q83 0 83 40t-86 40q-72 0 -126 -55l-76 54q31 44 87.5 69t124.5 25q85 0 145 -29.5t60 -85.5q0 -37 -25.5 -64.5t-68.5 -32.5q110 -19 110 -100q0 -61 -62 -95t-159 -34q-70 0 -128 26.5t-91 72.5zM460 0
h-138l457 700h138zM1177 171v-89h-75v-82h-122v82h-288v69l297 265h113v-245h75zM841 171h139v124z" />
    <glyph glyph-name="questiondown" unicode="&#xbf;" horiz-adv-x="764" 
d="M387 567q51 0 83 -28t32 -71t-32.5 -71.5t-82.5 -28.5t-82 29t-32 71q0 43 32 71t82 28zM463 318v-171q-112 -13 -163.5 -33.5t-51.5 -61.5q0 -71 141 -71q144 0 245 106l105 -109q-145 -145 -356 -145q-65 0 -124 12.5t-109 37.5t-80 67.5t-30 96.5q0 86 73 134.5
t194 57.5v79h156z" />
    <glyph glyph-name="Agrave" unicode="&#xc0;" 
d="M585 780h-145l-237 168h245zM726 0l-66 134h-384l-66 -134h-214l362 700h223l362 -700h-217zM346 279h243l-121 248z" />
    <glyph glyph-name="Aacute" unicode="&#xc1;" 
d="M736 948l-237 -168h-145l137 168h245zM726 0l-66 134h-384l-66 -134h-214l362 700h223l362 -700h-217zM346 279h243l-121 248z" />
    <glyph glyph-name="Acircumflex" unicode="&#xc2;" 
d="M468 869l-80 -89h-172l151 168h206l150 -168h-174zM726 0l-66 134h-384l-66 -134h-214l362 700h223l362 -700h-217zM346 279h243l-121 248z" />
    <glyph glyph-name="Atilde" unicode="&#xc3;" 
d="M368 823q-54 0 -102 -45l-78 121q26 30 70 50t95 20q47 0 114 -24.5t104 -24.5q60 0 101 44l79 -121q-63 -70 -164 -70q-47 0 -115.5 25t-103.5 25zM726 0l-66 134h-384l-66 -134h-214l362 700h223l362 -700h-217zM346 279h243l-121 248z" />
    <glyph glyph-name="Adieresis" unicode="&#xc4;" 
d="M329 779q-41 0 -67.5 22t-26.5 58t26 57.5t68 21.5q41 0 67.5 -21.5t26.5 -57.5t-26.5 -58t-67.5 -22zM610 779q-42 0 -68 22t-26 58t26 57.5t68 21.5q41 0 67.5 -21.5t26.5 -57.5t-26.5 -58t-67.5 -22zM726 0l-66 134h-384l-66 -134h-214l362 700h223l362 -700h-217z
M346 279h243l-121 248z" />
    <glyph glyph-name="Aring" unicode="&#xc5;" 
d="M470 769q-74 0 -118.5 31.5t-44.5 88.5q0 58 44.5 90t118.5 32t118.5 -32.5t44.5 -89.5t-44.5 -88.5t-118.5 -31.5zM470 939q-25 0 -40 -13.5t-15 -36.5t15 -36.5t40 -13.5t40 13.5t15 36.5t-15 36.5t-40 13.5zM726 0l-66 134h-384l-66 -134h-214l362 700h223l362 -700
h-217zM346 279h243l-121 248z" />
    <glyph glyph-name="AE" unicode="&#xc6;" horiz-adv-x="1448" 
d="M861 156h546v-156h-747v141h-331l-115 -141h-231l598 700h98h717v-156h-535v-115h441v-149h-441v-124zM443 279h217v263z" />
    <glyph glyph-name="Ccedilla" unicode="&#xc7;" horiz-adv-x="898" 
d="M489 143q145 0 215 107l175 -90q-51 -81 -155 -132t-240 -51q-201 0 -321.5 99t-120.5 274t122 274t328 99q130 0 232 -51.5t152 -130.5l-176 -90q-68 106 -211 106q-110 0 -175 -54t-65 -153t65 -153t175 -54zM569 -60l-147 -162l-124 33l101 154z" />
    <glyph glyph-name="Egrave" unicode="&#xc8;" horiz-adv-x="870" 
d="M180 948h245l137 -168h-145zM283 156h546v-156h-747v700h736v-156h-535v-115h441v-149h-441v-124z" />
    <glyph glyph-name="Eacute" unicode="&#xc9;" horiz-adv-x="870" 
d="M713 948l-237 -168h-145l137 168h245zM283 156h546v-156h-747v700h736v-156h-535v-115h441v-149h-441v-124z" />
    <glyph glyph-name="Ecircumflex" unicode="&#xca;" horiz-adv-x="870" 
d="M193 780h172l80 89l81 -89h174l-150 168h-206zM283 156h546v-156h-747v700h736v-156h-535v-115h441v-149h-441v-124z" />
    <glyph glyph-name="Edieresis" unicode="&#xcb;" horiz-adv-x="870" 
d="M306 779q-42 0 -68 22t-26 58t26 57.5t68 21.5q41 0 67.5 -21.5t26.5 -57.5t-26.5 -58t-67.5 -22zM587 779q-41 0 -67.5 22t-26.5 58t26 57.5t68 21.5q41 0 67.5 -21.5t26.5 -57.5t-26.5 -58t-67.5 -22zM283 156h546v-156h-747v700h736v-156h-535v-115h441v-149h-441
v-124z" />
    <glyph glyph-name="Igrave" unicode="&#xcc;" horiz-adv-x="369" 
d="M-82 948h245l137 -168h-145zM286 0h-204v700h204v-700z" />
    <glyph glyph-name="Iacute" unicode="&#xcd;" horiz-adv-x="369" 
d="M451 948l-237 -168h-145l137 168h245zM286 0h-204v700h204v-700z" />
    <glyph glyph-name="Icircumflex" unicode="&#xce;" horiz-adv-x="369" 
d="M-69 780h172l80 89l81 -89h174l-150 168h-206zM286 0h-204v700h204v-700z" />
    <glyph glyph-name="Idieresis" unicode="&#xcf;" horiz-adv-x="369" 
d="M44 779q-42 0 -68 22t-26 58t26 57.5t68 21.5q41 0 67.5 -21.5t26.5 -57.5t-26.5 -58t-67.5 -22zM325 779q-41 0 -67.5 22t-26.5 58t26 57.5t68 21.5q41 0 67.5 -21.5t26.5 -57.5t-26.5 -58t-67.5 -22zM286 0h-204v700h204v-700z" />
    <glyph glyph-name="Eth" unicode="&#xd0;" horiz-adv-x="985" 
d="M507 700q204 0 320 -92.5t116 -257.5t-116 -257.5t-320 -92.5h-395v298h-96v117h96v285h395zM487 159q116 0 182 49t66 142t-66 142t-182 49h-172v-126h185v-117h-185v-139h172z" />
    <glyph glyph-name="Ntilde" unicode="&#xd1;" horiz-adv-x="992" 
d="M699 964l79 -121q-63 -70 -164 -70q-48 0 -116 25t-103 25q-54 0 -102 -45l-78 121q26 30 70 50t95 20q47 0 114 -24.5t104 -24.5q60 0 101 44zM713 700h197v-700h-179l-452 460v-460h-197v700h216l415 -428v428z" />
    <glyph glyph-name="Ograve" unicode="&#xd2;" horiz-adv-x="997" 
d="M233 948h245l137 -168h-145zM498 -23q-210 0 -333 98.5t-123 274.5t123 274.5t333 98.5t333.5 -98.5t123.5 -274.5t-123.5 -274.5t-333.5 -98.5zM498 143q116 0 182.5 54.5t66.5 152.5t-66.5 152.5t-182.5 54.5t-182.5 -54.5t-66.5 -152.5t66.5 -152.5t182.5 -54.5z" />
    <glyph glyph-name="Oacute" unicode="&#xd3;" horiz-adv-x="997" 
d="M766 948l-237 -168h-145l137 168h245zM498 -23q-210 0 -333 98.5t-123 274.5t123 274.5t333 98.5t333.5 -98.5t123.5 -274.5t-123.5 -274.5t-333.5 -98.5zM498 143q116 0 182.5 54.5t66.5 152.5t-66.5 152.5t-182.5 54.5t-182.5 -54.5t-66.5 -152.5t66.5 -152.5
t182.5 -54.5z" />
    <glyph glyph-name="Ocircumflex" unicode="&#xd4;" horiz-adv-x="997" 
d="M246 780h172l80 89l81 -89h174l-150 168h-206zM498 -23q-210 0 -333 98.5t-123 274.5t123 274.5t333 98.5t333.5 -98.5t123.5 -274.5t-123.5 -274.5t-333.5 -98.5zM498 143q116 0 182.5 54.5t66.5 152.5t-66.5 152.5t-182.5 54.5t-182.5 -54.5t-66.5 -152.5t66.5 -152.5
t182.5 -54.5z" />
    <glyph glyph-name="Otilde" unicode="&#xd5;" horiz-adv-x="997" 
d="M702 964l79 -121q-63 -70 -164 -70q-47 0 -115.5 25t-103.5 25q-54 0 -102 -45l-78 121q26 30 70 50t95 20q47 0 114 -24.5t104 -24.5q60 0 101 44zM498 -23q-210 0 -333 98.5t-123 274.5t123 274.5t333 98.5t333.5 -98.5t123.5 -274.5t-123.5 -274.5t-333.5 -98.5z
M498 143q116 0 182.5 54.5t66.5 152.5t-66.5 152.5t-182.5 54.5t-182.5 -54.5t-66.5 -152.5t66.5 -152.5t182.5 -54.5z" />
    <glyph glyph-name="Odieresis" unicode="&#xd6;" horiz-adv-x="997" 
d="M359 779q-41 0 -67.5 22t-26.5 58t26 57.5t68 21.5q41 0 67.5 -21.5t26.5 -57.5t-26.5 -58t-67.5 -22zM640 779q-42 0 -68 22t-26 58t26 57.5t68 21.5q41 0 67.5 -21.5t26.5 -57.5t-26.5 -58t-67.5 -22zM498 -23q-210 0 -333 98.5t-123 274.5t123 274.5t333 98.5
t333.5 -98.5t123.5 -274.5t-123.5 -274.5t-333.5 -98.5zM498 143q116 0 182.5 54.5t66.5 152.5t-66.5 152.5t-182.5 54.5t-182.5 -54.5t-66.5 -152.5t66.5 -152.5t182.5 -54.5z" />
    <glyph glyph-name="multiply" unicode="&#xd7;" horiz-adv-x="735" 
d="M640 473l-167 -168l167 -167l-105 -106l-167 168l-168 -168l-105 106l168 167l-168 168l105 105l168 -168l167 168z" />
    <glyph glyph-name="Oslash" unicode="&#xd8;" horiz-adv-x="997" 
d="M792 652q163 -100 163 -302q0 -176 -123.5 -274.5t-333.5 -98.5q-105 0 -191 26l-75 -100h-136l108 145q-162 99 -162 302q0 176 123 274.5t333 98.5q105 0 192 -26l75 100h136zM249 350q0 -97 67 -153l263 352q-38 8 -81 8q-116 0 -182.5 -54.5t-66.5 -152.5zM498 143
q116 0 182.5 54.5t66.5 152.5t-66 153l-264 -352q40 -8 81 -8z" />
    <glyph glyph-name="Ugrave" unicode="&#xd9;" horiz-adv-x="953" 
d="M211 948h245l137 -168h-145zM679 700h204v-370q0 -162 -106.5 -257.5t-299.5 -95.5t-300 95.5t-107 257.5v370h204v-354q0 -94 52 -147.5t151 -53.5t150.5 53.5t51.5 147.5v354z" />
    <glyph glyph-name="Uacute" unicode="&#xda;" horiz-adv-x="953" 
d="M743 948l-237 -168h-145l137 168h245zM679 700h204v-370q0 -162 -106.5 -257.5t-299.5 -95.5t-300 95.5t-107 257.5v370h204v-354q0 -94 52 -147.5t151 -53.5t150.5 53.5t51.5 147.5v354z" />
    <glyph glyph-name="Ucircumflex" unicode="&#xdb;" horiz-adv-x="953" 
d="M224 780h172l80 89l81 -89h174l-150 168h-206zM679 700h204v-370q0 -162 -106.5 -257.5t-299.5 -95.5t-300 95.5t-107 257.5v370h204v-354q0 -94 52 -147.5t151 -53.5t150.5 53.5t51.5 147.5v354z" />
    <glyph glyph-name="Udieresis" unicode="&#xdc;" horiz-adv-x="953" 
d="M337 779q-41 0 -67.5 22t-26.5 58t26 57.5t68 21.5q41 0 67.5 -21.5t26.5 -57.5t-26.5 -58t-67.5 -22zM618 779q-42 0 -68 22t-26 58t26 57.5t68 21.5q41 0 67.5 -21.5t26.5 -57.5t-26.5 -58t-67.5 -22zM679 700h204v-370q0 -162 -106.5 -257.5t-299.5 -95.5t-300 95.5
t-107 257.5v370h204v-354q0 -94 52 -147.5t151 -53.5t150.5 53.5t51.5 147.5v354z" />
    <glyph glyph-name="Yacute" unicode="&#xdd;" horiz-adv-x="854" 
d="M694 948l-237 -168h-145l137 168h245zM-4 700h228l204 -302l203 302h227l-329 -464v-236h-204v236z" />
    <glyph glyph-name="Thorn" unicode="&#xde;" horiz-adv-x="911" 
d="M570 599q144 0 230 -62t86 -179q0 -119 -86 -182.5t-230 -63.5h-284v-112h-204v700h204v-101h284zM553 263q126 0 126 93t-126 93h-267v-186h267z" />
    <glyph glyph-name="germandbls" unicode="&#xdf;" horiz-adv-x="826" 
d="M357 136q44 -14 91 -14q69 0 104 26.5t35 74.5t-35.5 74.5t-106.5 26.5h-58v120h33q63 0 97.5 24.5t34.5 68.5q0 46 -35.5 68.5t-94.5 22.5q-73 0 -114 -40.5t-41 -113.5v-474h-197v447q0 139 90.5 226t261.5 87q144 0 235 -60t91 -149q0 -62 -46.5 -107.5t-124.5 -52.5
q90 -6 151 -57t61 -131q0 -91 -78 -152t-209 -61q-78 0 -168 23z" />
    <glyph glyph-name="agrave" unicode="&#xe0;" horiz-adv-x="772" 
d="M122 802h245l137 -168h-145zM369 576q159 0 248 -69t89 -196v-206q0 -60 24 -105h-200q-19 29 -19 57v1q-33 -35 -90 -56.5t-127 -21.5q-47 0 -91.5 10t-85 30.5t-65 58.5t-24.5 89t24.5 89t65 58.5t85 30.5t91.5 10q143 0 217 -79v36q0 124 -183 124q-113 0 -199 -43
l-45 125q55 26 133 41.5t152 15.5zM515 163v11q-48 67 -165 67q-52 0 -91.5 -16.5t-39.5 -56.5t39.5 -56.5t91.5 -16.5q117 0 165 68z" />
    <glyph glyph-name="aacute" unicode="&#xe1;" horiz-adv-x="772" 
d="M655 802l-237 -168h-145l137 168h245zM369 576q159 0 248 -69t89 -196v-206q0 -60 24 -105h-200q-19 29 -19 57v1q-33 -35 -90 -56.5t-127 -21.5q-47 0 -91.5 10t-85 30.5t-65 58.5t-24.5 89t24.5 89t65 58.5t85 30.5t91.5 10q143 0 217 -79v36q0 124 -183 124
q-113 0 -199 -43l-45 125q55 26 133 41.5t152 15.5zM515 163v11q-48 67 -165 67q-52 0 -91.5 -16.5t-39.5 -56.5t39.5 -56.5t91.5 -16.5q117 0 165 68z" />
    <glyph glyph-name="acircumflex" unicode="&#xe2;" horiz-adv-x="772" 
d="M135 634h172l80 89l81 -89h174l-150 168h-206zM369 576q159 0 248 -69t89 -196v-206q0 -60 24 -105h-200q-19 29 -19 57v1q-33 -35 -90 -56.5t-127 -21.5q-47 0 -91.5 10t-85 30.5t-65 58.5t-24.5 89t24.5 89t65 58.5t85 30.5t91.5 10q143 0 217 -79v36q0 124 -183 124
q-113 0 -199 -43l-45 125q55 26 133 41.5t152 15.5zM515 163v11q-48 67 -165 67q-52 0 -91.5 -16.5t-39.5 -56.5t39.5 -56.5t91.5 -16.5q117 0 165 68z" />
    <glyph glyph-name="atilde" unicode="&#xe3;" horiz-adv-x="772" 
d="M591 818l79 -121q-63 -70 -164 -70q-48 0 -116 25t-103 25q-54 0 -102 -45l-78 121q26 30 70 50t95 20q47 0 114 -24.5t104 -24.5q60 0 101 44zM369 576q159 0 248 -69t89 -196v-206q0 -60 24 -105h-200q-19 29 -19 57v1q-33 -35 -90 -56.5t-127 -21.5q-47 0 -91.5 10
t-85 30.5t-65 58.5t-24.5 89t24.5 89t65 58.5t85 30.5t91.5 10q143 0 217 -79v36q0 124 -183 124q-113 0 -199 -43l-45 125q55 26 133 41.5t152 15.5zM515 163v11q-48 67 -165 67q-52 0 -91.5 -16.5t-39.5 -56.5t39.5 -56.5t91.5 -16.5q117 0 165 68z" />
    <glyph glyph-name="adieresis" unicode="&#xe4;" horiz-adv-x="772" 
d="M248 633q-42 0 -68 22t-26 58t26 57.5t68 21.5q41 0 67.5 -21.5t26.5 -57.5t-26.5 -58t-67.5 -22zM529 633q-41 0 -67.5 22t-26.5 58t26 57.5t68 21.5q41 0 67.5 -21.5t26.5 -57.5t-26.5 -58t-67.5 -22zM369 576q159 0 248 -69t89 -196v-206q0 -60 24 -105h-200
q-19 29 -19 57v1q-33 -35 -90 -56.5t-127 -21.5q-47 0 -91.5 10t-85 30.5t-65 58.5t-24.5 89t24.5 89t65 58.5t85 30.5t91.5 10q143 0 217 -79v36q0 124 -183 124q-113 0 -199 -43l-45 125q55 26 133 41.5t152 15.5zM515 163v11q-48 67 -165 67q-52 0 -91.5 -16.5
t-39.5 -56.5t39.5 -56.5t91.5 -16.5q117 0 165 68z" />
    <glyph glyph-name="aring" unicode="&#xe5;" horiz-adv-x="772" 
d="M389 623q-74 0 -118.5 31.5t-44.5 88.5q0 58 44.5 90t118.5 32t118.5 -32.5t44.5 -89.5t-44.5 -88.5t-118.5 -31.5zM334 743q0 -23 15 -36.5t40 -13.5t40 13.5t15 36.5t-15 36.5t-40 13.5t-40 -13.5t-15 -36.5zM369 576q159 0 248 -69t89 -196v-206q0 -60 24 -105h-200
q-19 29 -19 57v1q-33 -35 -90 -56.5t-127 -21.5q-47 0 -91.5 10t-85 30.5t-65 58.5t-24.5 89t24.5 89t65 58.5t85 30.5t91.5 10q143 0 217 -79v36q0 124 -183 124q-113 0 -199 -43l-45 125q55 26 133 41.5t152 15.5zM515 163v11q-48 67 -165 67q-52 0 -91.5 -16.5
t-39.5 -56.5t39.5 -56.5t91.5 -16.5q117 0 165 68z" />
    <glyph glyph-name="ae" unicode="&#xe6;" horiz-adv-x="1242" 
d="M696 236q11 -64 59 -91t137 -27q67 0 110.5 13t85.5 46l100 -102q-112 -98 -307 -98q-207 0 -302 109q-44 -52 -123.5 -79t-158.5 -27q-48 0 -93 10t-86 30.5t-65.5 58.5t-24.5 89t24.5 89t65 58.5t85 30.5t91.5 10q147 0 218 -84v41q0 124 -184 124q-116 0 -204 -44
l-40 126q119 57 285 57q160 0 245 -73q92 74 253 74q153 0 247.5 -77t94.5 -218q0 -24 -6 -46h-507zM868 438q-136 0 -166 -97l326 1q-31 96 -160 96zM516 163v11q-49 67 -166 67q-23 0 -44 -3.5t-41.5 -11t-33 -22.5t-12.5 -36t12.5 -36t33 -22.5t41.5 -11t44 -3.5
q117 0 166 68z" />
    <glyph glyph-name="ccedilla" unicode="&#xe7;" horiz-adv-x="732" 
d="M715 138q-37 -71 -118.5 -116t-200.5 -45q-166 0 -262.5 81t-96.5 219q0 139 96.5 219.5t262.5 80.5q118 0 198 -44.5t117 -114.5l-169 -68q-39 76 -144 76q-78 0 -125 -38.5t-47 -110.5q0 -71 47 -110t125 -39q106 0 148 79zM481 -60l-147 -162l-124 33l101 154z" />
    <glyph glyph-name="egrave" unicode="&#xe8;" horiz-adv-x="769" 
d="M510 634h-145l-237 168h245zM225 235q22 -118 195 -118q114 0 196 63l100 -105q-111 -98 -307 -98q-175 0 -273.5 80t-98.5 220t95.5 220t261.5 80q155 0 248.5 -76.5t93.5 -219.5q0 -32 -5 -46h-506zM396 439q-134 0 -166 -98l324 2q-31 96 -158 96z" />
    <glyph glyph-name="eacute" unicode="&#xe9;" horiz-adv-x="769" 
d="M661 802l-237 -168h-145l137 168h245zM225 235q22 -118 195 -118q114 0 196 63l100 -105q-111 -98 -307 -98q-175 0 -273.5 80t-98.5 220t95.5 220t261.5 80q155 0 248.5 -76.5t93.5 -219.5q0 -32 -5 -46h-506zM396 439q-134 0 -166 -98l324 2q-31 96 -158 96z" />
    <glyph glyph-name="ecircumflex" unicode="&#xea;" horiz-adv-x="769" 
d="M393 723l-80 -89h-172l151 168h206l150 -168h-174zM225 235q22 -118 195 -118q114 0 196 63l100 -105q-111 -98 -307 -98q-175 0 -273.5 80t-98.5 220t95.5 220t261.5 80q155 0 248.5 -76.5t93.5 -219.5q0 -32 -5 -46h-506zM396 439q-134 0 -166 -98l324 2
q-31 96 -158 96z" />
    <glyph glyph-name="edieresis" unicode="&#xeb;" horiz-adv-x="769" 
d="M254 633q-42 0 -68 22t-26 58t26 57.5t68 21.5q41 0 67.5 -21.5t26.5 -57.5t-26.5 -58t-67.5 -22zM535 633q-41 0 -67.5 22t-26.5 58t26 57.5t68 21.5q41 0 67.5 -21.5t26.5 -57.5t-26.5 -58t-67.5 -22zM225 235q22 -118 195 -118q114 0 196 63l100 -105
q-111 -98 -307 -98q-175 0 -273.5 80t-98.5 220t95.5 220t261.5 80q155 0 248.5 -76.5t93.5 -219.5q0 -32 -5 -46h-506zM396 439q-134 0 -166 -98l324 2q-31 96 -158 96z" />
    <glyph glyph-name="igrave" unicode="&#xec;" horiz-adv-x="340" 
d="M-96 802h245l137 -168h-145zM269 554v-554h-198v554h198z" />
    <glyph glyph-name="iacute" unicode="&#xed;" horiz-adv-x="340" 
d="M437 802l-237 -168h-145l137 168h245zM269 554v-554h-198v554h198z" />
    <glyph glyph-name="icircumflex" unicode="&#xee;" horiz-adv-x="340" 
d="M-83 634h172l80 89l81 -89h174l-150 168h-206zM269 554v-554h-198v554h198z" />
    <glyph glyph-name="idieresis" unicode="&#xef;" horiz-adv-x="340" 
d="M30 633q-41 0 -67.5 22t-26.5 58t26 57.5t68 21.5q41 0 67.5 -21.5t26.5 -57.5t-26.5 -58t-67.5 -22zM311 633q-41 0 -67.5 22t-26.5 58t26 57.5t68 21.5q41 0 67.5 -21.5t26.5 -57.5t-26.5 -58t-67.5 -22zM269 554v-554h-198v554h198z" />
    <glyph glyph-name="eth" unicode="&#xf0;" horiz-adv-x="800" 
d="M562 654q102 -66 151.5 -157.5t49.5 -186.5q0 -168 -96.5 -251t-266.5 -83q-167 0 -265 72.5t-98 204.5q0 64 25 115t67 81t91.5 45.5t103.5 15.5q80 0 151.5 -24t102.5 -81q-41 104 -193 166l-149 -70l-35 66l78 36q-52 10 -94 13l26 146q153 -14 269 -65l142 66l34 -66
zM399 121q80 0 128.5 33t48.5 99q0 65 -49 98.5t-128 33.5q-78 0 -127 -33.5t-49 -98.5t48.5 -98.5t127.5 -33.5z" />
    <glyph glyph-name="ntilde" unicode="&#xf1;" horiz-adv-x="806" 
d="M609 818l79 -121q-63 -70 -164 -70q-48 0 -116 25t-103 25q-54 0 -102 -45l-78 121q26 30 70 50t95 20q47 0 114 -24.5t104 -24.5q60 0 101 44zM267 0h-197v554h197v-88q74 108 228 108q118 0 183 -68t65 -180v-326h-197v313q0 54 -30 84t-86 30q-102 0 -163 -99v-328z
" />
    <glyph glyph-name="ograve" unicode="&#xf2;" horiz-adv-x="799" 
d="M134 802h245l137 -168h-145zM400 -23q-167 0 -265 80.5t-98 219.5t97.5 219t265.5 80q167 0 264.5 -80t97.5 -219t-97.5 -219.5t-264.5 -80.5zM400 129q78 0 126 38.5t48 109.5t-48 109.5t-126 38.5t-126 -38.5t-48 -109.5t48 -109.5t126 -38.5z" />
    <glyph glyph-name="oacute" unicode="&#xf3;" horiz-adv-x="799" 
d="M666 802l-237 -168h-145l137 168h245zM400 -23q-167 0 -265 80.5t-98 219.5t97.5 219t265.5 80q167 0 264.5 -80t97.5 -219t-97.5 -219.5t-264.5 -80.5zM400 129q78 0 126 38.5t48 109.5t-48 109.5t-126 38.5t-126 -38.5t-48 -109.5t48 -109.5t126 -38.5z" />
    <glyph glyph-name="ocircumflex" unicode="&#xf4;" horiz-adv-x="799" 
d="M146 634h172l80 89l81 -89h174l-150 168h-206zM400 -23q-167 0 -265 80.5t-98 219.5t97.5 219t265.5 80q167 0 264.5 -80t97.5 -219t-97.5 -219.5t-264.5 -80.5zM400 129q78 0 126 38.5t48 109.5t-48 109.5t-126 38.5t-126 -38.5t-48 -109.5t48 -109.5t126 -38.5z" />
    <glyph glyph-name="otilde" unicode="&#xf5;" horiz-adv-x="799" 
d="M602 818l79 -121q-63 -70 -164 -70q-47 0 -115 25t-104 25q-54 0 -102 -45l-78 121q26 30 70 50t95 20q47 0 114 -24.5t104 -24.5q60 0 101 44zM400 -23q-167 0 -265 80.5t-98 219.5t97.5 219t265.5 80q167 0 264.5 -80t97.5 -219t-97.5 -219.5t-264.5 -80.5zM400 129
q78 0 126 38.5t48 109.5t-48 109.5t-126 38.5t-126 -38.5t-48 -109.5t48 -109.5t126 -38.5z" />
    <glyph glyph-name="odieresis" unicode="&#xf6;" horiz-adv-x="799" 
d="M259 633q-41 0 -67.5 22t-26.5 58t26 57.5t68 21.5q41 0 67.5 -21.5t26.5 -57.5t-26.5 -58t-67.5 -22zM540 633q-42 0 -68 22t-26 58t26 57.5t68 21.5q41 0 67.5 -21.5t26.5 -57.5t-26.5 -58t-67.5 -22zM400 -23q-167 0 -265 80.5t-98 219.5t97.5 219t265.5 80
q167 0 264.5 -80t97.5 -219t-97.5 -219.5t-264.5 -80.5zM400 129q78 0 126 38.5t48 109.5t-48 109.5t-126 38.5t-126 -38.5t-48 -109.5t48 -109.5t126 -38.5z" />
    <glyph glyph-name="divide" unicode="&#xf7;" horiz-adv-x="735" 
d="M366 436q-47 0 -74.5 23.5t-27.5 57.5q0 33 27.5 56.5t74.5 23.5q46 0 73.5 -23.5t27.5 -56.5q0 -34 -27.5 -57.5t-73.5 -23.5zM670 228h-605v151h605v-151zM366 9q-47 0 -74.5 23.5t-27.5 56.5q0 34 27.5 57.5t74.5 23.5q46 0 73.5 -23.5t27.5 -57.5q0 -33 -27.5 -56.5
t-73.5 -23.5z" />
    <glyph glyph-name="oslash" unicode="&#xf8;" horiz-adv-x="799" 
d="M611 531q73 -37 112 -102.5t39 -151.5q0 -139 -97.5 -219.5t-264.5 -80.5q-74 0 -137 17l-58 -91h-107l81 125q-142 79 -142 249q0 139 97.5 219t265.5 80q71 0 124 -13l58 88h106zM226 277q0 -68 45 -107l163 253q-22 2 -34 2q-78 0 -126 -38.5t-48 -109.5zM400 129
q78 0 126 38.5t48 109.5q0 74 -54 114l-167 -258q20 -4 47 -4z" />
    <glyph glyph-name="ugrave" unicode="&#xf9;" horiz-adv-x="806" 
d="M126 802h245l137 -168h-145zM539 554h197v-554h-197v88q-74 -108 -228 -108q-118 0 -183 68t-65 180v326h197v-313q0 -54 30 -84t86 -30q102 0 163 99v328z" />
    <glyph glyph-name="uacute" unicode="&#xfa;" horiz-adv-x="806" 
d="M659 802l-237 -168h-145l137 168h245zM539 554h197v-554h-197v88q-74 -108 -228 -108q-118 0 -183 68t-65 180v326h197v-313q0 -54 30 -84t86 -30q102 0 163 99v328z" />
    <glyph glyph-name="ucircumflex" unicode="&#xfb;" horiz-adv-x="806" 
d="M139 634h172l80 89l81 -89h174l-150 168h-206zM539 554h197v-554h-197v88q-74 -108 -228 -108q-118 0 -183 68t-65 180v326h197v-313q0 -54 30 -84t86 -30q102 0 163 99v328z" />
    <glyph glyph-name="udieresis" unicode="&#xfc;" horiz-adv-x="806" 
d="M252 633q-42 0 -68 22t-26 58t26 57.5t68 21.5q41 0 67.5 -21.5t26.5 -57.5t-26.5 -58t-67.5 -22zM533 633q-41 0 -67.5 22t-26.5 58t26 57.5t68 21.5q41 0 67.5 -21.5t26.5 -57.5t-26.5 -58t-67.5 -22zM539 554h197v-554h-197v88q-74 -108 -228 -108q-118 0 -183 68
t-65 180v326h197v-313q0 -54 30 -84t86 -30q102 0 163 99v328z" />
    <glyph glyph-name="yacute" unicode="&#xfd;" horiz-adv-x="741" 
d="M639 802l-237 -168h-145l137 168h245zM538 554h200l-388 -754h-199l126 231l-274 523h203l169 -344z" />
    <glyph glyph-name="thorn" unicode="&#xfe;" horiz-adv-x="827" 
d="M495 574q132 0 213 -80.5t81 -216.5t-81 -217t-213 -81q-147 0 -228 102v-281h-197v940h197v-267q80 101 228 101zM440 131q78 0 120 38t42 108q0 69 -42 107.5t-120 38.5q-111 0 -172 -79v-134q61 -79 172 -79z" />
    <glyph glyph-name="ydieresis" unicode="&#xff;" horiz-adv-x="741" 
d="M232 633q-42 0 -68 22t-26 58t26 57.5t68 21.5q41 0 67.5 -21.5t26.5 -57.5t-26.5 -58t-67.5 -22zM513 633q-41 0 -67.5 22t-26.5 58t26 57.5t68 21.5q41 0 67.5 -21.5t26.5 -57.5t-26.5 -58t-67.5 -22zM538 554h200l-388 -754h-199l126 231l-274 523h203l169 -344z" />
    <glyph glyph-name="Amacron" unicode="&#x100;" 
d="M702 927v-133h-465v133h465zM726 0l-66 134h-384l-66 -134h-214l362 700h223l362 -700h-217zM346 279h243l-121 248z" />
    <glyph glyph-name="amacron" unicode="&#x101;" horiz-adv-x="772" 
d="M156 781h465v-133h-465v133zM369 576q159 0 248 -69t89 -196v-206q0 -60 24 -105h-200q-19 29 -19 57v1q-33 -35 -90 -56.5t-127 -21.5q-47 0 -91.5 10t-85 30.5t-65 58.5t-24.5 89t24.5 89t65 58.5t85 30.5t91.5 10q143 0 217 -79v36q0 124 -183 124q-113 0 -199 -43
l-45 125q55 26 133 41.5t152 15.5zM515 163v11q-48 67 -165 67q-52 0 -91.5 -16.5t-39.5 -56.5t39.5 -56.5t91.5 -16.5q117 0 165 68z" />
    <glyph glyph-name="Abreve" unicode="&#x102;" 
d="M470 772q-54 0 -95.5 18t-63.5 46t-32.5 56.5t-10.5 55.5h118q3 -29 25 -49.5t59 -20.5q36 0 58 21t24 49h119q0 -27 -10.5 -55.5t-32.5 -56.5t-63 -46t-95 -18zM726 0l-66 134h-384l-66 -134h-214l362 700h223l362 -700h-217zM346 279h243l-121 248z" />
    <glyph glyph-name="abreve" unicode="&#x103;" horiz-adv-x="772" 
d="M590 802q0 -27 -10.5 -55.5t-32.5 -56.5t-63 -46t-95 -18t-95.5 18t-63.5 46t-32.5 56.5t-10.5 55.5h118q3 -29 25 -49.5t59 -20.5q35 0 57.5 21t24.5 49h119zM369 576q159 0 248 -69t89 -196v-206q0 -60 24 -105h-200q-19 29 -19 57v1q-33 -35 -90 -56.5t-127 -21.5
q-47 0 -91.5 10t-85 30.5t-65 58.5t-24.5 89t24.5 89t65 58.5t85 30.5t91.5 10q143 0 217 -79v36q0 124 -183 124q-113 0 -199 -43l-45 125q55 26 133 41.5t152 15.5zM515 163v11q-48 67 -165 67q-52 0 -91.5 -16.5t-39.5 -56.5t39.5 -56.5t91.5 -16.5q117 0 165 68z" />
    <glyph glyph-name="Aogonek" unicode="&#x104;" 
d="M965 -152l32 -40q-45 -61 -141 -61q-66 0 -113 31t-47 88q0 44 29.5 80.5t85.5 53.5h-85l-66 134h-384l-66 -134h-214l362 700h223l362 -700h-1q-45 -17 -78.5 -50.5t-33.5 -70.5q0 -26 19 -42t48 -16q41 0 68 27zM346 279h243l-121 248z" />
    <glyph glyph-name="aogonek" unicode="&#x105;" horiz-adv-x="772" 
d="M753 -152l32 -40q-45 -61 -141 -61q-66 0 -113 31t-47 88q0 44 29.5 80.5t85.5 53.5h-69q-19 29 -19 57v1q-33 -35 -90 -56.5t-127 -21.5q-47 0 -91.5 10t-85 30.5t-65 58.5t-24.5 89t24.5 89t65 58.5t85 30.5t91.5 10q143 0 217 -79v36q0 124 -183 124q-113 0 -199 -43
l-45 125q55 26 133 41.5t152 15.5q159 0 248 -69t89 -196v-206q0 -60 24 -105q-45 -17 -78.5 -50.5t-33.5 -70.5q0 -26 19 -42t48 -16q41 0 68 27zM515 163v11q-48 67 -165 67q-52 0 -91.5 -16.5t-39.5 -56.5t39.5 -56.5t91.5 -16.5q117 0 165 68z" />
    <glyph glyph-name="Cacute" unicode="&#x106;" horiz-adv-x="898" 
d="M743 949l-237 -168h-145l137 168h245zM489 143q145 0 215 107l175 -90q-51 -81 -155 -132t-240 -51q-201 0 -321.5 99t-120.5 274t122 274t328 99q130 0 232 -51.5t152 -130.5l-176 -90q-68 106 -211 106q-110 0 -175 -54t-65 -153t65 -153t175 -54z" />
    <glyph glyph-name="cacute" unicode="&#x107;" horiz-adv-x="732" 
d="M656 802l-237 -168h-145l137 168h245zM715 138q-37 -71 -118.5 -116t-200.5 -45q-166 0 -262.5 81t-96.5 219q0 139 96.5 219.5t262.5 80.5q118 0 198 -44.5t117 -114.5l-169 -68q-39 76 -144 76q-78 0 -125 -38.5t-47 -110.5q0 -71 47 -110t125 -39q106 0 148 79z" />
    <glyph glyph-name="Ccircumflex" unicode="&#x108;" horiz-adv-x="898" 
d="M223 781h172l80 89l81 -89h174l-150 168h-206zM489 143q145 0 215 107l175 -90q-51 -81 -155 -132t-240 -51q-201 0 -321.5 99t-120.5 274t122 274t328 99q130 0 232 -51.5t152 -130.5l-176 -90q-68 106 -211 106q-110 0 -175 -54t-65 -153t65 -153t175 -54z" />
    <glyph glyph-name="ccircumflex" unicode="&#x109;" horiz-adv-x="732" 
d="M136 634h172l80 89l81 -89h174l-150 168h-206zM715 138q-37 -71 -118.5 -116t-200.5 -45q-166 0 -262.5 81t-96.5 219q0 139 96.5 219.5t262.5 80.5q118 0 198 -44.5t117 -114.5l-169 -68q-39 76 -144 76q-78 0 -125 -38.5t-47 -110.5q0 -71 47 -110t125 -39
q106 0 148 79z" />
    <glyph glyph-name="Cdotaccent" unicode="&#x10a;" horiz-adv-x="898" 
d="M476 780q-41 0 -66.5 21t-25.5 56q0 36 25.5 57t66.5 21t66.5 -21t25.5 -57q0 -35 -25.5 -56t-66.5 -21zM489 143q145 0 215 107l175 -90q-51 -81 -155 -132t-240 -51q-201 0 -321.5 99t-120.5 274t122 274t328 99q130 0 232 -51.5t152 -130.5l-176 -90q-68 106 -211 106
q-110 0 -175 -54t-65 -153t65 -153t175 -54z" />
    <glyph glyph-name="cdotaccent" unicode="&#x10b;" horiz-adv-x="732" 
d="M389 633q-41 0 -66.5 21t-25.5 56q0 36 25.5 57t66.5 21t66.5 -21t25.5 -57q0 -35 -25.5 -56t-66.5 -21zM715 138q-37 -71 -118.5 -116t-200.5 -45q-166 0 -262.5 81t-96.5 219q0 139 96.5 219.5t262.5 80.5q118 0 198 -44.5t117 -114.5l-169 -68q-39 76 -144 76
q-78 0 -125 -38.5t-47 -110.5q0 -71 47 -110t125 -39q106 0 148 79z" />
    <glyph glyph-name="Ccaron" unicode="&#x10c;" horiz-adv-x="898" 
d="M223 949l151 -168h206l150 168h-172l-81 -89l-81 89h-173zM489 143q145 0 215 107l175 -90q-51 -81 -155 -132t-240 -51q-201 0 -321.5 99t-120.5 274t122 274t328 99q130 0 232 -51.5t152 -130.5l-176 -90q-68 106 -211 106q-110 0 -175 -54t-65 -153t65 -153t175 -54z
" />
    <glyph glyph-name="ccaron" unicode="&#x10d;" horiz-adv-x="732" 
d="M136 802l151 -168h206l150 168h-172l-81 -89l-81 89h-173zM715 138q-37 -71 -118.5 -116t-200.5 -45q-166 0 -262.5 81t-96.5 219q0 139 96.5 219.5t262.5 80.5q118 0 198 -44.5t117 -114.5l-169 -68q-39 76 -144 76q-78 0 -125 -38.5t-47 -110.5q0 -71 47 -110t125 -39
q106 0 148 79z" />
    <glyph glyph-name="Dcaron" unicode="&#x10e;" horiz-adv-x="955" 
d="M204 948l151 -168h206l150 168h-172l-81 -89l-81 89h-173zM473 700q203 0 321.5 -93t118.5 -257t-118.5 -257t-321.5 -93h-391v700h391zM457 162q115 0 181.5 48.5t66.5 139.5t-66.5 139.5t-181.5 48.5h-171v-376h171z" />
    <glyph glyph-name="dcaron" unicode="&#x10f;" horiz-adv-x="995" 
d="M332 574q148 0 228 -101v267h197v-740h-197v81q-81 -102 -228 -102q-132 0 -213 81t-81 217t81 216.5t213 80.5zM898 713q54 0 86.5 -36t32.5 -87q0 -62 -39.5 -127t-114.5 -109l-38 55q76 58 94 117q-7 -7 -27 -7q-44 0 -74 28t-30 69q0 42 31 69.5t79 27.5zM387 131
q112 0 172 79v134q-60 79 -172 79q-78 0 -120 -38.5t-42 -107.5q0 -70 42 -108t120 -38z" />
    <glyph glyph-name="Dcroat" unicode="&#x110;" horiz-adv-x="985" 
d="M507 700q204 0 320 -92.5t116 -257.5t-116 -257.5t-320 -92.5h-395v298h-96v117h96v285h395zM487 159q116 0 182 49t66 142t-66 142t-182 49h-172v-126h185v-117h-185v-139h172z" />
    <glyph glyph-name="dcroat" unicode="&#x111;" horiz-adv-x="814" 
d="M830 666v-77h-73v-589h-197v81q-81 -102 -228 -102q-132 0 -213 81t-81 217t81 216.5t213 80.5q148 0 228 -101v116h-167v77h167v74h197v-74h73zM559 210v134q-60 79 -172 79q-78 0 -120 -38.5t-42 -107.5q0 -70 42 -108t120 -38q112 0 172 79z" />
    <glyph glyph-name="Emacron" unicode="&#x112;" horiz-adv-x="870" 
d="M214 927h465v-133h-465v133zM283 156h546v-156h-747v700h736v-156h-535v-115h441v-149h-441v-124z" />
    <glyph glyph-name="emacron" unicode="&#x113;" horiz-adv-x="769" 
d="M627 781v-133h-465v133h465zM225 235q22 -118 195 -118q114 0 196 63l100 -105q-111 -98 -307 -98q-175 0 -273.5 80t-98.5 220t95.5 220t261.5 80q155 0 248.5 -76.5t93.5 -219.5q0 -32 -5 -46h-506zM396 439q-134 0 -166 -98l324 2q-31 96 -158 96z" />
    <glyph glyph-name="Ebreve" unicode="&#x114;" horiz-adv-x="870" 
d="M649 948q0 -27 -10.5 -55.5t-32.5 -56.5t-63 -46t-95 -18t-95.5 18t-63.5 46t-32.5 56.5t-10.5 55.5h118q3 -29 25 -49.5t59 -20.5q36 0 58 21t24 49h119zM283 156h546v-156h-747v700h736v-156h-535v-115h441v-149h-441v-124z" />
    <glyph glyph-name="ebreve" unicode="&#x115;" horiz-adv-x="769" 
d="M395 626q-54 0 -95.5 18t-63.5 46t-32.5 56.5t-10.5 55.5h118q3 -29 25 -49.5t59 -20.5q35 0 57.5 21t24.5 49h119q0 -27 -10.5 -55.5t-32.5 -56.5t-63 -46t-95 -18zM225 235q22 -118 195 -118q114 0 196 63l100 -105q-111 -98 -307 -98q-175 0 -273.5 80t-98.5 220
t95.5 220t261.5 80q155 0 248.5 -76.5t93.5 -219.5q0 -32 -5 -46h-506zM396 439q-134 0 -166 -98l324 2q-31 96 -158 96z" />
    <glyph glyph-name="Edotaccent" unicode="&#x116;" horiz-adv-x="870" 
d="M446 779q-41 0 -66.5 21t-25.5 56q0 36 25.5 57t66.5 21t66.5 -21t25.5 -57q0 -35 -25.5 -56t-66.5 -21zM283 156h546v-156h-747v700h736v-156h-535v-115h441v-149h-441v-124z" />
    <glyph glyph-name="edotaccent" unicode="&#x117;" horiz-adv-x="769" 
d="M394 633q-41 0 -66.5 21t-25.5 56q0 36 25.5 57t66.5 21t66.5 -21t25.5 -57q0 -35 -25.5 -56t-66.5 -21zM225 235q22 -118 195 -118q114 0 196 63l100 -105q-111 -98 -307 -98q-175 0 -273.5 80t-98.5 220t95.5 220t261.5 80q155 0 248.5 -76.5t93.5 -219.5q0 -32 -5 -46
h-506zM396 439q-134 0 -166 -98l324 2q-31 96 -158 96z" />
    <glyph glyph-name="Eogonek" unicode="&#x118;" horiz-adv-x="870" 
d="M851 -152l32 -40q-45 -61 -141 -61q-66 0 -113 31t-47 88q0 44 29.5 80.5t85.5 53.5h-615v700h736v-156h-535v-115h441v-149h-441v-124h546v-156h-1q-45 -17 -78.5 -50.5t-33.5 -70.5q0 -26 19 -42t48 -16q41 0 68 27z" />
    <glyph glyph-name="eogonek" unicode="&#x119;" horiz-adv-x="769" 
d="M225 235q22 -118 195 -118q114 0 196 63l100 -105q-58 -50 -136 -75h1q-45 -17 -78.5 -50.5t-33.5 -70.5q0 -26 19 -42t48 -16q41 0 68 27l32 -40q-45 -61 -141 -61q-66 0 -113 31t-47 88q0 70 65 111q-172 2 -267.5 81.5t-95.5 218.5q0 140 95.5 220t261.5 80
q155 0 248.5 -76.5t93.5 -219.5q0 -32 -5 -46h-506zM396 439q-134 0 -166 -98l324 2q-31 96 -158 96z" />
    <glyph glyph-name="Ecaron" unicode="&#x11a;" horiz-adv-x="870" 
d="M193 948l151 -168h206l150 168h-172l-81 -89l-81 89h-173zM283 156h546v-156h-747v700h736v-156h-535v-115h441v-149h-441v-124z" />
    <glyph glyph-name="ecaron" unicode="&#x11b;" horiz-adv-x="769" 
d="M498 634h-206l-151 168h173l81 -89l81 89h172zM225 235q22 -118 195 -118q114 0 196 63l100 -105q-111 -98 -307 -98q-175 0 -273.5 80t-98.5 220t95.5 220t261.5 80q155 0 248.5 -76.5t93.5 -219.5q0 -32 -5 -46h-506zM396 439q-134 0 -166 -98l324 2q-31 96 -158 96z
" />
    <glyph glyph-name="Gcircumflex" unicode="&#x11c;" horiz-adv-x="955" 
d="M248 781h172l80 89l81 -89h174l-150 168h-206zM907 405v-273q-58 -72 -161 -113.5t-239 -41.5q-217 0 -341 98t-124 275t124 275t341 98q121 0 215.5 -36t155.5 -93l-149 -110q-87 78 -217 78q-127 0 -195 -54.5t-68 -157.5t69 -158t197 -55q135 0 203 62v63h-232v143
h421z" />
    <glyph glyph-name="gcircumflex" unicode="&#x11d;" horiz-adv-x="827" 
d="M169 635h172l80 89l81 -89h174l-150 168h-206zM757 554v-456q0 -70 -22 -126t-57.5 -91t-84.5 -58.5t-99.5 -33t-105.5 -9.5q-78 0 -162 17.5t-135 46.5l52 131q86 -53 222 -53q194 0 194 140v44q-38 -50 -98.5 -75.5t-130.5 -25.5q-134 0 -213.5 76t-79.5 208
t79.5 208.5t213.5 76.5q152 0 229 -101v81h198zM386 148q107 0 174 89v104q-65 89 -174 89q-77 0 -118.5 -37.5t-41.5 -103.5t41.5 -103.5t118.5 -37.5z" />
    <glyph glyph-name="Gbreve" unicode="&#x11e;" horiz-adv-x="955" 
d="M703 949q0 -27 -10.5 -55.5t-32.5 -56.5t-63 -46t-95 -18t-95.5 18t-63.5 46t-32.5 56.5t-10.5 55.5h118q3 -29 25 -49.5t59 -20.5q36 0 58 21t24 49h119zM907 405v-273q-58 -72 -161 -113.5t-239 -41.5q-217 0 -341 98t-124 275t124 275t341 98q121 0 215.5 -36
t155.5 -93l-149 -110q-87 78 -217 78q-127 0 -195 -54.5t-68 -157.5t69 -158t197 -55q135 0 203 62v63h-232v143h421z" />
    <glyph glyph-name="gbreve" unicode="&#x11f;" horiz-adv-x="827" 
d="M625 803q0 -27 -10.5 -55.5t-32.5 -56.5t-63 -46t-95 -18t-95.5 18t-63.5 46t-32.5 56.5t-10.5 55.5h118q3 -29 25 -49.5t59 -20.5q35 0 57.5 21t24.5 49h119zM757 554v-456q0 -70 -22 -126t-57.5 -91t-84.5 -58.5t-99.5 -33t-105.5 -9.5q-78 0 -162 17.5t-135 46.5
l52 131q86 -53 222 -53q194 0 194 140v44q-38 -50 -98.5 -75.5t-130.5 -25.5q-134 0 -213.5 76t-79.5 208t79.5 208.5t213.5 76.5q152 0 229 -101v81h198zM386 148q107 0 174 89v104q-65 89 -174 89q-77 0 -118.5 -37.5t-41.5 -103.5t41.5 -103.5t118.5 -37.5z" />
    <glyph glyph-name="Gdotaccent" unicode="&#x120;" horiz-adv-x="955" 
d="M501 780q-41 0 -66.5 21t-25.5 56q0 36 25.5 57t66.5 21t66.5 -21t25.5 -57q0 -35 -25.5 -56t-66.5 -21zM907 405v-273q-58 -72 -161 -113.5t-239 -41.5q-217 0 -341 98t-124 275t124 275t341 98q121 0 215.5 -36t155.5 -93l-149 -110q-87 78 -217 78q-127 0 -195 -54.5
t-68 -157.5t69 -158t197 -55q135 0 203 62v63h-232v143h421z" />
    <glyph glyph-name="gdotaccent" unicode="&#x121;" horiz-adv-x="827" 
d="M422 634q-41 0 -66.5 21t-25.5 56q0 36 25.5 57t66.5 21t66.5 -21t25.5 -57q0 -35 -25.5 -56t-66.5 -21zM757 554v-456q0 -70 -22 -126t-57.5 -91t-84.5 -58.5t-99.5 -33t-105.5 -9.5q-78 0 -162 17.5t-135 46.5l52 131q86 -53 222 -53q194 0 194 140v44
q-38 -50 -98.5 -75.5t-130.5 -25.5q-134 0 -213.5 76t-79.5 208t79.5 208.5t213.5 76.5q152 0 229 -101v81h198zM386 148q107 0 174 89v104q-65 89 -174 89q-77 0 -118.5 -37.5t-41.5 -103.5t41.5 -103.5t118.5 -37.5z" />
    <glyph glyph-name="Gcommaaccent" unicode="&#x122;" horiz-adv-x="955" 
d="M907 405v-273q-58 -72 -161 -113.5t-239 -41.5q-217 0 -341 98t-124 275t124 275t341 98q121 0 215.5 -36t155.5 -93l-149 -110q-87 78 -217 78q-127 0 -195 -54.5t-68 -157.5t69 -158t197 -55q135 0 203 62v63h-232v143h421zM502 -52q54 0 87 -36.5t33 -89.5
q0 -61 -40.5 -129.5t-115.5 -112.5l-40 56q80 59 97 120q-6 -7 -28 -7q-44 0 -74.5 28.5t-30.5 71.5q0 42 32 70.5t80 28.5z" />
    <glyph glyph-name="gcommaaccent" unicode="&#x123;" horiz-adv-x="827" 
d="M424 636q-54 0 -87 36.5t-33 89.5q0 61 40.5 129.5t115.5 112.5l40 -56q-80 -59 -97 -120q6 7 28 7q44 0 74.5 -28.5t30.5 -71.5q0 -42 -32 -70.5t-80 -28.5zM757 554v-456q0 -70 -22 -126t-57.5 -91t-84.5 -58.5t-99.5 -33t-105.5 -9.5q-78 0 -162 17.5t-135 46.5
l52 131q86 -53 222 -53q194 0 194 140v44q-38 -50 -98.5 -75.5t-130.5 -25.5q-134 0 -213.5 76t-79.5 208t79.5 208.5t213.5 76.5q152 0 229 -101v81h198zM386 148q107 0 174 89v104q-65 89 -174 89q-77 0 -118.5 -37.5t-41.5 -103.5t41.5 -103.5t118.5 -37.5z" />
    <glyph glyph-name="Hcircumflex" unicode="&#x124;" horiz-adv-x="992" 
d="M242 781h172l80 89l81 -89h174l-150 168h-206zM706 700h204v-700h-204v271h-420v-271h-204v700h204v-261h420v261z" />
    <glyph glyph-name="hcircumflex" unicode="&#x125;" horiz-adv-x="806" 
d="M168 909l-80 -89h-172l151 168h206l150 -168h-174zM495 574q118 0 183 -68t65 -180v-326h-197v313q0 54 -30 84t-86 30q-102 0 -163 -99v-328h-197v554v186h197v-198v-76q74 108 228 108z" />
    <glyph glyph-name="Hbar" unicode="&#x126;" horiz-adv-x="1067" 
d="M1051 587v-75h-104v-512h-204v271h-419v-271h-204v512h-103v75h103v113h204v-113h419v113h204v-113h104zM743 439v73h-419v-73h419z" />
    <glyph glyph-name="hbar" unicode="&#x127;" horiz-adv-x="806" 
d="M495 574q118 0 183 -68t65 -180v-326h-197v313q0 54 -30 84t-86 30q-102 0 -163 -99v-328h-197v554v35h-86v77h86v74h197v-74h155v-77h-155v-47v-76q74 108 228 108z" />
    <glyph glyph-name="Itilde" unicode="&#x128;" horiz-adv-x="369" 
d="M387 964l79 -121q-63 -70 -164 -70q-48 0 -115.5 25t-103.5 25q-54 0 -102 -45l-78 121q26 30 70 50t95 20q47 0 114 -24.5t104 -24.5q60 0 101 44zM286 0h-204v700h204v-700z" />
    <glyph glyph-name="itilde" unicode="&#x129;" horiz-adv-x="340" 
d="M373 818l79 -121q-63 -70 -164 -70q-48 0 -116 25t-103 25q-54 0 -102 -45l-78 121q26 30 70 50t95 20q47 0 114 -24.5t104 -24.5q60 0 101 44zM269 554v-554h-198v554h198z" />
    <glyph glyph-name="Imacron" unicode="&#x12a;" horiz-adv-x="369" 
d="M-48 927h465v-133h-465v133zM286 0h-204v700h204v-700z" />
    <glyph glyph-name="imacron" unicode="&#x12b;" horiz-adv-x="340" 
d="M-62 781h465v-133h-465v133zM269 554v-554h-198v554h198z" />
    <glyph glyph-name="Ibreve" unicode="&#x12c;" horiz-adv-x="369" 
d="M386 948q0 -27 -10.5 -55.5t-32.5 -56.5t-63 -46t-95 -18t-95.5 18t-63.5 46t-32.5 56.5t-10.5 55.5h118q3 -29 25 -49.5t59 -20.5q35 0 57.5 21t24.5 49h119zM286 0h-204v700h204v-700z" />
    <glyph glyph-name="ibreve" unicode="&#x12d;" horiz-adv-x="340" 
d="M372 802q0 -27 -10.5 -55.5t-32.5 -56.5t-63 -46t-95 -18t-95.5 18t-63.5 46t-32.5 56.5t-10.5 55.5h118q3 -29 25 -49.5t59 -20.5q35 0 57.5 21t24.5 49h119zM269 554v-554h-198v554h198z" />
    <glyph glyph-name="Iogonek" unicode="&#x12e;" horiz-adv-x="369" 
d="M309 -152l32 -40q-45 -61 -141 -61q-66 0 -113 31t-47 88q0 44 29.5 80.5t85.5 53.5h-73v700h204v-700q-45 -17 -78.5 -50.5t-33.5 -70.5q0 -26 19 -42t48 -16q41 0 68 27z" />
    <glyph glyph-name="iogonek" unicode="&#x12f;" horiz-adv-x="337" 
d="M169 610q-51 0 -82.5 25.5t-31.5 67.5t31.5 67.5t82.5 25.5q50 0 81.5 -25.5t31.5 -67.5t-31.5 -67.5t-81.5 -25.5zM291 -152l32 -40q-45 -61 -141 -61q-66 0 -113 31t-47 88q0 44 29.5 80.5t85.5 53.5h-66v554h198v-554h-1q-45 -17 -78.5 -50.5t-33.5 -70.5
q0 -26 19 -42t48 -16q41 0 68 27z" />
    <glyph glyph-name="Idotaccent" unicode="&#x130;" horiz-adv-x="369" 
d="M184 779q-41 0 -66.5 21t-25.5 56q0 36 25.5 57t66.5 21t66.5 -21t25.5 -57q0 -35 -25.5 -56t-66.5 -21zM286 0h-204v700h204v-700z" />
    <glyph glyph-name="dotlessi" unicode="&#x131;" horiz-adv-x="340" 
d="M269 554v-554h-198v554h198z" />
    <glyph glyph-name="IJ" unicode="&#x132;" horiz-adv-x="1110" 
d="M286 0h-204v700h204v-700zM500 225q33 -41 73 -60.5t97 -19.5q167 0 167 179v376h204v-392q0 -150 -95.5 -240.5t-273.5 -90.5q-202 0 -309 129z" />
    <glyph glyph-name="ij" unicode="&#x133;" horiz-adv-x="675" 
d="M169 610q-51 0 -82.5 25.5t-31.5 67.5t31.5 67.5t82.5 25.5q50 0 81.5 -25.5t31.5 -67.5t-31.5 -67.5t-81.5 -25.5zM506 610q-51 0 -82.5 25.5t-31.5 67.5t31.5 67.5t82.5 25.5q50 0 81.5 -25.5t31.5 -67.5t-31.5 -67.5t-81.5 -25.5zM269 554v-554h-198v554h198zM406 554
h198v-555q0 -102 -60.5 -161t-162.5 -59q-68 0 -137 24l31 126q31 -11 59 -11q32 0 52 19.5t20 55.5v561z" />
    <glyph glyph-name="Jcircumflex" unicode="&#x134;" horiz-adv-x="741" 
d="M316 780h172l80 89l81 -89h174l-150 168h-206zM131 225q33 -41 73 -60.5t97 -19.5q167 0 167 179v376h204v-392q0 -150 -95.5 -240.5t-273.5 -90.5q-202 0 -309 129z" />
    <glyph glyph-name="jcircumflex" unicode="&#x135;" horiz-adv-x="463" 
d="M-100 634h173l79 89l82 -89h173l-150 168h-206zM70 554h197v-555q0 -102 -60 -161t-161 -59q-70 0 -139 24l27 116q34 -12 66 -12q30 0 50 20t20 56v571z" />
    <glyph glyph-name="Kcommaaccent" unicode="&#x136;" horiz-adv-x="907" 
d="M587 421l329 -421h-240l-235 301l-155 -138v-163h-204v700h204v-324l358 324h254zM467 -52q54 0 87 -36.5t33 -89.5q0 -61 -40.5 -129.5t-115.5 -112.5l-40 56q80 59 97 120q-6 -7 -28 -7q-44 0 -74.5 28.5t-30.5 71.5q0 42 32 70.5t80 28.5z" />
    <glyph glyph-name="kcommaaccent" unicode="&#x137;" horiz-adv-x="749" 
d="M511 330l245 -330h-212l-167 224l-110 -98v-126h-197v740h197v-429l254 243h221zM391 -52q54 0 87 -36.5t33 -89.5q0 -61 -40.5 -129.5t-115.5 -112.5l-40 56q80 59 97 120q-6 -7 -28 -7q-44 0 -74.5 28.5t-30.5 71.5q0 42 32 70.5t80 28.5z" />
    <glyph glyph-name="kgreenlandic" unicode="&#x138;" horiz-adv-x="749" 
d="M544 0l-167 224l-110 -98v-126h-197v554h197v-243l254 243h221l-231 -224l245 -330h-212z" />
    <glyph glyph-name="Lacute" unicode="&#x139;" horiz-adv-x="774" 
d="M451 948l-237 -168h-145l137 168h245zM286 164h471v-164h-675v700h204v-536z" />
    <glyph glyph-name="lacute" unicode="&#x13a;" horiz-adv-x="340" 
d="M437 988l-237 -168h-145l137 168h245zM269 0h-198v740h198v-740z" />
    <glyph glyph-name="Lcommaaccent" unicode="&#x13b;" horiz-adv-x="774" 
d="M286 164h471v-164h-675v700h204v-536zM422 -52q54 0 87 -36.5t33 -89.5q0 -61 -40.5 -129.5t-115.5 -112.5l-40 56q80 59 97 120q-6 -7 -28 -7q-44 0 -74.5 28.5t-30.5 71.5q0 42 32 70.5t80 28.5z" />
    <glyph glyph-name="lcommaaccent" unicode="&#x13c;" horiz-adv-x="340" 
d="M269 0h-198v740h198v-740zM171 -52q54 0 87 -36.5t33 -89.5q0 -61 -40.5 -129.5t-115.5 -112.5l-40 56q80 59 97 120q-6 -7 -28 -7q-44 0 -74.5 28.5t-30.5 71.5q0 42 32 70.5t80 28.5z" />
    <glyph glyph-name="Lcaron" unicode="&#x13d;" horiz-adv-x="774" 
d="M519 717q54 0 87 -36.5t33 -89.5q0 -61 -40.5 -129.5t-115.5 -112.5l-40 56q80 59 97 120q-6 -7 -28 -7q-44 0 -74.5 28.5t-30.5 71.5q0 42 32 70.5t80 28.5zM286 164h471v-164h-675v700h204v-536z" />
    <glyph glyph-name="lcaron" unicode="&#x13e;" horiz-adv-x="520" 
d="M269 0h-198v740h198v-740zM423 713q54 0 86 -36t32 -87q0 -63 -39 -127.5t-115 -108.5l-37 55q76 58 94 117q-7 -7 -27 -7q-44 0 -74.5 28t-30.5 69t31.5 69t79.5 28z" />
    <glyph glyph-name="Ldot" unicode="&#x13f;" horiz-adv-x="774" 
d="M286 156h471v-156h-675v700h204v-544zM502 325q-50 0 -82.5 28.5t-32.5 70.5q0 43 32.5 71.5t82.5 28.5t82 -29t32 -71t-32 -70.5t-82 -28.5z" />
    <glyph glyph-name="ldot" unicode="&#x140;" horiz-adv-x="524" 
d="M269 0h-198v740h198v-740zM431 307q-51 0 -83 28.5t-32 71.5t32 71.5t83 28.5q50 0 82 -28.5t32 -71.5t-32 -71.5t-82 -28.5z" />
    <glyph glyph-name="Lslash" unicode="&#x141;" horiz-adv-x="826" 
d="M338 164h471v-164h-675v256l-107 -48v126l107 48v318h204v-226l203 93v-126l-203 -93v-184z" />
    <glyph glyph-name="lslash" unicode="&#x142;" horiz-adv-x="427" 
d="M417 540v-128l-106 -45v-367h-197v283l-104 -45v129l104 44v329h197v-246z" />
    <glyph glyph-name="Nacute" unicode="&#x143;" horiz-adv-x="992" 
d="M763 948l-237 -168h-145l137 168h245zM713 700h197v-700h-179l-452 460v-460h-197v700h216l415 -428v428z" />
    <glyph glyph-name="nacute" unicode="&#x144;" horiz-adv-x="806" 
d="M673 802l-237 -168h-145l137 168h245zM267 0h-197v554h197v-88q74 108 228 108q118 0 183 -68t65 -180v-326h-197v313q0 54 -30 84t-86 30q-102 0 -163 -99v-328z" />
    <glyph glyph-name="Ncommaaccent" unicode="&#x145;" horiz-adv-x="992" 
d="M713 700h197v-700h-179l-452 460v-460h-197v700h216l415 -428v428zM497 -52q54 0 87 -36.5t33 -89.5q0 -61 -40.5 -129.5t-115.5 -112.5l-40 56q80 59 97 120q-6 -7 -28 -7q-44 0 -74.5 28.5t-30.5 71.5q0 42 32 70.5t80 28.5z" />
    <glyph glyph-name="ncommaaccent" unicode="&#x146;" horiz-adv-x="806" 
d="M267 0h-197v554h197v-88q74 108 228 108q118 0 183 -68t65 -180v-326h-197v313q0 54 -30 84t-86 30q-102 0 -163 -99v-328zM406 -52q54 0 87 -36.5t33 -89.5q0 -61 -40.5 -129.5t-115.5 -112.5l-40 56q80 59 97 120q-6 -7 -28 -7q-44 0 -74.5 28.5t-30.5 71.5
q0 42 32 70.5t80 28.5z" />
    <glyph glyph-name="Ncaron" unicode="&#x147;" horiz-adv-x="992" 
d="M243 948l151 -168h206l150 168h-172l-81 -89l-81 89h-173zM713 700h197v-700h-179l-452 460v-460h-197v700h216l415 -428v428z" />
    <glyph glyph-name="ncaron" unicode="&#x148;" horiz-adv-x="806" 
d="M153 802l151 -168h206l150 168h-172l-81 -89l-81 89h-173zM267 0h-197v554h197v-88q74 108 228 108q118 0 183 -68t65 -180v-326h-197v313q0 54 -30 84t-86 30q-102 0 -163 -99v-328z" />
    <glyph glyph-name="napostrophe" unicode="&#x149;" horiz-adv-x="1015" 
d="M131 718q54 0 87 -36.5t33 -89.5q0 -61 -40.5 -130t-114.5 -112l-40 55q79 60 97 120q-7 -7 -28 -7q-44 0 -75 28.5t-31 71.5t31.5 71.5t80.5 28.5zM476 0h-197v554h197v-91q80 111 228 111q118 0 183 -68t65 -180v-326h-197v315q0 54 -30.5 85t-86.5 31
q-100 0 -162 -100v-331z" />
    <glyph glyph-name="Eng" unicode="&#x14a;" horiz-adv-x="992" 
d="M910 700v-652h-1v-29q0 -110 -65.5 -175t-174.5 -65q-75 0 -139 24l30 127q30 -11 63 -11q90 0 90 91v9l-434 441v-460h-197v700h216l414 -428v282v146h198z" />
    <glyph glyph-name="eng" unicode="&#x14b;" horiz-adv-x="806" 
d="M495 574q118 0 183 -68t65 -180v-309v-18q0 -102 -61 -161t-164 -59q-69 0 -138 24l30 125q37 -11 62 -11q35 0 54.5 19t19.5 53v166v158q0 54 -30 84t-86 30q-102 0 -163 -99v-328h-197v554h197v-88q74 108 228 108z" />
    <glyph glyph-name="Omacron" unicode="&#x14c;" horiz-adv-x="997" 
d="M267 927h465v-133h-465v133zM498 -23q-210 0 -333 98.5t-123 274.5t123 274.5t333 98.5t333.5 -98.5t123.5 -274.5t-123.5 -274.5t-333.5 -98.5zM498 143q116 0 182.5 54.5t66.5 152.5t-66.5 152.5t-182.5 54.5t-182.5 -54.5t-66.5 -152.5t66.5 -152.5t182.5 -54.5z" />
    <glyph glyph-name="omacron" unicode="&#x14d;" horiz-adv-x="799" 
d="M167 781h465v-133h-465v133zM400 -23q-167 0 -265 80.5t-98 219.5t97.5 219t265.5 80q167 0 264.5 -80t97.5 -219t-97.5 -219.5t-264.5 -80.5zM400 129q78 0 126 38.5t48 109.5t-48 109.5t-126 38.5t-126 -38.5t-48 -109.5t48 -109.5t126 -38.5z" />
    <glyph glyph-name="Obreve" unicode="&#x14e;" horiz-adv-x="997" 
d="M701 948q0 -27 -10.5 -55.5t-32.5 -56.5t-63 -46t-95 -18t-95.5 18t-63.5 46t-32.5 56.5t-10.5 55.5h118q3 -29 25 -49.5t59 -20.5q36 0 58 21t24 49h119zM498 -23q-210 0 -333 98.5t-123 274.5t123 274.5t333 98.5t333.5 -98.5t123.5 -274.5t-123.5 -274.5t-333.5 -98.5
zM498 143q116 0 182.5 54.5t66.5 152.5t-66.5 152.5t-182.5 54.5t-182.5 -54.5t-66.5 -152.5t66.5 -152.5t182.5 -54.5z" />
    <glyph glyph-name="obreve" unicode="&#x14f;" horiz-adv-x="799" 
d="M602 802q0 -27 -10.5 -55.5t-32.5 -56.5t-63 -46t-95 -18t-95.5 18t-63.5 46t-32.5 56.5t-10.5 55.5h118q3 -29 25 -49.5t59 -20.5q35 0 57.5 21t24.5 49h119zM400 -23q-167 0 -265 80.5t-98 219.5t97.5 219t265.5 80q167 0 264.5 -80t97.5 -219t-97.5 -219.5
t-264.5 -80.5zM400 129q78 0 126 38.5t48 109.5t-48 109.5t-126 38.5t-126 -38.5t-48 -109.5t48 -109.5t126 -38.5z" />
    <glyph glyph-name="Ohungarumlaut" unicode="&#x150;" horiz-adv-x="997" 
d="M594 948l-165 -168h-172l164 168h173zM835 948l-165 -168h-172l165 168h172zM498 -23q-210 0 -333 98.5t-123 274.5t123 274.5t333 98.5t333.5 -98.5t123.5 -274.5t-123.5 -274.5t-333.5 -98.5zM498 143q116 0 182.5 54.5t66.5 152.5t-66.5 152.5t-182.5 54.5
t-182.5 -54.5t-66.5 -152.5t66.5 -152.5t182.5 -54.5z" />
    <glyph glyph-name="ohungarumlaut" unicode="&#x151;" horiz-adv-x="799" 
d="M494 802l-165 -168h-172l164 168h173zM735 802l-165 -168h-172l165 168h172zM400 -23q-167 0 -265 80.5t-98 219.5t97.5 219t265.5 80q167 0 264.5 -80t97.5 -219t-97.5 -219.5t-264.5 -80.5zM400 129q78 0 126 38.5t48 109.5t-48 109.5t-126 38.5t-126 -38.5t-48 -109.5
t48 -109.5t126 -38.5z" />
    <glyph glyph-name="OE" unicode="&#x152;" horiz-adv-x="1457" 
d="M871 156h545v-156h-746h-189q-204 0 -321.5 93t-117.5 257t117.5 257t321.5 93h389h536v-156h-535v-115h441v-149h-441v-124zM670 159v382h-171q-115 0 -182 -49.5t-67 -141.5t67 -141.5t182 -49.5h171z" />
    <glyph glyph-name="oe" unicode="&#x153;" horiz-adv-x="1306" 
d="M761 235q22 -118 195 -118q64 0 109 14.5t88 45.5l99 -102q-111 -98 -307 -98q-179 0 -280 90q-100 -90 -265 -90q-167 0 -265 80.5t-98 219.5t97.5 219.5t265.5 80.5q163 0 264 -89q99 89 267 89q154 0 248 -76.5t94 -219.5q0 -29 -6 -46h-506zM932 439q-133 0 -166 -99
l325 1q-31 98 -159 98zM400 130q78 0 126 38t48 109t-48 109.5t-126 38.5t-126 -38.5t-48 -109.5t48 -109t126 -38z" />
    <glyph glyph-name="Racute" unicode="&#x154;" horiz-adv-x="940" 
d="M710 948l-237 -168h-145l137 168h245zM913 0h-237l-185 221h-206v-221h-203v700h491q141 0 229.5 -61.5t88.5 -177.5q0 -85 -49 -141.5t-135 -81.5zM284 369h274q126 0 126 88t-126 88h-274v-176z" />
    <glyph glyph-name="racute" unicode="&#x155;" horiz-adv-x="516" 
d="M555 802l-237 -168h-145l137 168h245zM267 0h-197v554h197v-103q34 57 95 86.5t137 29.5v-164q-90 0 -150.5 -34.5t-81.5 -101.5v-267z" />
    <glyph glyph-name="Rcommaaccent" unicode="&#x156;" horiz-adv-x="940" 
d="M707 238l206 -238h-237l-185 221h-206v-221h-203v700h491q141 0 229.5 -61.5t88.5 -177.5q0 -85 -49 -141.5t-135 -81.5zM284 369h274q126 0 126 88t-126 88h-274v-176zM463 -52q54 0 87 -36.5t33 -89.5q0 -61 -40.5 -129.5t-115.5 -112.5l-40 56q80 59 97 120
q-6 -7 -28 -7q-44 0 -74.5 28.5t-30.5 71.5q0 42 32 70.5t80 28.5z" />
    <glyph glyph-name="rcommaaccent" unicode="&#x157;" horiz-adv-x="516" 
d="M267 0h-197v554h197v-103q34 57 95 86.5t137 29.5v-164q-90 0 -150.5 -34.5t-81.5 -101.5v-267zM170 -52q54 0 87 -36.5t33 -89.5q0 -61 -40.5 -129.5t-115.5 -112.5l-40 56q80 59 97 120q-6 -7 -28 -7q-44 0 -74.5 28.5t-30.5 71.5q0 42 32 70.5t80 28.5z" />
    <glyph glyph-name="Rcaron" unicode="&#x158;" horiz-adv-x="940" 
d="M547 780h-206l-151 168h173l81 -89l81 89h172zM913 0h-237l-185 221h-206v-221h-203v700h491q141 0 229.5 -61.5t88.5 -177.5q0 -85 -49 -141.5t-135 -81.5zM284 369h274q126 0 126 88t-126 88h-274v-176z" />
    <glyph glyph-name="rcaron" unicode="&#x159;" horiz-adv-x="516" 
d="M35 802l151 -168h206l150 168h-172l-81 -89l-81 89h-173zM267 0h-197v554h197v-103q34 57 95 86.5t137 29.5v-164q-90 0 -150.5 -34.5t-81.5 -101.5v-267z" />
    <glyph glyph-name="Sacute" unicode="&#x15a;" horiz-adv-x="886" 
d="M714 948l-237 -168h-145l137 168h245zM462 444q74 -6 129.5 -15t106.5 -26t83.5 -40.5t52 -60t19.5 -83.5q0 -111 -100.5 -176.5t-286.5 -65.5q-270 0 -441 137l107 126q129 -109 338 -109q180 0 180 68q0 33 -44 48t-156 24q-86 7 -151 20.5t-124 37.5t-90.5 65
t-31.5 97q0 110 106.5 171t277.5 61q237 0 384 -104l-103 -127q-108 76 -281 78q-74 0 -127.5 -14.5t-53.5 -48.5q0 -32 46 -43t156 -20h4z" />
    <glyph glyph-name="sacute" unicode="&#x15b;" horiz-adv-x="722" 
d="M632 802l-237 -168h-145l137 168h245zM383 357q92 -5 159.5 -24.5t109.5 -59.5t42 -99q0 -86 -82.5 -141.5t-237.5 -55.5q-106 0 -197 28.5t-153 74.5l86 107q104 -76 270 -76q130 0 130 45q0 23 -35 34t-115 16q-314 22 -314 181q0 86 84.5 138t236.5 52q177 0 303 -76
l-84 -112q-91 55 -224 55q-132 0 -132 -43q0 -23 36 -31.5t117 -12.5z" />
    <glyph glyph-name="Scircumflex" unicode="&#x15c;" horiz-adv-x="886" 
d="M194 780h172l80 89l81 -89h174l-150 168h-206zM462 444q74 -6 129.5 -15t106.5 -26t83.5 -40.5t52 -60t19.5 -83.5q0 -111 -100.5 -176.5t-286.5 -65.5q-270 0 -441 137l107 126q129 -109 338 -109q180 0 180 68q0 33 -44 48t-156 24q-86 7 -151 20.5t-124 37.5t-90.5 65
t-31.5 97q0 110 106.5 171t277.5 61q237 0 384 -104l-103 -127q-108 76 -281 78q-74 0 -127.5 -14.5t-53.5 -48.5q0 -32 46 -43t156 -20h4z" />
    <glyph glyph-name="scircumflex" unicode="&#x15d;" horiz-adv-x="722" 
d="M112 634h172l80 89l81 -89h174l-150 168h-206zM383 357q92 -5 159.5 -24.5t109.5 -59.5t42 -99q0 -86 -82.5 -141.5t-237.5 -55.5q-106 0 -197 28.5t-153 74.5l86 107q104 -76 270 -76q130 0 130 45q0 23 -35 34t-115 16q-314 22 -314 181q0 86 84.5 138t236.5 52
q177 0 303 -76l-84 -112q-91 55 -224 55q-132 0 -132 -43q0 -23 36 -31.5t117 -12.5z" />
    <glyph glyph-name="Scedilla" unicode="&#x15e;" horiz-adv-x="886" 
d="M462 444q74 -6 129.5 -15t106.5 -26t83.5 -40.5t52 -60t19.5 -83.5q0 -111 -100.5 -176.5t-286.5 -65.5q-270 0 -441 137l107 126q129 -109 338 -109q180 0 180 68q0 33 -44 48t-156 24q-86 7 -151 20.5t-124 37.5t-90.5 65t-31.5 97q0 110 106.5 171t277.5 61
q237 0 384 -104l-103 -127q-108 76 -281 78q-74 0 -127.5 -14.5t-53.5 -48.5q0 -32 46 -43t156 -20h4zM545 -60l-147 -162l-124 33l101 154z" />
    <glyph glyph-name="scedilla" unicode="&#x15f;" horiz-adv-x="722" 
d="M383 357q92 -5 159.5 -24.5t109.5 -59.5t42 -99q0 -86 -82.5 -141.5t-237.5 -55.5q-106 0 -197 28.5t-153 74.5l86 107q104 -76 270 -76q130 0 130 45q0 23 -35 34t-115 16q-314 22 -314 181q0 86 84.5 138t236.5 52q177 0 303 -76l-84 -112q-91 55 -224 55
q-132 0 -132 -43q0 -23 36 -31.5t117 -12.5zM452 -60l-147 -162l-124 33l101 154z" />
    <glyph glyph-name="Scaron" unicode="&#x160;" horiz-adv-x="886" 
d="M194 948l151 -168h206l150 168h-172l-81 -89l-81 89h-173zM462 444q74 -6 129.5 -15t106.5 -26t83.5 -40.5t52 -60t19.5 -83.5q0 -111 -100.5 -176.5t-286.5 -65.5q-270 0 -441 137l107 126q129 -109 338 -109q180 0 180 68q0 33 -44 48t-156 24q-86 7 -151 20.5
t-124 37.5t-90.5 65t-31.5 97q0 110 106.5 171t277.5 61q237 0 384 -104l-103 -127q-108 76 -281 78q-74 0 -127.5 -14.5t-53.5 -48.5q0 -32 46 -43t156 -20h4z" />
    <glyph glyph-name="scaron" unicode="&#x161;" horiz-adv-x="722" 
d="M112 802l151 -168h206l150 168h-172l-81 -89l-81 89h-173zM383 357q92 -5 159.5 -24.5t109.5 -59.5t42 -99q0 -86 -82.5 -141.5t-237.5 -55.5q-106 0 -197 28.5t-153 74.5l86 107q104 -76 270 -76q130 0 130 45q0 23 -35 34t-115 16q-314 22 -314 181q0 86 84.5 138
t236.5 52q177 0 303 -76l-84 -112q-91 55 -224 55q-132 0 -132 -43q0 -23 36 -31.5t117 -12.5z" />
    <glyph glyph-name="uni0162" unicode="&#x162;" horiz-adv-x="815" 
d="M800 700v-163h-291v-537h-204v537h-289v163h784zM494 -53l-147 -162l-124 33l101 154z" />
    <glyph glyph-name="uni0163" unicode="&#x163;" horiz-adv-x="552" 
d="M338 -21q-98 0 -159.5 53t-61.5 150v233h-98v139h98v129h197v-129h213v-139h-213v-200q0 -37 25 -58t65 -21q41 0 96 26l33 -129q-37 -25 -90.5 -39.5t-104.5 -14.5zM139 -189l101 154l170 -25l-147 -162z" />
    <glyph glyph-name="Tcaron" unicode="&#x164;" horiz-adv-x="815" 
d="M154 948l151 -168h206l150 168h-172l-81 -89l-81 89h-173zM800 700v-163h-291v-537h-204v537h-289v163h784z" />
    <glyph glyph-name="tcaron" unicode="&#x165;" horiz-adv-x="562" 
d="M433 749q-44 0 -74.5 28.5t-30.5 69.5t31.5 69.5t78.5 28.5q54 0 86.5 -36.5t32.5 -87.5q0 -62 -39.5 -127t-114.5 -109l-37 55q76 60 93 117q-6 -8 -26 -8zM404 136q41 0 96 26l33 -129q-37 -25 -90.5 -39.5t-104.5 -14.5q-98 0 -159.5 53t-61.5 150v233h-98v139h98v129
h197v-129h213v-139h-213v-200q0 -37 25 -58t65 -21z" />
    <glyph glyph-name="Tbar" unicode="&#x166;" horiz-adv-x="815" 
d="M800 537h-291v-150h132v-137h-132v-250h-204v250h-130v137h130v150h-289v163h784v-163z" />
    <glyph glyph-name="tbar" unicode="&#x167;" horiz-adv-x="552" 
d="M500 162l33 -129q-37 -25 -90.5 -39.5t-104.5 -14.5q-98 0 -159.5 53t-61.5 150v92h-64v77h64v64h-98v139h98v129h197v-129h213v-139h-213v-64h176v-77h-176v-59q0 -37 25 -58t65 -21q41 0 96 26z" />
    <glyph glyph-name="Utilde" unicode="&#x168;" horiz-adv-x="953" 
d="M680 964l79 -121q-63 -70 -164 -70q-47 0 -115 25t-104 25q-54 0 -102 -45l-78 121q26 30 70 50t95 20q47 0 114 -24.5t104 -24.5q60 0 101 44zM679 700h204v-370q0 -162 -106.5 -257.5t-299.5 -95.5t-300 95.5t-107 257.5v370h204v-354q0 -94 52 -147.5t151 -53.5
t150.5 53.5t51.5 147.5v354z" />
    <glyph glyph-name="utilde" unicode="&#x169;" horiz-adv-x="806" 
d="M595 818l79 -121q-63 -70 -164 -70q-47 0 -115 25t-104 25q-54 0 -102 -45l-78 121q26 30 70 50t95 20q47 0 114 -24.5t104 -24.5q60 0 101 44zM539 554h197v-554h-197v88q-74 -108 -228 -108q-118 0 -183 68t-65 180v326h197v-313q0 -54 30 -84t86 -30q102 0 163 99v328
z" />
    <glyph glyph-name="Umacron" unicode="&#x16a;" horiz-adv-x="953" 
d="M245 927h465v-133h-465v133zM679 700h204v-370q0 -162 -106.5 -257.5t-299.5 -95.5t-300 95.5t-107 257.5v370h204v-354q0 -94 52 -147.5t151 -53.5t150.5 53.5t51.5 147.5v354z" />
    <glyph glyph-name="umacron" unicode="&#x16b;" horiz-adv-x="806" 
d="M160 781h465v-133h-465v133zM539 554h197v-554h-197v88q-74 -108 -228 -108q-118 0 -183 68t-65 180v326h197v-313q0 -54 30 -84t86 -30q102 0 163 99v328z" />
    <glyph glyph-name="Ubreve" unicode="&#x16c;" horiz-adv-x="953" 
d="M679 948q0 -27 -10.5 -55.5t-32.5 -56.5t-63 -46t-95 -18t-95.5 18t-63.5 46t-32.5 56.5t-10.5 55.5h118q3 -29 25 -49.5t59 -20.5q36 0 58 21t24 49h119zM679 700h204v-370q0 -162 -106.5 -257.5t-299.5 -95.5t-300 95.5t-107 257.5v370h204v-354q0 -94 52 -147.5
t151 -53.5t150.5 53.5t51.5 147.5v354z" />
    <glyph glyph-name="ubreve" unicode="&#x16d;" horiz-adv-x="806" 
d="M594 802q0 -27 -10.5 -55.5t-32.5 -56.5t-63 -46t-95 -18t-95.5 18t-63.5 46t-32.5 56.5t-10.5 55.5h118q3 -29 25 -49.5t59 -20.5q35 0 57.5 21t24.5 49h119zM539 554h197v-554h-197v88q-74 -108 -228 -108q-118 0 -183 68t-65 180v326h197v-313q0 -54 30 -84t86 -30
q102 0 163 99v328z" />
    <glyph glyph-name="Uring" unicode="&#x16e;" horiz-adv-x="953" 
d="M477 769q-74 0 -118.5 31.5t-44.5 88.5q0 58 44.5 90t118.5 32t118.5 -32.5t44.5 -89.5t-44.5 -88.5t-118.5 -31.5zM422 889q0 -23 15 -36.5t40 -13.5t40 13.5t15 36.5t-15 36.5t-40 13.5t-40 -13.5t-15 -36.5zM679 700h204v-370q0 -162 -106.5 -257.5t-299.5 -95.5
t-300 95.5t-107 257.5v370h204v-354q0 -94 52 -147.5t151 -53.5t150.5 53.5t51.5 147.5v354z" />
    <glyph glyph-name="uring" unicode="&#x16f;" horiz-adv-x="806" 
d="M392 623q-74 0 -118.5 31.5t-44.5 88.5q0 58 44.5 90t118.5 32t118.5 -32.5t44.5 -89.5t-44.5 -88.5t-118.5 -31.5zM337 743q0 -23 15 -36.5t40 -13.5t40 13.5t15 36.5t-15 36.5t-40 13.5t-40 -13.5t-15 -36.5zM539 554h197v-554h-197v88q-74 -108 -228 -108
q-118 0 -183 68t-65 180v326h197v-313q0 -54 30 -84t86 -30q102 0 163 99v328z" />
    <glyph glyph-name="Uhungarumlaut" unicode="&#x170;" horiz-adv-x="953" 
d="M572 948l-165 -168h-172l164 168h173zM813 948l-165 -168h-172l165 168h172zM679 700h204v-370q0 -162 -106.5 -257.5t-299.5 -95.5t-300 95.5t-107 257.5v370h204v-354q0 -94 52 -147.5t151 -53.5t150.5 53.5t51.5 147.5v354z" />
    <glyph glyph-name="uhungarumlaut" unicode="&#x171;" horiz-adv-x="806" 
d="M487 802l-165 -168h-172l164 168h173zM728 802l-165 -168h-172l165 168h172zM539 554h197v-554h-197v88q-74 -108 -228 -108q-118 0 -183 68t-65 180v326h197v-313q0 -54 30 -84t86 -30q102 0 163 99v328z" />
    <glyph glyph-name="Uogonek" unicode="&#x172;" horiz-adv-x="953" 
d="M679 700h204v-370q0 -123 -62 -208.5t-178 -121.5h1q-45 -17 -78.5 -50.5t-33.5 -70.5q0 -26 19 -42t48 -16q41 0 68 27l32 -40q-45 -61 -141 -61q-66 0 -113 31t-47 88q0 70 65 111q-187 4 -290 99t-103 254v370h204v-354q0 -94 52 -147.5t151 -53.5t150.5 53.5
t51.5 147.5v354z" />
    <glyph glyph-name="uogonek" unicode="&#x173;" horiz-adv-x="806" 
d="M743 -152l32 -40q-45 -61 -141 -61q-66 0 -113 31t-47 88q0 44 29.5 80.5t85.5 53.5h-50v88q-74 -108 -228 -108q-118 0 -183 68t-65 180v326h197v-313q0 -54 30 -84t86 -30q102 0 163 99v328h197v-554h-16q-45 -17 -78.5 -50.5t-33.5 -70.5q0 -26 19 -42t48 -16
q41 0 68 27z" />
    <glyph glyph-name="Wcircumflex" unicode="&#x174;" horiz-adv-x="1260" 
d="M378 780h172l80 89l81 -89h174l-150 168h-206zM1046 700h205l-255 -700h-203l-163 487l-164 -487h-201l-256 700h209l153 -481l167 481h188l167 -481z" />
    <glyph glyph-name="wcircumflex" unicode="&#x175;" horiz-adv-x="1047" 
d="M272 634h172l80 89l81 -89h174l-150 168h-206zM848 554h187l-197 -554h-188l-126 368l-127 -368h-189l-196 554h190l115 -354l121 354h174l121 -354z" />
    <glyph glyph-name="Ycircumflex" unicode="&#x176;" horiz-adv-x="854" 
d="M174 780h172l80 89l81 -89h174l-150 168h-206zM-4 700h228l204 -302l203 302h227l-329 -464v-236h-204v236z" />
    <glyph glyph-name="ycircumflex" unicode="&#x177;" horiz-adv-x="741" 
d="M119 634h172l80 89l81 -89h174l-150 168h-206zM538 554h200l-388 -754h-199l126 231l-274 523h203l169 -344z" />
    <glyph glyph-name="Ydieresis" unicode="&#x178;" horiz-adv-x="854" 
d="M287 779q-41 0 -67.5 22t-26.5 58t26 57.5t68 21.5q41 0 67.5 -21.5t26.5 -57.5t-26.5 -58t-67.5 -22zM568 779q-42 0 -68 22t-26 58t26 57.5t68 21.5q41 0 67.5 -21.5t26.5 -57.5t-26.5 -58t-67.5 -22zM-4 700h228l204 -302l203 302h227l-329 -464v-236h-204v236z" />
    <glyph glyph-name="Zacute" unicode="&#x179;" horiz-adv-x="873" 
d="M714 948l-237 -168h-145l137 168h245zM817 700v-128l-481 -415h497v-157h-795v128l482 415h-464v157h761z" />
    <glyph glyph-name="zacute" unicode="&#x17a;" horiz-adv-x="709" 
d="M627 802l-237 -168h-145l137 168h245zM658 554v-117l-351 -294h363v-144h-634v118l351 294h-337v143h608z" />
    <glyph glyph-name="Zdotaccent" unicode="&#x17b;" horiz-adv-x="873" 
d="M447 779q-41 0 -66.5 21t-25.5 56q0 36 25.5 57t66.5 21t66.5 -21t25.5 -57q0 -35 -25.5 -56t-66.5 -21zM817 700v-128l-481 -415h497v-157h-795v128l482 415h-464v157h761z" />
    <glyph glyph-name="zdotaccent" unicode="&#x17c;" horiz-adv-x="709" 
d="M360 633q-41 0 -66.5 21t-25.5 56q0 36 25.5 57t66.5 21t66.5 -21t25.5 -57q0 -35 -25.5 -56t-66.5 -21zM658 554v-117l-351 -294h363v-144h-634v118l351 294h-337v143h608z" />
    <glyph glyph-name="Zcaron" unicode="&#x17d;" horiz-adv-x="873" 
d="M194 948l151 -168h206l150 168h-172l-81 -89l-81 89h-173zM817 700v-128l-481 -415h497v-157h-795v128l482 415h-464v157h761z" />
    <glyph glyph-name="zcaron" unicode="&#x17e;" horiz-adv-x="709" 
d="M107 802l151 -168h206l150 168h-172l-81 -89l-81 89h-173zM658 554v-117l-351 -294h363v-144h-634v118l351 294h-337v143h608z" />
    <glyph glyph-name="florin" unicode="&#x192;" horiz-adv-x="709" 
d="M569 582q-37 0 -60 -19t-27 -55l-10 -96h161l-11 -108h-161l-14 -137q-10 -88 -72.5 -139.5t-151.5 -51.5q-101 0 -175 39l41 121q34 -18 84 -18q77 0 86 74l11 112h-161l11 108h162l12 121q9 88 71.5 139.5t152.5 51.5q102 0 175 -39l-42 -121q-31 18 -82 18z" />
    <glyph glyph-name="Aringacute" unicode="&#x1fa;" 
d="M470 769q-74 0 -118.5 31.5t-44.5 88.5q0 47 29 76l96 130h190l-112 -87q57 -8 90 -39t33 -80q0 -57 -44.5 -88.5t-118.5 -31.5zM525 889q0 23 -15 36.5t-40 13.5t-40 -13.5t-15 -36.5t15 -36.5t40 -13.5t40 13.5t15 36.5zM726 0l-66 134h-384l-66 -134h-214l362 700h223
l362 -700h-217zM346 279h243l-121 248z" />
    <glyph glyph-name="aringacute" unicode="&#x1fb;" horiz-adv-x="772" 
d="M389 623q-74 0 -118.5 31.5t-44.5 88.5q0 38 22 68l-6 2l101 136h190l-111 -86q60 -7 95 -38t35 -82q0 -57 -44.5 -88.5t-118.5 -31.5zM444 743q0 23 -15 36.5t-40 13.5t-40 -13.5t-15 -36.5t15 -36.5t40 -13.5t40 13.5t15 36.5zM706 105q0 -60 24 -105h-200
q-19 29 -19 57v1q-33 -35 -90 -56.5t-127 -21.5q-47 0 -91.5 10t-85 30.5t-65 58.5t-24.5 89t24.5 89t65 58.5t85 30.5t91.5 10q143 0 217 -79v36q0 124 -183 124q-113 0 -199 -43l-45 125q55 26 133 41.5t152 15.5q159 0 248 -69t89 -196v-206zM515 163v11q-48 67 -165 67
q-52 0 -91.5 -16.5t-39.5 -56.5t39.5 -56.5t91.5 -16.5q117 0 165 68z" />
    <glyph glyph-name="AEacute" unicode="&#x1fc;" horiz-adv-x="1448" 
d="M1191 948l-237 -168h-145l137 168h245zM861 156h546v-156h-747v141h-331l-115 -141h-231l598 700h98h717v-156h-535v-115h441v-149h-441v-124zM443 279h217v263z" />
    <glyph glyph-name="aeacute" unicode="&#x1fd;" horiz-adv-x="1242" 
d="M879 802l-237 -168h-145l137 168h245zM696 236q11 -64 59 -91t137 -27q67 0 110.5 13t85.5 46l100 -102q-112 -98 -307 -98q-207 0 -302 109q-44 -52 -123.5 -79t-158.5 -27q-48 0 -93 10t-86 30.5t-65.5 58.5t-24.5 89t24.5 89t65 58.5t85 30.5t91.5 10q147 0 218 -84
v41q0 124 -184 124q-116 0 -204 -44l-40 126q119 57 285 57q160 0 245 -73q92 74 253 74q153 0 247.5 -77t94.5 -218q0 -24 -6 -46h-507zM868 438q-136 0 -166 -97l326 1q-31 96 -160 96zM516 163v11q-49 67 -166 67q-23 0 -44 -3.5t-41.5 -11t-33 -22.5t-12.5 -36t12.5 -36
t33 -22.5t41.5 -11t44 -3.5q117 0 166 68z" />
    <glyph glyph-name="Oslashacute" unicode="&#x1fe;" horiz-adv-x="997" 
d="M765 948l-237 -168h-145l137 168h245zM792 652q163 -100 163 -302q0 -176 -123.5 -274.5t-333.5 -98.5q-105 0 -191 26l-75 -100h-136l108 145q-162 99 -162 302q0 176 123 274.5t333 98.5q105 0 192 -26l75 100h136zM249 350q0 -97 67 -153l263 352q-38 8 -81 8
q-116 0 -182.5 -54.5t-66.5 -152.5zM498 143q116 0 182.5 54.5t66.5 152.5t-66 153l-264 -352q40 -8 81 -8z" />
    <glyph glyph-name="oslashacute" unicode="&#x1ff;" horiz-adv-x="799" 
d="M659 802l-237 -168h-145l137 168h245zM611 531q73 -37 112 -102.5t39 -151.5q0 -139 -97.5 -219.5t-264.5 -80.5q-74 0 -137 17l-58 -91h-107l81 125q-142 79 -142 249q0 139 97.5 219t265.5 80q71 0 124 -13l58 88h106zM226 277q0 -68 45 -107l163 253q-22 2 -34 2
q-78 0 -126 -38.5t-48 -109.5zM400 129q78 0 126 38.5t48 109.5q0 74 -54 114l-167 -258q20 -4 47 -4z" />
    <glyph glyph-name="Scommaaccent" unicode="&#x218;" horiz-adv-x="886" 
d="M462 444q74 -6 129.5 -15t106.5 -26t83.5 -40.5t52 -60t19.5 -83.5q0 -111 -100.5 -176.5t-286.5 -65.5q-270 0 -441 137l107 126q129 -109 338 -109q180 0 180 68q0 33 -44 48t-156 24q-86 7 -151 20.5t-124 37.5t-90.5 65t-31.5 97q0 110 106.5 171t277.5 61
q237 0 384 -104l-103 -127q-108 76 -281 78q-74 0 -127.5 -14.5t-53.5 -48.5q0 -32 46 -43t156 -20h4zM460 -52q54 0 87 -36.5t33 -89.5q0 -61 -40.5 -129.5t-115.5 -112.5l-40 56q80 59 97 120q-6 -7 -28 -7q-44 0 -74.5 28.5t-30.5 71.5q0 42 32 70.5t80 28.5z" />
    <glyph glyph-name="scommaaccent" unicode="&#x219;" horiz-adv-x="722" 
d="M383 357q92 -5 159.5 -24.5t109.5 -59.5t42 -99q0 -86 -82.5 -141.5t-237.5 -55.5q-106 0 -197 28.5t-153 74.5l86 107q104 -76 270 -76q130 0 130 45q0 23 -35 34t-115 16q-314 22 -314 181q0 86 84.5 138t236.5 52q177 0 303 -76l-84 -112q-91 55 -224 55
q-132 0 -132 -43q0 -23 36 -31.5t117 -12.5zM367 -52q54 0 87 -36.5t33 -89.5q0 -61 -40.5 -129.5t-115.5 -112.5l-40 56q80 59 97 120q-6 -7 -28 -7q-44 0 -74.5 28.5t-30.5 71.5q0 42 32 70.5t80 28.5z" />
    <glyph glyph-name="uni021B" unicode="&#x21b;" horiz-adv-x="552" 
d="M533 33q-37 -25 -90.5 -39.5t-104.5 -14.5q-98 0 -159.5 53t-61.5 150v233h-98v139h98v129h197v-129h213v-139h-213v-200q0 -37 25 -58t65 -21q41 0 96 26zM325 -52q54 0 87 -36.5t33 -89.5q0 -61 -40.5 -129.5t-115.5 -112.5l-40 56q80 59 97 120q-6 -7 -28 -7
q-44 0 -74.5 28.5t-30.5 71.5q0 42 32 70.5t80 28.5z" />
    <glyph glyph-name="uni0237" unicode="&#x237;" horiz-adv-x="338" 
d="M69 554h198v-555q0 -102 -60.5 -161t-162.5 -59q-68 0 -137 24l31 126q31 -11 59 -11q32 0 52 19.5t20 55.5v561z" />
    <glyph glyph-name="circumflex" unicode="&#x2c6;" horiz-adv-x="599" 
d="M46 780h172l80 89l81 -89h174l-150 168h-206z" />
    <glyph glyph-name="caron" unicode="&#x2c7;" horiz-adv-x="599" 
d="M46 948l151 -168h206l150 168h-172l-81 -89l-81 89h-173z" />
    <glyph glyph-name="breve" unicode="&#x2d8;" horiz-adv-x="599" 
d="M507 948q0 -27 -10.5 -55.5t-32.5 -56.5t-63 -46t-95 -18t-95.5 18t-63.5 46t-32.5 56.5t-10.5 55.5h118q3 -29 25 -49.5t59 -20.5q36 0 58 21t24 49h119z" />
    <glyph glyph-name="dotaccent" unicode="&#x2d9;" horiz-adv-x="599" 
d="M300 779q-41 0 -66.5 21t-25.5 56q0 36 25.5 57t66.5 21t66.5 -21t25.5 -57q0 -35 -25.5 -56t-66.5 -21z" />
    <glyph glyph-name="ring" unicode="&#x2da;" horiz-adv-x="599" 
d="M306 769q-74 0 -118.5 31.5t-44.5 88.5q0 58 44.5 90t118.5 32t118.5 -32.5t44.5 -89.5t-44.5 -88.5t-118.5 -31.5zM251 889q0 -23 15 -36.5t40 -13.5t40 13.5t15 36.5t-15 36.5t-40 13.5t-40 -13.5t-15 -36.5z" />
    <glyph glyph-name="ogonek" unicode="&#x2db;" horiz-adv-x="599" 
d="M402 -192q-45 -61 -141 -61q-66 0 -113 31t-47 88q0 52 40 91.5t114 51.5l92 -9q-45 -17 -78.5 -50.5t-33.5 -70.5q0 -26 19 -42t48 -16q41 0 68 27z" />
    <glyph glyph-name="tilde" unicode="&#x2dc;" horiz-adv-x="599" 
d="M502 964l79 -121q-63 -70 -164 -70q-47 0 -115 25t-104 25q-54 0 -102 -45l-78 121q26 30 70 50t95 20q47 0 114 -24.5t104 -24.5q60 0 101 44z" />
    <glyph glyph-name="hungarumlaut" unicode="&#x2dd;" horiz-adv-x="599" 
d="M348 948l-165 -168h-172l164 168h173zM589 948l-165 -168h-172l165 168h172z" />
    <glyph glyph-name="uni0326" unicode="&#x326;" horiz-adv-x="0" 
d="M-318 -52q54 0 87 -36.5t33 -89.5q0 -61 -40 -129.5t-115 -112.5l-40 55q79 60 97 121q-8 -8 -28 -8q-44 0 -75 28.5t-31 71.5q0 42 32 71t80 29z" />
    <glyph glyph-name="uni0394" unicode="&#x394;" horiz-adv-x="904" 
d="M451 721l458 -721h-184h-575h-154zM257 134h388l-194 324z" />
    <glyph glyph-name="uni03A9" unicode="&#x3a9;" horiz-adv-x="1012" 
d="M963 388q0 -152 -140 -243h118v-145h-357v145q79 24 125 77.5t46 130.5q0 95 -67 150t-182 55t-182 -55.5t-67 -149.5q0 -77 46 -130.5t125 -77.5v-145h-357v145h118q-140 91 -140 243q0 150 125 242.5t332 92.5t332 -92.5t125 -242.5z" />
    <glyph glyph-name="uni03BC" unicode="&#x3bc;" horiz-adv-x="799" 
d="M532 554h197v-554h-197v98q-33 -46 -91.5 -73t-130.5 -27q-22 0 -43 3v-201h-197v440v6v308h197v-311q0 -55 29 -85t83 -30q93 0 153 99v327z" />
    <glyph glyph-name="pi" unicode="&#x3c0;" horiz-adv-x="969" 
d="M936 408h-174v-193q0 -38 20 -60.5t59 -22.5q22 0 46 8l28 -134q-58 -26 -125 -26q-90 0 -154 53t-64 146v229h-192v-408h-189v408h-173v146h362h382h174v-146z" />
    <glyph glyph-name="Wgrave" unicode="&#x1e80;" horiz-adv-x="1260" 
d="M365 948h245l137 -168h-145zM1046 700h205l-255 -700h-203l-163 487l-164 -487h-201l-256 700h209l153 -481l167 481h188l167 -481z" />
    <glyph glyph-name="wgrave" unicode="&#x1e81;" horiz-adv-x="1047" 
d="M259 802h245l137 -168h-145zM848 554h187l-197 -554h-188l-126 368l-127 -368h-189l-196 554h190l115 -354l121 354h174l121 -354z" />
    <glyph glyph-name="Wacute" unicode="&#x1e82;" horiz-adv-x="1260" 
d="M898 948l-237 -168h-145l137 168h245zM1046 700h205l-255 -700h-203l-163 487l-164 -487h-201l-256 700h209l153 -481l167 481h188l167 -481z" />
    <glyph glyph-name="wacute" unicode="&#x1e83;" horiz-adv-x="1047" 
d="M792 802l-237 -168h-145l137 168h245zM848 554h187l-197 -554h-188l-126 368l-127 -368h-189l-196 554h190l115 -354l121 354h174l121 -354z" />
    <glyph glyph-name="Wdieresis" unicode="&#x1e84;" horiz-adv-x="1260" 
d="M491 779q-41 0 -67.5 22t-26.5 58t26 57.5t68 21.5q41 0 67.5 -21.5t26.5 -57.5t-26.5 -58t-67.5 -22zM772 779q-42 0 -68 22t-26 58t26 57.5t68 21.5q41 0 67.5 -21.5t26.5 -57.5t-26.5 -58t-67.5 -22zM1046 700h205l-255 -700h-203l-163 487l-164 -487h-201l-256 700
h209l153 -481l167 481h188l167 -481z" />
    <glyph glyph-name="wdieresis" unicode="&#x1e85;" horiz-adv-x="1047" 
d="M385 633q-41 0 -67.5 22t-26.5 58t26 57.5t68 21.5q41 0 67.5 -21.5t26.5 -57.5t-26.5 -58t-67.5 -22zM666 633q-42 0 -68 22t-26 58t26 57.5t68 21.5q41 0 67.5 -21.5t26.5 -57.5t-26.5 -58t-67.5 -22zM848 554h187l-197 -554h-188l-126 368l-127 -368h-189l-196 554
h190l115 -354l121 354h174l121 -354z" />
    <glyph glyph-name="Ygrave" unicode="&#x1ef2;" horiz-adv-x="854" 
d="M161 948h245l137 -168h-145zM-4 700h228l204 -302l203 302h227l-329 -464v-236h-204v236z" />
    <glyph glyph-name="ygrave" unicode="&#x1ef3;" horiz-adv-x="741" 
d="M106 802h245l137 -168h-145zM538 554h200l-388 -754h-199l126 231l-274 523h203l169 -344z" />
    <glyph glyph-name="endash" unicode="&#x2013;" horiz-adv-x="797" 
d="M732 226h-667v155h667v-155z" />
    <glyph glyph-name="emdash" unicode="&#x2014;" horiz-adv-x="1007" 
d="M942 226h-877v155h877v-155z" />
    <glyph glyph-name="quoteleft" unicode="&#x2018;" horiz-adv-x="323" 
d="M165 363q-54 0 -87 36.5t-33 89.5q0 61 40.5 129.5t115.5 112.5l40 -56q-80 -59 -97 -120q6 7 28 7q44 0 74.5 -28.5t30.5 -71.5q0 -42 -32 -70.5t-80 -28.5z" />
    <glyph glyph-name="quoteright" unicode="&#x2019;" horiz-adv-x="323" 
d="M158 717q54 0 87 -36.5t33 -89.5q0 -61 -40.5 -129.5t-115.5 -112.5l-40 56q80 59 97 120q-6 -7 -28 -7q-44 0 -74.5 28.5t-30.5 71.5q0 42 32 70.5t80 28.5z" />
    <glyph glyph-name="quotesinglbase" unicode="&#x201a;" horiz-adv-x="323" 
d="M158 186q54 0 87 -36.5t33 -89.5q0 -61 -40.5 -129.5t-115.5 -112.5l-40 56q80 59 97 120q-6 -7 -28 -7q-44 0 -74.5 28.5t-30.5 71.5q0 42 32 70.5t80 28.5z" />
    <glyph glyph-name="quotedblleft" unicode="&#x201c;" horiz-adv-x="586" 
d="M166 362q-54 0 -87 36.5t-33 89.5q0 61 40 129.5t115 112.5l40 -56q-79 -58 -97 -120q7 7 28 7q45 0 75.5 -28.5t30.5 -71.5q0 -42 -32 -70.5t-80 -28.5zM428 362q-54 0 -87 36.5t-33 89.5q0 61 40.5 129.5t115.5 112.5l39 -56q-79 -58 -97 -120q8 8 28 8q44 0 75 -28.5
t31 -71.5q0 -42 -32 -71t-80 -29z" />
    <glyph glyph-name="quotedblright" unicode="&#x201d;" horiz-adv-x="586" 
d="M158 717q54 0 87 -36.5t33 -88.5q0 -62 -40.5 -130.5t-115.5 -112.5l-40 56q81 61 97 120q-6 -7 -28 -7q-44 0 -74.5 28.5t-30.5 71.5q0 42 32 70.5t80 28.5zM420 717q54 0 87 -36.5t33 -89.5q0 -61 -40 -129.5t-115 -112.5l-40 56q79 58 97 120q-7 -7 -28 -7
q-45 0 -75.5 28.5t-30.5 71.5q0 42 32 70.5t80 28.5z" />
    <glyph glyph-name="quotedblbase" unicode="&#x201e;" horiz-adv-x="586" 
d="M158 186q54 0 87 -36.5t33 -89.5q0 -61 -40.5 -129.5t-115.5 -112.5l-40 56q80 59 97 120q-6 -7 -28 -7q-44 0 -74.5 28.5t-30.5 71.5q0 42 32 70.5t80 28.5zM420 186q54 0 87 -36.5t33 -89.5q0 -61 -40 -129.5t-115 -112.5l-40 56q79 58 97 120q-7 -7 -28 -7
q-45 0 -75.5 28.5t-30.5 71.5q0 42 32 70.5t80 28.5z" />
    <glyph glyph-name="dagger" unicode="&#x2020;" horiz-adv-x="448" 
d="M391 625v-112h-105v-196h-125v196h-105v112h105v115h125v-115h105z" />
    <glyph glyph-name="daggerdbl" unicode="&#x2021;" horiz-adv-x="448" 
d="M391 561h-108v-65h108v-93h-108v-86h-119v86h-108v93h108v65h-108v93h108v86h119v-86h108v-93z" />
    <glyph glyph-name="bullet" unicode="&#x2022;" horiz-adv-x="434" 
d="M217 141q-68 0 -111.5 41t-43.5 102q0 62 43.5 102.5t111.5 40.5t111.5 -40.5t43.5 -102.5q0 -61 -43.5 -102t-111.5 -41z" />
    <glyph glyph-name="ellipsis" unicode="&#x2026;" horiz-adv-x="947" 
d="M160 -13q-51 0 -83 28t-32 71t32.5 71.5t82.5 28.5t82 -29t32 -71q0 -43 -32 -71t-82 -28zM474 -13q-51 0 -83 28t-32 71t32.5 71.5t82.5 28.5t82 -29t32 -71q0 -43 -32 -71t-82 -28zM788 -13q-51 0 -83 28t-32 71t32.5 71.5t82.5 28.5t82 -29t32 -71q0 -43 -32 -71
t-82 -28z" />
    <glyph glyph-name="perthousand" unicode="&#x2030;" horiz-adv-x="1336" 
d="M218 373q-84 0 -139 49.5t-55 122.5t55 122.5t139 49.5t138.5 -49.5t54.5 -122.5t-54.5 -122.5t-138.5 -49.5zM665 700h134l-545 -700h-135zM218 472q36 0 58 19t22 54q0 34 -22 53t-58 19t-58 -19t-22 -53q0 -35 22 -54t58 -19zM700 -17q-84 0 -138.5 49.5t-54.5 122.5
q0 74 54.5 123t138.5 49t138.5 -49t54.5 -123q0 -73 -54.5 -122.5t-138.5 -49.5zM1119 -17q-84 0 -139 49.5t-55 122.5q0 74 55 123t139 49t138.5 -49t54.5 -123q0 -73 -54.5 -122.5t-138.5 -49.5zM700 83q36 0 58 19t22 53q0 35 -22 54t-58 19t-58 -19t-22 -54
q0 -34 22 -53t58 -19zM1119 83q36 0 58 19t22 53q0 35 -22 54t-58 19t-58 -19t-22 -54q0 -34 22 -53t58 -19z" />
    <glyph glyph-name="minute" unicode="&#x2032;" horiz-adv-x="330" 
d="M135 700h171l-97 -295h-170z" />
    <glyph glyph-name="second" unicode="&#x2033;" horiz-adv-x="577" 
d="M135 700h171l-97 -295h-170zM382 700h170l-96 -295h-170z" />
    <glyph glyph-name="guilsinglleft" unicode="&#x2039;" horiz-adv-x="465" 
d="M240 528l-211 -224l211 -224h184l-211 224l211 224h-184z" />
    <glyph glyph-name="guilsinglright" unicode="&#x203a;" horiz-adv-x="465" 
d="M225 528h-184l211 -224l-211 -224h184l211 224z" />
    <glyph glyph-name="uni203D" unicode="&#x203d;" horiz-adv-x="764" 
d="M381 721q88 0 163 -21.5t127.5 -71t52.5 -120.5q0 -87 -73.5 -135.5t-194.5 -56.5v-80h-156v171v137h156v-106q60 22 60 65q0 70 -141 70q-146 0 -245 -105l-105 109q144 144 356 144zM377 186q50 0 82 -29t32 -71q0 -43 -32 -71t-82 -28q-51 0 -83 28t-32 71t32.5 71.5
t82.5 28.5z" />
    <glyph glyph-name="fraction" unicode="&#x2044;" horiz-adv-x="275" 
d="M-24 0h-138l458 700h138z" />
    <glyph glyph-name="uni2070" unicode="&#x2070;" horiz-adv-x="558" 
d="M279 444q-115 0 -182 58.5t-67 162.5q0 105 67 163.5t182 58.5q116 0 183 -58.5t67 -163.5q0 -104 -67 -162.5t-183 -58.5zM279 545q57 0 89 31.5t32 88.5t-32 88t-89 31t-89.5 -31t-32.5 -88t32.5 -88.5t89.5 -31.5z" />
    <glyph glyph-name="uni2074" unicode="&#x2074;" horiz-adv-x="521" 
d="M499 628v-89h-74v-82h-122v82h-289v69l298 265h113v-245h74zM164 628h138v124z" />
    <glyph glyph-name="uni2075" unicode="&#x2075;" horiz-adv-x="492" 
d="M78 594q66 -52 168 -52q94 0 94 51t-94 51q-67 0 -120 -26l-88 32l36 223h354v-92h-261l-14 -87q58 39 139 39q73 0 124.5 -36.5t51.5 -104.5q0 -66 -53.5 -107t-165.5 -41q-130 0 -229 74z" />
    <glyph glyph-name="uni2076" unicode="&#x2076;" horiz-adv-x="524" 
d="M300 733q36 0 69.5 -7.5t63 -22.5t47.5 -43t18 -65q0 -67 -58 -109t-163 -42q-114 0 -180.5 59t-66.5 162t66.5 162.5t180.5 59.5q137 0 211 -69l-65 -68q-53 47 -131 47q-124 0 -134 -110q54 46 142 46zM277 534q94 0 94 57q0 59 -94 59q-67 0 -115 -36q20 -80 115 -80z
" />
    <glyph glyph-name="uni2077" unicode="&#x2077;" horiz-adv-x="451" 
d="M85 457l201 318h-270v98h421v-76l-211 -340h-141z" />
    <glyph glyph-name="uni2078" unicode="&#x2078;" horiz-adv-x="522" 
d="M381 676q50 -9 81 -34.5t31 -69.5q0 -59 -64 -93.5t-168 -34.5t-168 34.5t-64 93.5q0 84 111 104q-45 4 -70.5 31t-25.5 65q0 56 62.5 85.5t154.5 29.5t154.5 -29.5t62.5 -85.5q0 -38 -26 -65t-71 -31zM171 756q0 -45 91 -45q88 0 88 45q0 23 -25.5 34.5t-62.5 11.5
q-39 0 -65 -11.5t-26 -34.5zM260 528q43 0 72 14.5t29 40.5q0 28 -28.5 41t-72.5 13q-100 0 -100 -54q0 -27 28.5 -41t71.5 -14z" />
    <glyph glyph-name="uni2079" unicode="&#x2079;" horiz-adv-x="524" 
d="M245 886q114 0 180.5 -59t66.5 -162t-66.5 -162.5t-180.5 -59.5q-137 0 -211 69l65 68q53 -47 131 -47q124 0 134 110q-54 -46 -142 -46q-36 0 -69.5 7.5t-63 22.5t-47.5 43t-18 65q0 67 58 109t163 42zM151 739q0 -59 94 -59q67 0 115 36q-20 80 -115 80q-94 0 -94 -57z
" />
    <glyph glyph-name="uni20A8" unicode="&#x20a8;" horiz-adv-x="887" 
d="M847 586h-153q23 -32 34 -75h119v-114h-120q-29 -121 -170 -168l199 -229h-205l-174 207h-319v115h339q125 0 156 75h-495v114h495q-33 75 -156 75h-339v114h789v-114z" />
    <glyph glyph-name="Euro" unicode="&#x20ac;" horiz-adv-x="905" 
d="M522 127q133 0 193 111l154 -79q-39 -79 -129.5 -131t-213.5 -52q-156 0 -259 72t-132 202h-101v67h91q-1 11 -1 33t1 33h-91v67h101q29 130 132 202t259 72q123 0 213.5 -52t129.5 -131l-154 -79q-60 111 -193 111q-71 0 -121 -32.5t-73 -90.5h283v-67h-299
q-2 -22 -2 -33t2 -33h299v-67h-283q23 -58 73 -90.5t121 -32.5z" />
    <glyph glyph-name="uni2113" unicode="&#x2113;" horiz-adv-x="614" 
d="M375 109q56 0 100 72l93 -86q-30 -56 -85 -85.5t-122 -29.5q-85 0 -147 47t-68 141q-9 -3 -26.5 -9.5t-31.5 -11.5t-26 -9l-36 102l120 47v269q0 102 63.5 153t151.5 51q89 0 152.5 -51.5t63.5 -154.5q0 -96 -60.5 -172.5t-189.5 -138.5q-4 -2 -8.5 -4t-10 -4.5
t-8.5 -3.5v-38q0 -42 21.5 -63t53.5 -21zM300 547v-193l7 3q116 63 116 190q0 84 -62 84q-61 0 -61 -84z" />
    <glyph glyph-name="uni2117" unicode="&#x2117;" horiz-adv-x="989" 
d="M495 723q205 0 328.5 -102.5t123.5 -270.5t-123.5 -270.5t-328.5 -102.5q-206 0 -329.5 102.5t-123.5 270.5t123.5 270.5t329.5 102.5zM495 25q180 0 290 86t110 239t-110 239.5t-290 86.5t-291 -86.5t-111 -239.5t111 -239t291 -86zM576 593q103 0 169 -44t66 -127
q0 -84 -66 -128t-169 -44h-172v-142h-156v485h328zM561 351q92 0 92 67t-92 67h-157v-134h157z" />
    <glyph glyph-name="trademark" unicode="&#x2122;" horiz-adv-x="971" 
d="M402 700v-88h-128v-254h-110v254h-128v88h366zM784 700h112v-342h-106v206l-119 -159h-3l-117 159v-206h-107v342h114l112 -155z" />
    <glyph glyph-name="estimated" unicode="&#x212e;" horiz-adv-x="950" 
d="M478 79q201 0 311 114l75 -79q-138 -138 -386 -138q-195 0 -315.5 100t-120.5 274t120.5 274t315.5 100q199 0 317.5 -107t119.5 -306h-117h-516v-189q77 -43 196 -43zM671 577q-75 45 -193 45q-116 0 -196 -43v-171h389v169z" />
    <glyph glyph-name="oneeighth" unicode="&#x215b;" horiz-adv-x="1110" 
d="M136 284v286q-42 -28 -117 -40v98q83 13 148 72h95v-416h-126zM304 0h-138l457 700h138zM969 219q50 -9 81 -34.5t31 -69.5q0 -59 -64 -93.5t-168 -34.5q-103 0 -167.5 34.5t-64.5 93.5q0 44 31 69.5t80 34.5q-44 4 -70 31t-26 65q0 56 62.5 85.5t154.5 29.5t154.5 -29.5
t62.5 -85.5q0 -38 -26 -65t-71 -31zM760 299q0 -45 90 -45q89 0 89 45q0 23 -25.5 34.5t-63.5 11.5q-39 0 -64.5 -11.5t-25.5 -34.5zM849 71q43 0 72 14.5t29 40.5q0 27 -28.5 40.5t-72.5 13.5t-72.5 -13t-28.5 -41q0 -26 29 -40.5t72 -14.5z" />
    <glyph glyph-name="threeeighths" unicode="&#x215c;" horiz-adv-x="1263" 
d="M97 423q55 -58 134 -58q39 0 67 12t28 38q0 44 -95 44h-64v81h64q83 0 83 40t-86 40q-72 0 -126 -55l-76 54q31 44 87.5 69t124.5 25q85 0 145 -29.5t60 -85.5q0 -37 -25.5 -64.5t-68.5 -32.5q110 -19 110 -100q0 -61 -62 -95t-159 -34q-70 0 -128 26.5t-91 72.5zM460 0
h-138l457 700h138zM1123 219q111 -20 111 -104q0 -59 -63.5 -93.5t-167.5 -34.5t-168 34.5t-64 93.5q0 44 30.5 69.5t79.5 34.5q-44 4 -69.5 31t-25.5 65q0 56 62.5 85.5t154.5 29.5t154 -29.5t62 -85.5q0 -38 -25.5 -65t-70.5 -31zM913 299q0 -45 90 -45q89 0 89 45
q0 23 -25.5 34.5t-63.5 11.5t-64 -11.5t-26 -34.5zM1002 71q43 0 72 14.5t29 40.5q0 28 -28.5 41t-72.5 13q-100 0 -100 -54q0 -26 28.5 -40.5t71.5 -14.5z" />
    <glyph glyph-name="fiveeighths" unicode="&#x215d;" horiz-adv-x="1267" 
d="M78 421q68 -52 168 -52q94 0 94 51q0 52 -94 52q-67 0 -120 -27l-88 33l36 222h354v-92h-261l-14 -87q58 39 139 39q73 0 124.5 -36t51.5 -104q0 -66 -53.5 -107.5t-165.5 -41.5q-130 0 -229 74zM464 0h-138l457 700h138zM1126 219q50 -9 81 -34.5t31 -69.5
q0 -59 -64 -93.5t-167 -34.5q-104 0 -168 34.5t-64 93.5q0 44 30.5 69.5t79.5 34.5q-44 4 -69.5 31t-25.5 65q0 56 62.5 85.5t154.5 29.5t154 -29.5t62 -85.5q0 -38 -26 -65t-71 -31zM917 299q0 -45 90 -45q89 0 89 45q0 23 -25.5 34.5t-63.5 11.5t-64 -11.5t-26 -34.5z
M1006 71q43 0 72 14.5t29 40.5q0 28 -28.5 41t-72.5 13t-72.5 -13t-28.5 -41q0 -26 29 -40.5t72 -14.5z" />
    <glyph glyph-name="seveneighths" unicode="&#x215e;" horiz-adv-x="1132" 
d="M85 284l201 318h-270v98h421v-76l-211 -340h-141zM328 0h-138l457 700h138zM991 219q50 -9 81 -34.5t31 -69.5q0 -59 -64 -93.5t-168 -34.5t-168 34.5t-64 93.5q0 84 111 104q-45 4 -70.5 31t-25.5 65q0 56 62.5 85.5t154.5 29.5t154.5 -29.5t62.5 -85.5q0 -38 -26 -65
t-71 -31zM781 299q0 -45 91 -45q88 0 88 45q0 23 -25.5 34.5t-62.5 11.5q-39 0 -65 -11.5t-26 -34.5zM870 71q43 0 72 14.5t29 40.5q0 28 -28.5 41t-72.5 13q-100 0 -100 -54q0 -26 28.5 -40.5t71.5 -14.5z" />
    <glyph glyph-name="arrowleft" unicode="&#x2190;" horiz-adv-x="963" 
d="M861 426v-168h-507l188 -186l-96 -96l-365 366l365 365l96 -96l-188 -185h507z" />
    <glyph glyph-name="arrowup" unicode="&#x2191;" horiz-adv-x="963" 
d="M847 375l-96 -97l-186 189v-507h-168v506l-185 -188l-96 97l365 365z" />
    <glyph glyph-name="arrowright" unicode="&#x2192;" horiz-adv-x="963" 
d="M517 707l365 -365l-365 -366l-96 96l188 186h-507v168h507l-188 185z" />
    <glyph glyph-name="arrowdown" unicode="&#x2193;" horiz-adv-x="963" 
d="M751 422l96 -97l-366 -365l-365 365l96 97l185 -188v506h168v-507z" />
    <glyph glyph-name="uni2196" unicode="&#x2196;" horiz-adv-x="963" 
d="M810 153l-115 -115l-357 357v-264h-138v517h517v-138h-265z" />
    <glyph glyph-name="uni2197" unicode="&#x2197;" horiz-adv-x="963" 
d="M245 648h517v-517h-137v264l-357 -357l-115 115l358 357h-266v138z" />
    <glyph glyph-name="uni2198" unicode="&#x2198;" horiz-adv-x="963" 
d="M625 572h137v-517h-517v138h266l-358 358l115 114l357 -357v264z" />
    <glyph glyph-name="uni2199" unicode="&#x2199;" horiz-adv-x="963" 
d="M810 551l-358 -358h265v-138h-517v517h138v-264l357 357z" />
    <glyph glyph-name="partialdiff" unicode="&#x2202;" horiz-adv-x="800" 
d="M763 310q0 -168 -96.5 -251t-266.5 -83q-167 0 -265 72.5t-98 204.5q0 64 25 115t67 81t91.5 45.5t103.5 15.5q80 0 151.5 -24t102.5 -81q-33 81 -139.5 140t-253.5 71l26 146q147 -14 258 -60t173 -111.5t91.5 -136t29.5 -144.5zM399 121q80 0 128.5 33t48.5 99
q0 65 -49 98.5t-128 33.5q-78 0 -127 -33.5t-49 -98.5t48.5 -98.5t127.5 -33.5z" />
    <glyph glyph-name="emptyset" unicode="&#x2205;" horiz-adv-x="802" 
d="M676 553q74 -76 74 -197q0 -137 -93.5 -216t-255.5 -79q-108 0 -186 36l-84 -85l-75 73l73 71q-76 78 -76 200q0 137 93.5 216t254.5 79q110 0 191 -38l78 79l75 -72zM239 356q0 -44 17 -76l124 120l93 94q-33 11 -72 11q-75 0 -118.5 -39t-43.5 -110zM401 207
q75 0 118.5 39t43.5 110q0 40 -16 72l-102 -99l-111 -112q33 -10 67 -10z" />
    <glyph glyph-name="product" unicode="&#x220f;" horiz-adv-x="854" 
d="M772 700v-820h-183v666h-323v-666h-184v820h690z" />
    <glyph glyph-name="summation" unicode="&#x2211;" horiz-adv-x="735" 
d="M686 551h-372l283 -214v-83l-286 -225h378v-149h-650v127l364 288l-361 278v127h644v-149z" />
    <glyph glyph-name="minus" unicode="&#x2212;" horiz-adv-x="735" 
d="M670 228h-605v151h605v-151z" />
    <glyph glyph-name="radical" unicode="&#x221a;" horiz-adv-x="767" 
d="M595 700h179l-317 -820h-154l-164 371h-123v139h172h70l115 -275z" />
    <glyph glyph-name="infinity" unicode="&#x221e;" horiz-adv-x="1045" 
d="M753 517q109 0 176.5 -61.5t67.5 -162.5t-67.5 -162.5t-176.5 -61.5q-131 0 -231 113q-98 -113 -230 -113q-110 0 -177.5 61.5t-67.5 162.5t67.5 162.5t177.5 61.5q132 0 230 -113q100 113 231 113zM296 198q40 0 72 24.5t68 70.5q-36 46 -68 70.5t-72 24.5
q-43 0 -71.5 -26.5t-28.5 -68.5t28.5 -68.5t71.5 -26.5zM748 198q43 0 71.5 26.5t28.5 68.5t-28.5 68.5t-71.5 26.5q-40 0 -71.5 -24t-67.5 -71q36 -47 67.5 -71t71.5 -24z" />
    <glyph glyph-name="integral" unicode="&#x222b;" horiz-adv-x="463" 
d="M340 760q68 0 122 -25l-24 -120q-16 4 -33 4q-37 0 -58 -19.5t-21 -55.5v-443v-69q0 -89 -56.5 -140.5t-146.5 -51.5q-69 0 -123 25l24 120q16 -4 34 -4q37 0 57.5 19.5t20.5 56.5v442v69q0 88 57 140t147 52z" />
    <glyph glyph-name="approxequal" unicode="&#x2248;" horiz-adv-x="735" 
d="M590 529l79 -129q-63 -70 -164 -70q-48 0 -130 25t-125 25q-57 0 -106 -44l-78 128q26 30 70 50t95 20q47 0 129 -24.5t125 -24.5q64 0 105 44zM590 272l79 -128q-63 -70 -164 -70q-48 0 -130 24.5t-125 24.5q-57 0 -106 -44l-78 128q27 31 70.5 51t94.5 20q47 0 129 -25
t125 -25q64 0 105 44z" />
    <glyph glyph-name="notequal" unicode="&#x2260;" horiz-adv-x="735" 
d="M670 369h-208l-51 -112h259v-150h-329l-44 -97h-141l45 97h-136v150h205l52 112h-257v150h326l46 98h139l-45 -98h139v-150z" />
    <glyph glyph-name="lessequal" unicode="&#x2264;" horiz-adv-x="735" 
d="M640 645l-557 -157v-149l557 -157v137l-380 95l380 93v138zM83 9v128h557v-128h-557z" />
    <glyph glyph-name="greaterequal" unicode="&#x2265;" horiz-adv-x="735" 
d="M95 645v-138l379 -93l-379 -95v-137l557 157v149zM652 9h-557v128h557v-128z" />
    <glyph glyph-name="lozenge" unicode="&#x25ca;" horiz-adv-x="781" 
d="M486 700l266 -344l-266 -356h-192l-266 356l266 344h192zM390 132l164 224l-164 217l-164 -217z" />
    <glyph glyph-name="germandbls.case" horiz-adv-x="890" 
d="M377 138q70 -18 125 -18q143 0 143 93t-144 93h-92v120h67q64 0 99 21.5t35 61.5q0 43 -40 62.5t-103 19.5q-88 0 -140.5 -41.5t-52.5 -120.5v-429h-204v409q0 146 105.5 230t290.5 84q151 0 249 -52.5t98 -140.5q0 -61 -47.5 -103.5t-127.5 -49.5q92 -6 154 -52t62 -126
q0 -91 -83 -152t-215 -61q-103 0 -200 27z" />
    <glyph glyph-name="a.ss01" horiz-adv-x="827" 
d="M331 574q150 0 228 -101v81h198v-554h-198v81q-79 -102 -228 -102q-132 0 -213 81t-81 217t81 216.5t213 80.5zM386 131q112 0 173 79v134q-61 79 -173 79q-78 0 -120 -38.5t-42 -107.5t42 -107.5t120 -38.5z" />
    <glyph glyph-name="aacute.ss01" horiz-adv-x="827" 
d="M689 802l-237 -168h-145l137 168h245zM331 574q150 0 228 -101v81h198v-554h-198v81q-79 -102 -228 -102q-132 0 -213 81t-81 217t81 216.5t213 80.5zM386 131q112 0 173 79v134q-61 79 -173 79q-78 0 -120 -38.5t-42 -107.5t42 -107.5t120 -38.5z" />
    <glyph glyph-name="abreve.ss01" horiz-adv-x="827" 
d="M625 802q0 -27 -10.5 -55.5t-32.5 -56.5t-63 -46t-95 -18t-95.5 18t-63.5 46t-32.5 56.5t-10.5 55.5h118q3 -29 25 -49.5t59 -20.5q35 0 57.5 21t24.5 49h119zM331 574q150 0 228 -101v81h198v-554h-198v81q-79 -102 -228 -102q-132 0 -213 81t-81 217t81 216.5t213 80.5
zM386 131q112 0 173 79v134q-61 79 -173 79q-78 0 -120 -38.5t-42 -107.5t42 -107.5t120 -38.5z" />
    <glyph glyph-name="acircumflex.ss01" horiz-adv-x="827" 
d="M169 634h172l80 89l81 -89h174l-150 168h-206zM331 574q150 0 228 -101v81h198v-554h-198v81q-79 -102 -228 -102q-132 0 -213 81t-81 217t81 216.5t213 80.5zM386 131q112 0 173 79v134q-61 79 -173 79q-78 0 -120 -38.5t-42 -107.5t42 -107.5t120 -38.5z" />
    <glyph glyph-name="adieresis.ss01" horiz-adv-x="827" 
d="M282 633q-42 0 -68 22t-26 58t26 57.5t68 21.5q41 0 67.5 -21.5t26.5 -57.5t-26.5 -58t-67.5 -22zM563 633q-41 0 -67.5 22t-26.5 58t26 57.5t68 21.5q41 0 67.5 -21.5t26.5 -57.5t-26.5 -58t-67.5 -22zM331 574q150 0 228 -101v81h198v-554h-198v81q-79 -102 -228 -102
q-132 0 -213 81t-81 217t81 216.5t213 80.5zM386 131q112 0 173 79v134q-61 79 -173 79q-78 0 -120 -38.5t-42 -107.5t42 -107.5t120 -38.5z" />
    <glyph glyph-name="agrave.ss01" horiz-adv-x="827" 
d="M157 802h245l137 -168h-145zM331 574q150 0 228 -101v81h198v-554h-198v81q-79 -102 -228 -102q-132 0 -213 81t-81 217t81 216.5t213 80.5zM386 131q112 0 173 79v134q-61 79 -173 79q-78 0 -120 -38.5t-42 -107.5t42 -107.5t120 -38.5z" />
    <glyph glyph-name="amacron.ss01" horiz-adv-x="827" 
d="M190 781h465v-133h-465v133zM331 574q150 0 228 -101v81h198v-554h-198v81q-79 -102 -228 -102q-132 0 -213 81t-81 217t81 216.5t213 80.5zM386 131q112 0 173 79v134q-61 79 -173 79q-78 0 -120 -38.5t-42 -107.5t42 -107.5t120 -38.5z" />
    <glyph glyph-name="aogonek.ss01" horiz-adv-x="827" 
d="M780 -152l32 -40q-45 -61 -141 -61q-66 0 -113 31t-47 88q0 44 29.5 80.5t85.5 53.5h-67v81q-79 -102 -228 -102q-132 0 -213 81t-81 217t81 216.5t213 80.5q150 0 228 -101v81h198v-554q-45 -17 -78.5 -50.5t-33.5 -70.5q0 -26 19 -42t48 -16q41 0 68 27zM559 210v134
q-61 79 -173 79q-78 0 -120 -38.5t-42 -107.5t42 -107.5t120 -38.5q112 0 173 79z" />
    <glyph glyph-name="aring.ss01" horiz-adv-x="827" 
d="M423 623q-74 0 -118.5 31.5t-44.5 88.5q0 58 44.5 90t118.5 32t118.5 -32.5t44.5 -89.5t-44.5 -88.5t-118.5 -31.5zM368 743q0 -23 15 -36.5t40 -13.5t40 13.5t15 36.5t-15 36.5t-40 13.5t-40 -13.5t-15 -36.5zM331 574q150 0 228 -101v81h198v-554h-198v81
q-79 -102 -228 -102q-132 0 -213 81t-81 217t81 216.5t213 80.5zM386 131q112 0 173 79v134q-61 79 -173 79q-78 0 -120 -38.5t-42 -107.5t42 -107.5t120 -38.5z" />
    <glyph glyph-name="aringacute.ss01" horiz-adv-x="827" 
d="M423 623q-74 0 -118.5 31.5t-44.5 88.5q0 40 22 68l-4 2l101 136h190l-111 -86q59 -8 93.5 -39t34.5 -81q0 -57 -44.5 -88.5t-118.5 -31.5zM478 743q0 23 -15 36.5t-40 13.5t-40 -13.5t-15 -36.5t15 -36.5t40 -13.5t40 13.5t15 36.5zM559 554h198v-554h-198v81
q-79 -102 -228 -102q-132 0 -213 81t-81 217t81 216.5t213 80.5q150 0 228 -101v81zM559 210v134q-61 79 -173 79q-78 0 -120 -38.5t-42 -107.5t42 -107.5t120 -38.5q112 0 173 79z" />
    <glyph glyph-name="atilde.ss01" horiz-adv-x="827" 
d="M625 818l79 -121q-63 -70 -164 -70q-47 0 -115 25t-104 25q-54 0 -102 -45l-78 121q26 30 70 50t95 20q47 0 114 -24.5t104 -24.5q60 0 101 44zM331 574q150 0 228 -101v81h198v-554h-198v81q-79 -102 -228 -102q-132 0 -213 81t-81 217t81 216.5t213 80.5zM386 131
q112 0 173 79v134q-61 79 -173 79q-78 0 -120 -38.5t-42 -107.5t42 -107.5t120 -38.5z" />
    <glyph glyph-name="a.sc" horiz-adv-x="872" 
d="M662 0l-57 112h-340l-57 -112h-209l331 614h213l330 -614h-211zM333 245h204l-102 201z" />
    <glyph glyph-name="aacute.sc" horiz-adv-x="872" 
d="M703 862l-237 -168h-145l137 168h245zM662 0l-57 112h-340l-57 -112h-209l331 614h213l330 -614h-211zM333 245h204l-102 201z" />
    <glyph glyph-name="abreve.sc" horiz-adv-x="872" 
d="M437 686q-54 0 -95.5 18t-63.5 46t-32.5 56.5t-10.5 55.5h118q3 -29 25 -49.5t59 -20.5q35 0 57.5 21t24.5 49h119q0 -27 -10.5 -55.5t-32.5 -56.5t-63 -46t-95 -18zM662 0l-57 112h-340l-57 -112h-209l331 614h213l330 -614h-211zM333 245h204l-102 201z" />
    <glyph glyph-name="acircumflex.sc" horiz-adv-x="872" 
d="M435 783l-80 -89h-172l151 168h206l150 -168h-174zM662 0l-57 112h-340l-57 -112h-209l331 614h213l330 -614h-211zM333 245h204l-102 201z" />
    <glyph glyph-name="adieresis.sc" horiz-adv-x="872" 
d="M296 693q-42 0 -68 22t-26 58t26 57.5t68 21.5q41 0 67.5 -21.5t26.5 -57.5t-26.5 -58t-67.5 -22zM577 693q-41 0 -67.5 22t-26.5 58t26 57.5t68 21.5q41 0 67.5 -21.5t26.5 -57.5t-26.5 -58t-67.5 -22zM662 0l-57 112h-340l-57 -112h-209l331 614h213l330 -614h-211z
M333 245h204l-102 201z" />
    <glyph glyph-name="agrave.sc" horiz-adv-x="872" 
d="M552 694h-145l-237 168h245zM662 0l-57 112h-340l-57 -112h-209l331 614h213l330 -614h-211zM333 245h204l-102 201z" />
    <glyph glyph-name="amacron.sc" horiz-adv-x="872" 
d="M669 841v-133h-465v133h465zM662 0l-57 112h-340l-57 -112h-209l331 614h213l330 -614h-211zM333 245h204l-102 201z" />
    <glyph glyph-name="aogonek.sc" horiz-adv-x="872" 
d="M896 -152l32 -40q-45 -61 -141 -61q-66 0 -113 31t-47 88q0 44 29.5 80.5t85.5 53.5h-80l-57 112h-340l-57 -112h-209l331 614h213l330 -614q-45 -17 -78.5 -50.5t-33.5 -70.5q0 -26 19 -42t48 -16q41 0 68 27zM333 245h204l-102 201z" />
    <glyph glyph-name="aring.sc" horiz-adv-x="872" 
d="M437 683q-74 0 -118.5 31.5t-44.5 88.5q0 58 44.5 90t118.5 32t118.5 -32.5t44.5 -89.5t-44.5 -88.5t-118.5 -31.5zM437 853q-25 0 -40 -13.5t-15 -36.5t15 -36.5t40 -13.5t40 13.5t15 36.5t-15 36.5t-40 13.5zM662 0l-57 112h-340l-57 -112h-209l331 614h213l330 -614
h-211zM333 245h204l-102 201z" />
    <glyph glyph-name="aringacute.sc" horiz-adv-x="872" 
d="M437 683q-74 0 -118.5 31.5t-44.5 88.5q0 45 28 75l97 131h190l-112 -87q57 -8 90 -39t33 -80q0 -57 -44.5 -88.5t-118.5 -31.5zM492 803q0 23 -15 36.5t-40 13.5t-40 -13.5t-15 -36.5t15 -36.5t40 -13.5t40 13.5t15 36.5zM662 0l-57 112h-340l-57 -112h-209l331 614h213
l330 -614h-211zM333 245h204l-102 201z" />
    <glyph glyph-name="atilde.sc" horiz-adv-x="872" 
d="M335 737q-54 0 -102 -45l-78 121q26 30 70 50t95 20q47 0 114 -24.5t104 -24.5q60 0 101 44l79 -121q-63 -70 -164 -70q-48 0 -116 25t-103 25zM662 0l-57 112h-340l-57 -112h-209l331 614h213l330 -614h-211zM333 245h204l-102 201z" />
    <glyph glyph-name="ae.sc" horiz-adv-x="1339" 
d="M802 150h493v-150h-689v115h-301l-98 -115h-222l544 614h96h660v-148h-483v-85h396v-140h-396v-91zM421 250h185v216z" />
    <glyph glyph-name="aeacute.sc" horiz-adv-x="1339" 
d="M1111 862l-237 -168h-145l137 168h245zM802 150h493v-150h-689v115h-301l-98 -115h-222l544 614h96h660v-148h-483v-85h396v-140h-396v-91zM421 250h185v216z" />
    <glyph glyph-name="b.sc" horiz-adv-x="876" 
d="M653 319q79 -6 131.5 -44.5t52.5 -105.5q0 -78 -70 -123.5t-189 -45.5h-499v614h463q119 0 188.5 -43t69.5 -116q0 -54 -40 -94t-107 -42zM274 482v-106h234q96 0 96 53t-96 53h-234zM537 133q97 0 97 58q0 61 -97 61h-263v-119h263z" />
    <glyph glyph-name="c.sc" horiz-adv-x="830" 
d="M452 139q62 0 106.5 21t80.5 68l170 -85q-44 -76 -139 -120t-222 -44q-184 0 -295.5 87t-111.5 241t112.5 241.5t301.5 87.5q121 0 214.5 -45t136.5 -118l-170 -84q-69 86 -184 86q-96 0 -152.5 -44t-56.5 -124t56.5 -124t152.5 -44z" />
    <glyph glyph-name="cacute.sc" horiz-adv-x="830" 
d="M707 863l-237 -168h-145l137 168h245zM452 139q62 0 106.5 21t80.5 68l170 -85q-44 -76 -139 -120t-222 -44q-184 0 -295.5 87t-111.5 241t112.5 241.5t301.5 87.5q121 0 214.5 -45t136.5 -118l-170 -84q-69 86 -184 86q-96 0 -152.5 -44t-56.5 -124t56.5 -124t152.5 -44
z" />
    <glyph glyph-name="ccaron.sc" horiz-adv-x="830" 
d="M187 863l151 -168h206l150 168h-172l-81 -89l-81 89h-173zM452 139q62 0 106.5 21t80.5 68l170 -85q-44 -76 -139 -120t-222 -44q-184 0 -295.5 87t-111.5 241t112.5 241.5t301.5 87.5q121 0 214.5 -45t136.5 -118l-170 -84q-69 86 -184 86q-96 0 -152.5 -44t-56.5 -124
t56.5 -124t152.5 -44z" />
    <glyph glyph-name="ccedilla.sc" horiz-adv-x="830" 
d="M452 139q62 0 106.5 21t80.5 68l170 -85q-44 -76 -139 -120t-222 -44q-184 0 -295.5 87t-111.5 241t112.5 241.5t301.5 87.5q121 0 214.5 -45t136.5 -118l-170 -84q-69 86 -184 86q-96 0 -152.5 -44t-56.5 -124t56.5 -124t152.5 -44zM532 -60l-147 -162l-124 33l101 154z
" />
    <glyph glyph-name="ccircumflex.sc" horiz-adv-x="830" 
d="M187 695h172l80 89l81 -89h174l-150 168h-206zM452 139q62 0 106.5 21t80.5 68l170 -85q-44 -76 -139 -120t-222 -44q-184 0 -295.5 87t-111.5 241t112.5 241.5t301.5 87.5q121 0 214.5 -45t136.5 -118l-170 -84q-69 86 -184 86q-96 0 -152.5 -44t-56.5 -124t56.5 -124
t152.5 -44z" />
    <glyph glyph-name="cdotaccent.sc" horiz-adv-x="830" 
d="M440 694q-41 0 -66.5 21t-25.5 56q0 36 25.5 57t66.5 21t66.5 -21t25.5 -57q0 -35 -25.5 -56t-66.5 -21zM452 139q62 0 106.5 21t80.5 68l170 -85q-44 -76 -139 -120t-222 -44q-184 0 -295.5 87t-111.5 241t112.5 241.5t301.5 87.5q121 0 214.5 -45t136.5 -118l-170 -84
q-69 86 -184 86q-96 0 -152.5 -44t-56.5 -124t56.5 -124t152.5 -44z" />
    <glyph glyph-name="d.sc" horiz-adv-x="887" 
d="M441 614q187 0 295.5 -81.5t108.5 -225.5t-108.5 -225.5t-295.5 -81.5h-362v614h362zM425 157q102 0 160.5 38.5t58.5 111.5t-58.5 111.5t-160.5 38.5h-149v-300h149z" />
    <glyph glyph-name="eth.sc" horiz-adv-x="914" 
d="M472 614q188 0 294.5 -81t106.5 -226q0 -144 -107 -225.5t-294 -81.5h-366v258h-86v109h86v247h366zM453 154q102 0 159.5 39t57.5 114t-57.5 114t-159.5 39h-151v-93h166v-109h-166v-104h151z" />
    <glyph glyph-name="dcaron.sc" horiz-adv-x="887" 
d="M172 862l151 -168h206l150 168h-172l-81 -89l-81 89h-173zM441 614q187 0 295.5 -81.5t108.5 -225.5t-108.5 -225.5t-295.5 -81.5h-362v614h362zM425 157q102 0 160.5 38.5t58.5 111.5t-58.5 111.5t-160.5 38.5h-149v-300h149z" />
    <glyph glyph-name="dcroat.sc" horiz-adv-x="914" 
d="M472 614q188 0 294.5 -81t106.5 -226q0 -144 -107 -225.5t-294 -81.5h-366v258h-86v109h86v247h366zM453 154q102 0 159.5 39t57.5 114t-57.5 114t-159.5 39h-151v-93h166v-109h-166v-104h151z" />
    <glyph glyph-name="e.sc" horiz-adv-x="811" 
d="M274 149h494v-149h-689v614h679v-148h-484v-85h394v-140h-394v-92z" />
    <glyph glyph-name="eacute.sc" horiz-adv-x="811" 
d="M682 862l-237 -168h-145l137 168h245zM274 149h494v-149h-689v614h679v-148h-484v-85h394v-140h-394v-92z" />
    <glyph glyph-name="ebreve.sc" horiz-adv-x="811" 
d="M617 862q0 -27 -10.5 -55.5t-32.5 -56.5t-63 -46t-95 -18t-95.5 18t-63.5 46t-32.5 56.5t-10.5 55.5h118q3 -29 25 -49.5t59 -20.5q36 0 58 21t24 49h119zM274 149h494v-149h-689v614h679v-148h-484v-85h394v-140h-394v-92z" />
    <glyph glyph-name="ecaron.sc" horiz-adv-x="811" 
d="M162 862l151 -168h206l150 168h-172l-81 -89l-81 89h-173zM274 149h494v-149h-689v614h679v-148h-484v-85h394v-140h-394v-92z" />
    <glyph glyph-name="ecircumflex.sc" horiz-adv-x="811" 
d="M162 694h172l80 89l81 -89h174l-150 168h-206zM274 149h494v-149h-689v614h679v-148h-484v-85h394v-140h-394v-92z" />
    <glyph glyph-name="edieresis.sc" horiz-adv-x="811" 
d="M275 693q-41 0 -67.5 22t-26.5 58t26 57.5t68 21.5q41 0 67.5 -21.5t26.5 -57.5t-26.5 -58t-67.5 -22zM556 693q-42 0 -68 22t-26 58t26 57.5t68 21.5q41 0 67.5 -21.5t26.5 -57.5t-26.5 -58t-67.5 -22zM274 149h494v-149h-689v614h679v-148h-484v-85h394v-140h-394v-92z
" />
    <glyph glyph-name="edotaccent.sc" horiz-adv-x="811" 
d="M415 693q-41 0 -66.5 21t-25.5 56q0 36 25.5 57t66.5 21t66.5 -21t25.5 -57q0 -35 -25.5 -56t-66.5 -21zM274 149h494v-149h-689v614h679v-148h-484v-85h394v-140h-394v-92z" />
    <glyph glyph-name="egrave.sc" horiz-adv-x="811" 
d="M149 862h245l137 -168h-145zM274 149h494v-149h-689v614h679v-148h-484v-85h394v-140h-394v-92z" />
    <glyph glyph-name="emacron.sc" horiz-adv-x="811" 
d="M183 841h465v-133h-465v133zM274 149h494v-149h-689v614h679v-148h-484v-85h394v-140h-394v-92z" />
    <glyph glyph-name="eogonek.sc" horiz-adv-x="811" 
d="M789 -152l32 -40q-45 -61 -141 -61q-66 0 -113 31t-47 88q0 44 29.5 80.5t85.5 53.5h-556v614h679v-148h-484v-85h394v-140h-394v-92h494v-149h-2q-45 -17 -78.5 -50.5t-33.5 -70.5q0 -26 19 -42t48 -16q41 0 68 27z" />
    <glyph glyph-name="f.sc" horiz-adv-x="780" 
d="M755 461h-478v-100h392v-151h-392v-210h-198v614h676v-153z" />
    <glyph glyph-name="fi.sc" horiz-adv-x="1136" 
d="M755 461h-478v-100h392v-151h-392v-210h-198v614h676v-153zM1057 0h-198v614h198v-614z" />
    <glyph glyph-name="fl.sc" horiz-adv-x="1504" 
d="M755 461h-478v-100h392v-151h-392v-210h-198v614h676v-153zM1057 156h425v-156h-623v614h198v-458z" />
    <glyph glyph-name="g.sc" horiz-adv-x="884" 
d="M837 356v-248q-53 -60 -148.5 -94.5t-218.5 -34.5q-200 0 -314.5 86t-114.5 242t114.5 242.5t313.5 86.5q213 0 344 -109l-145 -107q-78 61 -191 61q-115 0 -174.5 -45t-59.5 -129t60.5 -130t173.5 -46q119 0 175 47v50h-202v128h387z" />
    <glyph glyph-name="gbreve.sc" horiz-adv-x="884" 
d="M667 863q0 -27 -10.5 -55.5t-32.5 -56.5t-63 -46t-95 -18t-95.5 18t-63.5 46t-32.5 56.5t-10.5 55.5h118q3 -29 25 -49.5t59 -20.5q36 0 58 21t24 49h119zM837 356v-248q-53 -60 -148.5 -94.5t-218.5 -34.5q-200 0 -314.5 86t-114.5 242t114.5 242.5t313.5 86.5
q213 0 344 -109l-145 -107q-78 61 -191 61q-115 0 -174.5 -45t-59.5 -129t60.5 -130t173.5 -46q119 0 175 47v50h-202v128h387z" />
    <glyph glyph-name="gcircumflex.sc" horiz-adv-x="884" 
d="M211 695h172l80 89l81 -89h174l-150 168h-206zM837 356v-248q-53 -60 -148.5 -94.5t-218.5 -34.5q-200 0 -314.5 86t-114.5 242t114.5 242.5t313.5 86.5q213 0 344 -109l-145 -107q-78 61 -191 61q-115 0 -174.5 -45t-59.5 -129t60.5 -130t173.5 -46q119 0 175 47v50
h-202v128h387z" />
    <glyph glyph-name="gcommaaccent.sc" horiz-adv-x="884" 
d="M837 356v-248q-53 -60 -148.5 -94.5t-218.5 -34.5q-200 0 -314.5 86t-114.5 242t114.5 242.5t313.5 86.5q213 0 344 -109l-145 -107q-78 61 -191 61q-115 0 -174.5 -45t-59.5 -129t60.5 -130t173.5 -46q119 0 175 47v50h-202v128h387zM465 -52q54 0 87 -36.5t33 -89.5
q0 -61 -40.5 -129.5t-115.5 -112.5l-40 56q80 59 97 120q-6 -7 -28 -7q-44 0 -74.5 28.5t-30.5 71.5q0 42 32 70.5t80 28.5z" />
    <glyph glyph-name="gdotaccent.sc" horiz-adv-x="884" 
d="M464 694q-41 0 -66.5 21t-25.5 56q0 36 25.5 57t66.5 21t66.5 -21t25.5 -57q0 -35 -25.5 -56t-66.5 -21zM837 356v-248q-53 -60 -148.5 -94.5t-218.5 -34.5q-200 0 -314.5 86t-114.5 242t114.5 242.5t313.5 86.5q213 0 344 -109l-145 -107q-78 61 -191 61
q-115 0 -174.5 -45t-59.5 -129t60.5 -130t173.5 -46q119 0 175 47v50h-202v128h387z" />
    <glyph glyph-name="h.sc" horiz-adv-x="921" 
d="M644 614h199v-614h-199v231h-367v-231h-198v614h198v-221h367v221z" />
    <glyph glyph-name="hbar.sc" horiz-adv-x="991" 
d="M970 525v-73h-93v-452h-198v231h-368v-231h-198v452h-93v73h93v89h198v-89h368v89h198v-89h93zM679 393v59h-368v-59h368z" />
    <glyph glyph-name="hcircumflex.sc" horiz-adv-x="921" 
d="M208 695h172l80 89l81 -89h174l-150 168h-206zM644 614h199v-614h-199v231h-367v-231h-198v614h198v-221h367v221z" />
    <glyph glyph-name="i.sc" horiz-adv-x="356" 
d="M277 0h-198v614h198v-614z" />
    <glyph glyph-name="iacute.sc" horiz-adv-x="356" 
d="M444 862l-237 -168h-145l137 168h245zM277 0h-198v614h198v-614z" />
    <glyph glyph-name="ibreve.sc" horiz-adv-x="356" 
d="M380 862q0 -27 -10.5 -55.5t-32.5 -56.5t-63 -46t-95 -18t-95.5 18t-63.5 46t-32.5 56.5t-10.5 55.5h118q3 -29 25 -49.5t59 -20.5q35 0 57.5 21t24.5 49h119zM277 0h-198v614h198v-614z" />
    <glyph glyph-name="icircumflex.sc" horiz-adv-x="356" 
d="M-76 694h172l80 89l81 -89h174l-150 168h-206zM277 0h-198v614h198v-614z" />
    <glyph glyph-name="idieresis.sc" horiz-adv-x="356" 
d="M37 693q-41 0 -67.5 22t-26.5 58t26 57.5t68 21.5q41 0 67.5 -21.5t26.5 -57.5t-26.5 -58t-67.5 -22zM318 693q-42 0 -68 22t-26 58t26 57.5t68 21.5q41 0 67.5 -21.5t26.5 -57.5t-26.5 -58t-67.5 -22zM277 0h-198v614h198v-614z" />
    <glyph glyph-name="i.sc.loclTRK" horiz-adv-x="356" 
d="M177 693q-41 0 -66.5 21t-25.5 56q0 36 25.5 57t66.5 21t66.5 -21t25.5 -57q0 -35 -25.5 -56t-66.5 -21zM277 0h-198v614h198v-614z" />
    <glyph glyph-name="igrave.sc" horiz-adv-x="356" 
d="M-89 862h245l137 -168h-145zM277 0h-198v614h198v-614z" />
    <glyph glyph-name="ij.sc" horiz-adv-x="1050" 
d="M277 0h-198v614h198v-614zM500 204q47 -64 139 -64q146 0 146 148v326h198v-341q0 -134 -89 -214t-255 -80q-190 0 -285 116z" />
    <glyph glyph-name="imacron.sc" horiz-adv-x="369" 
d="M-48 927h465v-133h-465v133zM286 0h-204v700h204v-700z" />
    <glyph glyph-name="iogonek.sc" horiz-adv-x="369" 
d="M309 -152l32 -40q-45 -61 -141 -61q-66 0 -113 31t-47 88q0 44 29.5 80.5t85.5 53.5h-73v700h204v-700q-45 -17 -78.5 -50.5t-33.5 -70.5q0 -26 19 -42t48 -16q41 0 68 27z" />
    <glyph glyph-name="itilde.sc" horiz-adv-x="369" 
d="M387 964l79 -121q-63 -70 -164 -70q-48 0 -115.5 25t-103.5 25q-54 0 -102 -45l-78 121q26 30 70 50t95 20q47 0 114 -24.5t104 -24.5q60 0 101 44zM286 0h-204v700h204v-700z" />
    <glyph glyph-name="j.sc" horiz-adv-x="695" 
d="M144 204q47 -64 139 -64q146 0 146 148v326h198v-341q0 -134 -89 -214t-255 -80q-190 0 -285 116z" />
    <glyph glyph-name="jcircumflex.sc" horiz-adv-x="695" 
d="M275 694h172l80 89l81 -89h174l-150 168h-206zM144 204q47 -64 139 -64q146 0 146 148v326h198v-341q0 -134 -89 -214t-255 -80q-190 0 -285 116z" />
    <glyph glyph-name="k.sc" horiz-adv-x="846" 
d="M616 0l-206 256l-133 -115v-141h-198v614h198v-271l308 271h247l-278 -245l295 -369h-233z" />
    <glyph glyph-name="kcommaaccent.sc" horiz-adv-x="846" 
d="M554 369l295 -369h-233l-206 256l-133 -115v-141h-198v614h198v-271l308 271h247zM433 -52q54 0 87 -36.5t33 -89.5q0 -61 -40.5 -129.5t-115.5 -112.5l-40 56q80 59 97 120q-6 -7 -28 -7q-44 0 -74.5 28.5t-30.5 71.5q0 42 32 70.5t80 28.5z" />
    <glyph glyph-name="l.sc" horiz-adv-x="723" 
d="M277 156h425v-156h-623v614h198v-458z" />
    <glyph glyph-name="lacute.sc" horiz-adv-x="723" 
d="M444 862l-237 -168h-145l137 168h245zM277 156h425v-156h-623v614h198v-458z" />
    <glyph glyph-name="lcaron.sc" horiz-adv-x="723" 
d="M491 660q54 0 87 -36.5t33 -89.5q0 -61 -40.5 -129.5t-115.5 -112.5l-40 56q80 59 97 120q-6 -7 -28 -7q-44 0 -74.5 28.5t-30.5 71.5q0 42 32 70.5t80 28.5zM277 156h425v-156h-623v614h198v-458z" />
    <glyph glyph-name="lcommaaccent.sc" horiz-adv-x="723" 
d="M277 156h425v-156h-623v614h198v-458zM393 -52q54 0 87 -36.5t33 -89.5q0 -61 -40.5 -129.5t-115.5 -112.5l-40 56q80 59 97 120q-6 -7 -28 -7q-44 0 -74.5 28.5t-30.5 71.5q0 42 32 70.5t80 28.5z" />
    <glyph glyph-name="ldot.sc" horiz-adv-x="723" 
d="M277 151h425v-151h-623v614h198v-463zM477 285q-50 0 -82.5 28.5t-32.5 70.5q0 43 32.5 71.5t82.5 28.5t82 -29t32 -71t-32 -70.5t-82 -28.5z" />
    <glyph glyph-name="lslash.sc" horiz-adv-x="786" 
d="M340 156h425v-156h-623v192l-106 -51v114l106 50v309h198v-215l186 89v-114l-186 -88v-130z" />
    <glyph glyph-name="m.sc" horiz-adv-x="1050" 
d="M762 614h209v-614h-196v378l-247 -287h-10l-248 287v-378h-191v614h215l233 -280z" />
    <glyph glyph-name="n.sc" horiz-adv-x="921" 
d="M651 614h192v-614h-174l-399 384v-384h-191v614h209l363 -351v351z" />
    <glyph glyph-name="nacute.sc" horiz-adv-x="921" 
d="M728 862l-237 -168h-145l137 168h245zM651 614h192v-614h-174l-399 384v-384h-191v614h209l363 -351v351z" />
    <glyph glyph-name="ncaron.sc" horiz-adv-x="921" 
d="M208 862l151 -168h206l150 168h-172l-81 -89l-81 89h-173zM651 614h192v-614h-174l-399 384v-384h-191v614h209l363 -351v351z" />
    <glyph glyph-name="ncommaaccent.sc" horiz-adv-x="921" 
d="M651 614h192v-614h-174l-399 384v-384h-191v614h209l363 -351v351zM462 -52q54 0 87 -36.5t33 -89.5q0 -61 -40.5 -129.5t-115.5 -112.5l-40 56q80 59 97 120q-6 -7 -28 -7q-44 0 -74.5 28.5t-30.5 71.5q0 42 32 70.5t80 28.5z" />
    <glyph glyph-name="eng.sc" horiz-adv-x="922" 
d="M843 27q0 -102 -62 -161.5t-165 -59.5q-69 0 -129 21l27 121q28 -9 59 -9q79 0 79 75v2l-382 368v-384h-191v614h209l363 -351v351h192v-587z" />
    <glyph glyph-name="ntilde.sc" horiz-adv-x="921" 
d="M664 878l79 -121q-63 -70 -164 -70q-47 0 -115 25t-104 25q-54 0 -102 -45l-78 121q26 30 70 50t95 20q47 0 114 -24.5t104 -24.5q60 0 101 44zM651 614h192v-614h-174l-399 384v-384h-191v614h209l363 -351v351z" />
    <glyph glyph-name="o.sc" horiz-adv-x="917" 
d="M459 -21q-193 0 -305.5 86.5t-112.5 241.5t112.5 242t305.5 87q192 0 304 -87t112 -242t-112 -241.5t-304 -86.5zM458 135q100 0 158 45.5t58 126.5t-58 126.5t-158 45.5q-101 0 -158.5 -45.5t-57.5 -126.5t57.5 -126.5t158.5 -45.5z" />
    <glyph glyph-name="oacute.sc" horiz-adv-x="917" 
d="M725 862l-237 -168h-145l137 168h245zM459 -21q-193 0 -305.5 86.5t-112.5 241.5t112.5 242t305.5 87q192 0 304 -87t112 -242t-112 -241.5t-304 -86.5zM458 135q100 0 158 45.5t58 126.5t-58 126.5t-158 45.5q-101 0 -158.5 -45.5t-57.5 -126.5t57.5 -126.5t158.5 -45.5
z" />
    <glyph glyph-name="obreve.sc" horiz-adv-x="917" 
d="M661 862q0 -27 -10.5 -55.5t-32.5 -56.5t-63 -46t-95 -18t-95.5 18t-63.5 46t-32.5 56.5t-10.5 55.5h118q3 -29 25 -49.5t59 -20.5q36 0 58 21t24 49h119zM459 -21q-193 0 -305.5 86.5t-112.5 241.5t112.5 242t305.5 87q192 0 304 -87t112 -242t-112 -241.5t-304 -86.5z
M458 135q100 0 158 45.5t58 126.5t-58 126.5t-158 45.5q-101 0 -158.5 -45.5t-57.5 -126.5t57.5 -126.5t158.5 -45.5z" />
    <glyph glyph-name="ocircumflex.sc" horiz-adv-x="917" 
d="M205 694h172l80 89l81 -89h174l-150 168h-206zM459 -21q-193 0 -305.5 86.5t-112.5 241.5t112.5 242t305.5 87q192 0 304 -87t112 -242t-112 -241.5t-304 -86.5zM458 135q100 0 158 45.5t58 126.5t-58 126.5t-158 45.5q-101 0 -158.5 -45.5t-57.5 -126.5t57.5 -126.5
t158.5 -45.5z" />
    <glyph glyph-name="odieresis.sc" horiz-adv-x="917" 
d="M318 693q-42 0 -68 22t-26 58t26 57.5t68 21.5q41 0 67.5 -21.5t26.5 -57.5t-26.5 -58t-67.5 -22zM599 693q-41 0 -67.5 22t-26.5 58t26 57.5t68 21.5q41 0 67.5 -21.5t26.5 -57.5t-26.5 -58t-67.5 -22zM459 -21q-193 0 -305.5 86.5t-112.5 241.5t112.5 242t305.5 87
q192 0 304 -87t112 -242t-112 -241.5t-304 -86.5zM458 135q100 0 158 45.5t58 126.5t-58 126.5t-158 45.5q-101 0 -158.5 -45.5t-57.5 -126.5t57.5 -126.5t158.5 -45.5z" />
    <glyph glyph-name="ograve.sc" horiz-adv-x="917" 
d="M192 862h245l137 -168h-145zM459 -21q-193 0 -305.5 86.5t-112.5 241.5t112.5 242t305.5 87q192 0 304 -87t112 -242t-112 -241.5t-304 -86.5zM458 135q100 0 158 45.5t58 126.5t-58 126.5t-158 45.5q-101 0 -158.5 -45.5t-57.5 -126.5t57.5 -126.5t158.5 -45.5z" />
    <glyph glyph-name="ohungarumlaut.sc" horiz-adv-x="917" 
d="M553 862l-165 -168h-172l164 168h173zM794 862l-165 -168h-172l165 168h172zM459 -21q-193 0 -305.5 86.5t-112.5 241.5t112.5 242t305.5 87q192 0 304 -87t112 -242t-112 -241.5t-304 -86.5zM458 135q100 0 158 45.5t58 126.5t-58 126.5t-158 45.5q-101 0 -158.5 -45.5
t-57.5 -126.5t57.5 -126.5t158.5 -45.5z" />
    <glyph glyph-name="omacron.sc" horiz-adv-x="917" 
d="M226 841h465v-133h-465v133zM459 -21q-193 0 -305.5 86.5t-112.5 241.5t112.5 242t305.5 87q192 0 304 -87t112 -242t-112 -241.5t-304 -86.5zM458 135q100 0 158 45.5t58 126.5t-58 126.5t-158 45.5q-101 0 -158.5 -45.5t-57.5 -126.5t57.5 -126.5t158.5 -45.5z" />
    <glyph glyph-name="oslash.sc" horiz-adv-x="917" 
d="M733 570q142 -87 142 -263q0 -155 -112 -241.5t-304 -86.5q-88 0 -160 18l-71 -94h-133l101 134q-155 89 -155 270q0 155 112.5 242t305.5 87q95 0 173 -23l75 98h134zM242 307q0 -82 61 -129l223 295q-32 6 -68 6q-101 0 -158.5 -45.5t-57.5 -126.5zM458 135
q100 0 158 45.5t58 126.5q0 73 -49 119l-218 -287q21 -4 51 -4z" />
    <glyph glyph-name="oslashacute.sc" horiz-adv-x="917" 
d="M728 862l-237 -168h-145l137 168h245zM733 570q142 -87 142 -263q0 -155 -112 -241.5t-304 -86.5q-88 0 -160 18l-71 -94h-133l101 134q-155 89 -155 270q0 155 112.5 242t305.5 87q95 0 173 -23l75 98h134zM242 307q0 -82 61 -129l223 295q-32 6 -68 6
q-101 0 -158.5 -45.5t-57.5 -126.5zM458 135q100 0 158 45.5t58 126.5q0 73 -49 119l-218 -287q21 -4 51 -4z" />
    <glyph glyph-name="otilde.sc" horiz-adv-x="917" 
d="M661 878l79 -121q-63 -70 -164 -70q-48 0 -116 25t-103 25q-54 0 -102 -45l-78 121q26 30 70 50t95 20q47 0 114 -24.5t104 -24.5q60 0 101 44zM459 -21q-193 0 -305.5 86.5t-112.5 241.5t112.5 242t305.5 87q192 0 304 -87t112 -242t-112 -241.5t-304 -86.5zM458 135
q100 0 158 45.5t58 126.5t-58 126.5t-158 45.5q-101 0 -158.5 -45.5t-57.5 -126.5t57.5 -126.5t158.5 -45.5z" />
    <glyph glyph-name="oe.sc" horiz-adv-x="1344" 
d="M807 149h494v-149h-689h-167q-188 0 -296 81.5t-108 225.5q0 145 108 226t296 81h360h486v-148h-484v-85h394v-140h-394v-92zM612 153v308h-150q-101 0 -159.5 -40t-58.5 -114q0 -73 58.5 -113.5t159.5 -40.5h150z" />
    <glyph glyph-name="p.sc" horiz-adv-x="847" 
d="M525 614q136 0 215.5 -56t79.5 -162q0 -107 -79.5 -163.5t-215.5 -56.5h-248v-176h-198v614h446zM509 318q54 0 82.5 16.5t28.5 57.5t-28.5 57t-82.5 16h-233v-147h233z" />
    <glyph glyph-name="thorn.sc" horiz-adv-x="847" 
d="M522 530q137 0 217.5 -55t80.5 -161q0 -108 -80.5 -164t-217.5 -56h-245v-94h-198v614h198v-84h245zM505 239q115 0 115 73q0 41 -29 57t-86 16h-229v-146h229z" />
    <glyph glyph-name="q.sc" horiz-adv-x="917" 
d="M875 307q0 -154 -112 -241l84 -84l-83 -79l-107 106q-85 -30 -198 -30q-193 0 -305.5 86.5t-112.5 241.5t112.5 242t305.5 87q192 0 304 -87t112 -242zM458 135q35 0 65 6l-76 76l84 79l101 -101q42 45 42 112q0 81 -58 126.5t-158 45.5q-101 0 -158.5 -45.5
t-57.5 -126.5t57.5 -126.5t158.5 -45.5z" />
    <glyph glyph-name="r.sc" horiz-adv-x="875" 
d="M845 0h-231l-161 188h-177v-188h-197v614h452q129 0 211.5 -54.5t82.5 -156.5q0 -75 -43.5 -125t-119.5 -73zM274 330h240q54 0 82.5 14.5t28.5 53.5t-28.5 53.5t-82.5 14.5h-240v-136z" />
    <glyph glyph-name="racute.sc" horiz-adv-x="875" 
d="M679 862l-237 -168h-145l137 168h245zM845 0h-231l-161 188h-177v-188h-197v614h452q129 0 211.5 -54.5t82.5 -156.5q0 -75 -43.5 -125t-119.5 -73zM274 330h240q54 0 82.5 14.5t28.5 53.5t-28.5 53.5t-82.5 14.5h-240v-136z" />
    <glyph glyph-name="rcaron.sc" horiz-adv-x="875" 
d="M516 694h-206l-151 168h173l81 -89l81 89h172zM845 0h-231l-161 188h-177v-188h-197v614h452q129 0 211.5 -54.5t82.5 -156.5q0 -75 -43.5 -125t-119.5 -73zM274 330h240q54 0 82.5 14.5t28.5 53.5t-28.5 53.5t-82.5 14.5h-240v-136z" />
    <glyph glyph-name="rcommaaccent.sc" horiz-adv-x="875" 
d="M662 205l183 -205h-231l-161 188h-177v-188h-197v614h452q129 0 211.5 -54.5t82.5 -156.5q0 -75 -43.5 -125t-119.5 -73zM274 330h240q54 0 82.5 14.5t28.5 53.5t-28.5 53.5t-82.5 14.5h-240v-136zM430 -52q54 0 87 -36.5t33 -89.5q0 -61 -40.5 -129.5t-115.5 -112.5
l-40 56q80 59 97 120q-6 -7 -28 -7q-44 0 -74.5 28.5t-30.5 71.5q0 42 32 70.5t80 28.5z" />
    <glyph glyph-name="s.sc" horiz-adv-x="825" 
d="M430 394q69 -6 118.5 -13.5t97.5 -22t77.5 -35t47.5 -52.5t18 -74q0 -100 -91.5 -159t-263.5 -59q-252 0 -407 119l103 114q121 -91 307 -91q156 0 156 55q0 26 -36 36.5t-139 20.5q-63 6 -112.5 14.5t-98 23.5t-81 36t-52.5 52.5t-20 71.5q0 96 101 150.5t258 54.5
q211 0 347 -92l-98 -112q-94 61 -252 63q-159 0 -159 -48q0 -24 39.5 -33.5t139.5 -19.5z" />
    <glyph glyph-name="sacute.sc" horiz-adv-x="825" 
d="M684 862l-237 -168h-145l137 168h245zM430 394q69 -6 118.5 -13.5t97.5 -22t77.5 -35t47.5 -52.5t18 -74q0 -100 -91.5 -159t-263.5 -59q-252 0 -407 119l103 114q121 -91 307 -91q156 0 156 55q0 26 -36 36.5t-139 20.5q-63 6 -112.5 14.5t-98 23.5t-81 36t-52.5 52.5
t-20 71.5q0 96 101 150.5t258 54.5q211 0 347 -92l-98 -112q-94 61 -252 63q-159 0 -159 -48q0 -24 39.5 -33.5t139.5 -19.5z" />
    <glyph glyph-name="scaron.sc" horiz-adv-x="825" 
d="M164 862l151 -168h206l150 168h-172l-81 -89l-81 89h-173zM430 394q69 -6 118.5 -13.5t97.5 -22t77.5 -35t47.5 -52.5t18 -74q0 -100 -91.5 -159t-263.5 -59q-252 0 -407 119l103 114q121 -91 307 -91q156 0 156 55q0 26 -36 36.5t-139 20.5q-63 6 -112.5 14.5t-98 23.5
t-81 36t-52.5 52.5t-20 71.5q0 96 101 150.5t258 54.5q211 0 347 -92l-98 -112q-94 61 -252 63q-159 0 -159 -48q0 -24 39.5 -33.5t139.5 -19.5z" />
    <glyph glyph-name="scedilla.sc" horiz-adv-x="825" 
d="M430 394q69 -6 118.5 -13.5t97.5 -22t77.5 -35t47.5 -52.5t18 -74q0 -100 -91.5 -159t-263.5 -59q-252 0 -407 119l103 114q121 -91 307 -91q156 0 156 55q0 26 -36 36.5t-139 20.5q-63 6 -112.5 14.5t-98 23.5t-81 36t-52.5 52.5t-20 71.5q0 96 101 150.5t258 54.5
q211 0 347 -92l-98 -112q-94 61 -252 63q-159 0 -159 -48q0 -24 39.5 -33.5t139.5 -19.5zM513 -60l-147 -162l-124 33l101 154z" />
    <glyph glyph-name="scircumflex.sc" horiz-adv-x="825" 
d="M164 694h172l80 89l81 -89h174l-150 168h-206zM430 394q69 -6 118.5 -13.5t97.5 -22t77.5 -35t47.5 -52.5t18 -74q0 -100 -91.5 -159t-263.5 -59q-252 0 -407 119l103 114q121 -91 307 -91q156 0 156 55q0 26 -36 36.5t-139 20.5q-63 6 -112.5 14.5t-98 23.5t-81 36
t-52.5 52.5t-20 71.5q0 96 101 150.5t258 54.5q211 0 347 -92l-98 -112q-94 61 -252 63q-159 0 -159 -48q0 -24 39.5 -33.5t139.5 -19.5z" />
    <glyph glyph-name="scommaaccent.sc" horiz-adv-x="825" 
d="M430 394q69 -6 118.5 -13.5t97.5 -22t77.5 -35t47.5 -52.5t18 -74q0 -100 -91.5 -159t-263.5 -59q-252 0 -407 119l103 114q121 -91 307 -91q156 0 156 55q0 26 -36 36.5t-139 20.5q-63 6 -112.5 14.5t-98 23.5t-81 36t-52.5 52.5t-20 71.5q0 96 101 150.5t258 54.5
q211 0 347 -92l-98 -112q-94 61 -252 63q-159 0 -159 -48q0 -24 39.5 -33.5t139.5 -19.5zM428 -52q54 0 87 -36.5t33 -89.5q0 -61 -40.5 -129.5t-115.5 -112.5l-40 56q80 59 97 120q-6 -7 -28 -7q-44 0 -74.5 28.5t-30.5 71.5q0 42 32 70.5t80 28.5z" />
    <glyph glyph-name="germandbls.sc" horiz-adv-x="1647" 
d="M1253 394q69 -6 118.5 -13.5t97.5 -22t77.5 -35t47.5 -52.5t18 -74q0 -100 -91.5 -159t-263.5 -59q-252 0 -407 119l103 114q121 -91 307 -91q156 0 156 55q0 26 -36 36.5t-139 20.5q-63 6 -112.5 14.5t-98 23.5t-81 36t-52.5 52.5t-20 71.5q0 96 101 150.5t258 54.5
q211 0 347 -92l-98 -112q-94 61 -252 63q-159 0 -159 -48q0 -24 39.5 -33.5t139.5 -19.5zM430 394q69 -6 118.5 -13.5t97.5 -22t77.5 -35t47.5 -52.5t18 -74q0 -100 -91.5 -159t-263.5 -59q-252 0 -407 119l103 114q121 -91 307 -91q156 0 156 55q0 26 -36 36.5t-139 20.5
q-63 6 -112.5 14.5t-98 23.5t-81 36t-52.5 52.5t-20 71.5q0 96 101 150.5t258 54.5q211 0 347 -92l-98 -112q-94 61 -252 63q-159 0 -159 -48q0 -24 39.5 -33.5t139.5 -19.5z" />
    <glyph glyph-name="t.sc" horiz-adv-x="760" 
d="M740 614v-156h-260v-458h-198v458h-261v156h719z" />
    <glyph glyph-name="tbar.sc" horiz-adv-x="751" 
d="M736 458h-261v-112h134v-132h-134v-214h-198v214h-134v132h134v112h-261v156h720v-156z" />
    <glyph glyph-name="tcaron.sc" horiz-adv-x="760" 
d="M128 862l151 -168h206l150 168h-172l-81 -89l-81 89h-173zM740 614v-156h-260v-458h-198v458h-261v156h719z" />
    <glyph glyph-name="uni0163.sc" horiz-adv-x="760" 
d="M740 614v-156h-260v-458h-198v458h-261v156h719zM467 -54l-147 -162l-124 33l101 154z" />
    <glyph glyph-name="u.sc" horiz-adv-x="885" 
d="M620 614h198v-325q0 -143 -98.5 -226.5t-276.5 -83.5t-277 83.5t-99 226.5v325h199v-309q0 -76 44.5 -120t132.5 -44q87 0 132 44t45 120v309z" />
    <glyph glyph-name="uacute.sc" horiz-adv-x="885" 
d="M710 862l-237 -168h-145l137 168h245zM620 614h198v-325q0 -143 -98.5 -226.5t-276.5 -83.5t-277 83.5t-99 226.5v325h199v-309q0 -76 44.5 -120t132.5 -44q87 0 132 44t45 120v309z" />
    <glyph glyph-name="ubreve.sc" horiz-adv-x="885" 
d="M645 862q0 -27 -10.5 -55.5t-32.5 -56.5t-63 -46t-95 -18t-95.5 18t-63.5 46t-32.5 56.5t-10.5 55.5h118q3 -29 25 -49.5t59 -20.5q36 0 58 21t24 49h119zM620 614h198v-325q0 -143 -98.5 -226.5t-276.5 -83.5t-277 83.5t-99 226.5v325h199v-309q0 -76 44.5 -120
t132.5 -44q87 0 132 44t45 120v309z" />
    <glyph glyph-name="ucircumflex.sc" horiz-adv-x="885" 
d="M190 694h172l80 89l81 -89h174l-150 168h-206zM620 614h198v-325q0 -143 -98.5 -226.5t-276.5 -83.5t-277 83.5t-99 226.5v325h199v-309q0 -76 44.5 -120t132.5 -44q87 0 132 44t45 120v309z" />
    <glyph glyph-name="udieresis.sc" horiz-adv-x="885" 
d="M303 693q-41 0 -67.5 22t-26.5 58t26 57.5t68 21.5q41 0 67.5 -21.5t26.5 -57.5t-26.5 -58t-67.5 -22zM584 693q-42 0 -68 22t-26 58t26 57.5t68 21.5q41 0 67.5 -21.5t26.5 -57.5t-26.5 -58t-67.5 -22zM620 614h198v-325q0 -143 -98.5 -226.5t-276.5 -83.5t-277 83.5
t-99 226.5v325h199v-309q0 -76 44.5 -120t132.5 -44q87 0 132 44t45 120v309z" />
    <glyph glyph-name="ugrave.sc" horiz-adv-x="885" 
d="M177 862h245l137 -168h-145zM620 614h198v-325q0 -143 -98.5 -226.5t-276.5 -83.5t-277 83.5t-99 226.5v325h199v-309q0 -76 44.5 -120t132.5 -44q87 0 132 44t45 120v309z" />
    <glyph glyph-name="uhungarumlaut.sc" horiz-adv-x="885" 
d="M538 862l-165 -168h-172l164 168h173zM779 862l-165 -168h-172l165 168h172zM620 614h198v-325q0 -143 -98.5 -226.5t-276.5 -83.5t-277 83.5t-99 226.5v325h199v-309q0 -76 44.5 -120t132.5 -44q87 0 132 44t45 120v309z" />
    <glyph glyph-name="umacron.sc" horiz-adv-x="885" 
d="M211 841h465v-133h-465v133zM620 614h198v-325q0 -143 -98.5 -226.5t-276.5 -83.5t-277 83.5t-99 226.5v325h199v-309q0 -76 44.5 -120t132.5 -44q87 0 132 44t45 120v309z" />
    <glyph glyph-name="uogonek.sc" horiz-adv-x="885" 
d="M620 614h198v-325q0 -108 -57 -183.5t-163 -106.5q-44 -17 -77 -50t-33 -70q0 -26 19 -42t48 -16q41 0 68 27l32 -40q-45 -61 -141 -61q-66 0 -113 31t-47 88q0 71 67 113q-168 5 -261 88.5t-93 221.5v325h199v-309q0 -76 44.5 -120t132.5 -44q87 0 132 44t45 120v309z
" />
    <glyph glyph-name="uring.sc" horiz-adv-x="885" 
d="M443 683q-74 0 -118.5 31.5t-44.5 88.5q0 58 44.5 90t118.5 32t118.5 -32.5t44.5 -89.5t-44.5 -88.5t-118.5 -31.5zM388 803q0 -23 15 -36.5t40 -13.5t40 13.5t15 36.5t-15 36.5t-40 13.5t-40 -13.5t-15 -36.5zM620 614h198v-325q0 -143 -98.5 -226.5t-276.5 -83.5
t-277 83.5t-99 226.5v325h199v-309q0 -76 44.5 -120t132.5 -44q87 0 132 44t45 120v309z" />
    <glyph glyph-name="utilde.sc" horiz-adv-x="885" 
d="M646 878l79 -121q-63 -70 -164 -70q-47 0 -115 25t-104 25q-54 0 -102 -45l-78 121q26 30 70 50t95 20q47 0 114 -24.5t104 -24.5q60 0 101 44zM620 614h198v-325q0 -143 -98.5 -226.5t-276.5 -83.5t-277 83.5t-99 226.5v325h199v-309q0 -76 44.5 -120t132.5 -44
q87 0 132 44t45 120v309z" />
    <glyph glyph-name="v.sc" horiz-adv-x="826" 
d="M-1 614h215l201 -425l202 425h210l-309 -614h-209z" />
    <glyph glyph-name="w.sc" horiz-adv-x="1168" 
d="M958 614h199l-233 -614h-197l-143 408l-142 -408h-198l-232 614h202l134 -406l146 406h183l147 -406z" />
    <glyph glyph-name="wacute.sc" horiz-adv-x="1168" 
d="M852 862l-237 -168h-145l137 168h245zM958 614h199l-233 -614h-197l-143 408l-142 -408h-198l-232 614h202l134 -406l146 406h183l147 -406z" />
    <glyph glyph-name="wcircumflex.sc" horiz-adv-x="1168" 
d="M332 694h172l80 89l81 -89h174l-150 168h-206zM958 614h199l-233 -614h-197l-143 408l-142 -408h-198l-232 614h202l134 -406l146 406h183l147 -406z" />
    <glyph glyph-name="wdieresis.sc" horiz-adv-x="1168" 
d="M445 693q-41 0 -67.5 22t-26.5 58t26 57.5t68 21.5q41 0 67.5 -21.5t26.5 -57.5t-26.5 -58t-67.5 -22zM726 693q-42 0 -68 22t-26 58t26 57.5t68 21.5q41 0 67.5 -21.5t26.5 -57.5t-26.5 -58t-67.5 -22zM958 614h199l-233 -614h-197l-143 408l-142 -408h-198l-232 614
h202l134 -406l146 406h183l147 -406z" />
    <glyph glyph-name="wgrave.sc" horiz-adv-x="1168" 
d="M319 862h245l137 -168h-145zM958 614h199l-233 -614h-197l-143 408l-142 -408h-198l-232 614h202l134 -406l146 406h183l147 -406z" />
    <glyph glyph-name="x.sc" horiz-adv-x="807" 
d="M801 614l-285 -299l291 -315h-236l-174 185l-173 -185h-223l289 313l-282 301h235l168 -177l166 177h224z" />
    <glyph glyph-name="y.sc" horiz-adv-x="794" 
d="M0 614h220l178 -253l176 253h220l-298 -408v-206h-198v206z" />
    <glyph glyph-name="yacute.sc" horiz-adv-x="794" 
d="M664 862l-237 -168h-145l137 168h245zM0 614h220l178 -253l176 253h220l-298 -408v-206h-198v206z" />
    <glyph glyph-name="ycircumflex.sc" horiz-adv-x="794" 
d="M144 694h172l80 89l81 -89h174l-150 168h-206zM0 614h220l178 -253l176 253h220l-298 -408v-206h-198v206z" />
    <glyph glyph-name="ydieresis.sc" horiz-adv-x="794" 
d="M257 693q-41 0 -67.5 22t-26.5 58t26 57.5t68 21.5q41 0 67.5 -21.5t26.5 -57.5t-26.5 -58t-67.5 -22zM538 693q-41 0 -67.5 22t-26.5 58t26 57.5t68 21.5q41 0 67.5 -21.5t26.5 -57.5t-26.5 -58t-67.5 -22zM0 614h220l178 -253l176 253h220l-298 -408v-206h-198v206z
" />
    <glyph glyph-name="ygrave.sc" horiz-adv-x="794" 
d="M131 862h245l137 -168h-145zM0 614h220l178 -253l176 253h220l-298 -408v-206h-198v206z" />
    <glyph glyph-name="z.sc" horiz-adv-x="816" 
d="M759 614v-121l-428 -344h442v-149h-732v121l429 345h-412v148h701z" />
    <glyph glyph-name="zacute.sc" horiz-adv-x="816" 
d="M684 862l-237 -168h-145l137 168h245zM759 614v-121l-428 -344h442v-149h-732v121l429 345h-412v148h701z" />
    <glyph glyph-name="zcaron.sc" horiz-adv-x="816" 
d="M164 862l151 -168h206l150 168h-172l-81 -89l-81 89h-173zM759 614v-121l-428 -344h442v-149h-732v121l429 345h-412v148h701z" />
    <glyph glyph-name="zdotaccent.sc" horiz-adv-x="816" 
d="M417 693q-41 0 -66.5 21t-25.5 56q0 36 25.5 57t66.5 21t66.5 -21t25.5 -57q0 -35 -25.5 -56t-66.5 -21zM759 614v-121l-428 -344h442v-149h-732v121l429 345h-412v148h701z" />
    <glyph glyph-name="zero.osf" horiz-adv-x="912" 
d="M456 -23q-187 0 -300.5 92t-113.5 252q0 158 112.5 244t301.5 86t301.5 -86t112.5 -244q0 -160 -114 -252t-300 -92zM456 143q98 0 152.5 44t54.5 127t-54.5 127t-152.5 44t-152.5 -44t-54.5 -127t54.5 -127t152.5 -44z" />
    <glyph glyph-name="one.osf" horiz-adv-x="525" 
d="M239 0v417q-75 -50 -209 -73v163q67 10 137.5 43t121.5 78h154v-628h-204z" />
    <glyph glyph-name="two.osf" horiz-adv-x="826" 
d="M48 500q56 65 156 107t219 42q63 0 123 -13t110.5 -37t81 -64t30.5 -90q0 -39 -18.5 -71t-55 -57t-76 -43t-96.5 -37q-30 -10 -69 -21.5t-64.5 -19.5t-51 -16.5t-40.5 -16.5t-21 -16h504v-147h-744v88q24 175 346 266q14 4 39.5 11t38.5 10.5t32.5 10t29.5 11.5
t20.5 12.5t15 16t4.5 18.5q0 32 -43.5 46.5t-106.5 14.5q-147 0 -253 -106z" />
    <glyph glyph-name="three.osf" horiz-adv-x="838" 
d="M161 159q87 -101 242 -101q74 0 125 20.5t51 65.5t-48.5 61t-134.5 16h-111v136h111q70 0 116.5 16.5t46.5 53.5q0 26 -25 42.5t-59 22.5t-76 6q-149 0 -233 -99l-132 94q57 73 154 114.5t218 41.5q97 0 176.5 -20t132 -65.5t52.5 -110.5q0 -62 -45.5 -107.5
t-119.5 -54.5q83 -13 137.5 -54.5t54.5 -113.5q0 -102 -108 -159t-275 -57q-125 0 -226.5 43t-162.5 118z" />
    <glyph glyph-name="four.osf" horiz-adv-x="892" 
d="M865 210v-146h-135v-136h-198v136h-516v114l532 450h182v-418h135zM266 210h267v227z" />
    <glyph glyph-name="five.osf" horiz-adv-x="848" 
d="M137 160q46 -38 123.5 -66.5t168.5 -28.5q179 0 179 88q0 93 -186 93q-115 0 -215 -43l-146 55l60 370h622v-151h-469l-24 -151q107 65 248 65q83 0 153 -24.5t117.5 -80.5t47.5 -135q0 -107 -96.5 -176.5t-290.5 -69.5q-242 0 -400 135z" />
    <glyph glyph-name="six.osf" horiz-adv-x="900" 
d="M527 463q59 0 115 -12.5t107 -38.5t82 -73t31 -108q0 -113 -102.5 -183.5t-283.5 -70.5q-201 0 -317.5 100t-116.5 273t116.5 273t317.5 100q236 0 367 -118l-110 -111q-94 82 -235 82q-235 0 -249 -197q52 41 126 62.5t152 21.5zM476 124q84 0 132.5 26.5t48.5 78.5
q0 99 -173 99q-130 0 -225 -69q39 -135 217 -135z" />
    <glyph glyph-name="seven.osf" horiz-adv-x="775" 
d="M155 -72l365 540h-494v160h739v-124l-380 -576h-230z" />
    <glyph glyph-name="eight.osf" horiz-adv-x="897" 
d="M661 366q82 -13 137.5 -56.5t55.5 -114.5q0 -102 -111.5 -160t-294.5 -58q-182 0 -293.5 58t-111.5 160q0 71 55.5 114.5t138.5 56.5q-75 8 -121 51.5t-46 106.5q0 96 107.5 147.5t270.5 51.5t271 -51.5t108 -147.5q0 -62 -46 -106t-120 -52zM275 504q0 -40 49.5 -60
t123.5 -20q75 0 124.5 20t49.5 60t-49.5 60t-124.5 20q-74 0 -123.5 -20t-49.5 -60zM448 116q87 0 140.5 23t53.5 70q0 46 -53.5 69t-140.5 23q-86 0 -139.5 -23t-53.5 -69t54 -69.5t139 -23.5z" />
    <glyph glyph-name="nine.osf" horiz-adv-x="900" 
d="M424 651q201 0 317.5 -100t116.5 -273t-116.5 -273t-317.5 -100q-236 0 -367 118l110 111q94 -82 235 -82q233 0 249 197q-52 -41 -126.5 -62.5t-151.5 -21.5q-59 0 -115 12.5t-107 38.5t-82 73t-31 108q0 113 102.5 183.5t283.5 70.5zM243 399q0 -99 173 -99
q131 0 225 68q-39 136 -217 136q-84 0 -132.5 -26.5t-48.5 -78.5z" />
    <glyph glyph-name="zero.subs" horiz-adv-x="558" 
d="M279 -135q-115 0 -182 58.5t-67 162.5q0 105 67 163.5t182 58.5q116 0 183 -58.5t67 -163.5q0 -104 -67 -162.5t-183 -58.5zM279 -34q57 0 89 31.5t32 88.5t-32 88t-89 31t-89.5 -31t-32.5 -88t32.5 -88.5t89.5 -31.5z" />
    <glyph glyph-name="one.subs" horiz-adv-x="318" 
d="M136 -122v286q-46 -30 -117 -42v100q39 5 79.5 25t68.5 47h95v-416h-126z" />
    <glyph glyph-name="two.subs" horiz-adv-x="484" 
d="M32 217q36 40 92.5 65t123.5 25q79 0 138.5 -33t59.5 -95q0 -91 -147 -142q-115 -39 -128 -64h282v-95h-428v57q7 61 58 107.5t139 74.5q6 2 17 6l16.5 6t15 5.5t14 6t11.5 6t10 6.5l6.5 6.5t5 7.5t1.5 9q0 19 -22.5 29t-55.5 10q-76 0 -140 -65z" />
    <glyph glyph-name="three.subs" horiz-adv-x="489" 
d="M97 16q56 -58 134 -58q39 0 67 12.5t28 38.5q0 43 -95 43h-64v82h64q83 0 83 40t-86 40q-72 0 -126 -55l-76 53q31 45 87.5 70t124.5 25q85 0 145 -29.5t60 -86.5q0 -37 -25.5 -64.5t-68.5 -32.5q48 -8 79 -32.5t31 -66.5q0 -61 -62 -95t-159 -34q-70 0 -128 26t-91 73z
" />
    <glyph glyph-name="four.subs" horiz-adv-x="521" 
d="M499 49v-89h-74v-82h-122v82h-289v69l298 265h113v-245h74zM164 49h138v124z" />
    <glyph glyph-name="five.subs" horiz-adv-x="492" 
d="M78 15q66 -52 168 -52q94 0 94 51t-94 51q-67 0 -120 -26l-88 32l36 223h354v-92h-261l-14 -87q58 39 139 39q73 0 124.5 -36.5t51.5 -104.5q0 -66 -53.5 -107t-165.5 -41q-130 0 -229 74z" />
    <glyph glyph-name="six.subs" horiz-adv-x="524" 
d="M300 154q36 0 69.5 -7.5t63 -22.5t47.5 -43t18 -65q0 -67 -58 -109t-163 -42q-114 0 -180.5 59t-66.5 162t66.5 162.5t180.5 59.5q137 0 211 -69l-65 -68q-53 47 -131 47q-124 0 -134 -110q54 46 142 46zM277 -45q94 0 94 57q0 59 -94 59q-67 0 -115 -36q20 -80 115 -80z
" />
    <glyph glyph-name="seven.subs" horiz-adv-x="451" 
d="M85 -122l201 318h-270v98h421v-76l-211 -340h-141z" />
    <glyph glyph-name="eight.subs" horiz-adv-x="522" 
d="M381 97q50 -9 81 -34.5t31 -69.5q0 -59 -64 -93.5t-168 -34.5t-168 34.5t-64 93.5q0 84 111 104q-45 4 -70.5 31t-25.5 65q0 56 62.5 85.5t154.5 29.5t154.5 -29.5t62.5 -85.5q0 -38 -26 -65t-71 -31zM171 177q0 -45 91 -45q88 0 88 45q0 23 -25.5 34.5t-62.5 11.5
q-39 0 -65 -11.5t-26 -34.5zM260 -51q43 0 72 14.5t29 40.5q0 28 -28.5 41t-72.5 13q-100 0 -100 -54q0 -26 28.5 -40.5t71.5 -14.5z" />
    <glyph glyph-name="nine.subs" horiz-adv-x="524" 
d="M245 307q114 0 180.5 -59t66.5 -162t-66.5 -162.5t-180.5 -59.5q-137 0 -211 69l65 68q53 -47 131 -47q124 0 134 110q-54 -46 -142 -46q-36 0 -69.5 7.5t-63 22.5t-47.5 43t-18 65q0 67 58 109t163 42zM151 160q0 -59 94 -59q67 0 115 36q-20 80 -115 80q-94 0 -94 -57z
" />
    <glyph glyph-name="zero.dnom" horiz-adv-x="558" 
d="M279 -13q-115 0 -182 58.5t-67 162.5q0 105 67 163.5t182 58.5q116 0 183 -58.5t67 -163.5q0 -104 -67 -162.5t-183 -58.5zM279 88q57 0 89 31.5t32 88.5t-32 88t-89 31t-89.5 -31t-32.5 -88t32.5 -88.5t89.5 -31.5z" />
    <glyph glyph-name="one.dnom" horiz-adv-x="318" 
d="M136 0v286q-46 -30 -117 -42v100q39 5 79.5 25t68.5 47h95v-416h-126z" />
    <glyph glyph-name="two.dnom" horiz-adv-x="484" 
d="M32 339q36 40 92.5 65t123.5 25q79 0 138.5 -33t59.5 -95q0 -91 -147 -142q-115 -39 -128 -64h282v-95h-428v57q7 61 58 107.5t139 74.5q6 2 17 6l16.5 6t15 5.5t14 6t11.5 6t10 6.5l6.5 6.5t5 7.5t1.5 9q0 19 -22.5 29t-55.5 10q-76 0 -140 -65z" />
    <glyph glyph-name="three.dnom" horiz-adv-x="489" 
d="M97 138q56 -58 134 -58q39 0 67 12.5t28 38.5q0 43 -95 43h-64v82h64q83 0 83 40t-86 40q-72 0 -126 -55l-76 53q31 45 87.5 70t124.5 25q85 0 145 -29.5t60 -86.5q0 -37 -25.5 -64.5t-68.5 -32.5q48 -8 79 -32.5t31 -66.5q0 -61 -62 -95t-159 -34q-70 0 -128 26t-91 73z
" />
    <glyph glyph-name="four.dnom" horiz-adv-x="521" 
d="M499 171v-89h-74v-82h-122v82h-289v69l298 265h113v-245h74zM164 171h138v124z" />
    <glyph glyph-name="five.dnom" horiz-adv-x="492" 
d="M78 137q66 -52 168 -52q94 0 94 51t-94 51q-67 0 -120 -26l-88 32l36 223h354v-92h-261l-14 -87q58 39 139 39q73 0 124.5 -36.5t51.5 -104.5q0 -66 -53.5 -107t-165.5 -41q-130 0 -229 74z" />
    <glyph glyph-name="six.dnom" horiz-adv-x="524" 
d="M300 276q36 0 69.5 -7.5t63 -22.5t47.5 -43t18 -65q0 -67 -58 -109t-163 -42q-114 0 -180.5 59t-66.5 162t66.5 162.5t180.5 59.5q137 0 211 -69l-65 -68q-53 47 -131 47q-124 0 -134 -110q54 46 142 46zM277 77q94 0 94 57q0 59 -94 59q-66 0 -115 -35q20 -81 115 -81z
" />
    <glyph glyph-name="seven.dnom" horiz-adv-x="451" 
d="M85 0l201 318h-270v98h421v-76l-211 -340h-141z" />
    <glyph glyph-name="eight.dnom" horiz-adv-x="522" 
d="M381 219q50 -9 81 -34.5t31 -69.5q0 -59 -64 -93.5t-168 -34.5t-168 34.5t-64 93.5q0 84 111 104q-45 4 -70.5 31t-25.5 65q0 56 62.5 85.5t154.5 29.5t154.5 -29.5t62.5 -85.5q0 -38 -26 -65t-71 -31zM171 299q0 -45 91 -45q88 0 88 45q0 23 -25.5 34.5t-62.5 11.5
q-39 0 -65 -11.5t-26 -34.5zM260 71q43 0 72 14.5t29 40.5q0 28 -28.5 41t-72.5 13q-100 0 -100 -54q0 -26 28.5 -40.5t71.5 -14.5z" />
    <glyph glyph-name="nine.dnom" horiz-adv-x="524" 
d="M245 429q114 0 180.5 -59t66.5 -162t-66.5 -162.5t-180.5 -59.5q-137 0 -211 69l65 68q53 -47 131 -47q124 0 134 110q-54 -46 -142 -46q-36 0 -69.5 7.5t-63 22.5t-47.5 43t-18 65q0 67 58 109t163 42zM151 282q0 -59 94 -59q67 0 115 36q-20 80 -115 80q-94 0 -94 -57z
" />
    <glyph glyph-name="zero.numr" horiz-adv-x="558" 
d="M279 271q-115 0 -182 58.5t-67 162.5q0 105 67 163.5t182 58.5q116 0 183 -58.5t67 -163.5q0 -104 -67 -162.5t-183 -58.5zM279 372q57 0 89 31.5t32 88.5t-32 88t-89 31t-89.5 -31t-32.5 -88t32.5 -88.5t89.5 -31.5z" />
    <glyph glyph-name="one.numr" horiz-adv-x="318" 
d="M136 284v286q-46 -30 -117 -42v100q39 5 79.5 25t68.5 47h95v-416h-126z" />
    <glyph glyph-name="two.numr" horiz-adv-x="484" 
d="M32 623q36 40 92.5 65t123.5 25q79 0 138.5 -33t59.5 -95q0 -91 -147 -142q-115 -39 -128 -64h282v-95h-428v57q7 61 58 107.5t139 74.5q6 2 17 6l16.5 6t15 5.5t14 6t11.5 6t10 6.5l6.5 6.5t5 7.5t1.5 9q0 19 -22.5 29t-55.5 10q-76 0 -140 -65z" />
    <glyph glyph-name="three.numr" horiz-adv-x="489" 
d="M97 422q56 -58 134 -58q39 0 67 12.5t28 38.5q0 43 -95 43h-64v82h64q83 0 83 40t-86 40q-72 0 -126 -55l-76 53q31 45 87.5 70t124.5 25q85 0 145 -29.5t60 -86.5q0 -37 -25.5 -64.5t-68.5 -32.5q48 -8 79 -32.5t31 -66.5q0 -61 -62 -95t-159 -34q-70 0 -128 26t-91 73z
" />
    <glyph glyph-name="four.numr" horiz-adv-x="521" 
d="M499 455v-89h-74v-82h-122v82h-289v69l298 265h113v-245h74zM164 455h138v124z" />
    <glyph glyph-name="five.numr" horiz-adv-x="492" 
d="M78 421q66 -52 168 -52q94 0 94 51t-94 51q-67 0 -120 -26l-88 32l36 223h354v-92h-261l-14 -87q58 39 139 39q73 0 124.5 -36.5t51.5 -104.5q0 -66 -53.5 -107t-165.5 -41q-130 0 -229 74z" />
    <glyph glyph-name="six.numr" horiz-adv-x="524" 
d="M300 560q36 0 69.5 -7.5t63 -22.5t47.5 -43t18 -65q0 -67 -58 -109t-163 -42q-114 0 -180.5 59t-66.5 162t66.5 162.5t180.5 59.5q137 0 211 -69l-65 -68q-53 47 -131 47q-124 0 -134 -110q54 46 142 46zM277 361q94 0 94 57q0 59 -94 59q-67 0 -115 -36q20 -80 115 -80z
" />
    <glyph glyph-name="seven.numr" horiz-adv-x="451" 
d="M85 284l201 318h-270v98h421v-76l-211 -340h-141z" />
    <glyph glyph-name="eight.numr" horiz-adv-x="522" 
d="M381 503q50 -9 81 -34.5t31 -69.5q0 -59 -64 -93.5t-168 -34.5t-168 34.5t-64 93.5q0 84 111 104q-45 4 -70.5 31t-25.5 65q0 56 62.5 85.5t154.5 29.5t154.5 -29.5t62.5 -85.5q0 -38 -26 -65t-71 -31zM171 583q0 -45 91 -45q88 0 88 45q0 23 -25.5 34.5t-62.5 11.5
q-39 0 -65 -11.5t-26 -34.5zM260 355q43 0 72 14.5t29 40.5q0 28 -28.5 41t-72.5 13q-100 0 -100 -54q0 -26 28.5 -40.5t71.5 -14.5z" />
    <glyph glyph-name="nine.numr" horiz-adv-x="524" 
d="M245 713q114 0 180.5 -59t66.5 -162t-66.5 -162.5t-180.5 -59.5q-137 0 -211 69l65 68q53 -47 131 -47q124 0 134 110q-54 -46 -142 -46q-36 0 -69.5 7.5t-63 22.5t-47.5 43t-18 65q0 67 58 109t163 42zM151 566q0 -59 94 -59q67 0 115 36q-20 80 -115 80q-94 0 -94 -57z
" />
    <glyph glyph-name="zero.sc" horiz-adv-x="891" 
d="M446 -21q-187 0 -295 86.5t-108 241.5t108 242t295 87q186 0 293.5 -87t107.5 -242t-107.5 -241.5t-293.5 -86.5zM446 138q94 0 147 44.5t53 124.5q0 81 -53 125t-147 44q-96 0 -149 -44t-53 -125t53 -125t149 -44z" />
    <glyph glyph-name="one.sc" horiz-adv-x="498" 
d="M219 0v413q-71 -41 -191 -60v156q62 8 127.5 37t111.5 68h150v-614h-198z" />
    <glyph glyph-name="two.sc" horiz-adv-x="775" 
d="M50 499q50 60 140.5 97.5t203.5 37.5q84 0 154.5 -19t119.5 -63.5t49 -108.5q0 -140 -240 -209q-94 -27 -144.5 -47t-64.5 -40h460v-147h-690v85q12 92 95 163.5t225 110.5q107 32 129 43q30 17 30 38q0 25 -38 38t-95 13q-128 0 -227 -94z" />
    <glyph glyph-name="three.sc" horiz-adv-x="780" 
d="M148 210q97 -86 223 -86q158 0 158 70q0 18 -12.5 30.5t-36 18.5t-49 8t-60.5 2h-103v128h103q59 0 99.5 13.5t40.5 42.5q0 52 -145 52q-123 0 -208 -81l-120 86q53 67 142 103.5t201 36.5q87 0 160 -17t122.5 -57t49.5 -97q0 -54 -41.5 -94.5t-112.5 -49.5
q79 -12 129 -48.5t50 -98.5q0 -91 -100 -141t-255 -50q-114 0 -207 38t-149 106z" />
    <glyph glyph-name="four.sc" horiz-adv-x="832" 
d="M801 253v-139h-122v-114h-191v114h-468v111l483 389h176v-361h122zM255 253h233v176z" />
    <glyph glyph-name="five.sc" horiz-adv-x="789" 
d="M122 209q105 -77 274 -77q158 0 158 68q0 70 -162 70q-108 0 -192 -35l-140 53l55 326h574v-143h-426l-21 -119q97 57 225 57q74 0 137.5 -21.5t107 -71t43.5 -118.5q0 -95 -89 -157t-270 -62q-215 0 -366 114z" />
    <glyph glyph-name="six.sc" horiz-adv-x="837" 
d="M480 409q57 0 110.5 -11t101.5 -33.5t77 -63.5t29 -96q0 -100 -94 -163t-262 -63q-184 0 -291.5 88t-107.5 240t107.5 240.5t291.5 88.5q214 0 340 -101l-104 -109q-89 70 -212 70q-204 0 -222 -157q91 70 236 70zM442 117q157 0 157 83q0 81 -155 81q-109 0 -191 -51
q35 -113 189 -113z" />
    <glyph glyph-name="seven.sc" horiz-adv-x="725" 
d="M135 0l330 462h-442v152h679v-119l-344 -495h-223z" />
    <glyph glyph-name="eight.sc" horiz-adv-x="831" 
d="M611 321q77 -12 127.5 -50t50.5 -101q0 -87 -103.5 -139t-269.5 -52q-167 0 -270.5 51.5t-103.5 139.5q0 63 51 101t128 50q-70 9 -112 48.5t-42 94.5q0 56 49 95.5t126.5 58t173.5 18.5q95 0 172.5 -18.5t126.5 -58t49 -95.5q0 -55 -41.5 -94.5t-111.5 -48.5zM266 441
q0 -63 149 -63q151 0 151 63q0 30 -43.5 46.5t-107.5 16.5q-63 0 -106 -16.5t-43 -46.5zM416 112q73 0 120 19t47 56q0 74 -167 74t-167 -74q0 -37 47 -56t120 -19z" />
    <glyph glyph-name="nine.sc" horiz-adv-x="837" 
d="M393 635q184 0 291.5 -88t107.5 -240t-107.5 -240.5t-291.5 -88.5q-214 0 -340 101l104 109q89 -70 212 -70q205 0 222 157q-90 -70 -236 -70q-57 0 -110.5 11t-101.5 33.5t-77 63.5t-29 96q0 100 94 163t262 63zM236 414q0 -81 155 -81q110 0 192 51q-36 113 -190 113
q-157 0 -157 -83z" />
    <glyph glyph-name="periodcentered.case" horiz-adv-x="319" 
d="M160 256q-51 0 -83 28.5t-32 71.5t32.5 71.5t82.5 28.5t82 -29t32 -71q0 -43 -32 -71.5t-82 -28.5z" />
    <glyph glyph-name="bullet.case" horiz-adv-x="430" 
d="M215 213q-68 0 -112 41t-44 102q0 62 44 103t112 41q67 0 111 -41t44 -103q0 -61 -44 -102t-111 -41z" />
    <glyph glyph-name="exclamdown.case" horiz-adv-x="359" 
d="M179 713q50 0 82 -28t32 -71q0 -42 -32 -71t-82 -29t-82.5 28.5t-32.5 71.5t32 71t83 28zM62 0l32 450h171l32 -450h-235z" />
    <glyph glyph-name="questiondown.case" horiz-adv-x="764" 
d="M387 720q51 0 83 -28t32 -71t-32.5 -71.5t-82.5 -28.5t-82 29t-32 71q0 43 32 71t82 28zM463 471v-171q-111 -13 -163 -34t-52 -62q0 -71 141 -71q144 0 245 106l105 -109q-145 -145 -356 -145q-88 0 -163 21.5t-127.5 71.5t-52.5 121q0 87 73 135.5t194 56.5v80h156z
" />
    <glyph glyph-name="braceleft.case" horiz-adv-x="517" 
d="M348 509q0 -69 -39 -112.5t-107 -45.5q68 -4 107 -48t39 -112q0 -58 28.5 -87t72.5 -29h30v-135h-55q-242 0 -242 201q0 92 -46 129.5t-131 37.5v85q85 0 131 37.5t46 129.5q0 200 242 200h55v-135h-30q-44 0 -72.5 -28.5t-28.5 -87.5z" />
    <glyph glyph-name="braceright.case" horiz-adv-x="517" 
d="M169 509q0 59 -28.5 87.5t-72.5 28.5h-30v135h55q242 0 242 -200q0 -92 46 -129.5t131 -37.5v-85q-85 0 -131 -37.5t-46 -129.5q0 -201 -242 -201h-55v135h30q44 0 72.5 29t28.5 87q0 68 39 112t107 48q-68 2 -107 45.5t-39 112.5z" />
    <glyph glyph-name="bracketleft.case" horiz-adv-x="464" 
d="M426 625h-180v-550h180v-135h-344v820h344v-135z" />
    <glyph glyph-name="bracketright.case" horiz-adv-x="464" 
d="M38 625v135h344v-820h-344v135h180v550h-180z" />
    <glyph glyph-name="parenleft.case" horiz-adv-x="468" 
d="M213 350q0 -118 59.5 -197.5t157.5 -109.5l-56 -126q-142 30 -238 149.5t-96 283.5t96 283.5t238 149.5l56 -126q-98 -30 -157.5 -109t-59.5 -198z" />
    <glyph glyph-name="parenright.case" horiz-adv-x="468" 
d="M255 350q0 119 -59.5 198t-157.5 109l56 126q142 -30 238 -149.5t96 -283.5t-96 -283.5t-238 -149.5l-56 126q98 30 157.5 109.5t59.5 197.5z" />
    <glyph glyph-name="emdash.case" horiz-adv-x="1007" 
d="M942 278h-877v156h877v-156z" />
    <glyph glyph-name="endash.case" horiz-adv-x="797" 
d="M732 278h-667v156h667v-156z" />
    <glyph glyph-name="hyphen.case" horiz-adv-x="608" 
d="M543 278h-478v156h478v-156z" />
    <glyph glyph-name="guillemotleft.case" horiz-adv-x="752" 
d="M527 581l-211 -224l211 -224h184l-211 224l211 224h-184zM240 580l-211 -224l211 -223h184l-211 223l211 224h-184z" />
    <glyph glyph-name="guillemotright.case" horiz-adv-x="752" 
d="M225 581h-184l211 -224l-211 -224h184l211 224zM512 580h-184l211 -224l-211 -223h184l211 223z" />
    <glyph glyph-name="guilsinglleft.case" horiz-adv-x="465" 
d="M240 580l-211 -224l211 -223h184l-211 223l211 224h-184z" />
    <glyph glyph-name="guilsinglright.case" horiz-adv-x="465" 
d="M225 580h-184l211 -224l-211 -223h184l211 223z" />
    <glyph glyph-name="backslash.sc" horiz-adv-x="734" 
d="M236 714l472 -814h-211l-472 814h211z" />
    <glyph glyph-name="exclam.sc" horiz-adv-x="368" 
d="M67 614h235l-32 -364h-171zM184 -13q-51 0 -83 28t-32 71t32.5 71.5t82.5 28.5t82 -29t32 -71q0 -43 -32 -71t-82 -28z" />
    <glyph glyph-name="exclamdown.sc" horiz-adv-x="359" 
d="M179 627q50 0 82 -28t32 -71q0 -42 -32 -71t-82 -29t-82.5 28.5t-32.5 71.5t32 71t83 28zM62 0l32 364h171l32 -364h-235z" />
    <glyph glyph-name="numbersign.sc" horiz-adv-x="892" 
d="M852 369h-151l-33 -112h152v-111h-186l-43 -146h-155l44 146h-166l-44 -146h-155l43 146h-119v111h152l34 112h-154v111h187l40 134h155l-40 -134h166l40 134h155l-40 -134h118v-111zM513 257l33 112h-166l-33 -112h166z" />
    <glyph glyph-name="question.sc" horiz-adv-x="708" 
d="M274 223v137q96 9 142.5 27t46.5 49q0 55 -121 55q-124 0 -214 -88l-102 105q131 126 324 126q82 0 152.5 -19t119.5 -63.5t49 -108.5q0 -76 -65.5 -118t-175.5 -49v-53h-156zM352 -13q-51 0 -83 28t-32 71t32.5 71.5t82.5 28.5t82 -29t32 -71q0 -43 -32 -71t-82 -28z
" />
    <glyph glyph-name="questiondown.sc" horiz-adv-x="707" 
d="M356 627q51 0 83 -28t32 -71t-32.5 -71.5t-82.5 -28.5t-82 29t-32 71q0 43 32 71t82 28zM434 392v-138q-96 -9 -142.5 -27t-46.5 -49q0 -55 121 -55q122 0 213 88l103 -105q-133 -126 -324 -126q-82 0 -152.5 19t-119.5 63.5t-49 108.5q0 76 65.5 118t174.5 49v54h157z
" />
    <glyph glyph-name="slash.sc" horiz-adv-x="734" 
d="M237 -100h-211l472 814h211z" />
    <glyph glyph-name="percent.osf" horiz-adv-x="918" 
d="M218 301q-84 0 -139 49.5t-55 122.5t55 122.5t139 49.5t138.5 -49.5t54.5 -122.5t-54.5 -122.5t-138.5 -49.5zM663 628h136l-544 -628h-136zM218 400q36 0 58 19t22 54q0 34 -22 53t-58 19t-58 -19t-22 -53q0 -35 22 -54t58 -19zM700 -17q-84 0 -138.5 49.5t-54.5 122.5
q0 74 54.5 123t138.5 49t138.5 -49t54.5 -123q0 -73 -54.5 -122.5t-138.5 -49.5zM700 83q36 0 58 19t22 53q0 35 -22 54t-58 19t-58 -19t-22 -54q0 -34 22 -53t58 -19z" />
    <glyph glyph-name="perthousand.osf" horiz-adv-x="1336" 
d="M218 301q-84 0 -139 49.5t-55 122.5t55 122.5t139 49.5t138.5 -49.5t54.5 -122.5t-54.5 -122.5t-138.5 -49.5zM663 628h136l-544 -628h-136zM218 400q36 0 58 19t22 54q0 34 -22 53t-58 19t-58 -19t-22 -53q0 -35 22 -54t58 -19zM700 -17q-84 0 -138.5 49.5t-54.5 122.5
q0 74 54.5 123t138.5 49t138.5 -49t54.5 -123q0 -73 -54.5 -122.5t-138.5 -49.5zM1119 -17q-84 0 -139 49.5t-55 122.5q0 74 55 123t139 49t138.5 -49t54.5 -123q0 -73 -54.5 -122.5t-138.5 -49.5zM700 83q36 0 58 19t22 53q0 35 -22 54t-58 19t-58 -19t-22 -54
q0 -34 22 -53t58 -19zM1119 83q36 0 58 19t22 53q0 35 -22 54t-58 19t-58 -19t-22 -54q0 -34 22 -53t58 -19z" />
    <glyph glyph-name="bar.case" horiz-adv-x="343" 
d="M80 -60v820h184v-820h-184z" />
    <glyph glyph-name="brokenbar.case" horiz-adv-x="343" 
d="M80 430v330h184v-330h-184zM264 275v-335h-184v335h184z" />
    <glyph glyph-name="at.case" horiz-adv-x="1039" 
d="M796 34q-94 -57 -279 -57q-217 0 -346 104t-129 269t129 269t346 104t346 -104t129 -269q0 -111 -45.5 -167t-127.5 -56q-59 0 -105.5 26.5t-68.5 70.5q-66 -99 -200 -99q-103 0 -172.5 61.5t-69.5 164.5t69.5 164.5t172.5 61.5q127 0 194 -99l28 82h118v-265
q0 -57 18 -83.5t44 -26.5q37 0 57 47t20 118q0 78 -31.5 138.5t-87.5 97.5t-128.5 55.5t-159.5 18.5t-159.5 -18.5t-128.5 -55.5t-87.5 -97.5t-31.5 -138.5t31.5 -138.5t87.5 -97.5t128.5 -55.5t159.5 -18.5q148 0 249 48zM489 228q94 0 146 90v64q-52 89 -146 89
q-62 0 -99 -32t-37 -90q0 -57 37 -89t99 -32z" />
    <glyph glyph-name="registered.case" horiz-adv-x="989" 
d="M495 723q205 0 328.5 -102.5t123.5 -270.5t-123.5 -270.5t-328.5 -102.5q-206 0 -329.5 102.5t-123.5 270.5t123.5 270.5t329.5 102.5zM793 117q102 86 102 233q0 153 -110 239.5t-290 86.5t-291 -86.5t-111 -239.5t111 -239t291 -86q178 0 287 83h-154l-106 146h-136
v-146h-156v485h328q103 0 169 -43t66 -126q0 -115 -125 -154zM386 355h160q89 0 89 65t-89 65h-160v-130z" />
    <glyph glyph-name="dagger.case" horiz-adv-x="568" 
d="M511 495v-131h-150v-364h-156v364h-149v131h149v205h156v-205h150z" />
    <glyph glyph-name="daggerdbl.case" horiz-adv-x="568" 
d="M511 420h-150v-140h150v-130h-150v-150h-156v150h-149v130h149v140h-149v131h149v149h156v-149h150v-131z" />
    <glyph glyph-name="bar.sc" horiz-adv-x="343" 
d="M80 -100v820h184v-820h-184z" />
    <glyph glyph-name="brokenbar.sc" horiz-adv-x="343" 
d="M80 390v330h184v-330h-184zM264 235v-335h-184v335h184z" />
    <glyph glyph-name="at.sc" horiz-adv-x="951" 
d="M736 31q-85 -52 -257 -52q-199 0 -317 91.5t-118 236.5q0 146 118 237.5t317 91.5q200 0 318 -91.5t118 -237.5q0 -99 -41.5 -147t-118.5 -48q-55 0 -98.5 22.5t-64.5 60.5q-59 -83 -182 -83q-93 0 -156 53.5t-63 141.5q0 89 63 143.5t156 54.5q116 0 176 -84l27 70h113
v-231q0 -48 16 -70t40 -22q32 0 50.5 40t18.5 99q0 91 -51 153t-132.5 89.5t-188.5 27.5q-164 0 -267 -67.5t-103 -202.5t103 -202t267 -67q133 0 228 44zM454 209q84 0 127 71v53q-43 71 -127 71q-54 0 -86.5 -26.5t-32.5 -71.5t32.5 -71t86.5 -26z" />
    <glyph glyph-name="ampersand.sc" horiz-adv-x="861" 
d="M858 0h-219l-35 26q-91 -43 -213 -43q-149 0 -247.5 59.5t-98.5 149.5q0 106 134 155q-59 54 -59 112q0 75 71.5 125t195.5 50q212 0 324 -159l-154 -64q-64 91 -163 91q-84 0 -84 -51q0 -20 16 -37.5t62 -51.5l211 -162q26 41 32 98h163q-8 -110 -77 -189zM408 114
q37 0 68 7l-210 157q-27 -28 -27 -63q0 -43 46.5 -72t122.5 -29z" />
    <glyph glyph-name="paragraph.sc" horiz-adv-x="925" 
d="M311 614h535v-614h-168v479h-90v-479h-168v177h-109q-132 0 -208 53.5t-76 165.5q0 109 76.5 163.5t207.5 54.5zM420 311v168h-101q-55 0 -88 -20.5t-33 -63.5q0 -84 121 -84h101z" />
    <glyph glyph-name="copyright.sc" horiz-adv-x="915" 
d="M457 -21q-188 0 -302 90.5t-114 237.5q0 149 114 239t302 90q189 0 303 -90t114 -239q0 -147 -114.5 -237.5t-302.5 -90.5zM457 24q165 0 267 75.5t102 207.5q0 133 -102 208.5t-267 75.5t-266.5 -75.5t-101.5 -208.5q0 -132 101.5 -207.5t266.5 -75.5zM716 195
q-36 -50 -102.5 -82.5t-159.5 -32.5q-125 0 -202 60.5t-77 167.5t77 168t202 61q92 0 157.5 -33t96.5 -83l-118 -55q-45 57 -123 57q-65 0 -102 -31t-37 -84t37 -84t102 -31q78 0 124 58z" />
    <glyph glyph-name="registered.sc" horiz-adv-x="915" 
d="M457 636q189 0 303 -90t114 -239q0 -147 -114.5 -237.5t-302.5 -90.5t-302 90.5t-114 237.5q0 149 114 239t302 90zM731 105q95 76 95 202q0 133 -102 208.5t-267 75.5t-266.5 -75.5t-101.5 -208.5q0 -132 101.5 -207.5t266.5 -75.5q161 0 260 70h-144l-94 125h-114v-125
h-152v427h303q95 0 156 -38t61 -113q0 -100 -112 -136zM365 321h141q74 0 74 47t-74 47h-141v-94z" />
    <glyph glyph-name="uni2117.sc" horiz-adv-x="915" 
d="M457 -20q-188 0 -302 90t-114 237q0 148 114 238t302 90q189 0 303 -89.5t114 -238.5q0 -147 -114 -237t-303 -90zM457 24q165 0 267 75.5t102 207.5q0 133 -102 208t-267 75t-266.5 -75t-101.5 -208q0 -132 101.5 -207.5t266.5 -75.5zM530 521q95 0 156.5 -39t61.5 -114
t-61 -114t-157 -39h-150v-121h-151v427h301zM517 317q38 0 58 10.5t20 38.5t-20 38.5t-58 10.5h-137v-98h137z" />
    <glyph glyph-name="section.sc" horiz-adv-x="694" 
d="M586 155q61 -35 61 -103q0 -78 -75.5 -128.5t-218.5 -50.5q-177 0 -312 86l80 99q106 -66 237 -66q118 0 118 41q0 20 -31 28.5t-102 13.5q-280 20 -280 163q0 73 69 123q-67 39 -67 109q0 78 80 122t210 44q164 0 275 -68l-80 -99q-80 47 -196 48q-119 0 -119 -36
q0 -19 32.5 -27.5t102.5 -13.5q131 -8 205 -43t74 -111q0 -80 -63 -131zM235 256q0 -47 131 -54l35 -3q36 7 56 23t20 35q0 49 -123 57q-5 1 -15 1q-44 -2 -74 -18t-30 -41z" />
    <glyph glyph-name="degree.sc" horiz-adv-x="425" 
d="M212 337q-76 0 -125 40.5t-49 107.5q0 66 49 106t125 40q77 0 126.5 -40t49.5 -106q0 -67 -49 -107.5t-127 -40.5zM212 417q36 0 57 18.5t21 49.5q0 30 -21 48.5t-57 18.5q-35 0 -56 -18.5t-21 -48.5q0 -31 21 -49.5t56 -18.5z" />
    <glyph glyph-name="cent.sc" horiz-adv-x="673" 
d="M638 195q-29 -54 -90 -90.5t-148 -44.5v-60h-86v60q-127 10 -199 74t-72 173t72 173t199 74v60h86v-60q87 -8 147 -44t90 -90l-136 -58q-35 53 -101 62v-234q63 11 101 63zM209 307q0 -45 28 -75t77 -40v230q-49 -10 -77 -40t-28 -75z" />
    <glyph glyph-name="currency.sc" horiz-adv-x="740" 
d="M654 312q0 -86 -49 -146l84 -81l-84 -77l-96 86q-62 -25 -138 -25q-78 0 -139 25l-96 -86l-85 77l84 81q-48 60 -48 146q0 76 39 135l-75 72l85 77l80 -73q68 33 155 33t153 -33l81 73l84 -77l-75 -72q40 -58 40 -135zM371 195q63 0 101 31t38 86q0 56 -38 87t-101 31
q-64 0 -102 -31t-38 -87q0 -55 38.5 -86t101.5 -31z" />
    <glyph glyph-name="dagger.sc" horiz-adv-x="568" 
d="M511 424v-127h-151v-297h-153v297h-151v127h151v190h153v-190h151z" />
    <glyph glyph-name="daggerdbl.sc" horiz-adv-x="568" 
d="M511 370h-151v-120h151v-122h-151v-128h-153v128h-151v122h151v120h-151v122h151v128h153v-128h151v-122z" />
    <glyph glyph-name="dollar.sc" horiz-adv-x="834" 
d="M795 207q0 -95 -86.5 -150t-243.5 -59v-89h-78v90q-209 12 -355 116l100 109q107 -75 255 -88v105q-72 8 -126.5 20t-102.5 33.5t-73.5 55.5t-25.5 80q0 89 91.5 135t236.5 51v81h78v-81q183 -10 301 -90l-96 -107q-82 54 -205 62v-94q66 -6 110 -12.5t89.5 -19.5
t71.5 -31t42.5 -47.5t16.5 -69.5zM253 440q0 -21 31.5 -30t102.5 -16v88q-134 -2 -134 -42zM465 134q136 3 136 49q0 22 -29 32t-107 18v-99z" />
    <glyph glyph-name="Euro.sc" horiz-adv-x="836" 
d="M479 125q119 0 171 93l149 -75q-35 -70 -118 -117t-196 -47q-143 0 -238 62.5t-123 176.5h-90v62h81q0 4 -0.5 13t-0.5 14q0 4 0.5 13.5t0.5 14.5h-81v61h90q28 114 123 177t238 63q112 0 195.5 -47.5t118.5 -117.5l-149 -75q-53 94 -171 94q-122 0 -165 -94h243v-61
h-260q-2 -18 -2 -28q0 -9 2 -27h260v-62h-243q43 -93 165 -93z" />
    <glyph glyph-name="minute.sc" horiz-adv-x="330" 
d="M135 614h171l-97 -295h-170z" />
    <glyph glyph-name="percent.sc" horiz-adv-x="918" 
d="M218 287q-84 0 -139 49.5t-55 122.5q0 74 55 123t139 49t138.5 -49t54.5 -123q0 -73 -54.5 -122.5t-138.5 -49.5zM664 614h135l-545 -614h-135zM218 387q36 0 58 19t22 53t-22 53t-58 19t-58 -19t-22 -53t22 -53t58 -19zM700 -17q-84 0 -138.5 49.5t-54.5 122.5
q0 74 54.5 123t138.5 49t138.5 -49t54.5 -123q0 -73 -54.5 -122.5t-138.5 -49.5zM700 83q36 0 58 19t22 53q0 35 -22 54t-58 19t-58 -19t-22 -54q0 -34 22 -53t58 -19z" />
    <glyph glyph-name="perthousand.sc" horiz-adv-x="1336" 
d="M218 287q-84 0 -139 49.5t-55 122.5q0 74 55 123t139 49t138.5 -49t54.5 -123q0 -73 -54.5 -122.5t-138.5 -49.5zM664 614h135l-545 -614h-135zM218 387q36 0 58 19t22 53t-22 53t-58 19t-58 -19t-22 -53t22 -53t58 -19zM700 -17q-84 0 -138.5 49.5t-54.5 122.5
q0 74 54.5 123t138.5 49t138.5 -49t54.5 -123q0 -73 -54.5 -122.5t-138.5 -49.5zM1119 -17q-84 0 -139 49.5t-55 122.5q0 74 55 123t139 49t138.5 -49t54.5 -123q0 -73 -54.5 -122.5t-138.5 -49.5zM700 83q36 0 58 19t22 53q0 35 -22 54t-58 19t-58 -19t-22 -54
q0 -34 22 -53t58 -19zM1119 83q36 0 58 19t22 53q0 35 -22 54t-58 19t-58 -19t-22 -54q0 -34 22 -53t58 -19z" />
    <glyph glyph-name="uni20A8.sc" horiz-adv-x="821" 
d="M781 500h-128q12 -20 20 -49h108v-114h-113q-31 -98 -147 -141l177 -196h-201l-150 173h-290v114h309q100 0 132 50h-441v114h441q-30 49 -132 49h-309v114h724v-114z" />
    <glyph glyph-name="second.sc" horiz-adv-x="577" 
d="M135 614h171l-97 -295h-170zM382 614h170l-96 -295h-170z" />
    <glyph glyph-name="sterling.sc" horiz-adv-x="720" 
d="M353 132h323v-132h-514h-117v132h117v118h-117v114h117v31q0 99 76 170t209 71q71 0 129.5 -21t91.5 -52l-69 -118q-51 40 -118 40q-128 0 -128 -111v-10h269v-114h-269v-118z" />
    <glyph glyph-name="yen.sc" horiz-adv-x="816" 
d="M791 614l-219 -301h124v-76h-179l-10 -14v-32h189v-75h-189v-116h-198v116h-189v75h189v32l-10 14h-179v76h124l-219 301h217l167 -251l166 251h216z" />
    <glyph glyph-name="florin.sc" horiz-adv-x="656" 
d="M513 499q-70 0 -78 -62l-7 -71h143l-10 -103h-145l-12 -111q-9 -79 -67 -126t-143 -47q-94 0 -164 35l39 116q39 -14 77 -14q67 0 76 61l9 86h-143l10 103h144l11 96q9 80 67 127t142 47q98 0 165 -36l-39 -115q-42 14 -75 14z" />
    <glyph glyph-name="A.ss01" 
d="M726 0l-57 116h-402l-57 -116h-214l362 700h223l362 -700h-217zM338 261h260l-130 266z" />
    <glyph glyph-name="Aacute.ss01" 
d="M736 948l-238 -168h-144l137 168h245zM726 0l-57 116h-402l-57 -116h-214l362 700h223l362 -700h-217zM338 261h260l-130 266z" />
    <glyph glyph-name="Abreve.ss01" 
d="M470 772q-54 0 -95.5 18t-63.5 46t-32.5 56.5t-10.5 55.5h119q2 -29 24 -49.5t59 -20.5q36 0 58 20.5t24 49.5h119q0 -27 -10.5 -55.5t-32.5 -56.5t-63 -46t-95 -18zM726 0l-57 116h-402l-57 -116h-214l362 700h223l362 -700h-217zM338 261h260l-130 266z" />
    <glyph glyph-name="Acircumflex.ss01" 
d="M468 869l-80 -89h-172l151 168h205l151 -168h-174zM726 0l-57 116h-402l-57 -116h-214l362 700h223l362 -700h-217zM338 261h260l-130 266z" />
    <glyph glyph-name="Adieresis.ss01" 
d="M329 779q-41 0 -67.5 22t-26.5 58t26 57.5t68 21.5q41 0 67.5 -21.5t26.5 -57.5t-26.5 -58t-67.5 -22zM610 779q-42 0 -68 22t-26 58t26 57.5t68 21.5q41 0 67.5 -21.5t26.5 -57.5t-26.5 -58t-67.5 -22zM726 0l-57 116h-402l-57 -116h-214l362 700h223l362 -700h-217z
M338 261h260l-130 266z" />
    <glyph glyph-name="Agrave.ss01" 
d="M585 780h-145l-237 168h245zM726 0l-57 116h-402l-57 -116h-214l362 700h223l362 -700h-217zM338 261h260l-130 266z" />
    <glyph glyph-name="Amacron.ss01" 
d="M702 927v-133h-465v133h465zM726 0l-57 116h-402l-57 -116h-214l362 700h223l362 -700h-217zM338 261h260l-130 266z" />
    <glyph glyph-name="Aogonek.ss01" 
d="M965 -152l32 -40q-45 -61 -141 -61q-66 0 -113 31t-47 88q0 44 29.5 80.5t85.5 53.5h-85l-57 116h-402l-57 -116h-214l362 700h223l362 -700h-1q-45 -17 -78.5 -50.5t-33.5 -70.5q0 -26 19 -42t48 -16q41 0 68 27zM338 261h260l-130 266z" />
    <glyph glyph-name="Aring.ss01" 
d="M469 769q-74 0 -118 31.5t-44 88.5q0 58 44 90t118 32t118.5 -32t44.5 -90q0 -57 -44.5 -88.5t-118.5 -31.5zM469 939q-25 0 -39.5 -13.5t-14.5 -36.5t14.5 -36.5t39.5 -13.5t40 13.5t15 36.5t-15 36.5t-40 13.5zM726 0l-57 116h-402l-57 -116h-214l362 700h223l362 -700
h-217zM338 261h260l-130 266z" />
    <glyph glyph-name="Aringacute.ss01" 
d="M469 769q-74 0 -118 31.5t-44 88.5q0 46 30 78l95 128h190l-112 -87q57 -8 89.5 -39t32.5 -80q0 -57 -44.5 -88.5t-118.5 -31.5zM524 889q0 23 -15 36.5t-40 13.5t-39.5 -13.5t-14.5 -36.5t14.5 -36.5t39.5 -13.5t40 13.5t15 36.5zM726 0l-57 116h-402l-57 -116h-214
l362 700h223l362 -700h-217zM338 261h260l-130 266z" />
    <glyph glyph-name="Atilde.ss01" 
d="M368 823q-54 0 -102 -45l-78 121q26 30 70 50t95 20q47 0 114 -24.5t104 -24.5q61 0 100 44l80 -121q-63 -70 -164 -70q-47 0 -115.5 25t-103.5 25zM726 0l-57 116h-402l-57 -116h-214l362 700h223l362 -700h-217zM338 261h260l-130 266z" />
    <glyph glyph-name="AE.ss01" horiz-adv-x="1448" 
d="M861 156h545v-156h-746v122h-346l-100 -122h-231l598 700h98h717v-156h-535v-141h441v-148h-441v-99zM428 261h232v281z" />
    <glyph glyph-name="AEacute.ss01" horiz-adv-x="1448" 
d="M1191 948l-238 -168h-144l137 168h245zM861 156h545v-156h-746v122h-346l-100 -122h-231l598 700h98h717v-156h-535v-141h441v-148h-441v-99zM428 261h232v281z" />
    <glyph glyph-name="E.ss01" horiz-adv-x="870" 
d="M283 156h546v-156h-747v700h736v-156h-535v-141h441v-148h-441v-99z" />
    <glyph glyph-name="Eacute.ss01" horiz-adv-x="870" 
d="M713 948l-237 -168h-145l137 168h245zM283 156h546v-156h-747v700h736v-156h-535v-141h441v-148h-441v-99z" />
    <glyph glyph-name="Ebreve.ss01" horiz-adv-x="870" 
d="M648 948q0 -27 -10.5 -55.5t-32.5 -56.5t-63 -46t-95 -18t-95.5 18t-63.5 46t-32.5 56.5t-10.5 55.5h119q3 -29 25 -49.5t58 -20.5t58 20.5t25 49.5h118zM283 156h546v-156h-747v700h736v-156h-535v-141h441v-148h-441v-99z" />
    <glyph glyph-name="Ecaron.ss01" horiz-adv-x="870" 
d="M193 948l151 -168h206l150 168h-172l-81 -89l-81 89h-173zM283 156h546v-156h-747v700h736v-156h-535v-141h441v-148h-441v-99z" />
    <glyph glyph-name="Ecircumflex.ss01" horiz-adv-x="870" 
d="M193 780h173l79 89l82 -89h173l-150 168h-206zM283 156h546v-156h-747v700h736v-156h-535v-141h441v-148h-441v-99z" />
    <glyph glyph-name="Edieresis.ss01" horiz-adv-x="870" 
d="M306 779q-42 0 -68 22t-26 58t26 57.5t68 21.5q41 0 67.5 -21.5t26.5 -57.5t-26.5 -58t-67.5 -22zM588 779q-42 0 -68.5 22t-26.5 58t26.5 57.5t68.5 21.5q41 0 67.5 -21.5t26.5 -57.5t-26.5 -58t-67.5 -22zM283 156h546v-156h-747v700h736v-156h-535v-141h441v-148h-441
v-99z" />
    <glyph glyph-name="Edotaccent.ss01" horiz-adv-x="870" 
d="M446 779q-41 0 -66.5 21t-25.5 56q0 36 25.5 57t66.5 21q42 0 67 -21t25 -57q0 -35 -25.5 -56t-66.5 -21zM283 156h546v-156h-747v700h736v-156h-535v-141h441v-148h-441v-99z" />
    <glyph glyph-name="Egrave.ss01" horiz-adv-x="870" 
d="M180 948h245l137 -168h-145zM283 156h546v-156h-747v700h736v-156h-535v-141h441v-148h-441v-99z" />
    <glyph glyph-name="Emacron.ss01" horiz-adv-x="870" 
d="M214 927h465v-133h-465v133zM283 156h546v-156h-747v700h736v-156h-535v-141h441v-148h-441v-99z" />
    <glyph glyph-name="Eogonek.ss01" horiz-adv-x="870" 
d="M851 -152l32 -40q-45 -61 -141 -61q-66 0 -113 31t-47 88q0 44 29.5 80.5t85.5 53.5h-615v700h736v-156h-535v-141h441v-148h-441v-99h546v-156h-1q-45 -17 -78.5 -50.5t-33.5 -70.5q0 -26 19 -42t48 -16q41 0 68 27z" />
    <glyph glyph-name="F.ss01" horiz-adv-x="839" 
d="M815 539h-529v-159h442v-159h-442v-221h-204v700h733v-161z" />
    <glyph glyph-name="G.ss01" horiz-adv-x="955" 
d="M907 381v-245q-58 -75 -160.5 -117t-239.5 -42q-217 0 -341 98t-124 275t124 275t341 98q121 0 215.5 -36t155.5 -93l-149 -110q-87 78 -217 78q-127 0 -195 -54.5t-68 -157.5t69 -158t197 -55q135 0 203 62v41h-232v141h421z" />
    <glyph glyph-name="Gbreve.ss01" horiz-adv-x="955" 
d="M703 949q0 -27 -10.5 -55.5t-32.5 -56.5t-63 -46t-95 -18t-95.5 18t-63.5 46t-32.5 56.5t-10.5 55.5h119q2 -28 24.5 -49t58.5 -21t58 20.5t25 49.5h118zM907 381v-245q-58 -75 -160.5 -117t-239.5 -42q-217 0 -341 98t-124 275t124 275t341 98q121 0 215.5 -36
t155.5 -93l-149 -110q-87 78 -217 78q-127 0 -195 -54.5t-68 -157.5t69 -158t197 -55q135 0 203 62v41h-232v141h421z" />
    <glyph glyph-name="Gcircumflex.ss01" horiz-adv-x="955" 
d="M248 781h173l79 89l82 -89h173l-150 168h-206zM907 381v-245q-58 -75 -160.5 -117t-239.5 -42q-217 0 -341 98t-124 275t124 275t341 98q121 0 215.5 -36t155.5 -93l-149 -110q-87 78 -217 78q-127 0 -195 -54.5t-68 -157.5t69 -158t197 -55q135 0 203 62v41h-232v141
h421z" />
    <glyph glyph-name="Gcommaaccent.ss01" horiz-adv-x="955" 
d="M907 381v-245q-58 -75 -160.5 -117t-239.5 -42q-217 0 -341 98t-124 275t124 275t341 98q121 0 215.5 -36t155.5 -93l-149 -110q-87 78 -217 78q-127 0 -195 -54.5t-68 -157.5t69 -158t197 -55q135 0 203 62v41h-232v141h421zM502 -52q54 0 87 -36.5t33 -89.5
q0 -61 -40 -129.5t-115 -112.5l-40 55q79 60 97 121q-8 -8 -28 -8q-44 0 -75 28.5t-31 71.5q0 42 32 71t80 29z" />
    <glyph glyph-name="Gdotaccent.ss01" horiz-adv-x="955" 
d="M501 780q-41 0 -66.5 21t-25.5 56q0 36 25.5 57t66.5 21q42 0 67 -21t25 -57q0 -35 -25.5 -56t-66.5 -21zM907 381v-245q-58 -75 -160.5 -117t-239.5 -42q-217 0 -341 98t-124 275t124 275t341 98q121 0 215.5 -36t155.5 -93l-149 -110q-87 78 -217 78q-127 0 -195 -54.5
t-68 -157.5t69 -158t197 -55q135 0 203 62v41h-232v141h421z" />
    <glyph glyph-name="H.ss01" horiz-adv-x="992" 
d="M706 700h204v-700h-204v243h-420v-243h-204v700h204v-290h420v290z" />
    <glyph glyph-name="Hbar.ss01" horiz-adv-x="1067" 
d="M1051 577v-75h-104v-502h-204v243h-419v-243h-204v502h-103v75h103v123h204v-123h419v123h204v-123h104zM743 410v92h-419v-92h419z" />
    <glyph glyph-name="Hcircumflex.ss01" horiz-adv-x="992" 
d="M243 781h172l80 89l81 -89h173l-150 168h-206zM706 700h204v-700h-204v243h-420v-243h-204v700h204v-290h420v290z" />
    <glyph glyph-name="OE.ss01" horiz-adv-x="1457" 
d="M871 156h545v-156h-746h-189q-204 0 -321.5 93t-117.5 257t117.5 257t321.5 93h389h536v-156h-535v-141h441v-148h-441v-99zM670 159v382h-171q-115 0 -182 -49.5t-67 -141.5t67 -141.5t182 -49.5h171z" />
    <glyph glyph-name="P.ss01" horiz-adv-x="911" 
d="M560 700q149 0 237.5 -72t88.5 -193q0 -122 -88 -193.5t-238 -71.5h-274v-170h-204v700h478zM544 318q61 0 98 29.5t37 83.5q0 55 -37 84.5t-98 29.5h-258v-227h258z" />
    <glyph glyph-name="Thorn.ss01" horiz-adv-x="911" 
d="M563 617q146 0 234.5 -70t88.5 -189q0 -122 -88.5 -193t-234.5 -71h-277v-94h-204v700h204v-83h277zM548 245q60 0 95.5 29t35.5 82t-35.5 82t-95.5 29h-262v-222h262z" />
    <glyph glyph-name="Q.ss01" horiz-adv-x="997" 
d="M955 350q0 -161 -104 -257.5t-285 -112.5v-116h-135v116q-181 16 -285 112.5t-104 257.5q0 176 123 274.5t333 98.5t333.5 -98.5t123.5 -274.5zM566 149q86 14 133.5 66t47.5 135q0 98 -66.5 152.5t-182.5 54.5t-182.5 -54.5t-66.5 -152.5q0 -82 48 -134.5t134 -67.5v122
h135v-121z" />
    <glyph glyph-name="R.ss01" horiz-adv-x="940" 
d="M913 0h-237l-151 181h-240v-181h-203v700h483q143 0 234.5 -70.5t91.5 -188.5q0 -79 -43 -138t-118 -91zM284 329h267q60 0 96.5 28t36.5 80t-36.5 80t-96.5 28h-267v-216z" />
    <glyph glyph-name="Racute.ss01" horiz-adv-x="940" 
d="M710 948l-237 -168h-145l137 168h245zM913 0h-237l-151 181h-240v-181h-203v700h483q143 0 234.5 -70.5t91.5 -188.5q0 -79 -43 -138t-118 -91zM284 329h267q60 0 96.5 28t36.5 80t-36.5 80t-96.5 28h-267v-216z" />
    <glyph glyph-name="Rcaron.ss01" horiz-adv-x="940" 
d="M547 780h-206l-150 168h173l81 -89l80 89h172zM913 0h-237l-151 181h-240v-181h-203v700h483q143 0 234.5 -70.5t91.5 -188.5q0 -79 -43 -138t-118 -91zM284 329h267q60 0 96.5 28t36.5 80t-36.5 80t-96.5 28h-267v-216z" />
    <glyph glyph-name="Rcommaaccent.ss01" horiz-adv-x="940" 
d="M730 212l183 -212h-237l-151 181h-240v-181h-203v700h483q143 0 234.5 -70.5t91.5 -188.5q0 -79 -43 -138t-118 -91zM284 329h267q60 0 96.5 28t36.5 80t-36.5 80t-96.5 28h-267v-216zM463 -52q54 0 87 -36.5t33 -89.5q0 -61 -40 -129.5t-115 -112.5l-40 55q79 60 97 121
q-8 -8 -28 -8q-44 0 -75 28.5t-31 71.5q0 42 32 71t80 29z" />
    <glyph glyph-name="a.sc.ss01" horiz-adv-x="872" 
d="M662 0l-48 94h-358l-48 -94h-209l331 614h213l330 -614h-211zM324 227h222l-111 219z" />
    <glyph glyph-name="aacute.sc.ss01" horiz-adv-x="872" 
d="M703 862l-238 -168h-144l137 168h245zM662 0l-48 94h-358l-48 -94h-209l331 614h213l330 -614h-211zM324 227h222l-111 219z" />
    <glyph glyph-name="abreve.sc.ss01" horiz-adv-x="872" 
d="M437 686q-54 0 -95.5 18t-63.5 46t-32.5 56.5t-10.5 55.5h119q2 -29 24 -49.5t59 -20.5q36 0 58 20.5t24 49.5h119q0 -27 -10.5 -55.5t-32.5 -56.5t-63 -46t-95 -18zM662 0l-48 94h-358l-48 -94h-209l331 614h213l330 -614h-211zM324 227h222l-111 219z" />
    <glyph glyph-name="acircumflex.sc.ss01" horiz-adv-x="872" 
d="M435 783l-80 -89h-172l151 168h205l151 -168h-174zM662 0l-48 94h-358l-48 -94h-209l331 614h213l330 -614h-211zM324 227h222l-111 219z" />
    <glyph glyph-name="adieresis.sc.ss01" horiz-adv-x="872" 
d="M296 693q-42 0 -68 22t-26 58t26 57.5t68 21.5q41 0 67.5 -21.5t26.5 -57.5t-26.5 -58t-67.5 -22zM577 693q-41 0 -67.5 22t-26.5 58t26 57.5t68 21.5q41 0 67.5 -21.5t26.5 -57.5t-26.5 -58t-67.5 -22zM662 0l-48 94h-358l-48 -94h-209l331 614h213l330 -614h-211z
M324 227h222l-111 219z" />
    <glyph glyph-name="agrave.sc.ss01" horiz-adv-x="872" 
d="M552 694h-145l-237 168h245zM662 0l-48 94h-358l-48 -94h-209l331 614h213l330 -614h-211zM324 227h222l-111 219z" />
    <glyph glyph-name="amacron.sc.ss01" horiz-adv-x="872" 
d="M669 841v-132h-465v132h465zM662 0l-48 94h-358l-48 -94h-209l331 614h213l330 -614h-211zM324 227h222l-111 219z" />
    <glyph glyph-name="aogonek.sc.ss01" horiz-adv-x="872" 
d="M896 -152l32 -40q-45 -61 -141 -61q-66 0 -113 31t-47 88q0 44 29.5 80.5t85.5 53.5h-80l-48 94h-358l-48 -94h-209l331 614h213l330 -614q-45 -17 -78.5 -50.5t-33.5 -70.5q0 -26 19 -42t48 -16q39 0 68 27zM324 227h222l-111 219z" />
    <glyph glyph-name="aring.sc.ss01" horiz-adv-x="872" 
d="M436 683q-74 0 -118 31.5t-44 89.5q0 57 44 89.5t118 32.5t118.5 -32.5t44.5 -89.5q0 -58 -44.5 -89.5t-118.5 -31.5zM436 854q-25 0 -39.5 -13.5t-14.5 -36.5q0 -24 14.5 -37.5t39.5 -13.5t40 13.5t15 37.5q0 23 -15 36.5t-40 13.5zM662 0l-48 94h-358l-48 -94h-209
l331 614h213l330 -614h-211zM324 227h222l-111 219z" />
    <glyph glyph-name="aringacute.sc.ss01" horiz-adv-x="872" 
d="M436 683q-74 0 -118 31.5t-44 89.5q0 47 31 78l94 127h190l-111 -86q56 -8 88.5 -39.5t32.5 -79.5q0 -58 -44.5 -89.5t-118.5 -31.5zM491 804q0 23 -15 36.5t-40 13.5t-39.5 -13.5t-14.5 -36.5q0 -24 14.5 -37.5t39.5 -13.5t40 13.5t15 37.5zM662 0l-48 94h-358l-48 -94
h-209l331 614h213l330 -614h-211zM324 227h222l-111 219z" />
    <glyph glyph-name="atilde.sc.ss01" horiz-adv-x="872" 
d="M335 737q-53 0 -102 -44l-78 120q27 31 70.5 51t94.5 20q47 0 114 -25t104 -25q59 0 100 44l80 -121q-63 -70 -164 -70q-48 0 -116 25t-103 25zM662 0l-48 94h-358l-48 -94h-209l331 614h213l330 -614h-211zM324 227h222l-111 219z" />
    <glyph glyph-name="ae.sc.ss01" horiz-adv-x="1339" 
d="M802 150h493v-150h-689v112h-304l-95 -112h-222l544 614h96h660v-148h-483v-99h396v-141h-396v-76zM418 246h188v220z" />
    <glyph glyph-name="aeacute.sc.ss01" horiz-adv-x="1339" 
d="M1111 862l-237 -168h-145l137 168h245zM802 150h493v-150h-689v115h-301l-98 -115h-222l544 614h96h660v-148h-483v-85h396v-140h-396v-91zM421 250h185v216z" />
    <glyph glyph-name="e.sc.ss01" horiz-adv-x="811" 
d="M274 149h494v-149h-689v614h679v-148h-484v-100h394v-140h-394v-77z" />
    <glyph glyph-name="eacute.sc.ss01" horiz-adv-x="811" 
d="M682 862l-237 -168h-145l137 168h245zM274 149h494v-149h-689v614h679v-148h-484v-100h394v-140h-394v-77z" />
    <glyph glyph-name="ebreve.sc.ss01" horiz-adv-x="811" 
d="M617 862q0 -27 -10.5 -55.5t-32.5 -56.5t-63 -46t-95 -18t-95.5 18t-63.5 46t-32.5 56.5t-10.5 55.5h119q2 -29 24 -49.5t59 -20.5q36 0 58 20.5t25 49.5h118zM274 149h494v-149h-689v614h679v-148h-484v-100h394v-140h-394v-77z" />
    <glyph glyph-name="ecaron.sc.ss01" horiz-adv-x="811" 
d="M162 862l151 -168h205l151 168h-172l-81 -89l-81 89h-173zM274 149h494v-149h-689v614h679v-148h-484v-100h394v-140h-394v-77z" />
    <glyph glyph-name="ecircumflex.sc.ss01" horiz-adv-x="811" 
d="M162 694h172l80 89l81 -89h174l-151 168h-205zM274 149h494v-149h-689v614h679v-148h-484v-100h394v-140h-394v-77z" />
    <glyph glyph-name="edieresis.sc.ss01" horiz-adv-x="811" 
d="M275 693q-41 0 -67.5 22t-26.5 58t26 57.5t68 21.5q41 0 67.5 -21.5t26.5 -57.5t-26.5 -58t-67.5 -22zM556 693q-42 0 -68 22t-26 58t26 57.5t68 21.5q41 0 67.5 -21.5t26.5 -57.5t-26.5 -58t-67.5 -22zM274 149h494v-149h-689v614h679v-148h-484v-100h394v-140h-394v-77
z" />
    <glyph glyph-name="edotaccent.sc.ss01" horiz-adv-x="811" 
d="M415 693q-41 0 -66.5 21t-25.5 56q0 36 25.5 57t66.5 21t66.5 -21t25.5 -57q0 -35 -25.5 -56t-66.5 -21zM274 149h494v-149h-689v614h679v-148h-484v-100h394v-140h-394v-77z" />
    <glyph glyph-name="egrave.sc.ss01" horiz-adv-x="811" 
d="M149 862h245l137 -168h-145zM274 149h494v-149h-689v614h679v-148h-484v-100h394v-140h-394v-77z" />
    <glyph glyph-name="emacron.sc.ss01" horiz-adv-x="811" 
d="M183 841h465v-132h-465v132zM274 149h494v-149h-689v614h679v-148h-484v-100h394v-140h-394v-77z" />
    <glyph glyph-name="eogonek.sc.ss01" horiz-adv-x="811" 
d="M789 -152l33 -40q-45 -61 -142 -61q-65 0 -112 31t-47 88q0 44 29.5 80.5t85.5 53.5h-557v614h679v-148h-484v-100h394v-140h-394v-77h494v-149h-2q-45 -17 -78 -50.5t-33 -70.5q0 -27 18.5 -42.5t48.5 -15.5q40 0 67 27z" />
    <glyph glyph-name="f.sc.ss01" horiz-adv-x="780" 
d="M755 461h-478v-130h392v-151h-392v-180h-198v614h676v-153z" />
    <glyph glyph-name="fi.sc.ss01" horiz-adv-x="1136" 
d="M755 461h-478v-130h392v-151h-392v-180h-198v614h676v-153zM1057 0h-198v614h198v-614z" />
    <glyph glyph-name="fl.sc.ss01" horiz-adv-x="1504" 
d="M755 461h-478v-130h392v-151h-392v-180h-198v614h676v-153zM1057 156h425v-156h-623v614h198v-458z" />
    <glyph glyph-name="g.sc.ss01" horiz-adv-x="884" 
d="M837 336v-228q-53 -60 -148.5 -94.5t-218.5 -34.5q-200 0 -314.5 86t-114.5 242t114.5 242.5t313.5 86.5q213 0 344 -109l-145 -107q-78 61 -191 61q-115 0 -174.5 -45t-59.5 -129t60.5 -130t173.5 -46q119 0 175 47v30h-202v128h387z" />
    <glyph glyph-name="gbreve.sc.ss01" horiz-adv-x="884" 
d="M666 863q0 -27 -10.5 -55.5t-32.5 -56.5t-63 -46t-95 -18t-95.5 18t-63 46t-32 56.5t-10.5 55.5h118q3 -29 25 -49.5t58 -20.5t58 20.5t25 49.5h118zM837 336v-228q-53 -60 -148.5 -94.5t-218.5 -34.5q-200 0 -314.5 86t-114.5 242t114.5 242.5t313.5 86.5
q213 0 344 -109l-145 -107q-78 61 -191 61q-115 0 -174.5 -45t-59.5 -129t60.5 -130t173.5 -46q119 0 175 47v30h-202v128h387z" />
    <glyph glyph-name="gcircumflex.sc.ss01" horiz-adv-x="884" 
d="M211 695h173l80 89l81 -89h173l-150 168h-206zM837 336v-228q-53 -60 -148.5 -94.5t-218.5 -34.5q-200 0 -314.5 86t-114.5 242t114.5 242.5t313.5 86.5q213 0 344 -109l-145 -107q-78 61 -191 61q-115 0 -174.5 -45t-59.5 -129t60.5 -130t173.5 -46q119 0 175 47v30
h-202v128h387z" />
    <glyph glyph-name="gcommaaccent.sc.ss01" horiz-adv-x="884" 
d="M837 336v-228q-53 -60 -148.5 -94.5t-218.5 -34.5q-200 0 -314.5 86t-114.5 242t114.5 242.5t313.5 86.5q213 0 344 -109l-145 -107q-78 61 -191 61q-115 0 -174.5 -45t-59.5 -129t60.5 -130t173.5 -46q119 0 175 47v30h-202v128h387zM465 -52q54 0 87 -36.5t33 -89.5
q0 -61 -40 -129.5t-115 -112.5l-40 55q79 60 97 121q-8 -8 -28 -8q-44 0 -75 28.5t-31 71.5q0 42 32 71t80 29z" />
    <glyph glyph-name="gdotaccent.sc.ss01" horiz-adv-x="884" 
d="M465 694q-42 0 -67.5 21t-25.5 56q0 36 25.5 57t67.5 21q41 0 66 -21t25 -57q0 -35 -25 -56t-66 -21zM837 336v-228q-53 -60 -148.5 -94.5t-218.5 -34.5q-200 0 -314.5 86t-114.5 242t114.5 242.5t313.5 86.5q213 0 344 -109l-145 -107q-78 61 -191 61q-115 0 -174.5 -45
t-59.5 -129t60.5 -130t173.5 -46q119 0 175 47v30h-202v128h387z" />
    <glyph glyph-name="h.sc.ss01" horiz-adv-x="921" 
d="M644 614h199v-614h-199v204h-367v-204h-198v614h198v-248h367v248z" />
    <glyph glyph-name="hbar.sc.ss01" horiz-adv-x="991" 
d="M970 525v-73h-93v-452h-198v204h-368v-204h-198v452h-93v73h93v89h198v-89h368v89h198v-89h93zM679 366v86h-368v-86h368z" />
    <glyph glyph-name="hcircumflex.sc.ss01" horiz-adv-x="921" 
d="M208 695h172l80 89l81 -89h174l-151 168h-206zM644 614h199v-614h-199v204h-367v-204h-198v614h198v-248h367v248z" />
    <glyph glyph-name="oe.sc.ss01" horiz-adv-x="1344" 
d="M807 149h494v-149h-689h-167q-188 0 -296 81.5t-108 225.5q0 145 108 226t296 81h360h486v-148h-484v-100h394v-140h-394v-77zM612 153v308h-150q-101 0 -159.5 -40t-58.5 -114q0 -73 58.5 -113.5t159.5 -40.5h150z" />
    <glyph glyph-name="p.sc.ss01" horiz-adv-x="847" 
d="M525 614q133 0 214 -62.5t81 -170.5q0 -109 -80.5 -172t-214.5 -63h-248v-146h-198v614h446zM509 288q50 0 80.5 23t30.5 66q0 42 -30.5 65t-80.5 23h-233v-177h233z" />
    <glyph glyph-name="thorn.sc.ss01" horiz-adv-x="847" 
d="M522 542q134 0 216 -60.5t82 -167.5q0 -109 -81.5 -170.5t-216.5 -61.5h-245v-82h-198v614h198v-72h245zM505 227q54 0 84.5 22t30.5 63q0 42 -30.5 63.5t-84.5 21.5h-229v-170h229z" />
    <glyph glyph-name="q.sc.ss01" horiz-adv-x="917" 
d="M875 307q0 -141 -94 -226.5t-259 -99.5v-97h-129v97q-165 15 -258.5 100.5t-93.5 225.5q0 155 112.5 242t305.5 87q192 0 304 -87t112 -242zM522 141q72 13 112 56.5t40 109.5q0 81 -58 126.5t-158 45.5q-101 0 -158.5 -45.5t-57.5 -126.5q0 -66 39.5 -109t111.5 -57v109
h129v-109z" />
    <glyph glyph-name="r.sc.ss01" horiz-adv-x="875" 
d="M845 0h-231l-135 158h-203v-158h-197v614h452q127 0 210.5 -61.5t83.5 -164.5q0 -71 -38.5 -123t-106.5 -80zM274 300h240q50 0 80.5 21.5t30.5 61.5t-30.5 61.5t-80.5 21.5h-240v-166z" />
    <glyph glyph-name="racute.sc.ss01" horiz-adv-x="875" 
d="M679 862l-237 -168h-145l137 168h245zM845 0h-231l-135 158h-203v-158h-197v614h452q127 0 210.5 -61.5t83.5 -164.5q0 -71 -38.5 -123t-106.5 -80zM274 300h240q50 0 80.5 21.5t30.5 61.5t-30.5 61.5t-80.5 21.5h-240v-166z" />
    <glyph glyph-name="rcaron.sc.ss01" horiz-adv-x="875" 
d="M516 694h-206l-151 168h173l81 -89l81 89h172zM845 0h-231l-135 158h-203v-158h-197v614h452q127 0 210.5 -61.5t83.5 -164.5q0 -71 -38.5 -123t-106.5 -80zM274 300h240q50 0 80.5 21.5t30.5 61.5t-30.5 61.5t-80.5 21.5h-240v-166z" />
    <glyph glyph-name="rcommaaccent.sc.ss01" horiz-adv-x="875" 
d="M680 185l165 -185h-231l-135 158h-203v-158h-197v614h452q127 0 210.5 -61.5t83.5 -164.5q0 -71 -38.5 -123t-106.5 -80zM274 300h240q50 0 80.5 21.5t30.5 61.5t-30.5 61.5t-80.5 21.5h-240v-166zM430 -52q54 0 87 -36.5t33 -89.5q0 -61 -40 -129.5t-115 -112.5l-40 55
q79 60 97 121q-8 -8 -28 -8q-44 0 -75 28.5t-31 71.5q0 42 32 71t80 29z" />
    <glyph glyph-name="uni20A8.ss01" horiz-adv-x="887" 
d="M847 586h-159q28 -37 40 -84h119v-114h-120q-29 -120 -159 -171l188 -217h-205l-159 189h-334v115h338q125 0 157 84h-495v114h495q-34 84 -157 84h-338v114h789v-114z" />
    <glyph glyph-name="registered.ss01" horiz-adv-x="577" 
d="M288 710q102 0 174 -58.5t72 -156.5t-72 -156.5t-174 -58.5t-173 58.5t-71 156.5t71 156.5t173 58.5zM289 312q89 0 149 49t60 134q0 86 -60 134.5t-149 48.5q-90 0 -149.5 -48.5t-59.5 -134.5q0 -85 60 -134t149 -49zM422 528q0 -50 -50 -72l56 -65h-80l-46 55h-63v-55
h-71v220h152q45 0 73.5 -22.5t28.5 -60.5zM239 561v-69h70q40 0 40 35q0 34 -40 34h-70z" />
    <glyph glyph-name="uni2117.ss01" horiz-adv-x="989" 
d="M495 723q205 0 328.5 -102.5t123.5 -270.5t-123.5 -270.5t-328.5 -102.5q-206 0 -329.5 102.5t-123.5 270.5t123.5 270.5t329.5 102.5zM495 25q180 0 290 86t110 239t-110 239.5t-290 86.5t-291 -86.5t-111 -239.5t111 -239t291 -86zM576 593q103 0 169 -48t66 -133
t-66 -133.5t-169 -48.5h-172v-122h-156v485h328zM561 332q42 0 67 20t25 57t-25 56.5t-67 19.5h-157v-153h157z" />
    <glyph glyph-name="registered.case.ss01" horiz-adv-x="989" 
d="M495 723q205 0 328.5 -102.5t123.5 -270.5t-123.5 -270.5t-328.5 -102.5q-206 0 -329.5 102.5t-123.5 270.5t123.5 270.5t329.5 102.5zM790 115q105 86 105 235q0 153 -110 239.5t-290 86.5t-291 -86.5t-111 -239.5t111 -239t291 -86q178 0 287 83h-158l-93 126h-145
v-126h-156v485h328q101 0 168 -47.5t67 -131.5q0 -114 -118 -159zM386 335h160q40 0 64.5 20t24.5 55t-24.5 55t-64.5 20h-160v-150z" />
    <glyph glyph-name="uni2117.sc.001" horiz-adv-x="915" 
d="M457 -20q-188 0 -302 90t-114 237q0 148 114 238t302 90q189 0 303 -89.5t114 -238.5q0 -147 -114 -237t-303 -90zM457 24q165 0 267 75.5t102 207.5q0 133 -102 208t-267 75t-266.5 -75t-101.5 -208q0 -132 101.5 -207.5t266.5 -75.5zM530 521q94 0 156 -43.5t62 -119.5
t-62 -119.5t-156 -43.5h-150v-101h-151v427h301zM517 297q36 0 57 15t21 44t-21 44t-57 15h-137v-118h137z" />
    <glyph glyph-name="registered.sc.ss01" horiz-adv-x="915" 
d="M457 636q189 0 303 -90t114 -239q0 -147 -114.5 -237.5t-302.5 -90.5t-302 90.5t-114 237.5q0 149 114 239t302 90zM731 105q95 76 95 202q0 133 -102 208.5t-267 75.5t-266.5 -75.5t-101.5 -208.5q0 -132 101.5 -207.5t266.5 -75.5q161 0 260 70h-144l-79 105h-129v-105
h-152v427h303q93 0 155 -42.5t62 -118.5q0 -98 -101 -139zM365 301h141q34 0 54 15.5t20 41.5t-20 41.5t-54 15.5h-141v-114z" />
    <glyph glyph-name="uni20A8.sc.ss01" horiz-adv-x="821" 
d="M781 500h-141q20 -27 31 -65h110v-114h-110q-27 -97 -131 -146l158 -175h-201l-124 143h-316v114h309q101 0 134 64h-443v114h443q-31 65 -134 65h-309v114h724v-114z" />
    </font>
</defs>
</svg>
